<?xml version="1.0" encoding="UTF-8"?>
<svg id="_圖層_1" data-name="圖層 1" xmlns="http://www.w3.org/2000/svg" viewBox="0 0 103.91 21.42">
  <defs>
    <style>
      .cls-1 {
        fill: #ffa600;
      }
    </style>
  </defs>
  <path class="cls-1" d="M14.68,13.52h3.7s0,3.11,0,3.11h-4.07s-.58,4.54-.58,4.54h-3.21s.58-4.56,.58-4.56H6.91s-.58,4.54-.58,4.54H3.15s.58-4.56,.58-4.56H0S0,13.5,0,13.5H4.1s.61-4.6,.61-4.6H.98s0-3.11,0-3.11H5.08s.58-4.54,.58-4.54h3.19s-.58,4.56-.58,4.56h4.18s.58-4.54,.58-4.54h3.19s-.58,4.56-.58,4.56h3.7s.02,3.11,.02,3.11h-4.1s-.58,4.6-.58,4.6Zm-3.21,0l.61-4.61H7.89s-.61,4.6-.61,4.6h4.18Z"/>
  <path class="cls-1" d="M55.13,.45h-3.62s-8.41,20.42-8.41,20.42h4.74s1.63-3.96,1.63-3.96h7.76s1.65,3.98,1.65,3.98h4.76S55.13,.45,55.13,.45Zm.46,12.56h-4.53s2.25-5.49,2.25-5.49l2.28,5.49Z"/>
  <path class="cls-1" d="M39.09,13.9l-.69-.4c-.98,1.91-2.93,3.21-5.16,3.21-3.22,0-5.83-2.72-5.83-6.07,0-3.35,2.62-6.05,5.85-6.05,2.24,0,4.18,1.31,5.15,3.22l.69-.39,3.19-1.84C40.55,2.27,37.16,0,33.26,0c-5.67,0-10.28,4.75-10.29,10.64-.01,5.88,4.58,10.66,10.25,10.67,3.9,0,7.3-2.25,9.04-5.56l-3.18-1.85Z"/>
  <path class="cls-1" d="M93.67,.11c-5.67,0-10.28,4.75-10.29,10.64,0,5.88,4.58,10.66,10.25,10.67,5.67,0,10.28-4.75,10.29-10.64,.01-5.88-4.58-10.66-10.25-10.67m-.03,16.71c-3.22,0-5.83-2.72-5.83-6.07,0-3.35,2.62-6.05,5.85-6.05,3.22,0,5.83,2.72,5.83,6.07,0,3.35-2.62,6.05-5.85,6.05"/>
  <path class="cls-1" d="M78.96,13.97l-.69-.4c-.98,1.91-2.93,3.21-5.16,3.21-3.22,0-5.84-2.72-5.83-6.07,0-3.35,2.63-6.05,5.85-6.05,2.24,0,4.17,1.31,5.15,3.22l.69-.39,3.19-1.84c-1.74-3.32-5.12-5.59-9.02-5.59-5.67,0-10.28,4.75-10.29,10.64,0,5.88,4.58,10.66,10.25,10.67,3.9,0,7.29-2.25,9.04-5.56l-3.18-1.85Z"/>
</svg>