<?xml version="1.0" standalone="no"?>
<!DOCTYPE svg PUBLIC "-//W3C//DTD SVG 20010904//EN"
 "http://www.w3.org/TR/2001/REC-SVG-20010904/DTD/svg10.dtd">
<svg version="1.0" xmlns="http://www.w3.org/2000/svg"
 width="700.000000pt" height="700.000000pt" viewBox="0 0 700.000000 700.000000"
 preserveAspectRatio="xMidYMid meet">
<metadata>
Created by potrace 1.14, written by Peter Selinger 2001-2017
</metadata>
<g transform="translate(0.000000,700.000000) scale(0.100000,-0.100000)"
fill="#000000" stroke="none">
<path d="M2555 4185 c-236 -38 -501 -147 -757 -311 -372 -238 -799 -647 -1052
-1006 l-47 -67 60 -40 59 -41 70 98 c304 423 796 855 1212 1063 269 134 528
194 741 170 157 -18 230 -78 245 -203 9 -74 -6 -153 -67 -355 -81 -271 -79
-388 8 -478 47 -49 92 -67 165 -66 140 0 262 71 415 239 225 247 307 312 393
312 69 0 90 -20 90 -84 0 -30 -9 -97 -20 -149 -10 -53 -22 -125 -26 -161 -12
-119 28 -196 121 -232 79 -30 159 4 305 130 80 69 160 111 195 102 31 -8 38
-25 60 -141 29 -158 76 -213 204 -241 93 -21 241 -17 801 21 212 14 427 28
478 31 l92 6 0 70 0 71 -142 -7 c-79 -3 -305 -18 -503 -32 -404 -28 -685 -35
-727 -17 -34 15 -54 53 -63 123 -4 30 -16 83 -26 117 -51 164 -231 190 -400
56 -20 -15 -71 -56 -113 -90 -82 -67 -117 -78 -136 -42 -13 22 -10 48 22 209
27 140 28 246 2 291 -26 45 -95 96 -147 110 -143 39 -300 -56 -533 -322 -137
-156 -247 -229 -345 -229 -30 0 -43 7 -64 32 -26 31 -27 37 -22 104 4 39 23
125 43 190 81 264 99 381 75 495 -26 122 -114 217 -240 259 -86 29 -294 36
-426 15z"/>
</g>
</svg>
