<svg width="160" height="40" viewBox="0 0 160 40" fill="none" xmlns="http://www.w3.org/2000/svg">
<path d="M80.0241 31.6777C78.7512 31.6777 77.8005 30.6868 77.8005 29.422C77.8005 28.1571 78.7351 27.1501 80.0563 27.1501C80.862 27.1501 81.3534 27.432 81.7723 27.8348L81.2809 28.4068C80.9345 28.0846 80.5558 27.8671 80.0563 27.8671C79.2185 27.8671 78.6142 28.5519 78.6142 29.4139C78.6142 30.2759 79.2185 30.9768 80.0563 30.9768C80.5961 30.9768 80.9425 30.7593 81.3131 30.4048L81.8046 30.9043C81.3453 31.3797 80.8459 31.6777 80.0241 31.6777Z" fill="black"/>
<path d="M83.44 29.7603V31.6052H82.6666V27.2306H83.44V29.0513H85.5266V27.2306H86.3001V31.6052H85.5266V29.7603H83.44Z" fill="black"/>
<path d="M91.1661 29.7119C91.1661 31.0171 90.4249 31.6777 89.2809 31.6777C88.1369 31.6777 87.4199 31.0251 87.4199 29.7522V27.2306H88.1933V29.72C88.1933 30.5337 88.6122 30.9687 89.297 30.9687C89.9818 30.9687 90.4007 30.5578 90.4007 29.7442V27.2225H91.1741V29.7039L91.1661 29.7119Z" fill="black"/>
<path d="M95.3393 27.2225H96.0966V31.5971H95.4521L93.0352 28.4793V31.5971H92.2779V27.2225H92.9949L95.3393 30.2517V27.2225Z" fill="black"/>
<path d="M99.3675 31.6777C97.998 31.6777 97.0956 30.7029 97.0956 29.422C97.0956 28.141 98.0302 27.1501 99.3514 27.1501C100.117 27.1501 100.584 27.3595 101.035 27.7462L100.544 28.3263C100.205 28.0363 99.8751 27.859 99.3192 27.859C98.5136 27.859 97.9013 28.5599 97.9013 29.4058C97.9013 30.3162 98.4975 30.9768 99.3917 30.9768C99.8026 30.9768 100.181 30.8479 100.447 30.6465V29.8248H99.3273V29.1561H101.188V30.993C100.753 31.3635 100.141 31.6777 99.3595 31.6777H99.3675Z" fill="black"/>
<path d="M106.256 31.6052H105.482V29.8811L103.742 27.2306H104.644L105.869 29.1722L107.11 27.2306H107.988L106.248 29.865V31.6133L106.256 31.6052Z" fill="black"/>
<path d="M112.411 29.7119C112.411 31.0171 111.67 31.6777 110.526 31.6777C109.382 31.6777 108.665 31.0251 108.665 29.7522V27.2306H109.43V29.72C109.43 30.5337 109.849 30.9687 110.534 30.9687C111.218 30.9687 111.637 30.5578 111.637 29.7442V27.2225H112.411V29.7039V29.7119Z" fill="black"/>
<path d="M117.664 31.6052H116.85L116.407 30.5499H114.336L113.885 31.6052H113.096L115.021 27.1984H115.738L117.664 31.6052ZM115.367 28.1168L114.618 29.8731H116.125L115.367 28.1168Z" fill="black"/>
<path d="M121.531 27.2225H122.288V31.5971H121.643L119.226 28.4793V31.5971H118.469V27.2225H119.178L121.523 30.2517V27.2225H121.531Z" fill="black"/>
<path d="M127.452 31.6777C126.179 31.6777 125.229 30.6868 125.229 29.422C125.229 28.1571 126.163 27.1501 127.484 27.1501C128.29 27.1501 128.781 27.432 129.2 27.8348L128.709 28.4068C128.354 28.0846 127.984 27.8671 127.484 27.8671C126.646 27.8671 126.042 28.5519 126.042 29.4139C126.042 30.2759 126.646 30.9768 127.484 30.9768C128.024 30.9768 128.371 30.7593 128.741 30.4048L129.233 30.9043C128.773 31.3797 128.274 31.6777 127.452 31.6777Z" fill="black"/>
<path d="M133.776 29.7119C133.776 31.0171 133.035 31.6777 131.891 31.6777C130.747 31.6777 130.022 31.0251 130.022 29.7522V27.2306H130.796V29.72C130.796 30.5337 131.214 30.9687 131.899 30.9687C132.584 30.9687 133.003 30.5578 133.003 29.7442V27.2225H133.776V29.7039V29.7119Z" fill="black"/>
<path d="M134.896 27.2225H135.67V30.8962H137.974V31.5971H134.904V27.2225H134.896Z" fill="black"/>
<path d="M140.149 31.6052H139.376V27.9396H137.99V27.2306H141.543V27.9396H140.157V31.6052H140.149Z" fill="black"/>
<path d="M146.086 29.7119C146.086 31.0171 145.345 31.6777 144.201 31.6777C143.057 31.6777 142.34 31.0251 142.34 29.7522V27.2306H143.106V29.72C143.106 30.5337 143.525 30.9687 144.209 30.9687C144.894 30.9687 145.313 30.5578 145.313 29.7442V27.2225H146.086V29.7039V29.7119Z" fill="black"/>
<path d="M150.018 31.6052L148.938 30.0826H147.972V31.6052H147.198V27.2306H149.148C150.155 27.2306 150.775 27.7623 150.775 28.6163C150.775 29.3414 150.34 29.7845 149.728 29.9537L150.912 31.6133H150.01L150.018 31.6052ZM149.1 27.9315H147.98V29.3978H149.108C149.655 29.3978 150.01 29.1077 150.01 28.6566C150.01 28.1732 149.672 27.9234 149.1 27.9234V27.9315Z" fill="black"/>
<path d="M155.988 31.6052H155.174L154.731 30.5499H152.661L152.209 31.6052H151.42L153.345 27.1984H154.062L155.988 31.6052ZM153.692 28.1168L152.943 29.8731H154.449L153.692 28.1168Z" fill="black"/>
<path d="M156.737 27.2225H157.51V30.8962H159.815V31.5971H156.745V27.2225H156.737Z" fill="black"/>
<path d="M82.1832 39.9274H81.3695L80.9264 38.8721H78.8559L78.4048 39.9274H77.6152L79.5407 35.5206H80.2497L82.1752 39.9274H82.1832ZM79.8871 36.439L79.1379 38.1873H80.6444L79.8871 36.439Z" fill="black"/>
<path d="M86.0584 35.5448H86.8157V39.9275H86.1712L83.7543 36.8097V39.9275H82.9969V35.5448H83.714L86.0584 38.574V35.5448Z" fill="black"/>
<path d="M89.6353 39.9275H87.9999V35.5448H89.6353C91.013 35.5448 91.9636 36.4874 91.9636 37.7281C91.9636 38.9688 91.013 39.9275 89.6353 39.9275ZM89.6353 36.2457H88.7733V39.2266H89.6353C90.5538 39.2266 91.158 38.6062 91.158 37.7442C91.158 36.8822 90.5538 36.2457 89.6353 36.2457Z" fill="black"/>
<path d="M96.9264 40C95.6535 40 94.7029 39.0091 94.7029 37.7442C94.7029 36.4794 95.6374 35.4723 96.9587 35.4723C97.7643 35.4723 98.2557 35.7543 98.6747 36.1571L98.1832 36.7211C97.8368 36.3988 97.4582 36.1732 96.9587 36.1732C96.1208 36.1732 95.5166 36.8661 95.5166 37.7281C95.5166 38.5901 96.1208 39.2911 96.9587 39.2911C97.4984 39.2911 97.8449 39.0735 98.2155 38.719L98.7069 39.2185C98.2477 39.6939 97.7482 39.992 96.9345 39.992L96.9264 40Z" fill="black"/>
<path d="M102.381 39.9275L101.309 38.4048H100.342V39.9275H99.5689V35.5448H101.519C102.526 35.5448 103.146 36.0765 103.146 36.9305C103.146 37.6556 102.711 38.0906 102.099 38.2598L103.283 39.9194H102.373L102.381 39.9275ZM101.462 36.2457H100.342V37.72H101.47C102.018 37.72 102.373 37.43 102.373 36.9869C102.373 36.5035 102.034 36.2538 101.462 36.2538V36.2457Z" fill="black"/>
<path d="M107.4 36.2376H104.918V37.3736H107.118V38.0584H104.918V39.2346H107.424V39.9194H104.145V35.5367H107.392V36.2215L107.4 36.2376Z" fill="black"/>
<path d="M112.604 39.9274H111.79L111.347 38.8721H109.277L108.826 39.9274H108.036L109.962 35.5206H110.679L112.604 39.9274ZM110.308 36.439L109.559 38.1873H111.065L110.308 36.439Z" fill="black"/>
<path d="M114.731 39.9275H113.958V36.2618H112.572V35.5448H116.125V36.2618H114.739V39.9275H114.731Z" fill="black"/>
<path d="M117.809 35.5448V39.9275H117.035V35.5448H117.809Z" fill="black"/>
<path d="M122.151 35.5448H122.981L121.16 39.9516H120.483L118.663 35.5448H119.508L120.83 38.9124L122.143 35.5448H122.151Z" fill="black"/>
<path d="M127.041 36.2376H124.56V37.3736H126.759V38.0584H124.56V39.2346H127.065V39.9194H123.786V35.5367H127.033V36.2215L127.041 36.2376Z" fill="black"/>
<path d="M131.625 38.5176H130.755V39.9275H129.982V35.5448H131.706C132.721 35.5448 133.373 36.1168 133.373 37.0111C133.373 38.002 132.584 38.5176 131.625 38.5176ZM131.649 36.2457H130.755V37.8248H131.649C132.229 37.8248 132.592 37.5025 132.592 37.0352C132.592 36.5116 132.221 36.2457 131.649 36.2457Z" fill="black"/>
<path d="M138.199 39.9274H137.386L136.943 38.8721H134.872L134.421 39.9274H133.631L135.557 35.5206H136.266L138.191 39.9274H138.199ZM135.903 36.439L135.154 38.1873H136.661L135.903 36.439Z" fill="black"/>
<path d="M141.825 39.9275L140.753 38.4048H139.786V39.9275H139.013V35.5448H140.963C141.97 35.5448 142.59 36.0765 142.59 36.9305C142.59 37.6556 142.155 38.0906 141.543 38.2598L142.727 39.9194H141.817L141.825 39.9275ZM140.906 36.2457H139.786V37.72H140.914C141.462 37.72 141.817 37.43 141.817 36.9869C141.817 36.5035 141.478 36.2538 140.906 36.2538V36.2457Z" fill="black"/>
<path d="M147.48 39.9275H146.546L145.047 37.9537L144.362 38.6546V39.9275H143.589V35.5448H144.362V37.7442L146.441 35.5448H147.384L145.563 37.43L147.464 39.9275H147.48Z" fill="black"/>
<path d="M87.1621 20.1732H83.0694V23.2588H82.0946V20.1732H78.0422V15.7341H82.0946V13.6959L83.0694 13.7361V15.7261H87.1621V20.1651V20.1732ZM82.1027 19.3998V16.5156H79.0009V19.3998H82.1027ZM86.2275 16.5156H83.0775V19.3998H86.2275V16.5156Z" fill="black"/>
<path d="M98.7955 19.7945V21.9698C98.7955 22.1873 98.7714 22.3645 98.723 22.4934C98.6747 22.6304 98.5941 22.7351 98.4813 22.8157C98.3766 22.8962 98.2235 22.9526 98.0463 22.9929C97.861 23.0332 97.6354 23.0574 97.3615 23.0815L96.6284 23.146L96.3222 22.4048L97.007 22.3404C97.1843 22.3242 97.3293 22.3081 97.4421 22.284C97.5549 22.2598 97.6435 22.2276 97.6999 22.1792C97.7563 22.1309 97.7966 22.0664 97.8127 21.9859C97.8288 21.9053 97.8449 21.8006 97.8449 21.6797V19.8026H95.0493V16.0725H97.2487C97.3212 15.9033 97.3937 15.7341 97.4582 15.5569C97.5307 15.3796 97.5871 15.2105 97.6515 15.0493H93.8409V17.7321C93.8409 18.433 93.8167 19.0372 93.7603 19.5609C93.7039 20.0846 93.6233 20.5518 93.5025 20.9708C93.3817 21.3978 93.2205 21.7925 93.0191 22.1631C92.8177 22.5337 92.5841 22.9204 92.294 23.3232L91.4401 22.8721C91.7059 22.5095 91.9315 22.1631 92.1249 21.8247C92.3102 21.4864 92.4632 21.1238 92.5841 20.7371C92.7049 20.3504 92.7855 19.9154 92.8419 19.4401C92.8983 18.9647 92.9305 18.4088 92.9305 17.7643V14.3001H102.34V15.0413H97.716L98.57 15.1863C98.5297 15.3152 98.4813 15.4602 98.425 15.6133C98.3686 15.7663 98.3122 15.9194 98.2558 16.0644H101.43V19.7945H98.8036H98.7955ZM96.7653 20.6727C96.6284 20.858 96.4673 21.0594 96.282 21.2527C96.0967 21.4542 95.8952 21.6556 95.6777 21.857C95.4602 22.0584 95.2427 22.2598 95.0171 22.4531C94.7915 22.6465 94.574 22.8237 94.3645 22.9929L93.7603 22.4612C93.9859 22.3001 94.2115 22.1228 94.437 21.9375C94.6626 21.7442 94.8721 21.5589 95.0815 21.3655C95.291 21.1722 95.4763 20.9788 95.6455 20.7855C95.8147 20.5921 95.9597 20.4068 96.0805 20.2376L96.7653 20.6807V20.6727ZM95.9114 16.7089V17.6032H100.584V16.7089H95.9114ZM95.9114 19.142H100.584V18.2477H95.9114V19.142ZM100.157 20.2457C100.31 20.3424 100.495 20.4713 100.705 20.6405C100.914 20.8016 101.132 20.9788 101.366 21.1722C101.591 21.3575 101.817 21.5508 102.026 21.7522C102.244 21.9536 102.429 22.1389 102.59 22.3001L101.97 22.856C101.591 22.429 101.18 22.0262 100.745 21.6475C100.31 21.2689 99.9315 20.9547 99.6092 20.7049L100.157 20.2457Z" fill="black"/>
<path d="M116.52 23.1702C115.48 22.8318 114.546 22.4774 113.724 22.0987C112.894 21.7201 112.153 21.285 111.5 20.8016C110.864 21.2689 110.139 21.6959 109.309 22.0907C108.479 22.4774 107.521 22.856 106.425 23.2185L105.917 22.4129C106.997 22.0907 107.94 21.7603 108.737 21.4059C109.543 21.0594 110.236 20.6727 110.816 20.2618C110.187 19.714 109.664 19.1017 109.229 18.425C108.793 17.7402 108.439 16.9668 108.165 16.0886H106.304V15.3313H111.025C110.985 15.2024 110.936 15.0735 110.888 14.9446C110.84 14.8157 110.791 14.6788 110.743 14.5499C110.695 14.421 110.646 14.3001 110.598 14.1873C110.55 14.0745 110.51 13.9779 110.477 13.8973L111.428 13.7201C111.468 13.8006 111.517 13.9134 111.565 14.0504C111.621 14.1873 111.67 14.3323 111.726 14.4774C111.782 14.6304 111.839 14.7754 111.887 14.9285C111.944 15.0816 111.992 15.2105 112.04 15.3313H116.503V16.0886H114.594C114.344 16.9748 114.022 17.7563 113.635 18.433C113.249 19.1098 112.749 19.714 112.153 20.2618C112.757 20.6808 113.45 21.0594 114.232 21.3978C115.021 21.7362 115.923 22.0504 116.955 22.3404L116.52 23.1783V23.1702ZM109.148 16.0806C109.39 16.854 109.704 17.5307 110.083 18.1269C110.461 18.7231 110.92 19.2548 111.476 19.7301C112.008 19.2467 112.451 18.707 112.789 18.1189C113.128 17.5307 113.41 16.8459 113.619 16.0806H109.156H109.148Z" fill="black"/>
<path d="M124.648 13.8892C124.608 13.9537 124.568 14.0101 124.528 14.0745C124.487 14.1309 124.439 14.1954 124.391 14.2598C124.6 14.3807 124.842 14.5176 125.108 14.6707C125.373 14.8238 125.647 14.9768 125.913 15.138C126.187 15.291 126.445 15.4441 126.687 15.5891C126.928 15.7341 127.138 15.855 127.307 15.9517L126.856 16.5881C126.679 16.4753 126.461 16.3464 126.219 16.1853C125.97 16.0322 125.712 15.8711 125.454 15.71C125.188 15.5488 124.93 15.3796 124.665 15.2185C124.399 15.0574 124.165 14.9124 123.956 14.7754C123.69 15.0816 123.392 15.3796 123.061 15.6536C122.731 15.9355 122.385 16.2014 122.006 16.4592H123.835C123.794 16.3061 123.738 16.145 123.674 15.9839C123.601 15.8227 123.545 15.6938 123.496 15.5972L124.254 15.4844C124.31 15.6052 124.374 15.7583 124.447 15.9436C124.52 16.1289 124.576 16.2981 124.632 16.4592H126.461V19.6495H122.473C122.457 19.7704 122.441 19.8832 122.425 20.004C122.409 20.1168 122.385 20.2296 122.352 20.3343H126.574V22.8479H122.328V20.4471C122.264 20.6888 122.183 20.9063 122.095 21.1158C121.998 21.3253 121.893 21.5267 121.772 21.7281C121.651 21.9295 121.514 22.1228 121.369 22.3162C121.216 22.5096 121.047 22.711 120.862 22.9204L120.121 22.5176C120.403 22.2115 120.644 21.9134 120.854 21.6314C121.055 21.3494 121.216 21.0433 121.345 20.713C121.474 20.3827 121.563 20.0201 121.627 19.6173C121.692 19.2145 121.716 18.7392 121.716 18.1833V16.6606C121.539 16.7815 121.353 16.8942 121.168 16.999C120.983 17.1037 120.797 17.2165 120.612 17.3212L120.274 16.6606C121.039 16.2417 121.724 15.7825 122.336 15.283C122.949 14.7835 123.44 14.2598 123.802 13.6959L124.681 13.865L124.648 13.8892ZM125.623 19.0372V18.3525H122.522V18.8439C122.522 18.9083 122.522 18.9728 122.513 19.0372H125.631H125.623ZM122.522 17.0795V17.7482H125.623V17.0795H122.522ZM123.142 22.2276H125.728V20.9547H123.142V22.2276ZM128.588 20.9305H127.774V14.864L128.588 14.8963V20.9305ZM130.586 13.9778V21.8892C130.586 22.1067 130.562 22.284 130.513 22.4209C130.465 22.5579 130.385 22.6707 130.264 22.7593C130.143 22.8399 129.99 22.9043 129.796 22.9527C129.603 23.001 129.361 23.0332 129.079 23.0654L128.25 23.1379L127.96 22.3484L128.862 22.284C129.039 22.2679 129.192 22.2517 129.305 22.2276C129.426 22.2034 129.514 22.1712 129.579 22.1228C129.643 22.0745 129.692 22.0101 129.724 21.9295C129.748 21.8489 129.764 21.7361 129.764 21.5911V13.9456L130.594 13.9778H130.586Z" fill="black"/>
<path d="M144.894 14.2356V23.2991H144.032V22.7996H136.491V23.2991H135.613V14.2356H144.894ZM144.032 22.0906V14.9446H136.491V22.0906H144.032ZM143.46 19.8912C143.283 20.0282 143.09 20.1651 142.888 20.286C142.687 20.4149 142.477 20.5357 142.268 20.6566C142.501 20.7532 142.727 20.858 142.953 20.9627C143.178 21.0674 143.38 21.1641 143.565 21.2527L143.331 21.8731C143.138 21.7764 142.92 21.6717 142.679 21.5508C142.437 21.438 142.187 21.3172 141.929 21.1963C141.672 21.0755 141.422 20.9627 141.172 20.858C140.922 20.7532 140.681 20.6566 140.463 20.5679V21.7925H139.746V20.1168C139.368 20.4068 138.949 20.6807 138.497 20.9385C138.046 21.1963 137.563 21.4219 137.063 21.6233L136.709 21.0433C137.249 20.858 137.74 20.6405 138.191 20.3907C138.642 20.1329 139.045 19.867 139.416 19.577H137.724V17.9818H142.8V19.577H140.471V20.4874L140.737 20.0685C140.866 20.1087 141.003 20.1571 141.14 20.2054C141.285 20.2537 141.43 20.3101 141.575 20.3665C141.849 20.2296 142.115 20.0765 142.365 19.9154C142.614 19.7543 142.84 19.5931 143.049 19.4239L143.46 19.8832V19.8912ZM143.581 16.9506V17.571H136.959V16.9506H139.827V16.3706H137.362V15.7663H139.827V15.1863L140.657 15.2185V15.7663H143.138V16.3706H140.657V16.9506H143.573H143.581ZM138.457 19.0775H142.034V18.4894H138.457V19.0775Z" fill="black"/>
<path d="M159.863 22.0906V22.8237H150.139V14.2517H159.67V14.9849H150.977V22.0826H159.863V22.0906ZM155.069 18.723V21.2527H152.016V18.723H155.069ZM158.308 15.7341V17.9657H152.701V15.7341H158.308ZM152.757 20.6324H154.336V19.3192H152.757V20.6324ZM153.571 17.3615H157.438V16.3464H153.571V17.3615ZM159.025 18.723V21.2527H155.956V18.723H159.025ZM156.681 20.6324H158.284V19.3192H156.681V20.6324Z" fill="black"/>
<path d="M61.5428 13.9054H53.2125V22.2357H61.5428V13.9054Z" fill="black"/>
<path d="M61.5427 22.7593H44.149V31.0896H61.5427V22.7593Z" fill="black"/>
<path d="M43.424 31.6052H26.0302V39.9355H43.424V31.6052Z" fill="black"/>
<path d="M9.40987 31.6052H7.90332V39.9355H9.40987V31.6052Z" fill="black"/>
<path d="M11.6898 31.6052H10.1833V39.9355H11.6898V31.6052Z" fill="black"/>
<path d="M13.9617 31.6052H12.4552V39.9355H13.9617V31.6052Z" fill="black"/>
<path d="M16.2417 31.6052H14.7351V39.9355H16.2417V31.6052Z" fill="black"/>
<path d="M18.4733 31.6052H16.9667V39.9355H18.4733V31.6052Z" fill="black"/>
<path d="M20.7452 31.6052H19.2386V39.9355H20.7452V31.6052Z" fill="black"/>
<path d="M23.0252 31.6052H21.5186V39.9355H23.0252V31.6052Z" fill="black"/>
<path d="M25.2971 31.6052H23.7905V39.9355H25.2971V31.6052Z" fill="black"/>
<path d="M54.711 31.6052H53.2044V39.9355H54.711V31.6052Z" fill="black"/>
<path d="M56.9909 31.6052H55.4844V39.9355H56.9909V31.6052Z" fill="black"/>
<path d="M59.2628 31.6052H57.7563V39.9355H59.2628V31.6052Z" fill="black"/>
<path d="M61.5428 31.6052H60.0363V39.9355H61.5428V31.6052Z" fill="black"/>
<path d="M18.4733 13.9054H16.9667V22.2357H18.4733V13.9054Z" fill="black"/>
<path d="M20.7452 13.9054H19.2386V22.2357H20.7452V13.9054Z" fill="black"/>
<path d="M23.0252 13.9054H21.5186V22.2357H23.0252V13.9054Z" fill="black"/>
<path d="M25.3051 13.9054H23.7986V22.2357H25.3051V13.9054Z" fill="black"/>
<path d="M18.4733 22.7593H16.9667V31.0896H18.4733V22.7593Z" fill="black"/>
<path d="M20.7452 22.7593H19.2386V31.0896H20.7452V22.7593Z" fill="black"/>
<path d="M23.0252 22.7593H21.5186V31.0896H23.0252V22.7593Z" fill="black"/>
<path d="M25.2971 22.7593H23.7905V31.0896H25.2971V22.7593Z" fill="black"/>
<path d="M27.5368 22.7593H26.0302V31.0896H27.5368V22.7593Z" fill="black"/>
<path d="M29.8087 22.7593H28.3021V31.0896H29.8087V22.7593Z" fill="black"/>
<path d="M32.0886 22.7593H30.5821V31.0896H32.0886V22.7593Z" fill="black"/>
<path d="M34.3606 22.7593H32.854V31.0896H34.3606V22.7593Z" fill="black"/>
<path d="M36.6002 22.7593H35.0856V31.0896H36.6002V22.7593Z" fill="black"/>
<path d="M38.8721 22.7593H37.3655V31.0896H38.8721V22.7593Z" fill="black"/>
<path d="M41.144 22.7593H39.6375V31.0896H41.144V22.7593Z" fill="black"/>
<path d="M43.4159 22.7593H41.9174V31.0896H43.4159V22.7593Z" fill="black"/>
<path d="M36.6002 13.9054H35.0856V22.2357H36.6002V13.9054Z" fill="black"/>
<path d="M38.8721 13.9054H37.3655V22.2357H38.8721V13.9054Z" fill="black"/>
<path d="M41.144 13.9054H39.6375V22.2357H41.144V13.9054Z" fill="black"/>
<path d="M43.4159 13.9054H41.9174V22.2357H43.4159V13.9054Z" fill="black"/>
<path d="M45.6555 13.9054H44.149V22.2357H45.6555V13.9054Z" fill="black"/>
<path d="M47.9274 13.9054H46.4209V22.2357H47.9274V13.9054Z" fill="black"/>
<path d="M50.2075 13.9054H48.7009V22.2357H50.2075V13.9054Z" fill="black"/>
<path d="M52.4793 13.9054H50.9728V22.2357H52.4793V13.9054Z" fill="black"/>
<path d="M7.90332 13.9054V22.2357H16.2336V13.9054H7.90332ZM14.0584 20.0604H10.0866V16.0886H14.0584V20.0604Z" fill="black"/>
<path d="M26.0302 13.9054V22.2357H34.3686V13.9054H26.0302ZM32.1853 20.0604H28.2054V16.0886H32.1853V20.0604Z" fill="black"/>
<path d="M44.149 31.6052V39.9355H52.4793V31.6052H44.149ZM50.296 37.7603H46.3242V33.7885H50.296V37.7603Z" fill="black"/>
<path d="M7.90332 22.7593V31.0896H16.2336V22.7593H7.90332ZM14.0584 28.9144H10.0866V24.9426H14.0584V28.9144Z" fill="black"/>
<path d="M68.5035 14.3565L34.8036 3.92346L1.11178 14.3565L0 10.7794L34.8036 0L69.6153 10.7794L68.5035 14.3565Z" fill="black"/>
</svg>
