<svg xmlns="http://www.w3.org/2000/svg" width="85.66" height="98.62" viewBox="0 0 85.66 98.62">
  <g id="圖層_2" data-name="圖層 2">
    <g id="圖層_2-2" data-name="圖層 2">
      <g>
        <path d="M24.21,28.34v0h0l0,17.13h0v0a8,8,0,0,0,.23,1.87,8.36,8.36,0,0,0,.61,1.72,8.47,8.47,0,0,0,7.58,4.78l8.57,0,8.85,0a8.47,8.47,0,0,0,7.58-4.78,8.36,8.36,0,0,0,.61-1.72,8,8,0,0,0,.23-1.87v0h0l0-20h0V20H32.63a8.45,8.45,0,0,0-8.42,8.38Zm17,31h-.06l-8.54,0A13.87,13.87,0,0,1,20.2,51.45a13.32,13.32,0,0,1-1-2.84,14,14,0,0,1-.36-3.09v0h0l0-17.13h0v-.15h0a13.83,13.83,0,0,1,13.8-13.63H58.46v-.78h0a8.47,8.47,0,0,0-8.4-8.4H15.17a8.45,8.45,0,0,0-8.4,8.4h0V58.34H1.38V13.79h0A13.79,13.79,0,0,1,15.17,0h34.9A13.79,13.79,0,0,1,63.85,13.79h0v.78H70A13.81,13.81,0,0,1,83.75,28.36h0V57.11H78.38V28.36h0A8.47,8.47,0,0,0,70,20h-6.1v5.57h0l0,20h0v0a13.92,13.92,0,0,1-.36,3.09,13.61,13.61,0,0,1-1,2.85,13.88,13.88,0,0,1-12.43,7.8l-8.82,0Z" fill="#87806c"/>
        <path d="M7.43,98.49H6.37l-.7-2a1.79,1.79,0,0,0-.62-.86,1.6,1.6,0,0,0-1-.33H2.24v3.16h-1V91.1H4.54a4.9,4.9,0,0,1,1.4.17,1.59,1.59,0,0,1,.89.7,2.13,2.13,0,0,1,.34,1.2,1.91,1.91,0,0,1-.44,1.28,2,2,0,0,1-1.22.67v0a2,2,0,0,1,1.18,1.34l.74,2Zm-5.19-4H4.43a2.35,2.35,0,0,0,1.32-.28,1.14,1.14,0,0,0,.41-1c0-.84-.53-1.26-1.58-1.26H2.24v2.54Zm13.78,4H15V91.1h1v7.39Zm11.06.13a3.23,3.23,0,0,1-2.5-1,4.61,4.61,0,0,1,0-5.58,3.52,3.52,0,0,1,4.55-.38,2.33,2.33,0,0,1,.95,1.71h-1a1.53,1.53,0,0,0-.61-1.12,2.26,2.26,0,0,0-1.38-.41,2.21,2.21,0,0,0-1.78.78,4.07,4.07,0,0,0,0,4.41,2.44,2.44,0,0,0,3.16.36,1.68,1.68,0,0,0,.61-1.21h1A2.47,2.47,0,0,1,29.16,98a3.27,3.27,0,0,1-2.08.65Zm16.36-.13h-1V95H38.62v3.48h-1V91.1h1v3h3.84v-3h1v7.39Zm13.87-3L56,92l-1.24,3.43Zm2.25,3H58.45l-.86-2.25H54.5l-.82,2.25h-1l2.84-7.39h1l3,7.39Zm13.17,0H71.67l-.69-2a1.86,1.86,0,0,0-.62-.86,1.62,1.62,0,0,0-1-.33H67.55v3.16h-1V91.1h3.27a4.9,4.9,0,0,1,1.4.17,1.56,1.56,0,0,1,.89.7,2.13,2.13,0,0,1,.34,1.2A1.91,1.91,0,0,1,72,94.45a2,2,0,0,1-1.22.67v0A2,2,0,0,1,72,96.48l.74,2Zm-5.18-4h2.18a2.35,2.35,0,0,0,1.32-.28,1.14,1.14,0,0,0,.41-1c0-.84-.52-1.26-1.58-1.26H67.55v2.54ZM85.48,92H83v6.51h-1V92H79.62V91.1h5.86V92Z" fill="#3e3a39"/>
        <path d="M5.94,69.47v3.75H.43v1H5.86A8.32,8.32,0,0,1,4.1,78.31a13.56,13.56,0,0,1-4.1,3l.8.86a14.18,14.18,0,0,0,3.83-2.87,8.24,8.24,0,0,0,2.05-3.69A11.43,11.43,0,0,0,8.8,79.45a11.79,11.79,0,0,0,3.12,2.64l.9-.93a10.34,10.34,0,0,1-3.28-2.7,11.11,11.11,0,0,1-2.17-4.21h5.21v-1H7V70c.34-.16.5-.28.45-.35s-.26-.12-.69-.15Zm22.31-.21a9.3,9.3,0,0,1-1.43,1.92A11.27,11.27,0,0,1,25,72.65l.82.76.68-.49q.38-.27.81-.54v5h1v-.37h8.83V76H32.53v-.73h4v-1h-4v-.76h4v-1h-4v-.81h4.74v-1H32.6l.59-.64L32,69.38l-.52,1.23h-3a1.75,1.75,0,0,0,.54-.42.87.87,0,0,0,.19-.37l-1-.56Zm.13,2.39h3.11v.81H28.38v-.81Zm0,1.84h3.11v.76H28.38v-.76Zm0,1.8h3.11V76H28.38v-.73Zm-2.26,7h1V79h2.47v2.12h1V80.6H33.1v.56h1V79h2.59v1.4c0,.34-.07.57-.25.66a2.05,2.05,0,0,1-.94.15h-.4l.34,1H36A1.72,1.72,0,0,0,37.28,82a1.52,1.52,0,0,0,.48-1.17V78H33.1v1.59H30.65V78H26.12v4.27ZM48.51,71.09h4.36v.79h1v-.79h2.8v.69h1v-.69h3.65v-1H57.57v-.22c.12-.09.18-.18.17-.28s-.17-.16-.47-.21l-.63,0v.75H53.79V70c.16-.14.22-.24.18-.32s-.17-.12-.4-.16l-.69-.08v.74H48.51v1Zm3,1.29H49.26v.84H51.5v.55H48.58v.84h1.35c-.22.19-.45.4-.68.63a2.77,2.77,0,0,1-.73.53l.63.59a4.58,4.58,0,0,0,.51-.41,2.72,2.72,0,0,0,.42-.5v.72h1.48v.56L49,77l0,.49a1.56,1.56,0,0,0,.08.49s.12,0,.25-.21l4.69-.51v-.75l-1.75.15v-.47h1v-.78h-1v-.15c.1-.08.15-.16.14-.24s-.12-.13-.35-.16l-.53,0v.58H50.19c.17-.14.33-.28.47-.42s.27-.27.38-.36h1.67c.23.24.51.5.83.78a10.27,10.27,0,0,0,1,.79l.57-.53a7.68,7.68,0,0,0-.64-.46c-.24-.16-.5-.36-.79-.58h1.39v-.84h-2.6v-.55h1.74v-.84H52.4a.91.91,0,0,0,.11-.46c0-.09-.11-.15-.29-.16l-.72,0v.65Zm-3,7.83h4.82L52,81.28H50.13l.17.85q.11.51.18.54c.05,0,.16-.1.34-.39l8.4-.35.36.45a3.31,3.31,0,0,1,.27.34l.74-.64a5.2,5.2,0,0,0-.89-1,5.86,5.86,0,0,0-1.25-.86h2.81v-1H48.55v1Zm6,0H58l-.37.39a4.21,4.21,0,0,1,.4.28,5.83,5.83,0,0,0,.49.34l-5.16,0,1.27-1Zm-3.67-1.57h8.42V77.8H50.91v.84Zm6.32-5.4H55.62v.89h1.59a2.18,2.18,0,0,1,0,.48c0,.21-.09.42-.16.66a4.71,4.71,0,0,0-.6-.43l-.36-.25-.42.65.44.29.59.36q-.37.35-.75.63a3.46,3.46,0,0,1-.86.43l.63.68.74-.5c.28-.2.56-.43.86-.68.17.14.33.27.47.41a1.58,1.58,0,0,1,.32.41l.49-.79c-.1-.13-.22-.26-.36-.41s-.28-.29-.45-.45A1.88,1.88,0,0,0,58,75a4.39,4.39,0,0,0,.1-.84H59v1.94a1.23,1.23,0,0,0,.22.81,1,1,0,0,0,.84.29h.59a.72.72,0,0,0,.66-.37,2.44,2.44,0,0,0,.37-1l-.76-.24a1.59,1.59,0,0,1-.14.45.43.43,0,0,1-.31.23h-.3a.41.41,0,0,1-.27-.07.39.39,0,0,1-.09-.31V73.24H58.18v-.52a.55.55,0,0,0,.07-.33c0-.09-.13-.15-.34-.18l-.68-.06v1.09Zm16.49-.36a10.43,10.43,0,0,0,1.5-1.32c.46-.48.87-.93,1.24-1.33l-1.2-.51a8.71,8.71,0,0,1-1.19,1.45,8.5,8.5,0,0,1-1.43,1.14l1.08.57Zm-.14,3.8a3,3,0,0,0,.31-.31l.47-.54V82.4h1V74.7c.15-.26.32-.52.5-.78s.34-.48.49-.67L75.85,73l-.56-.23A14.71,14.71,0,0,1,74,74.58,12.55,12.55,0,0,1,72.49,76l1.09.64Zm3.11-3.78h1.62v9.2h1V72.9H81v-1h-1.7V69.79a1.08,1.08,0,0,0,.3-.16s-.07,0-.28-.08l-1,0v2.37H76.69v1Zm-.07,1.52a16.37,16.37,0,0,1-.08,2.88A11.68,11.68,0,0,1,76,79.85l1.06.27a13.86,13.86,0,0,0,.43-2.46,25,25,0,0,0,.1-2.9.59.59,0,0,0,.19-.21s0,0-.14-.06a4,4,0,0,0-.57-.07Zm3.22-3.81c.15.1.33.24.53.4a6.29,6.29,0,0,1,.52.49l.62-.62a6.08,6.08,0,0,0-.5-.42c-.2-.15-.38-.28-.55-.39l-.62.54Zm.3,7.52a2,2,0,0,0,.21,1,1,1,0,0,0,.6.49,2.47,2.47,0,0,0,.54,0,2.83,2.83,0,0,0,.53-.07,1,1,0,0,0,.53-.5,3.07,3.07,0,0,0,.33-1l-.82-.34a1.76,1.76,0,0,1-.18.6.49.49,0,0,1-.43.28.31.31,0,0,1-.28-.23,1,1,0,0,1,0-.55V75.11a.93.93,0,0,0,.24-.45c0-.08-.07-.14-.22-.16l-.59-.06a3.15,3.15,0,0,0-.46,0v3.73ZM82.2,71.4h3v-1h-3v1ZM81.64,74h2v5.86A2,2,0,0,1,83.38,81a.92.92,0,0,1-.79.31h-.92l.43,1,1.5-.14a1,1,0,0,0,.8-.55,3.06,3.06,0,0,0,.25-1.24V74h1V73h-4v1Z" fill="#3e3a39"/>
      </g>
    </g>
  </g>
</svg>
