<svg width="402" height="60" viewBox="0 0 402 60" fill="none" xmlns="http://www.w3.org/2000/svg">
<path d="M37.4933 43.54C35.6834 43.54 34.7772 44.5169 34.7749 46.4705V59.9862H40.0866V46.4705C40.0866 44.5169 39.2222 43.54 37.4933 43.54Z" fill="#F8B62D"/>
<path d="M7.18408 0C7.87933 0 9.68351 0.874856 12.5966 2.62457C16.5716 4.95684 20.0074 8.10473 22.6777 11.861C26.3347 17.0661 28.1632 23.0916 28.1632 29.9374C28.1794 32.8103 27.8289 35.6735 27.1204 38.4577C28.7426 38.4994 30.4576 39.1495 32.2652 40.4079C34.1401 39.1055 35.9106 38.4542 37.5769 38.4542C39.8573 38.4542 41.6592 39.1356 42.9825 40.4983C44.3058 41.861 44.9662 43.8459 44.9639 46.4531V0H7.18408ZM39.9129 17.8088L35.4216 15.4484L30.9303 17.8088L31.789 12.8065L28.1563 9.26767L33.176 8.53766L35.4216 3.99073L37.6673 8.53766L42.687 9.26767L39.0543 12.8065L39.9129 17.8088Z" fill="#00A0E9"/>
<path d="M17.6441 15.935C16.3856 14.1183 14.9498 12.431 13.3579 10.8979V49.3904C14.9509 47.941 16.3875 46.3284 17.6441 44.5793C20.479 40.3872 21.9726 35.4323 21.9269 30.3719C21.9516 25.2429 20.4618 20.2208 17.6441 15.935Z" fill="#E85298"/>
<path d="M12.6799 57.2817C9.72504 59.087 7.89654 59.9885 7.19434 59.9862H19.5732V51.824C17.5136 53.9253 15.1976 55.759 12.6799 57.2817Z" fill="#8FC31F"/>
<path d="M27.1445 43.54C25.4342 43.54 24.5802 44.5169 24.5825 46.4705V59.9862H29.8908V46.4705C29.8908 44.5169 28.9753 43.54 27.1445 43.54Z" fill="#F8B62D"/>
<path d="M3.6001 4.33835V55.6477L7.19454 59.9861V0L3.6001 4.33835Z" fill="#036EB8"/>
<path d="M37.5837 38.4716C35.9151 38.4716 34.1446 39.1228 32.272 40.4252C30.4621 39.1668 28.7471 38.5168 27.1272 38.475C27.8357 35.6909 28.1862 32.8276 28.1701 29.9548C28.1701 23.0973 26.3416 17.0718 22.6845 11.8783C20.0142 8.12207 16.5784 4.97417 12.6034 2.6419C9.69729 0.894508 7.89312 0.0196515 7.19092 0.017334V59.9861C7.88617 59.9861 9.71467 59.0846 12.6764 57.2815C15.1954 55.7591 17.5126 53.9254 19.5733 51.8238V59.993H24.5826V46.4704C24.5826 44.5168 25.4366 43.5399 27.1446 43.5399C28.9777 43.5399 29.8931 44.5168 29.8908 46.4704V59.9861H34.7749V46.4704C34.7749 44.5168 35.6811 43.5399 37.4934 43.5399C39.2222 43.5399 40.0866 44.5168 40.0866 46.4704V59.9861H44.9708V46.4704C44.9708 43.8632 44.3103 41.8783 42.9893 40.5156C41.6683 39.1529 39.8665 38.4716 37.5837 38.4716ZM17.644 44.5759C16.3876 46.3262 14.951 47.9399 13.3578 49.3905V10.898C14.9497 12.431 16.3855 14.1183 17.644 15.9351C20.461 20.2198 21.9508 25.2407 21.9267 30.3684C21.9725 35.4289 20.4789 40.3837 17.644 44.5759Z" fill="white"/>
<path d="M63.7947 40.6478C63.7947 45.0511 62.6359 48.919 60.3184 52.2516C58.593 54.6756 56.3844 56.7161 53.8317 58.2446C51.9268 59.4033 50.7483 59.9827 50.2964 59.9827V21.3582C50.7599 21.3582 51.9186 21.9213 53.7726 23.0476C56.3303 24.5504 58.5409 26.5774 60.2593 28.9955C62.6162 32.3466 63.7947 36.2307 63.7947 40.6478ZM59.7761 40.912C59.7925 37.6108 58.8335 34.3783 57.0194 31.62C56.2083 30.4508 55.2838 29.3644 54.2593 28.3767V53.1623C55.2841 52.2269 56.2091 51.1878 57.0194 50.0615C58.845 47.3618 59.8064 44.1708 59.7761 40.912Z" fill="#036EB8"/>
<path d="M85.6742 59.986H81.8017V54.3232C81.8017 53.5793 81.6939 53.0892 81.4819 52.8458C81.2698 52.6025 80.8144 52.4982 80.1261 52.4982H76.709V59.9999H72.8469V52.4843H69.5062L67.1841 48.7543H72.8469V22.2271C73.3289 22.2271 74.4263 22.6465 76.1389 23.4855C78.5458 24.6065 80.6646 26.2628 82.3336 28.3279C84.5607 31.1367 85.6742 34.5086 85.6742 38.4437C85.7265 42.2816 84.2653 45.9856 81.607 48.7543C83.1435 48.9165 84.2061 49.38 84.7947 50.1448C85.3834 50.9096 85.6765 52.3001 85.6742 54.3163V59.986ZM81.8017 38.8817C81.8183 36.1264 80.9346 33.441 79.2849 31.234C78.5185 30.2797 77.6591 29.4041 76.7194 28.6199V48.7578C77.6483 48.0687 78.493 47.273 79.2362 46.387C80.9263 44.2532 81.832 41.6036 81.8017 38.8817Z" fill="#036EB8"/>
<path d="M106.782 59.9861H100.873C97.2874 59.9861 95.4959 57.9687 95.4982 53.9339V52.4843H92.1576L89.8354 48.7543H95.4982V23.8262H106.779V27.7474H99.3743V48.7543H106.782V52.4843H99.3743V54.6605C99.3743 55.5991 99.8609 56.051 100.838 56.051H106.782V59.9861Z" fill="#036EB8"/>
<path d="M128.95 59.9861H125.077V52.4843H120.239V59.9861H116.366V52.4843H113.025L110.7 48.7543H116.366V30.1182C116.366 27.8586 116.938 26.0753 118.083 24.7682C119.228 23.4612 120.802 22.8076 122.804 22.8076C124.739 22.8076 126.245 23.4612 127.323 24.7682C128.401 26.0753 128.941 27.8586 128.943 30.1182L128.95 59.9861ZM125.077 48.7543V30.1182C125.077 28.8899 124.897 28.0347 124.535 27.5527C124.174 27.0707 123.527 26.8285 122.595 26.8262C121.738 26.8262 121.128 27.0683 120.767 27.5527C120.405 28.037 120.225 28.8922 120.225 30.1182V48.7543H125.077Z" fill="#036EB8"/>
<path d="M155.297 59.9861H151.424V29.1518C151.424 27.6014 150.739 26.8262 149.37 26.8262C147.93 26.8262 147.212 27.6014 147.214 29.1518V59.9861H143.342V29.1518C143.342 27.6014 142.615 26.8262 141.162 26.8262C139.806 26.8262 139.129 27.6014 139.129 29.1518V59.9861H135.159V29.1518C135.159 27.1819 135.675 25.6326 136.709 24.504C137.743 23.3754 139.18 22.8099 141.02 22.8076C142.343 22.8076 143.747 23.3244 145.233 24.358C146.716 23.3244 148.119 22.8076 149.443 22.8076C151.25 22.8076 152.679 23.3488 153.729 24.431C154.779 25.5133 155.302 27.0869 155.3 29.1518L155.297 59.9861Z" fill="#036EB8"/>
<path d="M176.894 50.5586V52.3732H162.461C161.735 52.3732 161.373 52.693 161.373 53.3361C161.373 53.9792 161.721 54.3442 162.461 54.3442H176.894V56.1554H162.461C161.736 56.1554 161.373 56.496 161.373 57.1774C161.373 57.81 161.721 58.1264 162.461 58.1264H176.894V59.9862H162.461C161.669 60.0322 160.89 59.7721 160.285 59.2596C160.015 59.0006 159.805 58.6863 159.668 58.3383C159.531 57.9902 159.471 57.6168 159.492 57.2434C159.526 56.5278 159.778 55.8397 160.215 55.2724C159.778 54.7051 159.526 54.017 159.492 53.3014C159.473 52.9328 159.531 52.5644 159.661 52.2191C159.792 51.8739 159.992 51.5595 160.25 51.2956C160.758 50.8043 161.495 50.5586 162.461 50.5586H176.894Z" fill="#036EB8"/>
<path d="M176.894 39.3336V41.1448H173.383V43.4113H176.894V45.2189H173.383V46.7832L171.645 47.8713V45.2189H162.92C162.015 45.2694 161.124 44.9833 160.417 44.4159C160.109 44.139 159.867 43.7968 159.708 43.4143C159.549 43.0317 159.478 42.6186 159.499 42.205C159.479 41.8053 159.551 41.4063 159.71 41.0391C159.87 40.6719 160.111 40.3464 160.417 40.088C161.136 39.5474 162.022 39.2789 162.92 39.3301L176.894 39.3336ZM171.638 41.1448H162.92C162.504 41.1073 162.086 41.1957 161.721 41.3985C161.594 41.5098 161.496 41.6502 161.436 41.8076C161.375 41.9651 161.354 42.1348 161.373 42.3023C161.357 42.4624 161.381 42.6238 161.442 42.7727C161.502 42.9217 161.598 43.0537 161.721 43.1575C162.086 43.3603 162.504 43.4487 162.92 43.4113H171.645L171.638 41.1448Z" fill="#036EB8"/>
<path d="M176.895 30.1912V32.2074C176.895 33.3105 176.691 34.0649 176.283 34.4704C175.819 34.9339 174.958 35.1657 173.7 35.1657H159.969V33.2955H173.696C174.36 33.2955 174.739 33.2503 174.875 33.1564C175.01 33.0625 175.056 32.7497 175.056 32.2074V30.1912H176.895Z" fill="#036EB8"/>
<path d="M176.895 22.6443V24.6605C176.895 25.7625 176.689 26.5203 176.283 26.927C175.876 27.3337 174.969 27.6049 173.7 27.6049H159.969V25.7521H173.696C174.362 25.7521 174.754 25.7069 174.875 25.6165C174.997 25.5261 175.056 25.2063 175.056 24.664V22.6478L176.895 22.6443Z" fill="#036EB8"/>
<path d="M163.546 7.55726H164.241V17.3116C164.24 17.8125 164.04 18.2927 163.686 18.6466C163.331 19.0004 162.851 19.1992 162.35 19.1992H162.082C161.582 19.1992 161.101 19.0003 160.747 18.6463C160.393 18.2923 160.195 17.8122 160.195 17.3116V8.62099H158.988L161.224 1.44602C161.342 1.06132 161.581 0.724815 161.905 0.485838C162.229 0.246861 162.622 0.11798 163.024 0.118094H163.32C163.616 0.118268 163.908 0.188141 164.173 0.322067C164.437 0.455993 164.667 0.650225 164.842 0.889084C165.018 1.12794 165.135 1.40474 165.184 1.69713C165.233 1.98952 165.212 2.28932 165.124 2.57233L163.546 7.55726ZM174.923 19.1992H171.534C171.132 19.1745 170.751 19.0109 170.456 18.7364C170.161 18.4618 169.971 18.0934 169.918 17.694L168.1 8.4159L164.728 8.58623V6.41357L167.738 6.25367L167.109 2.37765C166.897 1.20616 167.679 0.107666 168.722 0.107666H169.122C169.522 0.132683 169.901 0.295142 170.194 0.567541C170.488 0.839939 170.679 1.20554 170.735 1.60245L171.534 6.03467L176.463 5.76699V7.94313L171.826 8.18994L173.276 15.4901C173.33 15.8876 173.521 16.254 173.815 16.5271C174.109 16.8002 174.488 16.9632 174.889 16.9883H176.894L176.404 18.1424C176.289 18.445 176.087 18.7068 175.824 18.8949C175.56 19.0829 175.247 19.1888 174.923 19.1992ZM172.281 3.50396L172.146 2.76352C171.934 1.58855 172.712 0.486581 173.759 0.486581C174.155 0.507467 174.532 0.665103 174.824 0.932616C175.117 1.20013 175.308 1.56095 175.365 1.95355L175.514 2.69747C175.751 3.87939 174.965 5.0057 173.908 5.0057C173.505 4.98351 173.122 4.82144 172.825 4.54737C172.528 4.2733 172.336 3.90435 172.281 3.50396Z" fill="#E85298"/>
<path d="M132.676 9.38232H118.34C117.357 9.38232 116.557 10.2792 116.557 11.3881C116.557 12.497 117.357 13.3939 118.34 13.3939H119.967V11.2664H131.046V13.3939H132.676C133.66 13.3939 134.46 12.497 134.46 11.3881C134.456 10.2792 133.657 9.38232 132.676 9.38232Z" fill="#F8B62D"/>
<path d="M121.97 15.6223H119.029L121.268 11.1692H124.208L121.97 15.6223Z" fill="#F8B62D"/>
<path d="M127.699 11.9165H122.081V14.2421H127.699C128.262 14.2421 128.596 14.3325 128.69 14.6315L127.132 15.6743C127.132 15.6743 125.526 16.679 125.269 16.7798H116.86C116.86 17.3966 117.105 17.9881 117.541 18.4242C117.977 18.8604 118.569 19.1054 119.185 19.1054H125.394C125.71 19.1054 126.089 19.0115 126.924 18.5492C127.487 18.2314 128.032 17.8832 128.557 17.5063C130.779 15.935 131.078 15.4936 131.078 14.8852C131.078 13.4078 129.917 11.9165 127.699 11.9165Z" fill="#F8B62D"/>
<path d="M123.452 13.4465L121.451 14.825L124.284 18.9388L126.286 17.5604L123.452 13.4465Z" fill="#F8B62D"/>
<path d="M133.991 3.15643V1.22711H131.415V0H127.462V1.22711H123.524V0H119.533V1.22711H117.034V3.15643H119.543V3.94554H119.335C118.664 3.94554 118.02 4.21217 117.545 4.68677C117.071 5.16137 116.804 5.80506 116.804 6.47625C116.804 6.80888 116.869 7.13833 116.996 7.44577C117.123 7.75321 117.309 8.03261 117.544 8.26798C117.779 8.50334 118.058 8.69006 118.366 8.81746C118.673 8.94485 119.002 9.01043 119.335 9.01043H131.742C132.414 9.01043 133.058 8.74343 133.534 8.26818C134.009 7.79293 134.276 7.14835 134.276 6.47625C134.276 6.14362 134.21 5.81425 134.083 5.50698C133.955 5.19972 133.769 4.92058 133.533 4.68554C133.298 4.45049 133.019 4.26416 132.711 4.13718C132.404 4.01021 132.074 3.94508 131.742 3.94554H131.425V3.15643H133.991ZM121.661 7.18888H120.43V5.79838H121.661V7.18888ZM126.141 7.18888H124.869V5.79838H126.141V7.18888ZM127.445 3.95597H123.524V3.15643H127.462L127.445 3.95597ZM130.574 7.18888H129.322V5.79838H130.574V7.18888Z" fill="#F8B62D"/>
<path d="M155.109 6.23994H151.928V3.93866H154.563V1.98501H151.928V0.0974121H148.726V1.98501H146.248V3.93866H148.726V6.23994H145.719V8.25616H155.109V6.23994Z" fill="#8FC31F"/>
<path d="M143.359 0.768311H140.23C139.724 0.768311 139.239 0.969381 138.881 1.32729C138.523 1.68519 138.322 2.17061 138.322 2.67677V16.7382C138.322 17.2443 138.523 17.7298 138.881 18.0877C139.239 18.4456 139.724 18.6466 140.23 18.6466H143.359C143.609 18.6466 143.857 18.5973 144.089 18.5013C144.32 18.4053 144.53 18.2647 144.707 18.0875C144.884 17.9102 145.024 17.6998 145.12 17.4683C145.215 17.2367 145.264 16.9886 145.264 16.7382V2.67677C145.264 2.42631 145.215 2.17822 145.12 1.94669C145.024 1.71517 144.884 1.50476 144.707 1.32749C144.53 1.15023 144.32 1.0096 144.089 0.913649C143.857 0.817698 143.609 0.76831 143.359 0.768311ZM142.271 16.6061H141.367V10.7486H142.278L142.271 16.6061ZM142.271 8.66634H141.367V2.87491H142.278L142.271 8.66634Z" fill="#8FC31F"/>
<path d="M146.457 15.8725L146.331 15.1251C146.13 13.9432 146.86 12.8308 147.84 12.8308C148.56 12.8308 149.185 13.4461 149.345 14.3117L149.484 15.0591C149.703 16.2514 148.97 17.3882 147.979 17.3882C147.239 17.3882 146.606 16.7555 146.457 15.8725Z" fill="#8FC31F"/>
<path d="M154.16 10.1853V8.94775H151.031V10.1853H145.723V12.2467H151.031V17.1135L149.467 17.1621L150.256 19.1957H152.617C153.468 19.1957 154.16 18.3406 154.16 17.2873V12.2467H155.126V10.1853H154.16Z" fill="#8FC31F"/>
<path d="M217.061 2.3999C217.366 2.3999 217.702 2.49148 218.13 2.67463C218.557 2.91884 218.771 3.28515 218.771 3.74303C218.771 4.07882 218.618 4.5367 218.343 5.08617C217.794 6.15457 216.97 7.37559 215.84 8.8103C216.451 9.39029 217.061 9.93975 217.672 10.5197C218.526 9.17661 219.32 7.77243 219.992 6.30719C220.266 5.72721 220.633 5.42195 221.091 5.42195C221.426 5.42195 221.793 5.54405 222.251 5.78826C222.678 6.06299 222.892 6.4293 222.892 6.88718C222.892 7.58927 222.586 8.47452 221.976 9.48187C220.877 11.405 219.167 13.6334 216.817 16.1975C218.221 16.0449 219.473 15.8923 220.572 15.6786C220.48 15.007 220.388 14.3965 220.297 13.847C220.266 13.5723 220.236 13.4197 220.236 13.3892C220.236 12.7176 220.633 12.3513 221.457 12.3208C222.189 12.3208 222.647 12.5955 222.861 13.145C223.227 14.7018 223.441 16.4417 223.472 18.3649C223.472 19.1585 222.983 19.5554 222.006 19.5859C221.304 19.5554 220.907 19.189 220.785 18.487V18.3343C220.419 18.4259 220.083 18.5175 219.717 18.5785V29.171C219.717 29.6899 219.564 30.0257 219.29 30.2394C219.045 30.5141 218.648 30.6362 218.099 30.6362C217.641 30.6362 217.275 30.5141 217.031 30.2394C216.756 30.0257 216.634 29.6594 216.634 29.171V19.128C215.321 19.3112 214.039 19.4027 212.757 19.4333C212.269 19.4027 211.872 19.2806 211.567 19.0669C211.353 18.8227 211.2 18.4259 211.2 17.907C211.2 17.5101 211.292 17.1743 211.505 16.8691C211.75 16.5944 212.116 16.4417 212.543 16.4417C212.726 16.4417 212.879 16.4417 213.032 16.4112C214.161 15.2512 215.138 14.0913 216.023 12.8702C214.863 11.8323 213.551 10.7639 212.085 9.66502C211.597 9.29871 211.353 8.87135 211.322 8.44399C211.353 8.04716 211.475 7.7419 211.75 7.4977C212.024 7.22297 212.33 7.10086 212.665 7.10086C212.94 7.10086 213.184 7.13139 213.368 7.16191C214.405 6.00194 215.291 4.68933 215.962 3.25462C216.267 2.67463 216.603 2.3999 217.061 2.3999ZM214.131 20.4406C214.589 20.4406 214.924 20.5017 215.169 20.6543C215.443 20.8374 215.596 21.1732 215.596 21.6616C215.596 21.7532 215.565 22.0585 215.504 22.5469C215.138 25.0805 214.772 27.0342 214.375 28.4383C214.222 28.9573 213.886 29.2625 213.306 29.3236C212.726 29.3236 212.299 29.2015 211.963 28.9268C211.689 28.652 211.567 28.3468 211.567 27.9805C211.567 27.8584 211.658 27.4615 211.811 26.7289C212.146 25.5689 212.513 23.829 212.91 21.5395C213.123 20.8069 213.551 20.4406 214.131 20.4406ZM221.884 20.1964C222.617 20.1964 223.105 20.4711 223.349 21.0206C223.716 22.4248 223.929 24.0121 223.99 25.7521C223.99 26.5457 223.502 26.9426 222.525 27.0036C221.793 26.9731 221.396 26.6068 221.304 25.8742C221.182 24.1647 220.999 22.7911 220.755 21.6922C220.724 21.448 220.694 21.3258 220.663 21.2953C220.663 20.5932 221.06 20.2269 221.884 20.1964ZM231.347 2.3999C231.897 2.3999 232.293 2.49148 232.568 2.67463C232.904 2.94936 233.057 3.28515 233.057 3.74303V5.91036H237.91C238.399 5.91036 238.795 6.00194 239.04 6.21562C239.253 6.39877 239.375 6.79561 239.375 7.37559C239.375 7.80295 239.284 8.10821 239.101 8.35242C238.826 8.6882 238.429 8.84083 237.91 8.84083H231.011C230.981 8.93241 230.981 8.99346 230.95 9.05451C230.309 11.0692 229.516 13.0839 228.539 15.0986C230.828 15.007 232.904 14.8239 234.736 14.5491C234.339 13.8165 233.881 13.0534 233.362 12.2597C233.209 12.046 233.148 11.8018 233.148 11.5271C233.148 11.3745 233.179 11.2218 233.24 11.0082C233.362 10.764 233.576 10.5808 233.881 10.4282C234.094 10.3366 234.339 10.2755 234.583 10.2755C234.949 10.3061 235.285 10.4892 235.59 10.7639C236.292 11.3439 237.239 12.6565 238.399 14.7018C239.101 15.9228 239.467 16.9607 239.467 17.8154C239.467 18.1512 239.345 18.4259 239.131 18.6091C238.856 18.8838 238.49 19.0364 238.002 19.0364C237.666 19.0364 237.422 18.9754 237.269 18.8533C237.117 18.7617 236.994 18.6091 236.903 18.3954C236.689 17.968 236.414 17.4796 236.079 16.8996C235.59 17.0217 235.071 17.1133 234.552 17.2049V26.9121C234.583 27.3089 234.797 27.492 235.193 27.492H235.682C236.17 27.4005 236.445 27.0342 236.567 26.3015C236.659 25.7521 236.75 24.7447 236.781 23.249C236.811 23.0048 236.933 22.7911 237.178 22.5774C237.483 22.4553 237.727 22.3942 237.88 22.3942C238.246 22.3942 238.551 22.4248 238.765 22.4858C239.192 22.6385 239.436 23.0353 239.467 23.6153C239.467 25.6605 239.314 27.2478 239.009 28.3773C238.643 29.5373 237.941 30.2394 236.933 30.453H234.033C232.416 30.3004 231.622 29.1099 231.622 26.9426V17.6322C230.92 17.7238 230.248 17.8154 229.546 17.8459C229.546 18.8227 229.516 19.7385 229.455 20.5627C229.363 22.0279 229.119 23.2795 228.752 24.3784C228.172 26.5152 227.165 28.3162 225.669 29.7509C225.181 30.3004 224.54 30.5751 223.746 30.6362C223.136 30.6057 222.739 30.4225 222.586 30.1478C222.373 29.9036 222.281 29.6594 222.281 29.4152C222.281 29.0489 222.373 28.7436 222.525 28.5299C224.357 27.0036 225.486 25.3858 225.975 23.6458C226.402 22.4858 226.616 20.5932 226.646 17.9375C226.188 17.968 225.73 17.968 225.303 17.968C224.754 17.968 224.357 17.8764 224.113 17.6628C223.838 17.388 223.716 17.0217 223.716 16.5333C223.716 16.1365 223.777 15.8007 223.929 15.526C224.174 15.2207 224.601 15.0681 225.211 15.0681C226.31 13.0534 227.104 10.9471 227.654 8.77978H225.059C224.54 8.77978 224.174 8.65768 223.929 8.41347C223.716 8.19979 223.594 7.86401 223.594 7.31454C223.594 6.79561 223.716 6.4293 223.929 6.15457C224.174 5.94089 224.54 5.84931 225.059 5.84931H229.76V3.68198C229.76 3.31567 229.912 2.94937 230.218 2.61358C230.401 2.49148 230.798 2.3999 231.347 2.3999Z" fill="#AA7BC9"/>
<path d="M245.572 14.6104H269.779C270.45 14.6104 270.908 14.763 271.214 15.0377C271.488 15.2819 271.641 15.7398 271.641 16.4724C271.641 17.0219 271.519 17.4187 271.305 17.724C270.969 18.0903 270.45 18.2734 269.779 18.2734H245.572C244.962 18.2734 244.504 18.1513 244.168 17.8766C243.863 17.6019 243.71 17.144 243.71 16.4724C243.71 15.8314 243.863 15.3735 244.168 15.0377C244.504 14.7325 244.962 14.6104 245.572 14.6104Z" fill="#AA7BC9"/>
<path d="M279.028 4.44529H283.729C285.347 4.44529 286.141 5.23896 286.141 6.82629V26.607C286.141 28.2248 285.347 29.0185 283.729 29.0185H279.028C277.41 29.0185 276.617 28.2248 276.617 26.607V6.85682C276.617 5.23896 277.41 4.44529 279.028 4.44529ZM279.608 15.1293H283.149V8.16943C283.149 7.77259 282.936 7.58944 282.508 7.58944H280.219C279.822 7.58944 279.608 7.77259 279.608 8.16943V15.1293ZM282.508 25.8743C282.936 25.8743 283.149 25.6912 283.149 25.2944V18.2429H279.608V25.2944C279.608 25.6912 279.791 25.8743 280.219 25.8743H282.508ZM288.094 6.27683H293.558V4.29266C293.558 3.7432 293.681 3.34636 293.894 3.07163C294.108 2.82743 294.535 2.70532 295.115 2.70532C295.726 2.70532 296.153 2.82743 296.367 3.07163C296.581 3.31584 296.703 3.7432 296.703 4.29266V6.27683H302.441C302.96 6.27683 303.327 6.36841 303.571 6.58209C303.785 6.76524 303.907 7.13155 303.907 7.71154C303.907 8.16943 303.815 8.50521 303.632 8.71889C303.357 9.02415 302.96 9.17677 302.441 9.17677H296.703V11.9546H301.098C301.587 11.9546 301.953 12.0767 302.197 12.2904C302.441 12.5041 302.564 12.8704 302.564 13.4199C302.564 13.9083 302.472 14.2746 302.289 14.5188C302.014 14.8546 301.648 15.0377 301.098 15.0377H300.121V17.6935H302.533C303.052 17.6935 303.418 17.785 303.662 17.9987C303.876 18.1819 303.998 18.5787 303.998 19.1587C303.998 19.6166 303.907 19.9829 303.724 20.2271C303.449 20.5323 303.052 20.7155 302.533 20.7155H300.121V28.1332C300.06 29.7511 299.145 30.5448 297.374 30.5448H294.2C293.192 30.4837 292.643 29.8732 292.521 28.6827C292.521 27.7975 292.887 27.3091 293.62 27.2175H296.489C296.825 27.2175 296.977 27.0954 296.977 26.8817V20.6544H290.964C291.055 20.746 291.147 20.8071 291.208 20.8987C291.849 22.0281 292.429 23.127 292.917 24.1954C293.04 24.4396 293.101 24.6838 293.131 24.8975C293.131 25.4165 292.978 25.8133 292.643 26.027C292.368 26.3017 291.971 26.4849 291.422 26.5154C290.781 26.5154 290.353 26.2407 290.079 25.6607C289.621 24.5312 289.102 23.4323 288.491 22.3639C288.339 22.0892 288.278 21.906 288.278 21.7839C288.278 21.326 288.461 20.9597 288.858 20.6544H288.155C287.636 20.6544 287.27 20.5323 287.026 20.3187C286.782 20.105 286.66 19.6776 286.66 19.0976C286.66 18.5787 286.782 18.2124 287.026 17.9377C287.27 17.724 287.636 17.6324 288.155 17.6324H296.977V14.9767H289.437C288.919 14.9767 288.552 14.8546 288.308 14.5798C288.064 14.3661 287.942 13.9693 287.942 13.3588C287.942 12.8704 288.064 12.5041 288.308 12.2293C288.552 12.0157 288.919 11.8936 289.437 11.8936H293.558V9.11572H288.094C287.575 9.11572 287.209 8.99362 286.965 8.77994C286.721 8.56626 286.599 8.19995 286.599 7.65049C286.599 7.16208 286.721 6.79577 286.965 6.52104C287.209 6.36841 287.575 6.27683 288.094 6.27683Z" fill="#AA7BC9"/>
<path d="M315.171 2.73568C315.781 2.73568 316.27 2.85778 316.666 3.07146C317.124 3.28514 317.338 3.77355 317.338 4.47564C317.307 4.903 317.216 5.33036 317.124 5.75772C316.727 7.28401 316.117 8.90187 315.293 10.6418V29.0794C315.293 29.6594 315.11 30.0867 314.774 30.3614C314.499 30.6362 314.072 30.7888 313.431 30.7888C312.881 30.7888 312.484 30.6362 312.21 30.3614C311.904 30.1172 311.752 29.6899 311.752 29.0794V17.2659C311.66 17.4185 311.599 17.5406 311.508 17.6628C311.141 18.1206 310.653 18.3648 310.042 18.3648C309.401 18.3648 308.882 18.1817 308.455 17.8154C308.119 17.5406 307.936 17.1133 307.936 16.5638C307.967 16.2586 308.119 15.9228 308.363 15.526C310.805 11.8323 312.668 7.92505 313.919 3.80408C314.194 3.16304 314.591 2.79673 315.171 2.73568ZM334.036 10.4892C334.707 10.4892 335.196 10.6418 335.47 10.9471C335.837 11.2218 336.02 11.6492 336.02 12.2292C336.02 12.7176 335.898 13.0839 335.684 13.3586C335.501 13.6334 335.134 13.8165 334.554 13.9386L326.557 14.5491C326.831 16.3501 327.198 18.0291 327.686 19.6469C328.48 22.3637 329.426 24.3479 330.433 25.5689C331.044 26.21 331.563 26.5457 332.021 26.5457C332.418 26.5152 332.753 26.3321 333.059 25.9352C333.394 25.5994 333.73 25.111 334.097 24.4395C334.341 23.951 334.738 23.7068 335.287 23.7068C335.562 23.7068 335.867 23.7984 336.172 23.9816C336.63 24.2868 336.874 24.7447 336.874 25.3247C336.783 26.1794 336.508 27.0036 336.02 27.7973C335.287 28.9267 334.463 29.7204 333.578 30.1478C333.15 30.392 332.631 30.5141 332.051 30.5141C330.83 30.4225 329.701 29.9036 328.694 28.9267C327.595 27.8278 326.587 26.3015 325.702 24.3174C324.542 21.509 323.748 18.548 323.352 15.3733C323.321 15.1596 323.29 14.946 323.26 14.7628L318.59 15.0986C317.948 15.0681 317.491 14.8544 317.185 14.5186C316.941 14.2744 316.819 13.847 316.788 13.2365C316.788 12.7786 316.911 12.4123 317.155 12.0765C317.491 11.7102 317.918 11.5271 318.467 11.5271L322.833 11.2218C322.68 9.0545 322.588 6.70402 322.588 4.13986C322.588 3.55987 322.71 3.10199 322.985 2.79673C323.26 2.55252 323.687 2.43042 324.328 2.43042C324.847 2.43042 325.275 2.522 325.61 2.73568C325.977 3.07146 326.16 3.52935 326.16 4.13986L326.251 10.8555V10.9776L334.036 10.4892ZM329.823 2.73568C330.25 2.7662 330.647 2.94936 331.044 3.25461C331.532 3.65145 332.204 4.56722 333.089 6.00193C333.578 6.85665 333.852 7.58927 333.852 8.16925C333.852 8.56609 333.73 8.87135 333.486 9.08503C333.211 9.35976 332.784 9.51239 332.265 9.51239C331.899 9.51239 331.624 9.45133 331.441 9.29871C331.288 9.20713 331.166 9.0545 331.044 8.81029C330.495 7.89452 329.579 6.52087 328.327 4.68932C328.205 4.53669 328.144 4.38407 328.144 4.17039C328.144 4.01776 328.175 3.80408 328.266 3.55987C328.419 3.28514 328.663 3.04093 328.999 2.85778C329.243 2.7662 329.518 2.73568 329.823 2.73568Z" fill="#AA7BC9"/>
<path d="M342.217 4.56714H366.82C367.37 4.56714 367.767 4.68924 368.011 4.90292C368.285 5.1166 368.408 5.51344 368.408 6.15448C368.408 6.61236 368.316 6.97867 368.102 7.22288C367.828 7.55866 367.4 7.71129 366.82 7.71129H355.831L354.854 11.1302H363.523C364.928 11.1302 365.599 11.8017 365.599 13.1449V27.7056C365.599 29.0488 364.897 29.7203 363.523 29.7203H345.361C343.987 29.7203 343.285 29.0488 343.285 27.7056V13.1449C343.285 11.8017 343.987 11.1302 345.361 11.1302H351.099L352.076 7.71129H342.217C341.698 7.71129 341.301 7.58919 340.995 7.37551C340.721 7.16183 340.599 6.73447 340.599 6.15448C340.599 5.60501 340.721 5.20818 340.995 4.90292C341.27 4.68924 341.667 4.56714 342.217 4.56714ZM346.917 18.4869H361.967V15.0069C361.967 14.5185 361.722 14.2438 361.203 14.2438H347.681C347.162 14.2438 346.917 14.488 346.917 15.0069V18.4869ZM361.203 26.6372C361.722 26.6372 361.967 26.393 361.967 25.8741V21.6615H346.917V25.8741C346.917 26.3625 347.162 26.6372 347.681 26.6372H361.203Z" fill="#AA7BC9"/>
<path d="M377.84 13.3891H395.026C396.827 13.3891 397.712 14.3049 397.712 16.1059V24.0121C397.712 25.7825 396.827 26.6983 395.026 26.6983H391.363C391.455 26.7288 391.546 26.7288 391.607 26.7594C393.653 27.3699 395.942 27.8888 398.445 28.3162C398.903 28.4078 399.269 28.4688 399.544 28.4993C399.849 28.713 400.002 29.0793 400.002 29.6288C400.002 30.0256 399.819 30.3919 399.483 30.7277C399.239 30.9414 398.811 31.0635 398.201 31.0635C397.835 31.0635 397.529 31.033 397.224 31.0024C395.545 30.7888 393.53 30.3004 391.241 29.5067C390.539 29.232 389.989 28.9877 389.562 28.7435C389.409 28.3467 389.348 27.9804 389.318 27.6446C389.318 27.4309 389.379 27.1867 389.562 26.973C389.654 26.8509 389.776 26.7594 389.898 26.6983H382.938C383.03 26.7288 383.121 26.7899 383.182 26.8509C383.579 27.1257 383.793 27.492 383.793 27.9193C383.793 28.2551 383.671 28.4993 383.396 28.7435C382.785 29.0183 382.083 29.293 381.351 29.5372C379.428 30.1782 377.688 30.6361 376.1 31.0024C375.551 31.094 375.062 31.1551 374.574 31.1856C374.024 31.1856 373.567 31.033 373.231 30.6972C372.956 30.3614 372.834 30.0256 372.834 29.6288C372.834 29.1709 373.078 28.8046 373.597 28.4993C376.467 27.9499 378.695 27.4615 380.313 27.0036C380.862 26.8509 381.229 26.7288 381.442 26.6983H377.81C376.039 26.6983 375.154 25.8131 375.154 24.0121V16.1059C375.184 14.3049 376.07 13.3891 377.84 13.3891ZM381.961 2.73564C382.45 2.73564 382.785 2.85774 383.03 3.10195C383.304 3.4072 383.426 3.77351 383.426 4.20087C383.396 4.56718 383.243 4.90296 382.938 5.17769C382.266 5.91031 381.473 6.6124 380.526 7.25344V11.5881C380.526 12.4733 380.008 12.9312 378.97 12.9312C377.901 12.9312 377.382 12.5039 377.382 11.5881V9.14604C376.222 9.72602 375.246 10.0313 374.482 10.0618C373.536 10.0313 373.048 9.5734 373.017 8.71868C373.017 7.98606 373.292 7.5587 373.872 7.37554C376.955 6.09346 379.397 4.75033 381.168 3.34615C381.412 2.97984 381.686 2.76616 381.961 2.73564ZM378.359 17.2659H394.599V16.6859C394.599 16.2891 394.416 16.0754 394.019 16.0754H378.939C378.542 16.0754 378.329 16.2585 378.329 16.6859V17.2659H378.359ZM378.359 20.5626H394.599V19.4332H378.359V20.5626ZM393.988 23.951C394.385 23.951 394.568 23.7373 394.568 23.31V22.73H378.329V23.31C378.329 23.7373 378.512 23.951 378.939 23.951H393.988ZM398.323 2.97984C398.659 2.97984 398.964 3.10194 399.178 3.34615C399.422 3.59036 399.544 3.86509 399.544 4.20087C399.544 4.78086 399.239 5.17769 398.659 5.4219C397.682 5.94084 395.911 6.39872 393.286 6.88713C391.79 7.22292 390.142 7.46712 388.341 7.58922V8.8713C388.341 9.32919 388.646 9.5734 389.226 9.5734H396.095C396.491 9.54287 396.705 9.39024 396.797 9.11551C396.919 8.8713 396.98 8.47447 396.98 7.86396C397.071 7.28397 397.468 7.00924 398.201 7.00924C398.628 7.03976 398.964 7.16186 399.239 7.34502C399.575 7.58922 399.758 7.92501 399.758 8.38289C399.758 9.29866 399.575 10.1534 399.208 10.9471C398.842 11.7407 398.018 12.1681 396.766 12.2597H387.914C386.998 12.1681 386.296 11.9239 385.838 11.527C385.502 11.1607 385.35 10.5502 385.35 9.6955V3.92614C385.35 3.04089 385.838 2.58301 386.784 2.58301C387.822 2.58301 388.372 3.04089 388.372 3.92614V5.08612C391.76 4.81138 394.904 4.17034 397.773 3.10195C398.018 3.01037 398.201 2.97984 398.323 2.97984Z" fill="#AA7BC9"/>
<path d="M282.081 39.397C282.478 39.397 282.752 39.4886 282.905 39.6412C283.119 39.8243 283.241 40.0991 283.241 40.4348V40.8927H289.651C289.956 40.8927 290.17 40.9538 290.323 41.0759C290.445 41.198 290.536 41.4117 290.536 41.7475C290.536 42.0222 290.475 42.2359 290.384 42.358C290.231 42.5411 289.987 42.6327 289.682 42.6327H274.846C274.541 42.6327 274.327 42.5717 274.175 42.419C274.022 42.2969 273.961 42.0832 273.961 41.7475C273.961 41.4422 274.022 41.2285 274.175 41.0759C274.327 40.9538 274.541 40.8927 274.846 40.8927H280.921V40.4348C280.921 40.1601 281.043 39.8854 281.257 39.6412C281.379 39.4886 281.653 39.397 282.081 39.397ZM288.308 48.6768C289.193 48.6768 289.621 49.0431 289.621 49.7757V54.9956C289.621 55.484 289.499 55.8198 289.254 56.003C289.041 56.1861 288.674 56.3082 288.155 56.3082H287.362C287.056 56.3082 286.812 56.3082 286.629 56.2777C286.324 56.2472 286.08 56.1251 285.896 55.9724C285.713 55.7893 285.652 55.6061 285.652 55.3619C285.652 55.1788 285.683 55.0567 285.713 54.9346C285.774 54.7819 285.896 54.6598 286.11 54.5683C286.324 54.5072 286.568 54.5072 286.843 54.5072H287.453C287.575 54.5072 287.667 54.4462 287.667 54.3546V50.5694C287.667 50.4778 287.606 50.4168 287.514 50.4168H276.769C276.678 50.4168 276.647 50.4778 276.647 50.5694V55.6061C276.647 56.1251 276.311 56.3998 275.64 56.3998C274.999 56.3998 274.663 56.1251 274.663 55.6061V49.8673C274.663 49.0736 275.06 48.6768 275.884 48.6768H288.308ZM276.983 43.4569H287.24C287.942 43.4569 288.308 43.8232 288.308 44.5558V46.6316C288.308 47.3642 287.942 47.7305 287.24 47.7305H276.983C276.25 47.7305 275.884 47.3642 275.884 46.6316V44.5558C275.915 43.8232 276.25 43.4569 276.983 43.4569ZM286.141 46.1737C286.293 46.1737 286.385 46.0821 286.385 45.9295V45.2884C286.385 45.1358 286.293 45.0442 286.141 45.0442H278.112C277.96 45.0442 277.899 45.1358 277.899 45.2884V45.9295C277.899 46.0821 277.96 46.1737 278.112 46.1737H286.141ZM279.089 51.1494H285.133C285.713 51.1494 285.988 51.4546 285.988 52.0346V54.0798C285.988 54.6598 285.713 54.9346 285.133 54.9346H279.089C278.509 54.9346 278.204 54.6598 278.204 54.0798V52.0346C278.235 51.4546 278.509 51.1494 279.089 51.1494ZM283.882 53.5609C284.095 53.5609 284.187 53.4693 284.187 53.2862V52.8283C284.187 52.6451 284.095 52.5536 283.882 52.5536H280.341C280.127 52.5536 280.036 52.6451 280.036 52.8283V53.2862C280.036 53.4693 280.127 53.5609 280.341 53.5609H283.882Z" fill="#AA7BC9"/>
<path d="M298.32 42.2358H299.48C299.603 41.4727 299.725 40.7706 299.786 40.1296C299.877 39.6717 300.091 39.458 300.427 39.458C300.671 39.458 300.885 39.4885 301.037 39.5496C301.342 39.6717 301.465 39.9159 301.465 40.2517C301.434 40.7401 301.342 41.3811 301.22 42.2358H303.876C304.212 42.2358 304.456 42.2969 304.609 42.4495C304.731 42.5716 304.822 42.8158 304.822 43.1821C304.822 43.4569 304.761 43.6706 304.67 43.8232C304.487 44.0063 304.242 44.1284 303.907 44.1284H300.885C300.06 48.0357 299.267 50.6609 298.534 52.0346C298.351 52.2483 298.107 52.3399 297.802 52.3399C297.618 52.3399 297.435 52.2788 297.283 52.1872C297.069 52.0651 296.947 51.8514 296.947 51.5462C296.947 51.4241 296.977 51.2715 297.069 51.0883C297.832 49.1957 298.412 47.3642 298.87 45.5326C298.992 45.0442 299.114 44.5863 299.206 44.1284H298.381C298.046 44.1284 297.802 44.0674 297.649 43.9148C297.496 43.7927 297.405 43.5485 297.405 43.1821C297.405 42.8464 297.496 42.6022 297.649 42.4495C297.74 42.3274 297.985 42.2358 298.32 42.2358ZM301.922 45.7768C302.167 45.7768 302.411 45.8379 302.625 45.9905C302.869 46.1126 302.96 46.3568 302.96 46.6621C302.96 46.8758 302.93 47.0894 302.838 47.3031C302.35 49.2262 301.739 51.1188 300.946 53.0114C301.648 52.8893 302.319 52.7672 302.899 52.6451C302.716 52.1262 302.502 51.5462 302.289 50.9357C302.228 50.783 302.197 50.5999 302.197 50.3862C302.197 50.2946 302.228 50.2031 302.258 50.081C302.319 49.9283 302.472 49.8062 302.625 49.7452C302.747 49.6841 302.899 49.6536 303.052 49.6536C303.266 49.6841 303.449 49.7757 303.632 49.9589C303.907 50.3557 304.303 51.2715 304.792 52.7062C305.097 53.5609 305.219 54.2935 305.219 54.904C305.219 55.1177 305.158 55.2703 305.006 55.3924C304.853 55.5451 304.639 55.6366 304.334 55.6366C304.12 55.6366 303.968 55.6061 303.907 55.5145C303.815 55.4535 303.754 55.3619 303.693 55.2398C303.601 54.9651 303.51 54.6598 303.388 54.2935C301.77 54.843 300.244 55.1482 298.748 55.1788C298.412 55.1788 298.137 55.0872 297.924 54.9345C297.74 54.7819 297.679 54.5377 297.679 54.1714C297.679 53.9272 297.74 53.7135 297.863 53.5304C298.046 53.3472 298.259 53.2556 298.534 53.2556C298.717 53.2556 298.9 53.2251 299.084 53.2251C300.03 51.1188 300.701 48.8904 301.068 46.5705C301.251 46.021 301.526 45.7768 301.922 45.7768ZM306.898 39.5496C307.203 39.5496 307.448 39.6106 307.631 39.7022C307.844 39.8243 307.967 40.038 307.967 40.3433C307.936 40.618 307.906 40.8622 307.844 41.0759C307.753 41.5032 307.631 41.9306 307.509 42.3885H309.432C309.584 41.7474 309.707 41.0759 309.768 40.4043C309.89 39.9159 310.195 39.6717 310.653 39.6717C310.897 39.6717 311.141 39.7327 311.385 39.8854C311.599 40.038 311.721 40.2822 311.721 40.618C311.721 40.679 311.721 40.7401 311.691 40.8317C311.599 41.3506 311.508 41.839 311.385 42.358H313.034C313.339 42.358 313.553 42.419 313.675 42.5106C313.828 42.6327 313.889 42.8769 313.889 43.2127C313.889 43.4874 313.827 43.6706 313.736 43.7621C313.583 43.9453 313.339 44.0674 313.003 44.0674H311.172V46.2652H312.637C312.973 46.2652 313.186 46.3263 313.278 46.4179C313.431 46.54 313.492 46.7537 313.492 47.12C313.492 47.3947 313.431 47.5778 313.339 47.7C313.217 47.8831 312.973 48.0052 312.606 48.0052H311.141V50.2031H312.606C312.942 50.2031 313.156 50.2641 313.248 50.3557C313.4 50.4778 313.461 50.6915 313.461 51.0578C313.461 51.3325 313.4 51.5157 313.309 51.6378C313.186 51.8209 312.942 51.943 312.576 51.943H311.111V54.1104H313.095C313.675 54.1104 313.95 54.4156 313.95 54.9956C313.95 55.5756 313.675 55.8808 313.095 55.8808H306.898C306.013 55.8808 305.586 55.4535 305.586 54.5988V47.5168C305.525 47.6694 305.433 47.8221 305.372 47.9442C305.189 48.1884 304.945 48.2799 304.639 48.2799C304.334 48.2799 304.12 48.1884 303.937 48.0357C303.785 47.9136 303.693 47.7305 303.693 47.4863C303.693 47.3031 303.754 47.12 303.876 46.9368C304.945 44.7695 305.769 42.4801 306.288 40.099C306.41 39.7633 306.593 39.5801 306.898 39.5496ZM309.34 46.3263V44.1284H307.356V46.3263H309.34ZM309.34 50.2336V48.0357H307.356V50.2336H309.34ZM309.34 54.1409V51.9736H307.356V53.8661C307.356 54.0493 307.448 54.1409 307.6 54.1409H309.34Z" fill="#AA7BC9"/>
<path d="M329.914 39.397C330.281 39.397 330.525 39.458 330.708 39.6107C330.922 39.7938 331.044 40.038 331.044 40.3433V41.2896H336.416C336.996 41.2896 337.302 41.6254 337.302 42.2664C337.302 42.9074 336.996 43.2127 336.416 43.2127H324.359C324.084 43.2127 323.931 43.3348 323.931 43.5485V45.6547C323.901 49.6841 323.412 52.9809 322.466 55.484C322.405 55.6977 322.313 55.8809 322.191 56.003C322.039 56.2166 321.795 56.3387 321.428 56.3387C321.123 56.3387 320.879 56.2777 320.696 56.1251C320.512 55.9724 320.421 55.7588 320.421 55.484C320.421 55.3009 320.512 54.9651 320.665 54.4462C321.337 52.462 321.734 50.5999 321.856 48.8294C321.917 47.7305 321.947 46.6926 321.947 45.6853V42.938C321.947 41.8696 322.466 41.3201 323.535 41.3201H328.846V40.3738C328.846 40.1296 328.938 39.8854 329.151 39.6412C329.273 39.458 329.548 39.397 329.914 39.397ZM329.518 43.5485C329.853 43.5485 330.098 43.6095 330.25 43.7622C330.433 43.9148 330.525 44.1285 330.525 44.4032V45.5021H335.836C336.172 45.5021 336.416 45.5632 336.538 45.6853C336.691 45.8074 336.752 46.0821 336.752 46.4179C336.752 46.7231 336.691 46.9063 336.6 47.0589C336.447 47.2726 336.203 47.3642 335.806 47.3642H330.494V49.2568H334.402C335.379 49.2568 335.867 49.7452 335.867 50.722V54.5072C335.867 55.4535 335.379 55.9419 334.402 55.9419H326.129C325.183 55.9419 324.694 55.4535 324.694 54.5072V50.722C324.694 49.7452 325.183 49.2568 326.129 49.2568H328.449V44.3727C328.449 44.1285 328.541 43.9148 328.754 43.7316C328.877 43.6095 329.121 43.5485 329.518 43.5485ZM333.425 54.0798C333.7 54.0798 333.852 53.9272 333.852 53.622V51.6073C333.852 51.302 333.7 51.1494 333.425 51.1494H327.167C326.862 51.1494 326.709 51.302 326.709 51.6073V53.622C326.709 53.9272 326.862 54.0798 327.167 54.0798H333.425Z" fill="#AA7BC9"/>
</svg>
