<svg xmlns="http://www.w3.org/2000/svg" viewBox="0 0 54 70"><defs><style>.cls-2{fill:#fff}</style></defs><g id="圖層_2" data-name="圖層 2"><g id="設計"><path fill="none" d="M0 0h54v70H0z"/><path class="cls-2" d="M27 70l-1-1c-1.26-1.16-3.91-2.5-7.92-4.52l-.56-.28c-1.23-.62-2.59-1.3-4.07-2.07-5.2-2.61-9.14-6.32-11.1-10.39a23.12 23.12 0 0 1-1.77-9L.3 3.67h1.52A68.53 68.53 0 0 0 17.4 1.51 46 46 0 0 1 27 0a45.83 45.83 0 0 1 9.59 1.51 68.67 68.67 0 0 0 15.59 2.16h1.52l-.27 39.07a23.11 23.11 0 0 1-1.77 9c-2 4.07-5.89 7.78-11.07 10.44-1.66.86-3.16 1.61-4.5 2.28h-.08c-4 2-6.7 3.37-8 4.55zM2.8 6.32l.26 36.12a20.75 20.75 0 0 0 1.55 8c1.75 3.63 5.3 7 10 9.37 1.43.74 2.73 1.39 3.91 2l.52.26c4 2 6.57 3.31 8 4.57 1.4-1.27 4-2.59 8-4.59h.08c1.29-.65 2.73-1.37 4.32-2.19 4.69-2.41 8.24-5.74 10-9.37a20.73 20.73 0 0 0 1.56-8l.2-36.17A67.4 67.4 0 0 1 35.94 4.2 43.36 43.36 0 0 0 27 2.78a43.3 43.3 0 0 0-8.9 1.42A67.48 67.48 0 0 1 2.8 6.32z"/><path class="cls-2" d="M37.56 9.95a6.39 6.39 0 0 0-1.11.13 16.2 16.2 0 0 0-3.12 1c-.58.26-1.29.6-2.11 1.07a29.34 29.34 0 0 0-3.32 2.22c-6.14-1.37-11.98 2.3-15.12 5.94a29.46 29.46 0 0 0-3 3.9C8.47 26.55 7.27 29.61 8 32a5.91 5.91 0 0 0 1.43 2.4A7.42 7.42 0 0 0 14 36.38c0 .17-1.16 6 1.24 11 2.11 4.36 9.2 5.32 14.69.48A23.62 23.62 0 0 1 27 54.32a17 17 0 0 1-2.9 3 .21.21 0 0 0 .17.37 13.64 13.64 0 0 0 9.58-7.74c.6-1.24 4-10.35 5-13l.14-.17a9.45 9.45 0 0 0 5.82-6.68.18.18 0 0 0-.29-.18C41.85 32.44 40 33.22 33.87 34c-5 .67-6.55 3.45-6.92 4.28-.07.16 0 .33.2.25a17.06 17.06 0 0 1 8.09-1.32h1a13.11 13.11 0 0 0-3.4 1.17c.37.41 0 1.47-.42 2.5-2.11 3.48-7.35 8.41-11.67 7.41-1.07-.25-2.52-1.5-2.58-4.21a23.59 23.59 0 0 1 1.49-8.21 49.58 49.58 0 0 0 7.57-2.28 31.29 31.29 0 0 0 11.29-7.48 21 21 0 0 0 4.77-7.58 4.91 4.91 0 0 0 .05-.52 7.27 7.27 0 0 0-.41-2.72c-.84-2.47-2.78-4.83-4.81-5.33a2.1 2.1 0 0 0-.56-.01zm-21 18.56a37.69 37.69 0 0 0-1.92 5.22c-4.6-.2-2.82-4.24-1.53-6.51a32.21 32.21 0 0 1 7.15-8.49 8.92 8.92 0 0 1 5-2.06 40.42 40.42 0 0 0-8.75 11.84zm22.71-12.24c.11.19.85 2.07-5.59 8.5A35 35 0 0 1 21 32.51a42.15 42.15 0 0 1 4.54-7.42 29.42 29.42 0 0 1 5.32-5.57 5 5 0 0 1 .28 1.85c-.09 2.21-.57 2.37-.17 2.42a.42.42 0 0 0 .3-.11 4.21 4.21 0 0 0 1.28-1.79 6.23 6.23 0 0 0 .12-3.66 12 12 0 0 1 5.93-2.13c.24.01.58 0 .67.17z"/></g></g></svg>