<svg xmlns="http://www.w3.org/2000/svg" viewBox="0 0 202 44"><defs><style>.cls-1{fill:#00a5bb;}.cls-2{fill:#595757;}</style></defs><g id="圖層_2" data-name="圖層 2"><path class="cls-1" d="M2.8,40.5a19.1,19.1,0,0,0,7.3,2.1c4,.4,7.4-8.1,8.1-10.2h.5c1.3,1.6,6.9,8.3,10.8,9.2,7.2,1.5,10.8-6.1,11.5-7.9h.5c2,2.2,5.4,7.4,7.6,8.5s7.3,0,9.3-.9,4.5-5.8,5.3-7.4h.5A48.6,48.6,0,0,0,67.1,39c4,5.9,12,2.3,12,2.3V6.3s-5.8-4.9-8.9,0a30,30,0,0,1-3.4,4.6h-.4L63.5,6.1,58.6,1.6A22,22,0,0,0,47.2,3.1c-2.7,1.2-5.1,7.1-5.9,9.4h-.5a11.5,11.5,0,0,0-1.6-3.8C37.8,6.3,28.1,5.6,28.1,5.6a15.7,15.7,0,0,0-4.7,1.6,66.9,66.9,0,0,0-5.7,3.9h-.4c-.5-.8-2.2-3.1-3.8-5.1A7.2,7.2,0,0,0,7.7,3.2,8.4,8.4,0,0,0,2.8,4.8Z"/><path class="cls-2" d="M90.9,9.8l-.7.2H88.7l-.6-.2-1-1a2.8,2.8,0,0,1-.3-1.3,2.4,2.4,0,0,1,2.6-2.6h1.5V6.3h-.4V5.6h-.1l-.4-.2h-.5a1.6,1.6,0,0,0-1.3.6,1.8,1.8,0,0,0-.5,1.5,2.9,2.9,0,0,0,.5,1.7,1.9,1.9,0,0,0,1.5.6h.6V9.4l.2-.8h.4Z"/><path class="cls-2" d="M89.4,10.1h-.7l-.6-.2a2.4,2.4,0,0,1-1-1,2.8,2.8,0,0,1-.4-1.3,2.4,2.4,0,0,1,.8-1.9,2.7,2.7,0,0,1,2.7-.7l.7.2H91V6.3h-.5l-.2-.7h-.9a1.6,1.6,0,0,0-1.3.6,2.5,2.5,0,0,0-.5,1.5A2.5,2.5,0,0,0,88.1,9a2,2,0,0,0,1.5.6h.7l.2-.8H91V9.8h-.1l-.7.2Zm0-5.2a2.7,2.7,0,0,0-1.8.7,2.6,2.6,0,0,0-.8,1.9,3.3,3.3,0,0,0,.4,1.3,2,2,0,0,0,.9.9l.6.2h2.2V8.7h-.3l-.2.8h-.8a1.8,1.8,0,0,1-1.5-.6,2.4,2.4,0,0,1-.6-1.7A2.8,2.8,0,0,1,88,5.8a2,2,0,0,1,1.4-.6h.9v.8h.4v-1L90.1,5Z"/><path class="cls-2" d="M92.9,6.3h.3V8.8a1.4,1.4,0,0,0,.2.6l.6.2h.4l.4-.2V6.8h-.5V6.6l.9-.3h.3V9.7H96V10H94.8V9.6l-.6.3h-.6a.8.8,0,0,1-.7-.3c-.2-.1-.3-.4-.3-.8V6.8h-.5V6.6Z"/><path class="cls-2" d="M93.6,10.1a1.1,1.1,0,0,1-.8-.3c-.2-.2-.2-.5-.2-.9v-2H92V6.6l.9-.3h.4V8.8a.7.7,0,0,0,.1.5c.2.2.3.2.6.2h.4l.4-.2V6.9h-.5V6.6l.9-.3h.3V9.5H96V10H94.8V9.6l-.6.4ZM92.1,6.8h.6V8.9c0,.4,0,.6.2.8a.9.9,0,0,0,.7.3h.6l.6-.4h.1v.4h1V9.7h-.5V6.4h-.2l-.8.2v.2h.5V9.4h0l-.5.2H94l-.6-.2c-.2-.1-.2-.3-.2-.6V6.4H93l-.9.2Z"/><path class="cls-2" d="M97,10V9.7h.4l.2-.2V5H97V4.8l.9-.3h.3V9.7h.5V10Z"/><path class="cls-2" d="M98.8,10H96.9V9.7h.6V5h-.6V4.7l1-.3h.4V9.5h.5ZM97,9.9h1.7V9.7h-.5v-5h-.3l-.9.2h.6V9.6H97Z"/><path class="cls-2" d="M100.2,6.8h-.5V6.6l.5-.2.3-.7h.3v.8H102v.3h-1.2v2a.8.8,0,0,0,.2.6c.1.2.2.2.5.2h.5v.2h-1l-.6-.2a.8.8,0,0,1-.2-.6Z"/><path class="cls-2" d="M101,10h-.7a1.4,1.4,0,0,1-.2-.7V6.9h-.4V6.6l.5-.2.3-.8h.4v.8H102v.5h-1.1V8.8c0,.3,0,.5.1.6a.6.6,0,0,0,.5.2h.5v.4h-1ZM99.8,6.8h.5V9.2c0,.3,0,.5.1.6h1.5V9.6h-.4l-.6-.2c-.1-.1-.1-.4-.1-.7v-2h1.1V6.5h-1.1V5.8h-.2l-.3.6-.5.2Z"/><path class="cls-2" d="M103.7,6.3h.3V8.8a1.4,1.4,0,0,0,.2.6l.6.2h.4l.5-.2V6.8h-.6V6.6l.9-.3h.3V9.7h.4V10h-1.1V9.6l-.7.3h-.6a.8.8,0,0,1-.7-.3c-.2-.1-.3-.4-.3-.8V6.8h-.5V6.6Z"/><path class="cls-2" d="M104.4,10.1a1.1,1.1,0,0,1-.8-.3c-.2-.2-.2-.5-.2-.9v-2h-.6V6.6l.9-.3h.4V8.8c0,.2,0,.4.2.5s.2.2.5.2h.4l.4-.2V6.9h-.5V6.6l.9-.3h.3V9.5h.5V10h-1.2V9.6l-.6.4Zm-1.5-3.3h.6V8.9c0,.4,0,.6.2.8a.9.9,0,0,0,.7.3h.6l.6-.4h.1v.4h1V9.7h-.5V6.4H106l-.8.2v.2h.5V9.4h0l-.5.2h-.4l-.6-.2a.8.8,0,0,1-.2-.6V6.4h-.2l-.9.2Z"/><path class="cls-2" d="M107.8,10V9.7h.4V6.9h-.5V6.6l.9-.2h.3v.7a.8.8,0,0,1,.4-.4l.4-.4h.6v.7h-.2l-.2-.2h-.6c-.1.1-.3.2-.4.4V9.7h.5V10Z"/><path class="cls-2" d="M109.7,10h-1.9V9.7h.5V6.9h-.5V6.6l.9-.3h.3v.6l.3-.2.5-.4h.7v.7H110c-.1-.1-.3-.1-.5.1s-.3.2-.5.3V9.5h.7Zm-1.8-.1h1.7V9.7h-.7V7.4h0l.5-.4a.6.6,0,0,1,.7-.1h.3V6.4h-.6l-.4.3-.4.4h-.1V6.4h-.2l-.8.3h.5V9.6h-.5Z"/><path class="cls-2" d="M113.6,9.5l-.6.4h-.6l-.7-.2a1,1,0,0,1,.1-1.5,6,6,0,0,1,1.8-.6V7.5c0-.3,0-.6-.1-.7l-.6-.2h-.5v.6h-.8a.5.5,0,0,1,.4-.6,2,2,0,0,1,1.1-.3,1.2,1.2,0,0,1,.9.3c.2.1.3.4.3.8V9.7h.4V10h-1.1Zm0-.2V8a4,4,0,0,0-1.2.4.9.9,0,0,0-.3.6.9.9,0,0,0,.1.5h.9Z"/><path class="cls-2" d="M112.4,10.1a1.1,1.1,0,0,1-.8-.3,1.4,1.4,0,0,1-.2-.7.8.8,0,0,1,.4-.8,4.4,4.4,0,0,1,1.8-.6V7.5a.8.8,0,0,0-.2-.6.6.6,0,0,0-.5-.2h-.5v.6h-.8c0-.1-.1-.1-.1-.2s.2-.5.5-.7a2,2,0,0,1,1.1-.2l.9.2a1.2,1.2,0,0,1,.3.9V9.5h.5V10h-1.1V9.6a.9.9,0,0,1-.6.3Zm.5-3.5a.8.8,0,0,1,.6.2,1.2,1.2,0,0,1,.2.7v.3h-.1a6,6,0,0,0-1.8.6.8.8,0,0,0-.3.7c0,.2,0,.5.2.6a.9.9,0,0,0,.7.3h.5l.7-.4h.1v.4h.9V9.7h-.5V7.4a1.5,1.5,0,0,0-.2-.8c-.2-.2-.5-.2-.9-.2a2,2,0,0,0-1.1.2c-.2.2-.4.3-.4.6h.7V6.7h.6Zm-.2,3.1-.5-.2A.8.8,0,0,1,112,9a.9.9,0,0,1,.3-.6l1.3-.5h.1V9.3h-.1l-.5.3Zm.9-1.7-1.2.5a.5.5,0,0,0-.3.5.5.5,0,0,0,.2.4c.1.2.4.2.8.1l.5-.2Z"/><path class="cls-2" d="M115.8,10V9.7h.4V5h-.6V4.8l1-.3h.3V9.7h.4V10Z"/><path class="cls-2" d="M117.6,10h-1.9V9.7h.6V5h-.6V4.7l1-.3h.3V9.5h.6Zm-1.8-.1h1.7V9.7h-.6v-5h-.2l-.9.2h.6V9.6h-.6Z"/><path class="cls-2" d="M123.2,4.9h.5l1.8,4.7h.4V10h-1.7V9.7h.5l-.5-1.4h-1.8l-.5,1.4h.5V10h-1.5V9.7h.5Zm.1.8-.8,2.1h1.6Z"/><path class="cls-2" d="M126,10h-1.8V9.6h.5l-.6-1.3h-1.7l-.5,1.3h.6V10h-1.6V9.6h.4l1.8-4.6h.6l1.8,4.6h.5Zm-1.7-.1h1.6V9.7h-.5L123.6,5h-.4l-1.8,4.6H121v.2h1.4V9.7h-.5V9.5l.6-1.4h1.8l.6,1.4v.2h-.4Zm-.2-2.1h-1.6l.8-2.2Zm-1.5-.1H124l-.7-1.9Z"/><path class="cls-2" d="M126.5,10V9.7h.4l.2-.2V6.8h-.5V6.6h.5a2,2,0,0,1,.4-1.4,1.4,1.4,0,0,1,1.1-.6.5.5,0,0,1,.4.2c.2,0,.2.1.2.3v.2c0,.1-.1.1-.2.1l-.7-.4-.4.4c0,.2-.1.4-.1.7v.6h1.1v.3h-1.1V9.7h.5V10Z"/><path class="cls-2" d="M128.4,10h-1.9V9.7h.5V6.9h-.5V6.6l.5-.2h0a2.5,2.5,0,0,1,.5-1.5,1.3,1.3,0,0,1,1.1-.5h.5a.5.5,0,0,1,.2.4v.2l-.3.2h0l-.7-.5-.3.4a1.5,1.5,0,0,0-.1.7v.5h1v.5h-1V9.5h.6Zm-1.8-.1h1.7V9.7h-.6V6.8h1V6.5h-1V5.9a1.5,1.5,0,0,1,.1-.7,1,1,0,0,1,.4-.5h0l.7.5h.2V4.9c0-.1-.1-.2-.2-.3h-.4a1.6,1.6,0,0,0-1.1.5,2.9,2.9,0,0,0-.4,1.4h-.5v.2h.5V9.6h-.5Z"/><path class="cls-2" d="M129.5,10V9.7h.4l.2-.2V6.8h-.5V6.6h.5a2,2,0,0,1,.4-1.4,1.3,1.3,0,0,1,1.1-.6.5.5,0,0,1,.4.2c.1,0,.2.1.2.3v.2c0,.1-.1.1-.2.1l-.7-.4-.4.4a1.5,1.5,0,0,0-.1.7v.6h1.1v.3h-1.1V9.7h.5V10Z"/><path class="cls-2" d="M131.3,10h-1.8V9.7h.5V6.9h-.5V6.6l.5-.2h0a3.3,3.3,0,0,1,.4-1.5,1.7,1.7,0,0,1,1.2-.5h.5c.1.1.1.2.1.4s0,.2-.1.2a.2.2,0,0,1-.2.2h0l-.7-.5c-.2.1-.3.2-.3.4a1.5,1.5,0,0,0-.1.7v.5h1v.5h-1.1V9.5h.6Zm-1.7-.1h1.6V9.7h-.6V6.8h1.1V6.5h-1.1V5.9a1.4,1.4,0,0,1,.2-.7,1,1,0,0,1,.4-.5h0l.7.5h.2V4.9a.4.4,0,0,0-.1-.3h-.4a1.6,1.6,0,0,0-1.1.5,2.9,2.9,0,0,0-.4,1.4h-.5v.2h.5V9.6h-.5Z"/><path class="cls-2" d="M134.5,9.5l-.7.4h-.6l-.7-.2a.9.9,0,0,1-.3-.7,1.2,1.2,0,0,1,.4-.8,5.9,5.9,0,0,1,1.9-.6V7.5a1.2,1.2,0,0,0-.2-.7l-.5-.2h-.6v.6h-.5c-.1,0-.2,0-.2-.1h-.1a.6.6,0,0,1,.5-.6,1.6,1.6,0,0,1,1.1-.3,1,1,0,0,1,.8.3c.2.1.3.4.3.8V9.7h.4V10h-1Zm0-.2V8a3.9,3.9,0,0,0-1.3.4.9.9,0,0,0-.3.6c0,.2.1.3.2.5h.8Z"/><path class="cls-2" d="M133.2,10.1a1,1,0,0,1-1-1,.8.8,0,0,1,.4-.8l1.8-.6V7.5c0-.3,0-.5-.1-.6l-.5-.2h-.6v.6h-.8V7.2a.8.8,0,0,1,.4-.7,2.2,2.2,0,0,1,1.2-.2l.9.2a2,2,0,0,1,.2.9V9.5h.6V10h-1.2V9.6l-.6.3Zm.6-3.5.5.2c.2.1.2.3.2.7v.3h0a4.4,4.4,0,0,0-1.8.6.7.7,0,0,0-.4.7,1.1,1.1,0,0,0,.2.6.9.9,0,0,0,.7.3h.6l.6-.4h.1v.4h1V9.7H135V7.4c0-.4,0-.6-.2-.8a1.1,1.1,0,0,0-.8-.2,1.8,1.8,0,0,0-1.1.2c-.3.2-.4.3-.4.6h.6V6.7h.7Zm-.3,3.1-.5-.2a.7.7,0,0,1-.1-.5.9.9,0,0,1,.3-.6l1.2-.5h.1V9.3h0l-.6.3Zm.9-1.7-1.2.5a.8.8,0,0,0-.2.5c0,.2,0,.3.1.4s.4.2.8.1l.5-.2Z"/><path class="cls-2" d="M137.5,6.4h.3V9.7h.4V10h-1.7V9.7h.4l.2-.2V6.9h-.6V6.6Zm0-1.7h.4c0,.1.1.2.1.3a.4.4,0,0,1-.1.3l-.4.2-.3-.2c-.1,0-.1-.1-.1-.3a.4.4,0,0,1,.1-.3Z"/><path class="cls-2" d="M138.4,10h-1.8V9.7h.5V6.9h-.5V6.6l.9-.3h.4V9.5h.5Zm-1.7-.1h1.6V9.7h-.5V6.4h-.3l-.8.3h.5V9.6h-.5Zm.8-4.3h-.3c-.1-.1-.1-.2-.1-.4a.4.4,0,0,1,.1-.3h.7a.4.4,0,0,1,.1.3c0,.2,0,.3-.1.4Zm0-.8c-.1,0-.2,0-.2.1s-.1.1-.1.2a.4.4,0,0,0,.1.3h.5a.4.4,0,0,0,.1-.3c0-.1,0-.2-.1-.2Z"/><path class="cls-2" d="M139.3,10V9.7h.4l.2-.2V6.9h-.6V6.6l.9-.2h.3v.7a.8.8,0,0,1,.4-.4l.4-.4h.7v.7h-.3l-.2-.2h-.6l-.4.4V9.7h.6V10Z"/><path class="cls-2" d="M141.2,10h-1.9V9.7h.5V6.9h-.5V6.6l.9-.3h.3v.6a.5.5,0,0,1,.4-.2.8.8,0,0,1,.4-.4h.7v.7h-.5c-.1-.1-.3-.1-.5.1s-.3.2-.5.3V9.5h.7Zm-1.8-.1h1.7V9.7h-.7V7.4h.1c.1-.2.3-.3.4-.4a.6.6,0,0,1,.7-.1h.3V6.4h-.6l-.4.3-.4.4h-.1V6.4h-.2l-.8.3h.5V9.6h-.5Z"/><path class="cls-2" d="M145.2,6.5v.8h-.4V6.8h-.6l-.4.2c-.2.1-.2.2-.2.4a.4.4,0,0,0,.1.3l.5.3h.2l.6.4.3.3v.3a.8.8,0,0,1-.4.8,1.3,1.3,0,0,1-1,.3h-1v-1h.4v.6l.3.2h.8a.6.6,0,0,0,.2-.5c0-.1,0-.3-.1-.3a1.5,1.5,0,0,0-.6-.4c-.4-.2-.7-.3-.8-.5s-.2-.3-.2-.5a1,1,0,0,1,.3-.8,1.7,1.7,0,0,1,1-.3h.9Z"/><path class="cls-2" d="M143.9,10.1h-1v-1h.4v.6h.6l.5-.2a.5.5,0,0,0,.2-.4V8.8l-.7-.4-.8-.5a.8.8,0,0,1-.2-.5,1.3,1.3,0,0,1,.4-.9l1-.2h1v1h-.5V6.8h-.9a.5.5,0,0,0-.2.4l.2.3.5.3a.1.1,0,0,1,.1.1l.7.3.2.3v.4a1.3,1.3,0,0,1-.4.9A1.8,1.8,0,0,1,143.9,10.1Zm-.9-.3h.9a1.5,1.5,0,0,0,1-.3.8.8,0,0,0,.4-.8V8.6l-.2-.3-.6-.3h-.2l-.5-.3-.2-.4a.8.8,0,0,1,.2-.5h1.1v.5h.3V6.5h-.9l-.9.2a.8.8,0,0,0-.4.8c0,.2.1.3.2.5l.8.4.6.4.2.4a.8.8,0,0,1-.2.5l-.6.2h-.7V9H143Z"/><path class="cls-2" d="M149.2,5h1.9a2.1,2.1,0,0,1,1.3.3,1.1,1.1,0,0,1,.5.9.9.9,0,0,1-.3.7,2,2,0,0,1-.8.4,1.5,1.5,0,0,1,1,.3,1.1,1.1,0,0,1,.4.9,1.4,1.4,0,0,1-.5,1.1,3.3,3.3,0,0,1-1.5.4h-2V9.7h.6V5.4h-.6Zm1.3,2.2h.2c.5,0,.9,0,1.1-.2a1,1,0,0,0,.3-.8.9.9,0,0,0-.3-.7l-.9-.2h-.5Zm0,2.4h.5l1.1-.2a1.1,1.1,0,0,0,.3-.8,1,1,0,0,0-.3-.8c-.2-.2-.5-.2-.9-.2h-.8Z"/><path class="cls-2" d="M151.2,10h-2V9.6h.5v-4h-.5V4.9h1.9a2.6,2.6,0,0,1,1.4.3,1.2,1.2,0,0,1,.4,1,.9.9,0,0,1-.3.7,1,1,0,0,1-.5.4.9.9,0,0,1,.7.3,1,1,0,0,1,.4.9c0,.5-.1.9-.5,1.1A2.1,2.1,0,0,1,151.2,10Zm-1.9-.1h1.9a2.6,2.6,0,0,0,1.4-.3,1.2,1.2,0,0,0,.5-1.1,1.1,1.1,0,0,0-.3-.8,1.7,1.7,0,0,0-1-.3h0l.8-.4a1.4,1.4,0,0,0,.2-.7,1,1,0,0,0-.4-.9,2.3,2.3,0,0,0-1.3-.3h-1.8v.2h.5V9.7h-.4Zm1.7-.2h-.6v-2h.8a1.5,1.5,0,0,1,1,.3c.2.1.3.4.3.8a.9.9,0,0,1-.4.8A1.6,1.6,0,0,1,151,9.7Zm-.5-.2h.2a2.6,2.6,0,0,0,1.4-.3.8.8,0,0,0,.3-.7c0-.4-.1-.6-.3-.7a1.2,1.2,0,0,0-.9-.3h-.7Zm.2-2.2h-.3v-2h.5c.4,0,.7,0,.9.2a.8.8,0,0,1,.4.7c0,.4-.1.7-.4.8A1.6,1.6,0,0,1,150.7,7.3Zm-.2-.1h.2l1.1-.2a1,1,0,0,0,.3-.8.6.6,0,0,0-.3-.6c-.2-.2-.5-.2-.9-.2h-.4Z"/><path class="cls-2" d="M155.2,6.3h.3V8.8a1.4,1.4,0,0,0,.2.6l.5.2h.5l.4-.2V6.8h-.5V6.6l.9-.3h.2V9.5l.2.2h.3V10h-1.1V9.6l-.6.3h-.6a1.1,1.1,0,0,1-.8-.3,1.3,1.3,0,0,1-.2-.8V6.8h-.6V6.6Z"/><path class="cls-2" d="M155.9,10.1a1,1,0,0,1-.8-.3,1.2,1.2,0,0,1-.3-.9v-2h-.5V6.6l.9-.3h.4V8.8a.7.7,0,0,0,.1.5c.1.2.3.2.5.2h.5l.4-.2V6.9h-.6V6.6l1-.3h.3V9.5h.5V10h-1.2V9.6l-.6.4Zm-1.5-3.3h.5V8.9a1,1,0,0,0,.3.8.8.8,0,0,0,.7.3h.5l.7-.4h.1v.4h1V9.7h-.5V6.4h-.2l-.9.2v.2h.6V9.4h-.1l-.4.2h-.5l-.6-.2c-.1-.1-.1-.3-.1-.6V6.4h-.3l-.8.2Z"/><path class="cls-2" d="M159.3,10V9.7h.4V6.9h-.5V6.6l.9-.2h.3v.7l.3-.4.5-.4h.6v.7h-.2l-.2-.2h-.6c-.1.1-.3.2-.4.4V9.7h.5V10Z"/><path class="cls-2" d="M161.2,10h-2V9.7h.6V6.9h-.6V6.6l1-.3h.3v.6l.3-.2.4-.4h.8v.7h-.5a.5.5,0,0,0-.6.1l-.4.3V9.5h.7Zm-1.9-.1h1.8V9.7h-.7V7.4h0l.5-.4a.5.5,0,0,1,.6-.1h.4V6.4h-.6l-.4.3c-.2.1-.3.3-.4.4h-.1V6.4h-.2l-.9.3h.6V9.6h-.6Z"/><path class="cls-2" d="M166,9.2v.4l-.7.3h-.8a1.3,1.3,0,0,1-1.2-.5,1.9,1.9,0,0,1-.5-1.3,2.4,2.4,0,0,1,.5-1.4,2.1,2.1,0,0,1,1.3-.5,1.3,1.3,0,0,1,1,.4,1.8,1.8,0,0,1,.4,1.1h-2.5a1.8,1.8,0,0,0,.3,1.1,1.3,1.3,0,0,0,1,.4h.5Zm-.7-1.5h0a1.4,1.4,0,0,0-.2-.7.7.7,0,0,0-.6-.2.9.9,0,0,0-.7.3,2.4,2.4,0,0,0-.3.7Z"/><path class="cls-2" d="M164.5,10.1a1.7,1.7,0,0,1-1.2-.5,2.2,2.2,0,0,1,0-2.8,1.5,1.5,0,0,1,1.3-.5,1.2,1.2,0,0,1,1,.4,1.2,1.2,0,0,1,.4,1.1h-2.5a2.1,2.1,0,0,0,.4,1.1,1.3,1.3,0,0,0,.9.4h.5l.6-.4h.1v.5h0l-.7.4Zm.1-3.7a1.3,1.3,0,0,0-1.2.5,1.9,1.9,0,0,0-.5,1.3,1.8,1.8,0,0,0,.4,1.3,1.8,1.8,0,0,0,1.2.5h.7l.7-.3V9.3l-.6.3h-.5a1.2,1.2,0,0,1-1-.5,1.6,1.6,0,0,1-.4-1.1h2.5a1.8,1.8,0,0,0-.3-1.1A1.7,1.7,0,0,0,164.6,6.4Zm.7,1.4h-1.8a1.1,1.1,0,0,1,.3-.8.9.9,0,0,1,.7-.3.6.6,0,0,1,.6.3c.2.1.2.4.2.7Zm-1.7-.2h1.6a.8.8,0,0,0-.2-.7l-.5-.2a.9.9,0,0,0-.6.3A.9.9,0,0,0,163.6,7.6Z"/><path class="cls-2" d="M169.4,9.5l-.6.4h-.6l-.7-.2a1,1,0,0,1,.1-1.5l1.8-.6V7.5c0-.3,0-.6-.1-.7l-.6-.2h-.6v.6h-.7a.5.5,0,0,1,.4-.6,2,2,0,0,1,1.1-.3,1.2,1.2,0,0,1,.9.3c.2.1.3.4.3.8V9.7h.4V10h-1.1Zm0-.2V8l-1.2.4a.9.9,0,0,0-.3.6.9.9,0,0,0,.1.5h.9Z"/><path class="cls-2" d="M168.2,10.1a1.1,1.1,0,0,1-.8-.3,1.4,1.4,0,0,1-.2-.7.8.8,0,0,1,.4-.8,4.4,4.4,0,0,1,1.8-.6V7.5a.8.8,0,0,0-.2-.6.6.6,0,0,0-.5-.2h-.5v.6h-.8c0-.1-.1-.1-.1-.2s.2-.5.5-.7a2,2,0,0,1,1.1-.2l.9.2a1.2,1.2,0,0,1,.3.9V9.5h.5V10h-1.1V9.6l-.6.3Zm.5-3.5.6.2a1,1,0,0,1,.2.7v.3h-.1l-1.8.6a.8.8,0,0,0-.3.7c0,.2,0,.5.2.6a.9.9,0,0,0,.7.3h.5l.7-.4h.1v.4h.9V9.7H170V7.4a1.5,1.5,0,0,0-.2-.8c-.2-.2-.5-.2-.9-.2a2,2,0,0,0-1.1.2c-.2.2-.4.3-.4.6h.7V6.7h.6Zm-.2,3.1-.5-.2a.8.8,0,0,1-.2-.5.9.9,0,0,1,.3-.6l1.3-.5h.1V9.3h-.1l-.5.3Zm.9-1.7-1.2.5a.5.5,0,0,0-.3.5.5.5,0,0,0,.2.4c.1.2.4.2.8.1l.5-.2Z"/><path class="cls-2" d="M172.4,6.3h.3V8.8a1.4,1.4,0,0,0,.2.6l.5.2h.5l.4-.2V6.8h-.5V6.6l.9-.3h.2V9.5l.2.2h.3V10h-1.1V9.6l-.6.3h-.6a1.1,1.1,0,0,1-.8-.3,1.3,1.3,0,0,1-.2-.8V6.8h-.6V6.6Z"/><path class="cls-2" d="M173.1,10.1a1,1,0,0,1-.8-.3,1.2,1.2,0,0,1-.3-.9v-2h-.5V6.6l.9-.3h.4V8.8a.7.7,0,0,0,.1.5c.1.2.3.2.5.2h.5l.4-.2V6.9h-.6V6.6l1-.3h.3V9.5h.5V10h-1.2V9.6l-.6.4Zm-1.5-3.3h.5V8.9a1,1,0,0,0,.3.8.8.8,0,0,0,.7.3h.5l.7-.4h.1v.4h1V9.7h-.5V6.4h-.2l-.9.2v.2h.6V9.4h-.1l-.4.2h-.5l-.6-.2c-.1-.1-.1-.3-.1-.6V6.4h-.3l-.8.2Z"/><path class="cls-2" d="M176.6,11.2V11l.6-.3a1.4,1.4,0,0,0,.2-.7h-.6V9.6a.4.4,0,0,1,.1-.3h.3c.2,0,.4,0,.5.2a.7.7,0,0,1,.1.5,1.4,1.4,0,0,1-.3.9A1.8,1.8,0,0,1,176.6,11.2Z"/><path class="cls-2" d="M176.5,11.3v-.4h0a.6.6,0,0,0,.6-.3c.2-.1.2-.3.2-.6h-.4V9.6c0-.1.1-.3.2-.3l.3-.2.5.2a1.4,1.4,0,0,1,.2.6,1,1,0,0,1-.4.9,1.6,1.6,0,0,1-.9.5Zm.1-.3v.2l.8-.4a1.2,1.2,0,0,0,.4-.9.8.8,0,0,0-.2-.5.5.5,0,0,0-.4-.2h-.3v.3h.1v.2h.5a.8.8,0,0,1-.2.7A.6.6,0,0,1,176.6,11Z"/><path class="cls-2" d="M86.7,14.1h1.9v.3H88v1.7h2.6V14.6H90v-.3h1.8v.3h-.5v4.1h.5v.3H90v-.3h.6v-2H88v2h.6v.3H86.7v-.3h.6V14.6h-.6Z"/><path class="cls-2" d="M91.9,19.2h-2v-.4h.6V16.7H88v1.9h.6v.4H86.7v-.4h.5v-4h-.5v-.4h1.9v.4H88v1.7h2.5V14.6h-.6v-.4h2v.4h-.6v4h.6ZM90,19.1h1.8v-.2h-.6V14.5h.6v-.2H90v.2h.6v1.9H87.9V14.5h.6v-.2H86.8v.2h.5v4.2h-.5v.2h1.7v-.2h-.6V16.6h2.7v2.1H90Z"/><path class="cls-2" d="M93.7,15.5H94v2.4a.8.8,0,0,0,.2.6l.6.2h.4l.5-.2V16h-.6v-.3l.9-.2h.3v3.2h.5v.3H95.7v-.4l-.7.4h-.6a.8.8,0,0,1-.7-.3,1.2,1.2,0,0,1-.3-.9V16h-.5v-.3Z"/><path class="cls-2" d="M94.4,19.2a1.1,1.1,0,0,1-.8-.3c-.2-.2-.2-.5-.2-.9V16h-.6v-.3l.9-.3h.4v2.5c0,.3,0,.5.2.6a.6.6,0,0,0,.5.2h.8V16h-.5v-.3l.9-.3h.3v3.3h.5v.4H95.6v-.4l-.6.3Zm-1.5-3.3h.6V18c0,.4,0,.7.2.9l.7.2H95l.6-.3h.1v.5h1v-.2h-.3l-.2-.2V15.5H96l-.8.3h.5v2.6h0l-.5.2h-.4l-.6-.2a.8.8,0,0,1-.2-.7V15.5h-.2l-.9.3Z"/><path class="cls-2" d="M100.1,18.7c-.2.1-.4.3-.6.3l-.6.2a.8.8,0,0,1-.7-.3.9.9,0,0,1-.3-.7.7.7,0,0,1,.4-.7,6,6,0,0,1,1.8-.6v-.3c0-.3,0-.5-.1-.6l-.6-.2h-.6v.6h-.7v-.2a.7.7,0,0,1,.4-.6,2,2,0,0,1,1.1-.2c.4,0,.7,0,.9.2a1.1,1.1,0,0,1,.3.8v2.2h.5v.3h-1.1Zm0-.3V17.1a3.5,3.5,0,0,0-1.2.5.8.8,0,0,0-.2,1l.5.2h.4Z"/><path class="cls-2" d="M98.9,19.2a1.1,1.1,0,0,1-.8-.3,1.2,1.2,0,0,1-.2-.7.9.9,0,0,1,.4-.8,4.4,4.4,0,0,1,1.8-.6v-.2a.8.8,0,0,0-.2-.6.6.6,0,0,0-.5-.2h-.5v.7h-.6c-.1,0-.2,0-.2-.1v-.2a.6.6,0,0,1,.5-.6,2,2,0,0,1,1.1-.3,1.2,1.2,0,0,1,.9.3,1,1,0,0,1,.3.8v2.2h.5v.4h-1.1v-.4l-.6.3Zm.5-3.5a.8.8,0,0,1,.6.2,1.4,1.4,0,0,1,.2.7v.3h-.1a6,6,0,0,0-1.8.6.9.9,0,0,0-.3.7.8.8,0,0,0,.2.7l.7.2h.5l.7-.4h.1v.5h.9v-.2h-.3l-.2-.2V16.5a1.2,1.2,0,0,0-.2-.7,1.2,1.2,0,0,0-.9-.3l-1.1.2c-.2.2-.4.4-.4.6h.1c0,.1,0,.1.1.1h.5v-.6h.6Zm-.2,3.1c-.2,0-.4,0-.5-.2a.5.5,0,0,1-.2-.4.6.6,0,0,1,.3-.6,2.7,2.7,0,0,1,1.3-.5h.1v1.4h-.1l-.5.2Zm.9-1.6-1.2.4a.7.7,0,0,0-.3.6.8.8,0,0,0,.2.4.7.7,0,0,0,.8,0l.5-.2Z"/><path class="cls-2" d="M102.3,19.1v-.3h.5V14.1h-.6v-.2l1-.3h.3v5.1h.5v.3Z"/><path class="cls-2" d="M104.1,19.2h-1.9v-.4h.6V14.2h-.6v-.3l1-.3h.3v5.1h.6Zm-1.8-.1H104v-.2h-.4l-.2-.2v-5h-.2l-.9.2v.2h.6v4.6l-.2.2h-.4Z"/><path class="cls-2" d="M105.9,15.5h.3v3.2h.6v.3h-1.7v-.3h.5V16h-.5v-.2Zm.1-1.6h.3c0,.1.1.2.1.3v.3h-.7v-.3c0-.1.1-.2.1-.3Z"/><path class="cls-2" d="M106.8,19.2H105v-.4h.5V16.1H105v-.4l.9-.2h.4v3.2h.5Zm-1.7-.1h1.6v-.2h-.4V15.6h-.3l-.8.2h.5v3h-.4Zm.9-4.3a.5.5,0,0,1-.4-.2.4.4,0,0,1-.1-.3c0-.2,0-.3.1-.4h.7a.6.6,0,0,1,.1.4.4.4,0,0,1-.1.3Zm0-.9h-.3a.4.4,0,0,0-.1.3c0,.1,0,.2.1.2s.1.2.3.2l.2-.2c.1,0,.1-.1.1-.2a.4.4,0,0,0-.1-.3Z"/><path class="cls-2" d="M110.9,18.3v.4l-.7.4h-.7a1.7,1.7,0,0,1-1.2-.5,2.1,2.1,0,0,1-.5-1.3,2,2,0,0,1,.5-1.4,1.3,1.3,0,0,1,1.2-.5,1.1,1.1,0,0,1,1,.4,1.2,1.2,0,0,1,.4,1v.2h-2.5a1.6,1.6,0,0,0,.4,1.1,1.1,1.1,0,0,0,.9.5h.6Zm-.7-1.5h0a.8.8,0,0,0-.2-.7l-.6-.2-.6.3a.9.9,0,0,0-.3.7Z"/><path class="cls-2" d="M109.5,19.2a1.5,1.5,0,0,1-1.3-.5,1.9,1.9,0,0,1-.5-1.3,2,2,0,0,1,.5-1.4,1.8,1.8,0,0,1,1.3-.6,1.4,1.4,0,0,1,1.1.4,2.1,2.1,0,0,1,.4,1.1v.2h-2.5a1.6,1.6,0,0,0,.3,1.1,1,1,0,0,0,.9.4h.6l.6-.3h.1v.6h-.1l-.7.3Zm0-3.7a1.8,1.8,0,0,0-1.2.5,2.2,2.2,0,0,0-.5,1.4,1.7,1.7,0,0,0,.5,1.2,1.3,1.3,0,0,0,1.2.5h.7l.7-.3v-.3l-.6.3h-.6a1,1,0,0,1-.9-.4,1.6,1.6,0,0,1-.4-1.2h2.5v-.2a1.5,1.5,0,0,0-.4-1A1.1,1.1,0,0,0,109.5,15.5Zm.8,1.4h-1.9a1.6,1.6,0,0,1,.4-.7.7.7,0,0,1,.6-.3.8.8,0,0,1,.7.2,1.4,1.4,0,0,1,.2.7Zm-1.8-.1h1.7a.8.8,0,0,0-.2-.6c-.1-.2-.3-.2-.6-.2a.7.7,0,0,0-.6.2Z"/><path class="cls-2" d="M112.1,19.1v-.3h.5V16h-.5v-.2l.9-.3h.2v.4l.8-.3h.5a.9.9,0,0,1,.7.3c.2.1.3.4.3.8v2.1h.5v.3h-1.6v-.3h.5v-2a.8.8,0,0,0-.2-.6h-1l-.5.2v2.5h.5v.3Z"/><path class="cls-2" d="M116.1,19.2h-1.8v-.4h.5v-2a.8.8,0,0,0-.2-.5l-.5-.2h-.8v2.5h.5v.4H112v-.4h.6V16.1H112v-.4l1-.2h.3v.3l.7-.3h.5a1.1,1.1,0,0,1,.8.3,2,2,0,0,1,.2.9v2.1h.6Zm-1.7-.1H116v-.2h-.4l-.2-.2V16.6a1.5,1.5,0,0,0-.2-.8.9.9,0,0,0-.7-.3H114l-.7.4h-.1v-.4H113l-.9.2h.6v2.8l-.2.2h-.4v.2h1.6v-.2h-.4V16.2h0l.5-.2h.4a.7.7,0,0,1,.8.8v2l-.2.2h-.3Z"/><path class="cls-2" d="M193.9,38.3a1.2,1.2,0,0,0,.7-1.1V35.1c.4-.1.6-.3.6-.4s-.1-.2-.3-.3l-1.2-.7-.3.6h-3.3l-1.3-.6v5.5l.4-.2a2.4,2.4,0,0,0,.8-.8h3.3v.4Zm-3.9-.7V34.9h3.3v2.7Z"/><path class="cls-2" d="M198.9,31.9l-1.2-.8-.5.8h-9.9v-2h7.8V31l.7-.4a1.1,1.1,0,0,0,.7-1V27c.5-.1.7-.2.7-.4l-.3-.3-1.3-.8-.3.8h-8l-1.4-.8v6.2a18.4,18.4,0,0,1-.6,5.3,16.6,16.6,0,0,1-1.5,3.3l.4.5a10.4,10.4,0,0,0,2.4-4,16.8,16.8,0,0,0,.7-4.3h10.1c-.1,2-.4,3.5-.5,4.6a6.8,6.8,0,0,1-.6,2c0,.1-.2.2-.3.2h-2.4v.3s1.8.7,1.8,1.1a.3.3,0,0,0,.3.3,1.5,1.5,0,0,0,1.2-.5,4.1,4.1,0,0,0,1-2,31.5,31.5,0,0,0,.7-5.8h.3c.3,0,.3-.2.3-.3A.5.5,0,0,0,198.9,31.9Zm-11.6-5.1h7.8v2.5h-7.8Z"/><path class="cls-2" d="M180.7,39.3c-.4-.1-.6-1.8-.6-3.4h-.4l-.9,2.7-.3.6h-4.4c-.4,0-.4-.2-.4-.3V34.2a33.5,33.5,0,0,0,5.3-4,1.5,1.5,0,0,1,.8-.3h.1c.2,0,.3-.1.3-.2a.4.4,0,0,0-.1-.3l-1.6-1.1h0a39.5,39.5,0,0,1-4.8,5V27.1a.5.5,0,0,1,.2-.4c.3-.1.4-.2.4-.3s-.1-.3-.4-.3l-1.6-.2V39c0,.9.6,1.3,1.8,1.3h4.5a3,3,0,0,0,1.6-.3c.3-.3.5-.5.5-.7h0Z"/><path class="cls-2" d="M169.8,26.1l-1.5-.7a25.4,25.4,0,0,1-4.6,9h0l.2.3a13.5,13.5,0,0,0,2.8-2.9v-.3h0a10.7,10.7,0,0,0-.1,1.8v7.8h.3a1.2,1.2,0,0,0,1-1.2V30h0l1.4-3.1.2-.2c.4,0,.5-.1.5-.3S170,26.2,169.8,26.1Z"/><path class="cls-2" d="M106.1,29.3l-.2.3h.1a3.5,3.5,0,0,1,1.3,2c.2.5.4.7.6.7a.9.9,0,0,0,.9-.8,1.3,1.3,0,0,0-.5-1.2,5,5,0,0,0-2.2-1Z"/><path class="cls-2" d="M112,39.8a5.8,5.8,0,0,1-1.8-.4,5.1,5.1,0,0,1-1.6-1.2V34.9c.4-.3.6-.4.6-.6s-.1-.3-.2-.3l-1.5-.8-.4.8H105v.6h2.4v4l-2.2,1.2.3,1c.2.4.4.1.7-.2l2.1-1.8a5.9,5.9,0,0,0,2.2,1.7,7,7,0,0,0,2.5.5h7a1.1,1.1,0,0,0,.9-.5l.6-.4h0v-.3Z"/><path class="cls-2" d="M114.9,39.4a1.4,1.4,0,0,0,.5-1.1v-.4h5.8v-.5l-1-.8a.7.7,0,0,0-.9.1h0a1.4,1.4,0,0,1-1,.5h-2.9V36h2.3v.7l.6-.3a1.1,1.1,0,0,0,.6-1V32.2h0c.4-.1.6,0,.6-.1s-.1-.2-.3-.4l-1.1-.7h0l-.4.7h-2.3V30.4h5.3V30l-1-.8a.6.6,0,0,0-.9.1h0a1.4,1.4,0,0,1-1,.5h-2.4v-.2h.3l.2-.2q0-.2-.3-.3l-1.4-.2v1h-4.3v.6h4.3v1.3h-2l-1.3-.9v5.9l1.2-.7h2.1v1.3h-4.8v.6h4.8v1.7Zm.5-7.2h2.3v1.3h-2.3Zm0,2h2.3v1.2h-2.3Zm-3.3-2h2.1v1.4h-2.1Zm0,3.2V34.2h2.1v1.2Z"/><path class="cls-2" d="M109.7,27.5v1.3c0,.1.9-.2,1.1-.7l.2-.6h4.5v1.2s.8-.2,1-.7l.2-.5h4.4v-.4l-1-.8a.6.6,0,0,0-.9.1h0a1.4,1.4,0,0,1-1,.5h-1.5v-.9l.3-.2q.3-.1.3-.3t-.3-.3l-1.5-.2V27H111v-.9l.3-.2c.2-.1.2-.2.2-.3s0-.2-.2-.3l-1.6-.2V27h-4.5v.5Z"/><path class="cls-2" d="M161.1,39.6a31.9,31.9,0,0,1-7.7-3.4c1.8-1.6,3.6-5.6,3.9-7.4H161v-.4l-1.2-.9a.5.5,0,0,0-.8.1l-.2.2a1.2,1.2,0,0,1-.9.5h-4.8v-2l.4-.2.3-.3q0-.2-.3-.3l-1.9-.2v3h-7.2v.5h3.8a16.5,16.5,0,0,0,3.5,7.4l-.6.5a16.6,16.6,0,0,1-3,2.2,32.1,32.1,0,0,1-3.7,1.8h0v.4h0a20.3,20.3,0,0,0,3.9-1.4,15.2,15.2,0,0,0,4-2.5l.2-.2a24.4,24.4,0,0,0,5.7,3.5,1.1,1.1,0,0,0,1.1,0,5.9,5.9,0,0,1,1.6-.6h0v-.3Zm-8.6-4.2a14.1,14.1,0,0,1-3.8-6.6h7.1A16.4,16.4,0,0,1,152.5,35.4Z"/><path class="cls-2" d="M138.1,36.7H138l-.2.2h0a10.1,10.1,0,0,1,1.4,3.1.5.5,0,0,0,.4.3c.5,0,.8-.3.8-.9a2.2,2.2,0,0,0-.6-1.3Z"/><path class="cls-2" d="M140,33.8a9.5,9.5,0,0,0-1.5-1.2l-.4.2h0a2.6,2.6,0,0,1,.7,1l.3.5a11.5,11.5,0,0,1,.6,1.7.5.5,0,0,0,.5.3c.5,0,.7-.3.7-.8A2.9,2.9,0,0,0,140,33.8Z"/><path class="cls-2" d="M132.5,38.3a1,1,0,0,0-.5-.8,4.9,4.9,0,0,0-1.3-.8h0l-.2.2h0a4.6,4.6,0,0,1,1,2.1.5.5,0,0,0,.4.3C132.3,39.3,132.5,38.9,132.5,38.3Z"/><path class="cls-2" d="M135.3,36.6l-1.3-.4h-.1a15,15,0,0,1-1.6,4.4h0l.3.2h.1a13.1,13.1,0,0,0,2.3-3.6c.4,0,.6-.2.6-.3S135.5,36.7,135.3,36.6Z"/><path class="cls-2" d="M128.9,33.3h1.9V34l.6-.3a1.5,1.5,0,0,0,.6-1.1v-6c.3-.1.4-.2.4-.3s0-.2-.2-.3l-.9-.6h-.2l-.2.5H129l-1-.5c-.1-.1-.2,0-.2.1v8.4C128.3,34,128.9,33.3,128.9,33.3Zm-.1-6.8H131v1.8h-2.2Zm0,2.4H131v1.5h-2.2Zm0,2.1H131v1.7h-2.2Z"/><path class="cls-2" d="M128.1,36.7l-1.3-.4h0a13.9,13.9,0,0,1-1.7,4.4h0l.4.2h.1a13.4,13.4,0,0,0,2.2-3.7c.4-.1.6-.2.6-.4S128.3,36.8,128.1,36.7Z"/><path class="cls-2" d="M139.4,26.3l-.9-1a21.1,21.1,0,0,1-6.1,2.4v.4a21.2,21.2,0,0,0,3.4-.6l-1.6,2.9-.9-.3-.4.2h0a5.7,5.7,0,0,1,1.5,2.1q.2.3.3.3c.4,0,.7-.3.7-.9a1.3,1.3,0,0,0-.3-.7l-.4-.3,2.2-2.4c.4,0,.6-.2.6-.3s.1-.3-.2-.4l-.8-.4a5.8,5.8,0,0,0,1.7-.5,1.4,1.4,0,0,1,.9-.1h.3c.1,0,.2,0,.2-.2Z"/><rect class="cls-2" x="126.3" y="34.3" width="6.1" height="0.6"/><rect class="cls-2" x="133.3" y="34.3" width="6.1" height="0.6"/><path class="cls-2" d="M128.9,41.5c0,.1.6-.2.6-.2a1.4,1.4,0,0,0,.5-1.1V34.9h-1.1Z"/><path class="cls-2" d="M126.4,27.9h.3c.2-.1.2-.2.2-.4l-.2-.2-1.4-.2v8.8h.4a.9.9,0,0,0,.7-.9h0Z"/><path class="cls-2" d="M136,41.5c0,.1.6-.2.6-.2a1.2,1.2,0,0,0,.5-1V34.8H136Z"/><path class="cls-2" d="M134.9,34.5a41.8,41.8,0,0,0,4.2-4.1c.5,0,.8-.1.8-.3s-.1-.2-.3-.3l-1.3-.8a35.4,35.4,0,0,1-4.3,5.5Z"/><path class="cls-2" d="M91.4,31.1l-1.1-.5c-.2,0-.4,0-.5.2a27.6,27.6,0,0,1-4.5,6.5h0l.3.2a19.4,19.4,0,0,0,3.2-3.2V41c0,.1.1.1.2.1h.1A1.2,1.2,0,0,0,90,40V33.6h0V33h0l.9-1.2c.6,0,.8-.1.8-.3Z"/><path class="cls-2" d="M89.8,30.1c0,.1,1-.3,1.2-1l.2-.9h4.3v1.9c0,.1,1-.3,1.2-1l.2-.9h4.2v-.4L99.9,27a.5.5,0,0,0-.8.1H99a1.1,1.1,0,0,1-.9.4H96.9V26.1l.4-.2a.3.3,0,0,0,.3-.3.4.4,0,0,0-.3-.2l-1.8-.3v2.5H91.2V26.1h.4a.5.5,0,0,0,.3-.4.4.4,0,0,0-.3-.2l-1.8-.3v2.5H85.2v.6h4.6Z"/><path class="cls-2" d="M101.4,39.6q-.6-.3-.6-.6c0-.2.1-1,.2-2.2h-.4l-1,2.1a1.1,1.1,0,0,1-.3.5H95.2a.3.3,0,0,1-.3-.3v-3l4.4-2.7h1c.2,0,.3-.1.3-.2a.4.4,0,0,0-.1-.3l-1.3-1a28.9,28.9,0,0,1-4.3,3.6V31.2c.6-.2.6-.3.6-.5s-.2-.3-.5-.3H93.7v9q0,1.2,1.8,1.2h3.8a2.8,2.8,0,0,0,1.6-.3c.4-.2.5-.4.5-.6Z"/></g></svg>