<svg width="414" height="33" viewBox="0 0 414 33" fill="none" xmlns="http://www.w3.org/2000/svg">
    <g id="all-white"></g>
    <g>
        <path class="text-path"
            d="M62.6002 31.97L55.3902 18.76L51.6902 22.93V31.93H43.9102V0.929993H51.6902V14.93L62.4302 0.929993H70.6902L60.8602 13.41L71.2502 31.97H62.6002Z" />
        <path class="text-path"
            d="M74.2109 31.97V0.969971H97.0309V7.26997H81.9509V13.18H94.6409V19.44H81.9509V25.68H97.1209V32.02L74.2109 31.97Z" />
        <path class="text-path"
            d="M117.16 19.76V31.97H109.46V19.68L99.25 0.97998H107.38L113.55 13.06L119.72 0.97998H127.37L117.16 19.76Z" />
        <path class="text-path"
            d="M142.631 32.49C134.761 32.49 129.811 28.8 129.811 21.02V1.01997H137.591V20.49C137.591 23.97 139.421 26.14 142.851 26.14C146.111 26.14 148.021 24.19 148.021 20.54V0.97998H155.631V20.68C155.631 28.41 149.891 32.49 142.631 32.49Z" />
        <path class="text-path"
            d="M179.89 31.97L178.02 26.19H166.93L165.02 31.97H157.59L168.59 0.969971H176.93L187.8 31.97H179.89ZM172.54 8.88998H172.46L168.85 20.1H176.16L172.54 8.88998Z" />
        <path class="text-path"
            d="M210.191 31.97L198.061 13.76H197.971V31.97H190.801V0.969971H198.321L210.101 18.49H210.191V0.97998H217.461V31.98L210.191 31.97Z" />
        <path class="text-path"
            d="M245.269 32.49C238.749 32.49 233.449 28.89 233.449 22.02V11.68C233.449 4.60001 238.449 0.380005 245.269 0.380005C251.529 0.380005 256.659 3.12 256.659 9.86V10.86H252.569V10.29C252.569 5.82001 249.399 4.21001 245.179 4.21001C240.959 4.21001 237.789 6.73 237.789 11.47V21.73C237.789 26.12 240.879 28.68 245.359 28.68C249.439 28.68 252.569 26.68 252.569 22.34V19.9H244.709V16.03H256.659V22.38C256.659 29.28 251.459 32.49 245.269 32.49Z" />
        <path class="text-path"
            d="M282.609 31.97L279.789 23.84H267.699L264.879 31.97H260.529L271.879 0.849976H275.879L287.089 31.97H282.609ZM273.789 6.27998H273.699L268.919 20.19H278.569L273.789 6.27998Z" />
        <path class="text-path" d="M291.461 31.97V0.969971H295.761V28.18H310.851V31.96L291.461 31.97Z" />
        <path class="text-path" d="M315.461 31.97V0.969971H319.761V28.18H334.851V31.96L315.461 31.97Z" />
        <path class="text-path"
            d="M339.52 31.97V0.969971H359.25V4.74998H343.78V14.1H356.69V17.88H343.78V28.18H359.34V31.96L339.52 31.97Z" />
        <path class="text-path"
            d="M383.121 31.97L375.121 19.89H369.601V31.97H365.301V0.970023H376.461C378.937 0.828737 381.388 1.53403 383.411 2.97002C384.742 4.10137 385.736 5.5771 386.284 7.23563C386.832 8.89417 386.914 10.6716 386.519 12.3733C386.125 14.075 385.27 15.6353 384.048 16.8835C382.826 18.1317 381.284 19.0196 379.591 19.45L387.981 31.92L383.121 31.97ZM375.561 4.68003H369.561V16.29H375.561C379.911 16.29 382.391 14.29 382.391 10.37C382.461 6.15003 379.211 4.68003 375.561 4.68003Z" />
        <path class="text-path"
            d="M403.29 19.15V31.97H399.07V19.15L389.07 0.97998H393.77L401.29 15.11L408.85 0.97998H413.42L403.29 19.15Z" />
        <path class="red-dot"
            d="M28.4609 16.31C28.4609 17.4967 28.109 18.6567 27.4498 19.6434C26.7905 20.6301 25.8534 21.3991 24.757 21.8533C23.6607 22.3074 22.4543 22.4262 21.2904 22.1947C20.1265 21.9632 19.0574 21.3917 18.2183 20.5526C17.3792 19.7135 16.8077 18.6444 16.5762 17.4805C16.3447 16.3166 16.4635 15.1102 16.9177 14.0139C17.3718 12.9175 18.1408 11.9805 19.1275 11.3212C20.1142 10.6619 21.2743 10.31 22.4609 10.31C24.0522 10.31 25.5784 10.9421 26.7036 12.0674C27.8288 13.1926 28.4609 14.7187 28.4609 16.31Z" />
        <path class="text-path"
            d="M22.5996 26.15C20.9824 26.1444 19.3915 25.7403 17.9677 24.9734C16.5439 24.2065 15.331 23.1005 14.4364 21.7532C13.5418 20.406 12.9931 18.859 12.8388 17.2492C12.6844 15.6393 12.9292 14.0162 13.5516 12.5236C14.1739 11.0309 15.1545 9.71458 16.4067 8.69114C17.6589 7.6677 19.144 6.96866 20.7307 6.65587C22.3174 6.34309 23.9567 6.42622 25.5037 6.89788C27.0506 7.36954 28.4574 8.21518 29.5996 9.36002L34.1896 4.75004C31.8983 2.47029 28.9843 0.918482 25.8138 0.289542C22.6433 -0.339399 19.3576 -0.0174255 16.3695 1.21502C13.3814 2.44746 10.8241 4.5354 9.01884 7.21659C7.21358 9.89778 6.24088 13.0526 6.22291 16.2849C6.20494 19.5171 7.1425 22.6826 8.91782 25.3837C10.6931 28.0848 13.2271 30.2011 16.2013 31.4667C19.1755 32.7323 22.4574 33.0908 25.6347 32.4971C28.812 31.9035 31.743 30.3842 34.0596 28.13L29.6096 23.25C28.6929 24.1755 27.6007 24.9087 26.397 25.4066C25.1932 25.9046 23.9023 26.1573 22.5996 26.15Z" />
        <path class="text-path" d="M7.77 0.140015H0V32.71H7.77V0.140015Z" />
    </g>
    <style>
        .text-path {
            fill: #000000;
        }

        #all-white:target~g .text-path {
            fill: #fafafa;
        }

        .red-dot {
            fill: #B92C32;
        }

        #all-white:target~g .red-dot {
            fill: #fafafa;
        }
    </style>
</svg>
