<svg width="294" height="34" viewBox="0 0 294 34" fill="none" xmlns="http://www.w3.org/2000/svg">
<g clip-path="url(#clip0_2356_94727)">
<path d="M119.159 9.85554H111.513L108.152 3.95811L107.2 4.49265L110.243 9.85554H95.8406V10.9334H119.159V9.85554Z" fill="#3E3A39"/>
<path d="M113.717 18.0225V12.5282H108.488V18.0576L113.717 18.0225ZM112.739 13.4571V17.0586H109.475V13.4571H112.739Z" fill="#3E3A39"/>
<path d="M105.215 28.3628H116.389V23.5783H105.215V28.3628ZM115.296 24.6824V27.3113H106.326V24.6824H115.296Z" fill="#3E3A39"/>
<path d="M99.4385 32.1306H100.541V20.5111H119.018V29.9574H120.102V19.4157H99.4385V32.1306Z" fill="#3E3A39"/>
<path d="M165.452 10.9334V9.85558H158.547L160.258 6.85867L159.323 6.31537L157.277 9.85558H144.93V10.9334H157.1V14.2195H146.076V28.3102H147.17V15.3061H157.1V33.8308H158.212V15.3061H163.424V27.1886H164.526V14.2195H158.212V10.9334H165.452Z" fill="#3E3A39"/>
<path d="M127.414 24.3407L127.916 25.9268H124.583C126.011 23.2979 126.893 18.1278 127.061 17.0938V16.9799L126.108 16.8309H125.976V16.9098C125.914 17.199 124.794 24.1129 123.154 26.0933L122.404 26.9696H128.26L129.01 29.3356L130.06 28.9938L128.437 23.9552L127.414 24.3407Z" fill="#3E3A39"/>
<path d="M141.904 8.06791L141.022 7.36686L138.967 9.89935H134.152C134.269 9.22415 134.343 8.54218 134.373 7.85761V7.75243H133.27V7.87513C133.232 8.55445 133.149 9.23061 133.023 9.89935H125.536C125.721 8.61997 125.809 7.75244 125.827 7.621V7.52462L124.733 7.4107V7.53336C124.733 7.53336 124.636 8.49729 124.433 9.89935H120.561V10.9772H124.257C123.789 13.7287 122.951 17.4267 121.611 19.3107L121.531 19.4158L122.413 20.0205L122.475 19.9329C123.93 17.8298 124.821 13.7988 125.297 10.9772H132.741C132.249 13.195 131.381 15.3137 130.175 17.2427L130.104 17.3478L131.048 17.9262L131.109 17.8298C131.489 17.1988 131.833 16.5854 132.15 15.9457V31.9468H133.244V13.2292C133.498 12.4771 133.707 11.7104 133.87 10.9334H138.597V15.3674H133.958V16.454H138.597V20.0643H134.09V21.1772H138.597V25.804H134.09V26.8993H143.792V25.804H139.699V21.1772H143.792V20.0643H139.699V16.454H143.659V15.3674H139.699V10.9334H143.95V9.89935H140.326L141.904 8.06791Z" fill="#3E3A39"/>
<path d="M177.95 8.44477H184.82V7.34941H170.347V8.44477H176.856V10.0484H166.59L166.617 18.0138H167.719L167.693 11.1437H176.856V19.1267H177.95V11.1437H185.931V18.1015H187.016V10.0484H177.95V8.44477Z" fill="#3E3A39"/>
<path d="M174.351 15.6566H169.65V16.7344H174.351V15.6566Z" fill="#3E3A39"/>
<path d="M174.219 12.8438H169.527V13.9217H174.219V12.8438Z" fill="#3E3A39"/>
<path d="M184.132 16.0771H179.043V17.1549H184.132V16.0771Z" fill="#3E3A39"/>
<path d="M184.132 13.6499H179.043V14.7277H184.132V13.6499Z" fill="#3E3A39"/>
<path d="M175.841 32.385C175.783 32.31 175.755 32.2164 175.762 32.1221V29.2654H183.47V19.5824H169.906V29.2654H174.668V32.0958C174.65 32.474 174.779 32.8446 175.03 33.1298C175.157 33.2661 175.314 33.3728 175.487 33.4425C175.661 33.5121 175.848 33.543 176.035 33.5329H185.939V32.4551H176.035C175.965 32.4551 175.877 32.4463 175.841 32.385ZM171.008 26.0144H174.668V28.17H171.008V26.0144ZM182.385 24.919H175.762V20.6778H182.412L182.385 24.919ZM174.668 24.919H171.008V20.6778H174.668V24.919ZM182.385 26.0144V28.17H175.762V26.0144H182.385Z" fill="#3E3A39"/>
<path d="M201.753 18.0577H194.371L195.394 15.3763H199.733V7.81392H189.388V15.3763H194.23L193.189 18.0577H187.703V19.1531H201.761L201.753 18.0577ZM190.49 12.3005H197.308V11.1964H190.49V8.90928H198.639V14.2809H190.49V12.3005Z" fill="#3E3A39"/>
<path d="M190.694 25.0942H194.371V30.6324C194.424 30.9889 194.339 31.352 194.133 31.6489C194.101 31.6812 194.063 31.7065 194.02 31.7231C193.978 31.7397 193.932 31.7473 193.886 31.7452H192.361V32.8319H193.877C194.234 32.8257 194.578 32.6954 194.848 32.4638C195.075 32.2129 195.245 31.9164 195.347 31.5944C195.449 31.2724 195.48 30.9323 195.439 30.5973V25.0854H197.617V20.4148H190.658L190.694 25.0942ZM196.567 21.4927V23.9901H191.778V21.4927H196.567Z" fill="#3E3A39"/>
<path d="M202.767 16.1385C206.07 13.8933 208.398 10.4911 209.284 6.61327V6.51689L208.208 6.30656V6.42048C208.208 6.49059 207.027 12.1251 202.185 15.2272L202.088 15.2885L202.687 16.2086L202.767 16.1385Z" fill="#3E3A39"/>
<path d="M208.474 15.0344C206.898 19.0001 203.866 22.2231 199.989 24.0515L199.875 24.104L200.342 25.0942L200.439 25.0329C204.612 23.1134 207.869 19.6567 209.523 15.3937V15.3061L208.482 14.9468L208.474 15.0344Z" fill="#3E3A39"/>
<path d="M209.002 22.956C209.002 22.9999 207.688 27.7318 201.241 30.5359L198.745 27.1885L197.864 27.8195L202.441 33.9973L203.323 33.3488L201.903 31.4385C208.623 28.4153 209.99 23.4555 210.061 23.2277V23.1225L209.002 22.8509V22.956Z" fill="#3E3A39"/>
<path d="M187.281 30.9829L188.224 31.5613L191.514 26.2597L190.588 25.6989L187.281 30.9829Z" fill="#3E3A39"/>
<path d="M208.65 20.7478L209.629 21.3612L214.409 13.7638H220.529V12.6158H215.132L217.672 8.56739L223.299 15.8143L223.369 15.9019L224.287 15.2097L217.593 6.57822L208.65 20.7478Z" fill="#3E3A39"/>
<path d="M217.884 23.7097L218.907 25.1205L215.309 28.0298V22.7721H220.336V15.455H214.162V30.4308L219.586 26.0494L221.994 29.3617L222.946 28.6958L218.828 23.0437L217.884 23.7097ZM215.309 19.1179H219.172V21.6241H215.309V19.1179ZM219.172 17.9788H215.309V16.5679H219.172V17.9788Z" fill="#3E3A39"/>
<path d="M229.719 9.99558L231.801 6.75332L230.83 6.14868L228.352 9.99558H224.322V15.0255H225.468V11.1435H234.967V17.1899H236.122V9.99558H229.719Z" fill="#3E3A39"/>
<path d="M227.065 20.3272H233.829V13.1767H225.892V33.0246H236.069V23.92H227.065V20.3272ZM232.7 14.3246V19.1792H227.065V14.3246H232.7ZM227.065 31.8942V25.0591H234.949V31.8767L227.065 31.8942Z" fill="#3E3A39"/>
<path d="M253.567 13.7901H252.217L251.679 12.3705H249.192L248.681 13.7901H247.358L249.766 7.60352H251.088L253.567 13.7901ZM251.265 11.3453L250.383 9.04939L249.501 11.3453H251.265Z" fill="#9FA0A0"/>
<path d="M253.99 10.7756C253.975 10.2378 254.065 9.70212 254.255 9.19834C254.405 8.8798 254.601 8.58463 254.837 8.32205C255.07 8.08927 255.346 7.90201 255.648 7.76998C256.071 7.59993 256.524 7.51648 256.98 7.52462C257.388 7.51226 257.795 7.5837 258.174 7.73447C258.554 7.88524 258.898 8.11211 259.185 8.40091C259.758 9.04999 260.052 9.89609 260.005 10.7581C260.03 11.1826 259.971 11.6078 259.83 12.0093C259.689 12.4109 259.47 12.7808 259.185 13.0978C258.904 13.3876 258.565 13.6155 258.19 13.7664C257.814 13.9174 257.411 13.9882 257.007 13.9741C256.598 13.9897 256.19 13.9197 255.81 13.7688C255.431 13.6178 255.087 13.3892 254.802 13.0978C254.517 12.7844 254.298 12.4174 254.159 12.0185C254.02 11.6196 253.962 11.197 253.99 10.7756ZM255.296 10.7318C255.245 11.3001 255.412 11.8664 255.763 12.3179C255.918 12.4916 256.108 12.6306 256.321 12.7258C256.534 12.821 256.764 12.8702 256.998 12.8702C257.231 12.8702 257.462 12.821 257.675 12.7258C257.888 12.6306 258.078 12.4916 258.232 12.3179C258.579 11.8576 258.745 11.2875 258.7 10.7143C258.743 10.1522 258.577 9.59386 258.232 9.14576C258.082 8.96764 257.893 8.82607 257.678 8.7319C257.464 8.63773 257.232 8.59345 256.998 8.60244C256.763 8.59469 256.529 8.6395 256.314 8.73353C256.099 8.82757 255.907 8.96846 255.754 9.14576C255.42 9.58846 255.257 10.1359 255.296 10.688V10.7318Z" fill="#9FA0A0"/>
<path d="M260.984 13.7901V7.60348H262.245V10.0396H264.688V7.60348H265.941V13.7901H264.688V11.0736H262.245V13.7901H260.984Z" fill="#9FA0A0"/>
<path d="M266.92 11.792L268.146 11.6518C268.178 11.9863 268.332 12.2978 268.578 12.5281C268.828 12.7258 269.141 12.8284 269.46 12.8173C269.772 12.8289 270.081 12.7431 270.342 12.5719C270.437 12.5048 270.514 12.4169 270.569 12.3151C270.625 12.2133 270.655 12.1003 270.659 11.9848C270.676 11.871 270.657 11.755 270.606 11.6518C270.491 11.5146 270.333 11.4192 270.157 11.3802C270.016 11.3276 269.672 11.24 269.16 11.0997C268.648 11.0127 268.164 10.8054 267.749 10.4951C267.447 10.2394 267.249 9.88306 267.192 9.4927C267.135 9.10234 267.223 8.70478 267.44 8.3745C267.632 8.09402 267.902 7.87485 268.216 7.74357C268.608 7.59807 269.024 7.52672 269.442 7.53324C270.071 7.48545 270.697 7.6626 271.206 8.03274C271.405 8.1993 271.564 8.40744 271.672 8.64224C271.78 8.87705 271.835 9.13274 271.832 9.391L270.589 9.45232C270.558 9.18768 270.429 8.94393 270.227 8.76882C269.993 8.61448 269.713 8.54346 269.433 8.56729C269.139 8.55035 268.847 8.62376 268.596 8.77759C268.532 8.82294 268.48 8.88205 268.444 8.95039C268.407 9.01874 268.387 9.09452 268.384 9.17193C268.397 9.31835 268.463 9.45515 268.569 9.55747C268.932 9.7364 269.322 9.85202 269.724 9.89923C270.191 9.98745 270.645 10.1347 271.074 10.3374C271.364 10.4821 271.608 10.7034 271.779 10.9771C271.943 11.2779 272.022 11.6169 272.009 11.9585C272.012 12.3071 271.911 12.6489 271.718 12.94C271.521 13.2529 271.227 13.493 270.88 13.6235C270.447 13.7903 269.986 13.8707 269.522 13.8601C268.886 13.8889 268.262 13.6934 267.758 13.308C267.291 12.9299 266.991 12.3863 266.92 11.792Z" fill="#9FA0A0"/>
<path d="M272.987 13.7901V7.60348H274.231V13.7901H272.987Z" fill="#9FA0A0"/>
<path d="M275.413 7.60352H276.683V10.9509C276.67 11.2991 276.685 11.6478 276.727 11.9937C276.769 12.2299 276.902 12.4406 277.097 12.5808C277.342 12.7515 277.637 12.8376 277.935 12.8262C278.218 12.8431 278.499 12.7626 278.729 12.5983C278.904 12.4676 279.023 12.2771 279.064 12.0638C279.108 11.7239 279.122 11.3809 279.108 11.0386V7.60352H280.369V10.837C280.379 11.3674 280.347 11.8978 280.272 12.4231C280.207 12.7106 280.071 12.9776 279.878 13.2007C279.684 13.4239 279.438 13.5962 279.161 13.7025C278.334 13.9771 277.439 13.9771 276.612 13.7025C276.332 13.5882 276.086 13.4041 275.898 13.168C275.724 12.9733 275.603 12.7382 275.545 12.4844C275.441 11.9713 275.397 11.4479 275.413 10.9247V7.60352Z" fill="#9FA0A0"/>
<path d="M281.692 13.7901V7.60352H282.953L285.493 11.7308V7.60352H286.64V13.7901H285.396L282.883 9.75918V13.7901H281.692Z" fill="#9FA0A0"/>
<path d="M290.829 11.5119V10.4691H293.536V12.9402C293.196 13.2227 292.812 13.4477 292.399 13.6062C291.911 13.7899 291.394 13.8878 290.873 13.8954C290.279 13.908 289.692 13.766 289.171 13.4835C288.699 13.2117 288.323 12.8015 288.095 12.3093C287.84 11.8012 287.716 11.2381 287.733 10.6706C287.721 10.0772 287.858 9.49013 288.13 8.96185C288.394 8.46554 288.811 8.06634 289.321 7.82269C289.783 7.59506 290.296 7.48657 290.811 7.50721C291.451 7.47276 292.085 7.6449 292.619 7.99793C293.056 8.31564 293.35 8.79057 293.439 9.32114L292.205 9.5665C292.134 9.27284 291.958 9.01457 291.711 8.83919C291.454 8.6556 291.145 8.55744 290.829 8.55877C290.584 8.54741 290.34 8.59027 290.114 8.68424C289.889 8.77822 289.687 8.92094 289.523 9.10206C289.168 9.5248 288.994 10.0691 289.038 10.6181C288.989 11.2107 289.162 11.8005 289.523 12.2742C289.683 12.4561 289.881 12.6001 290.104 12.6956C290.327 12.7911 290.569 12.8358 290.811 12.8263C291.083 12.823 291.352 12.7696 291.605 12.6686C291.841 12.5752 292.063 12.4515 292.266 12.3005V11.5119H290.829Z" fill="#9FA0A0"/>
<path d="M241.732 23.6131V17.4791H245.983V18.5394H242.984V19.9853H245.577V21.0281H242.984V23.6569L241.732 23.6131Z" fill="#9FA0A0"/>
<path d="M246.979 23.6131V17.4791H248.24V23.6131H246.979Z" fill="#9FA0A0"/>
<path d="M249.439 23.6131V17.4791H250.683V22.544H253.849V23.578L249.439 23.6131Z" fill="#9FA0A0"/>
<path d="M254.731 23.6131V17.4791H256.592L257.738 21.694L258.823 17.4791H260.719V23.6131H259.564V18.776L258.329 23.6131H257.121L255.886 18.776V23.6131H254.731Z" fill="#9FA0A0"/>
<path d="M247.314 32.1571H245.955L245.409 30.7551H242.93L242.419 32.1571H241.087L243.504 26.0231H244.818L247.314 32.1571ZM245.029 29.7211L244.148 27.4252L243.266 29.6948L245.029 29.7211Z" fill="#9FA0A0"/>
<path d="M247.976 32.1571V26.0231H250.622C251.11 25.9995 251.599 26.0588 252.068 26.1983C252.37 26.3055 252.625 26.5129 252.791 26.7854C252.984 27.0729 253.083 27.4127 253.073 27.7581C253.083 27.9664 253.05 28.1745 252.977 28.3701C252.905 28.5657 252.793 28.7449 252.65 28.8973C252.327 29.2272 251.895 29.4296 251.433 29.4669C251.679 29.6038 251.903 29.7782 252.095 29.9839C252.368 30.2954 252.61 30.6329 252.818 30.9916L253.576 32.1834H252.086L251.204 30.8339C250.874 30.3665 250.654 30.0744 250.542 29.9576C250.437 29.8458 250.307 29.7589 250.163 29.7035C249.963 29.6456 249.754 29.6218 249.546 29.6334H249.272V32.2009L247.976 32.1571ZM249.228 28.5906H250.163C250.537 28.6142 250.913 28.5966 251.283 28.538C251.434 28.4918 251.563 28.392 251.645 28.2576C251.732 28.1189 251.776 27.9569 251.768 27.7932C251.775 27.6188 251.719 27.4477 251.609 27.3112C251.487 27.1732 251.317 27.0856 251.133 27.0658C251.036 27.0658 250.719 27.0658 250.207 27.0658H249.228V28.5906Z" fill="#9FA0A0"/>
<path d="M258.206 29.8963L259.423 30.2819C259.306 30.866 258.981 31.3889 258.509 31.7555C258.036 32.1221 257.447 32.3081 256.848 32.2798C256.465 32.2856 256.086 32.2105 255.735 32.0594C255.383 31.9083 255.069 31.6848 254.811 31.4035C254.256 30.7665 253.971 29.9403 254.017 29.0989C253.963 28.2272 254.247 27.368 254.811 26.6978C255.084 26.4175 255.414 26.1983 255.779 26.0547C256.144 25.9112 256.535 25.8466 256.928 25.8654C257.606 25.8374 258.269 26.0696 258.78 26.5138C259.08 26.8415 259.293 27.2394 259.397 27.6705L258.171 27.9509C258.109 27.6577 257.947 27.3947 257.712 27.2061C257.46 27.0136 257.149 26.9117 256.831 26.9169C256.619 26.909 256.409 26.95 256.216 27.0367C256.023 27.1234 255.853 27.2533 255.719 27.4164C255.379 27.8724 255.222 28.4377 255.278 29.0025C255.226 29.5918 255.375 30.1815 255.702 30.6762C255.839 30.8368 256.011 30.9644 256.205 31.0494C256.399 31.1344 256.61 31.1746 256.822 31.1669C256.983 31.1737 257.144 31.1485 257.295 31.0928C257.447 31.0372 257.586 30.9521 257.704 30.8427C257.966 30.587 258.142 30.2561 258.206 29.8963Z" fill="#9FA0A0"/>
<path d="M260.508 32.1571V26.0231H261.786V28.4592H264.238V26.0231H265.491V32.1571H264.238V29.4669H261.786V32.1571H260.508Z" fill="#9FA0A0"/>
<path d="M266.725 32.1571V26.0231H267.96V32.1571H266.725Z" fill="#9FA0A0"/>
<path d="M270.738 32.1571L268.525 26.0231H269.892L271.461 30.5886L272.969 26.0231H274.301L272.088 32.1571H270.738Z" fill="#9FA0A0"/>
<path d="M274.946 32.1571V26.0231H279.549V27.0659H276.189V28.4242H279.32V29.4757H276.189V31.1319H279.673V32.1834L274.946 32.1571Z" fill="#9FA0A0"/>
<path d="M241.732 13.7724V7.63841H243.002V10.3637L245.506 7.63841H247.191L244.862 10.0307L248.311 15.2884H246.794L243.972 10.907L242.966 11.9322V13.7812L241.732 13.7724Z" fill="#9FA0A0"/>
<path d="M33.7254 31.9555C33.7959 31.903 33.8753 31.8679 33.9459 31.8066L34.1311 31.6926L34.5279 31.4122C34.574 31.3695 34.6243 31.3313 34.6779 31.2983L34.9865 31.0442C35.0836 30.9566 35.1806 30.8689 35.2864 30.7901L35.5069 30.5798C35.7009 30.4045 35.8861 30.2205 36.0802 30.0189L36.3183 29.7561C37.1717 28.7971 37.9501 27.7747 38.6466 26.6978C39.4315 25.5061 40.1724 24.2091 40.8867 22.8421C41.3277 21.9658 41.7687 21.0895 42.1744 20.2133C42.4742 19.556 42.7829 18.8988 43.0563 18.2329C43.0563 18.1452 43.1445 18.0576 43.1798 17.97L43.3738 17.5143C43.3738 17.4617 43.4179 17.4004 43.4532 17.339H43.4003L43.1974 17.0762V17.0324C43.1849 17.0056 43.1669 16.9817 43.1445 16.9622C43.1143 16.9197 43.082 16.8788 43.0475 16.8396C43.0183 16.8067 42.9917 16.7715 42.9681 16.7344C42.9064 16.6555 42.9064 16.6555 42.8447 16.5766C42.8447 16.5767 42.8446 16.5767 42.8446 16.5329L42.9946 16.4102L43.1974 16.2612L43.3826 16.0947L43.4444 16.0509L43.5149 16.1385C43.5149 16.1823 43.5767 16.2086 43.6031 16.2524C43.6296 16.2963 43.6737 16.3488 43.7178 16.4014L43.8236 16.5416C43.8418 16.4924 43.8654 16.4454 43.8942 16.4014C43.8942 16.3138 43.9647 16.2174 43.9912 16.1385C44.0176 16.0597 44.0617 15.972 44.097 15.8932C44.1323 15.8143 44.097 15.8932 44.097 15.8494C44.097 15.8055 44.1764 15.6741 44.2028 15.5865C44.236 15.518 44.2654 15.4478 44.291 15.3762C44.291 15.3762 44.291 15.3148 44.291 15.2798L44.1587 15.1308C44.1058 15.0607 44.0441 14.9993 44 14.9292L43.7971 14.7277C40.8603 11.4153 37.0591 8.93544 32.2172 8.64627H31.45C31.45 8.64627 31.45 8.64626 31.45 8.69884C31.4377 8.73304 31.4164 8.76332 31.3882 8.78647C31.3578 8.82248 31.3182 8.84971 31.2736 8.86534H31.203C30.8943 8.9442 30.5857 9.03182 30.3211 9.12821C30.2178 9.15705 30.1175 9.19519 30.0212 9.24214V9.68905H29.836L29.3333 9.63648H28.9453C28.6983 9.74163 28.4866 9.85552 28.2573 9.96944H28.2044C27.7857 10.1833 27.3794 10.4202 26.9873 10.6793C26.3602 11.1022 25.7701 11.5771 25.2235 12.0988C25.1 12.2215 24.9677 12.3354 24.8442 12.4669C24.3645 12.9587 23.9196 13.4828 23.5125 14.0354C23.0731 14.6334 22.6696 15.2567 22.3042 15.9019V15.9545C22.3214 15.9812 22.3459 16.0025 22.3748 16.0159C22.463 16.121 22.5688 16.2174 22.6923 16.3488V16.4102L22.8863 16.6117C22.9304 16.6643 22.9745 16.7256 23.0274 16.7782L23.389 17.2251C23.4948 17.3653 23.6095 17.5231 23.7242 17.6983C23.8388 17.8736 23.9446 18.005 24.0593 18.1803C24.1739 18.3555 24.271 18.5133 24.3768 18.6885C24.4826 18.8638 24.5796 19.0303 24.6766 19.2143C24.7737 19.3983 24.8707 19.5648 24.9677 19.7576C25.0647 19.9504 25.1529 20.1257 25.2411 20.3184L25.4969 20.8968C25.5851 21.0895 25.6644 21.2911 25.7438 21.5014C25.8232 21.7117 25.9026 21.8957 25.9819 22.1148C26.0613 22.3339 26.1319 22.5267 26.2112 22.7457L26.4141 23.3854C26.4758 23.6045 26.5375 23.8323 26.6081 24.0602C26.6787 24.288 26.7227 24.5071 26.7845 24.7437C26.8462 24.9803 26.8991 25.2081 26.9521 25.4535C27.005 25.6988 27.0579 25.9267 27.102 26.172C27.1461 26.4174 27.1637 26.4787 27.1902 26.6365C27.2166 26.7942 27.2343 26.8205 27.2431 26.9081C27.2872 27.1447 27.3401 27.3901 27.3842 27.6267C27.4283 27.8633 27.4989 28.0911 27.5606 28.3365C27.6223 28.5818 27.6841 28.7834 27.7546 29.0024C27.8252 29.2215 27.8869 29.4406 27.9663 29.6509C28.0457 29.8612 28.125 30.054 28.2044 30.2468L28.4778 30.8076C28.5716 30.9852 28.6746 31.1578 28.7865 31.3246C28.895 31.4856 29.0159 31.6379 29.1481 31.7803C29.2643 31.9294 29.3975 32.0647 29.545 32.1834C29.6853 32.304 29.8358 32.4125 29.9948 32.5076L30.0918 32.5689L30.2505 32.6566H30.4093C30.773 32.7503 31.1566 32.7351 31.5117 32.6128L31.4323 32.5339L31.6087 32.3674L31.7322 32.2535L31.838 32.1571L31.9968 32.0169L32.1555 32.1571L32.2525 32.2535L32.3848 32.3762H32.473L32.817 32.2535L32.9581 32.1921H33.0463L33.4608 31.9906L33.7254 31.9555ZM22.8687 15.3061L22.7893 15.2359L23.2391 14.6226C23.292 14.6226 23.3449 14.7014 23.389 14.7277L23.5654 14.8591L23.6536 14.9205L23.7682 15.0256L24.0416 15.2535L23.9446 15.3586L23.5213 15.8318L23.3361 15.6829C23.2832 15.639 23.2391 15.5865 23.1773 15.5427C23.1586 15.5328 23.1432 15.5175 23.1332 15.4988L23.0627 15.455L22.8951 15.3236L22.8687 15.3061ZM31.4323 31.5963L31.3441 31.6576L31.2912 31.7102L30.815 32.0607L30.568 31.7277L30.3034 31.3071L30.2505 31.2194C30.2505 31.2194 30.2505 31.2195 30.2505 31.1756L30.3828 31.0968L30.9296 30.7901C30.9825 30.8777 31.0531 30.9741 31.106 31.0705C31.2085 31.2401 31.3204 31.4039 31.4411 31.5612L31.4323 31.5963ZM29.6684 30.1241L29.4656 29.6509L29.4127 29.5458C29.4147 29.5254 29.4147 29.5048 29.4127 29.4844H29.5097L30.1359 29.2303C30.1719 29.3016 30.2043 29.3748 30.2329 29.4494C30.3299 29.6421 30.4093 29.8349 30.5063 30.0277L30.5592 30.1504H30.4886L30.3123 30.2293L29.8537 30.4571C29.836 30.3782 29.7302 30.2643 29.6773 30.1504L29.6684 30.1241ZM25.3381 16.6468L25.2499 16.7256L24.9677 16.9447L24.7296 17.1375C24.6281 17.0059 24.5191 16.88 24.4032 16.7607L24.1651 16.489L24.0857 16.3839L24.6414 15.8494L24.8971 16.1298C25.0294 16.27 25.1441 16.4102 25.2676 16.5592L25.3381 16.6468ZM26.2641 18.005L26.3876 18.1978L26.2994 18.2416L25.9202 18.4695L25.7262 18.5834C25.6291 18.4344 25.5498 18.2854 25.4528 18.1452L25.2587 17.8648C25.2375 17.8208 25.2108 17.7796 25.1794 17.7421L25.8144 17.2865C25.8585 17.3566 25.9026 17.4354 25.9555 17.5055C26.0084 17.5756 26.1759 17.8648 26.3082 18.0313L26.2641 18.005ZM28.76 27.7756L29.5009 27.539C29.5009 27.539 29.8007 28.4153 29.836 28.4942L29.104 28.7571C29.0599 28.6344 28.7865 27.8633 28.7689 27.8019L28.76 27.7756ZM28.5307 27.0308C28.4602 26.7942 28.2662 26.0844 28.2573 26.0231L28.9982 25.8215C29.0423 25.9617 29.2186 26.6277 29.2716 26.803H29.2275L28.5307 27.0308ZM27.6488 23.5256C27.6488 23.3066 27.4283 22.588 27.4195 22.5354L28.1691 22.3427C28.1691 22.4829 28.3632 23.1664 28.4073 23.3679H28.3632L27.6488 23.5256ZM40.0754 13.1416L39.6961 13.6411L39.5638 13.5447C39.4167 13.4288 39.2636 13.3206 39.1052 13.2205C39.059 13.1804 39.0088 13.1451 38.9553 13.1153L38.8671 13.0627L39.3081 12.4055L39.5815 12.5983C39.7226 12.7122 39.8813 12.8261 40.0313 12.9313L40.1636 13.0277L40.0754 13.1416ZM38.629 12.0024L38.5584 12.1251L38.2321 12.6509H38.1704L37.6853 12.3617L37.4295 12.2128C37.4064 12.2187 37.3821 12.2187 37.359 12.2128L37.7206 11.538L38.1527 11.7834L38.6378 12.0638L38.629 12.0024ZM36.9445 11.2401L36.6711 11.7921C36.5035 11.7045 36.3359 11.6344 36.1595 11.5555L35.8156 11.3891H35.745L35.9479 10.9334L36.0625 10.6617H36.1243L36.6446 10.9071L37.015 11.0823L36.9445 11.2401ZM41.4953 14.3071L41.0455 14.7715C40.988 14.7115 40.9261 14.6559 40.8603 14.605L40.437 14.237L40.384 14.1756C40.346 14.1572 40.3128 14.1302 40.287 14.0968L40.7897 13.5097C40.7897 13.5535 40.8779 13.5885 40.9044 13.6236L41.3365 13.9829C41.4247 14.053 41.5041 14.1406 41.5835 14.2019L41.4953 14.3071ZM27.1902 19.6524C27.1902 19.7226 27.2607 19.7839 27.2872 19.854H27.2078L26.908 19.9942L26.5728 20.1432C26.5199 20.0117 26.4582 19.8803 26.3876 19.7401C26.3171 19.5999 26.273 19.4947 26.2112 19.3808L26.1407 19.2406L26.8286 18.8725C26.8544 18.9355 26.8838 18.997 26.9168 19.0566C26.9697 19.2757 27.0667 19.4597 27.1902 19.6524ZM26.8815 20.8705L27.5959 20.5813L27.9663 21.5715L27.2166 21.8169C27.1902 21.738 26.8374 20.8968 26.8374 20.8705H26.8815ZM27.8693 24.288L28.6189 24.104C28.6189 24.104 28.8394 25.0416 28.8482 25.1117L28.1339 25.2957C28.0721 25.1818 27.8252 24.288 27.8252 24.288H27.8693ZM34.378 9.98699H34.5279L35.0836 10.1973L35.3658 10.2937L35.304 10.4426L35.0924 10.9947L34.6073 10.8107L34.1928 10.6705H34.1311L34.2193 10.4076L34.3515 10.0483L34.378 9.98699ZM42.1038 15.7792L41.7334 15.3849L41.654 15.3061L42.1832 14.8066L42.5712 15.2009L42.9064 15.5689L42.8182 15.6478L42.3243 16.0772C42.1832 15.937 42.1832 15.8669 42.0597 15.7792H42.1038ZM32.5965 9.45244L32.8258 9.51378L33.4079 9.67151L33.5578 9.71534H33.6284L33.5666 9.89058L33.399 10.4164L32.914 10.2849C32.7552 10.2323 32.6141 10.1973 32.4642 10.1622L32.5171 9.93441V9.76791L32.5788 9.54884L32.5965 9.45244ZM30.7885 9.08441H31.0002L31.6087 9.20708H31.7763L31.7322 9.39112V9.70657L31.6793 9.96944L31.106 9.86429H30.9296C30.8564 9.85513 30.7823 9.85513 30.7091 9.86429V9.5313L30.762 9.21585V9.1107L30.7885 9.08441Z" fill="url(#paint0_linear_2356_94727)"/>
<path d="M24.4915 12.055C24.5444 12.055 24.5885 11.9586 24.6415 11.9061C24.9843 11.5672 25.3465 11.2483 25.7262 10.9509C25.8035 10.8974 25.8772 10.8388 25.9467 10.7756C26.2378 10.5653 26.5376 10.355 26.8287 10.1622C27.2389 9.90312 27.6628 9.66618 28.0987 9.45244C28.3368 9.32099 28.6102 9.20707 28.866 9.09315H28.9894L29.448 8.90914H26.1849L26.3083 9.09315L26.4759 9.33851L26.3877 9.39986L26.1143 9.59265L25.7792 9.84678L25.6557 9.93441L25.594 9.84678L25.3999 9.59265L25.2765 9.43492L25.1883 9.31223L25.5058 9.09315L25.7615 8.90914H21.3518L21.4224 9.09315V9.18956H21.3694L20.4434 9.49627L20.2935 9.07564L20.2406 8.92668H20.1347C18.992 9.00527 17.8602 9.19903 16.7569 9.50501C7.61998 11.9849 1.85208 21.2298 0 24.6385C0.0606644 24.5813 0.125519 24.5285 0.194028 24.4808C0.978629 23.8098 1.80328 23.1865 2.66347 22.6143C2.88395 22.4741 3.10444 22.3251 3.34256 22.1849L3.51013 22.0798L3.35138 22.0097H3.272L3.38666 21.8081C3.4484 21.6504 3.53659 21.5189 3.60715 21.37C3.6653 21.2735 3.71829 21.174 3.7659 21.072L3.96874 21.186L4.2245 21.3437L4.44499 21.4576L4.36562 21.6066V21.6504H4.43617C4.87091 21.4156 5.31845 21.2049 5.77672 21.0195C6.9123 20.5347 8.13065 20.27 9.36622 20.2395C12.1796 20.2395 14.3139 21.8782 15.7515 25.1117C15.9455 25.5499 16.1219 25.988 16.2895 26.4875L16.3688 25.8653L17.1361 25.9705C17.1361 26.0318 17.0215 26.8468 17.0038 26.9782L16.4394 26.9169C16.4508 26.9818 16.4656 27.0462 16.4835 27.1097C16.5452 27.3112 16.6158 27.504 16.6775 27.7143H16.9333C16.9333 27.7756 16.9333 27.837 16.9333 27.8983C16.9333 28.1086 16.9333 28.3014 16.9333 28.5117C16.9279 28.5258 16.9279 28.5414 16.9333 28.5555C17.0215 28.9061 17.092 29.2653 17.1626 29.6246C17.2861 30.2293 17.4007 30.8514 17.4889 31.5174C17.6741 30.6411 17.8505 29.6597 18.0357 28.5555C18.6354 25.0504 19.3851 20.7128 21.2372 16.8921C21.2642 16.8225 21.2966 16.7552 21.3342 16.6906L21.5811 16.1999L21.731 15.9194C21.735 15.9112 21.737 15.9023 21.737 15.8932C21.737 15.8841 21.735 15.8751 21.731 15.8669L21.9515 15.4725L22.1103 15.2097L22.3396 14.8329C22.9094 13.8028 23.6352 12.8659 24.4915 12.055ZM16.8539 10.0483C17.1802 9.90813 17.4977 9.7679 17.8152 9.64522L17.9122 9.87306L18.0093 10.1097L18.1151 10.355C18.1151 10.355 18.071 10.355 18.0445 10.355L17.1626 10.7231L16.9774 10.32L16.9068 10.171V10.0834L16.8539 10.0483ZM25.0912 10.355L25.0031 10.4426C24.7738 10.6267 24.5444 10.837 24.3328 11.0298L23.8918 10.5741L23.7948 10.4689L24.5444 9.80297H24.5885L25.0912 10.355ZM5.25637 18.7937C5.46804 18.5133 5.67971 18.2504 5.90901 17.97L6.49991 18.4519C6.47333 18.492 6.44386 18.5301 6.41172 18.5659L5.88255 19.2581L5.35339 18.855L5.25637 18.7937ZM6.41172 17.3653C6.64985 17.0937 6.89679 16.8483 7.13491 16.5942L7.68171 17.1287C7.65711 17.1649 7.62741 17.1973 7.59352 17.2251C7.39067 17.4442 7.18783 17.6633 6.9938 17.8911L6.41172 17.3653ZM15.187 10.8282C15.5134 10.6617 15.822 10.5215 16.1395 10.3813L16.2277 10.5829L16.4747 11.0648L16.3953 11.1086C16.1131 11.2401 15.822 11.3715 15.5134 11.5205L15.2311 10.9772V10.9334L15.187 10.8282ZM20.3288 14.754C20.4233 14.5854 20.5263 14.4216 20.6374 14.2633C20.7168 14.1406 20.805 14.0004 20.902 13.8777L21.3871 14.2019H21.4312L21.5458 14.2808C21.5458 14.2808 21.4929 14.3684 21.4576 14.4035L21.4047 14.4911L21.3254 14.5962C21.2195 14.7627 21.1049 14.9205 21.0079 15.087L20.6198 14.8591L20.4434 14.7365L20.3288 14.754ZM22.516 11.8009C22.7453 11.538 22.9834 11.2751 23.2303 11.0298L23.7948 11.5643L23.7066 11.6607L23.0981 12.3004L22.613 11.8798L22.516 11.8009ZM22.5953 12.8875C22.5733 12.931 22.5467 12.9721 22.516 13.0102C22.419 13.1241 22.3219 13.2555 22.2249 13.387C22.1279 13.5184 22.0574 13.5885 21.9868 13.6937L21.4488 13.2994L21.3606 13.2292C21.5547 12.9488 21.7663 12.686 21.9868 12.4231L22.5953 12.8875ZM14.8431 11.871L14.7637 11.9148C14.4815 12.0638 14.2081 12.204 13.9435 12.3617L13.6348 11.8272L13.5554 11.6957C13.635 11.6443 13.7174 11.5975 13.8024 11.5555L14.4727 11.1963L14.8431 11.871ZM13.1939 12.7473L12.4089 13.2468L12.065 12.7385L11.9856 12.6071C12.2855 12.4143 12.5677 12.2215 12.8675 12.055L13.2556 12.7035L13.1939 12.7473ZM11.6769 13.7375C11.43 13.904 11.183 14.0792 10.9361 14.272L10.5568 13.7638L10.4687 13.6411C10.7597 13.4308 11.0331 13.2205 11.3506 13.0277L11.7827 13.6674L11.6769 13.7375ZM10.2305 14.7978L9.5338 15.3586L9.11928 14.8854L9.02227 14.7715C9.30449 14.5349 9.56907 14.3246 9.84247 14.1143L10.3275 14.7277L10.2305 14.7978ZM8.88115 16.0334C8.66067 16.2262 8.44018 16.4277 8.22852 16.638L7.77873 16.1824L7.68171 16.0947C7.93748 15.8494 8.19324 15.5952 8.449 15.3762L8.97817 15.9457C8.97817 15.9457 8.90761 15.9545 8.88115 16.0334ZM17.6212 23.403L16.8716 23.2189C16.9421 22.886 17.0215 22.5442 17.1273 22.2112L17.877 22.4128C17.8681 22.4215 17.6829 23.0437 17.6212 23.3591V23.403ZM18.0798 21.6504L17.339 21.4313C17.4448 21.0808 17.5418 20.7653 17.6565 20.4411L18.3885 20.6865L18.0798 21.6504ZM18.6442 19.9592L17.9211 19.6963C18.0357 19.372 18.168 19.0478 18.3003 18.7148L19.0147 19.0127C18.997 19.0478 18.7413 19.6787 18.6442 19.9416V19.9592ZM19.3145 18.3117L18.609 18.005C18.7501 17.6808 18.9 17.3653 19.0499 17.0499L19.7467 17.3916C19.7202 17.4267 19.438 18.0401 19.3145 18.2942V18.3117ZM20.5051 15.972C20.3729 16.2174 20.2318 16.4628 20.0995 16.7169L19.4821 16.3927H19.4027C19.5791 16.0772 19.7379 15.7705 19.9231 15.4725L20.5845 15.8581L20.5051 15.972ZM4.21568 20.3535C4.40089 20.0643 4.60374 19.7664 4.78894 19.4772L5.43276 19.9153C5.43276 19.9153 5.43276 19.9942 5.35339 20.038C5.20346 20.2483 5.06235 20.4674 4.92124 20.6777C4.92393 20.701 4.92393 20.7245 4.92124 20.7478H4.86832L4.34797 20.4323L4.21568 20.3535ZM16.51 25.0328C16.5717 24.6999 16.6334 24.3581 16.7128 24.0076L17.4625 24.1653C17.4625 24.2267 17.3302 24.8927 17.2772 25.1643L16.5452 25.0504L16.51 25.0328ZM19.535 9.02306V9.13698L19.7114 9.6277L19.7555 9.74163H19.7026L19.2881 9.89935L18.7942 10.0834L18.7501 9.97821L18.6531 9.74163L18.5737 9.52255L18.512 9.36483L19.0411 9.17204L19.535 9.02306Z" fill="#1497B9"/>
<path d="M61.833 16.3227C61.7056 11.5056 60.0788 6.84617 57.1764 2.98559C56.0563 1.566 54.1602 -0.633475 52.0788 0.17271C49.9974 0.978896 48.7979 4.48406 48.11 6.45571C47.1487 8.92685 46.3461 11.4506 45.376 13.9305C45.376 13.9918 44.6705 15.4114 44.8116 15.5516C45.6561 16.5935 46.4282 17.6914 47.1223 18.8377C49.8339 23.0601 51.6135 27.8059 52.3434 32.7619C59.0902 30.0366 61.8154 23.1665 61.8154 16.3227C61.8242 16.1299 61.833 16.533 61.833 16.3227Z" fill="url(#paint1_linear_2356_94727)"/>
<path d="M51.1704 29.6946C51.1704 29.6946 50.3767 26.9693 49.8916 25.725C48.6132 22.2877 46.83 19.0572 44.6 16.1384C42.157 22.0621 39.0437 29.7034 33.073 32.8668H51.8848C51.8848 32.7616 51.1704 29.6946 51.1704 29.6946Z" fill="url(#paint2_linear_2356_94727)"/>
<path d="M69.3382 7.64728L68.4562 7.41947C67.9631 9.05188 66.9119 10.462 65.4841 11.4066L65.9604 12.1865C67.5914 11.1182 68.7883 9.5098 69.3382 7.64728Z" fill="#4D4F4F"/>
<path d="M67.2655 14.5086V19.4334H68.1475V13.4045C68.6562 12.6689 69.046 11.8588 69.3028 11.0035L68.4209 10.7669C67.9298 12.4003 66.8781 13.8111 65.4487 14.754L65.925 15.5339C66.4134 15.2495 66.8639 14.9051 67.2655 14.5086Z" fill="#4D4F4F"/>
<path d="M76.1112 8.36583H70.1228V9.27717H76.1112V8.36583Z" fill="#4D4F4F"/>
<path d="M70.1228 12.7998H74.7442V17.1199C74.7457 17.3574 74.6612 17.5876 74.5061 17.7683C74.4177 17.8465 74.3143 17.9061 74.2022 17.9438C74.0901 17.9814 73.9715 17.9963 73.8535 17.9874H72.46V18.8637H73.8535C74.0953 18.8745 74.3367 18.8357 74.5628 18.7498C74.7889 18.6638 74.9947 18.5326 75.1675 18.3642C75.4906 18.0091 75.667 17.5459 75.6614 17.0673V12.7647H78.6071V11.8884H70.1228V12.7998Z" fill="#4D4F4F"/>
<path d="M83.0609 17.1461L81.5616 17.6982V13.5797H80.6796V19.0039L85.4774 17.2513L85.1599 16.375L84.0134 16.7956V12.975H87.1178L87.2413 12.7034C87.6441 11.7302 87.9398 10.7165 88.1232 9.68016H91.2277C90.968 11.4246 90.407 13.1114 89.5696 14.6662C89.062 14.3422 88.5348 14.0496 87.9909 13.79L87.5941 14.6137C88.1135 14.8712 88.6144 15.164 89.0934 15.49C88.353 16.6559 87.3431 17.6292 86.1477 18.3291L86.6063 19.1265C87.9274 18.3545 89.0457 17.2825 89.8695 15.9982C91.233 16.8998 92.3876 18.0798 93.2561 19.4595L94.0587 19.0126C93.1166 17.4726 91.8462 16.1565 90.3369 15.157C91.2735 13.448 91.8863 11.5827 92.1449 9.65387H93.3355V8.77758H88.1938C88.2269 8.33274 88.2062 7.88556 88.132 7.44563L87.2501 7.61213C87.5323 9.16316 86.7562 11.3188 86.4652 12.0724H83.9604V9.02294H85.2657V8.14665H78.8452V9.02294H83.0432L83.0609 17.1461Z" fill="#4D4F4F"/>
<path d="M66.7632 21.1948L66.2781 21.9659C67.4515 22.7207 68.4865 23.669 69.3385 24.77L70.0969 24.2442C69.1722 23.0433 68.0441 22.0114 66.7632 21.1948Z" fill="#4D4F4F"/>
<path d="M66.4101 24.7086L65.9163 25.471C66.5865 25.9091 68.3504 27.2236 68.6503 28.4066C68.2077 29.7478 67.4275 30.9544 66.3837 31.9117L66.9834 32.5952C68.2054 31.4882 69.0991 30.07 69.5675 28.4942V28.2926C69.2412 26.5488 66.7012 24.8926 66.4101 24.7086Z" fill="#4D4F4F"/>
<path d="M75.5115 30.054L76.2523 31.3159H72.0278C72.9136 30.1442 73.4788 28.7645 73.6683 27.3113H77.9809V26.435H73.5712V23.6133H76.6933V22.737H73.5712V21.0633H72.6893V22.737H70.4051V23.6133H72.7069V26.435H70.1581V27.3113H72.751C72.5461 28.8816 71.8015 30.3334 70.6432 31.4211L69.6201 32.2273H76.7991L77.5929 33.5943L78.3866 33.1298L76.3141 29.6247L75.5115 30.054Z" fill="#4D4F4F"/>
<path d="M87.0474 20.818H86.1302V26.5928L80.5122 32.1747L81.1649 32.8144L86.6064 27.4077L93.0623 33.1562L93.6708 32.4814L87.0474 26.5752V20.818Z" fill="#4D4F4F"/>
</g>
<defs>
<linearGradient id="paint0_linear_2356_94727" x1="-2.00165" y1="17.1291" x2="293.301" y2="17.1291" gradientUnits="userSpaceOnUse">
<stop stop-color="#00859D"/>
<stop offset="1" stop-color="#0077AC"/>
</linearGradient>
<linearGradient id="paint1_linear_2356_94727" x1="0.321353" y1="17.0019" x2="293.384" y2="17.0019" gradientUnits="userSpaceOnUse">
<stop stop-color="#52A36A"/>
<stop offset="0.25" stop-color="#4FA26C"/>
<stop offset="0.46" stop-color="#44A172"/>
<stop offset="0.65" stop-color="#339E7B"/>
<stop offset="0.84" stop-color="#1A9A89"/>
<stop offset="0.99" stop-color="#009697"/>
</linearGradient>
<linearGradient id="paint2_linear_2356_94727" x1="0.688082" y1="16.9897" x2="293.123" y2="16.9897" gradientUnits="userSpaceOnUse">
<stop offset="0.33" stop-color="#009076"/>
<stop offset="1" stop-color="#0C8DB1"/>
</linearGradient>
<clipPath id="clip0_2356_94727">
<rect width="294" height="34" fill="white"/>
</clipPath>
</defs>
</svg>
