<svg width="286" height="63" viewBox="0 0 286 63" fill="none" xmlns="http://www.w3.org/2000/svg">
<path d="M31.7375 30.855H23.6234L31.7375 0H39.7489L31.7375 30.855Z" fill="black"/>
<path d="M47.863 30.855H39.7489L47.863 0H55.9771L47.863 30.855Z" fill="black"/>
<path d="M39.749 61.6115H47.8631L39.749 30.855H31.6349L39.749 61.6115Z" fill="black"/>
<path d="M72.1028 61.6115H80.1142L64.2968 0H56.2854L72.1028 61.6115Z" fill="black"/>
<path d="M23.6235 61.6115H31.7376L23.6235 30.855H15.5094L23.6235 61.6115Z" fill="black"/>
<path d="M8.11412 0H0V61.6115H8.11412V0Z" fill="black"/>
<path d="M110.021 14.4478L104.561 5.82775L109.521 0.327752H106.421L100.401 7.10775V0.327752H97.8613V14.4478H100.401V10.4278L102.841 7.72775L106.981 14.4478H110.021Z" fill="black"/>
<path d="M113.998 4.48775H111.638V14.4478H113.998V4.48775ZM113.998 2.52775V0.327752H111.618V2.52775H113.998Z" fill="black"/>
<path d="M125.503 14.4478V8.20775C125.503 6.86775 125.343 6.08775 124.943 5.48775C124.443 4.72775 123.663 4.30775 122.463 4.30775C121.063 4.30775 119.883 4.94775 119.163 5.96775V4.48775H116.843V14.4478H119.183V9.64775C119.183 8.68775 119.263 7.94775 119.763 7.28775C120.163 6.74775 120.823 6.40775 121.463 6.40775C122.103 6.40775 122.543 6.58775 122.803 6.96775C123.083 7.36775 123.163 7.94775 123.163 8.72775V14.4478H125.503Z" fill="black"/>
<path d="M134.62 14.0078C134.62 14.8478 134.54 15.5278 134.26 15.9478C133.92 16.5078 133.32 16.7878 132.36 16.7878C131.28 16.7878 130.54 16.2278 130.36 15.1278L127.9 15.5678C128.34 17.6278 129.88 18.6878 132.3 18.6878C133.58 18.6878 134.72 18.4478 135.5 17.8878C136.56 17.1478 137.04 15.8478 137.04 13.7878V4.50775H134.72V5.72775C134.16 4.82775 133.2 4.32775 131.82 4.32775C129.36 4.32775 127.68 6.22775 127.68 9.34775C127.68 12.4878 129.24 14.3478 131.68 14.3478C132.96 14.3478 133.92 13.9278 134.62 13.0678V14.0078ZM134.68 9.54775C134.66 11.5678 133.78 12.5278 132.42 12.5278C131 12.5278 130.1 11.3678 130.1 9.32775C130.1 7.38775 131.02 6.26775 132.5 6.26775C133.94 6.26775 134.68 7.50775 134.68 9.54775Z" fill="black"/>
<path d="M156.401 3.82775C155.681 1.48775 153.841 0.00775146 151.041 0.00775146C147.041 0.00775146 144.381 2.64775 144.381 7.28775C144.381 11.9278 146.841 14.7678 150.901 14.7678C153.621 14.7678 155.701 13.3678 156.581 10.7678L154.141 9.88775C153.761 11.6078 152.561 12.4878 151.001 12.4878C148.501 12.4878 147.041 10.4078 147.041 7.18775C147.041 4.14775 148.421 2.26775 151.001 2.26775C152.541 2.26775 153.521 3.20775 153.901 4.74775L156.401 3.82775Z" fill="black"/>
<path d="M164.201 8.22775C162.621 8.32775 160.701 8.60775 159.721 9.04775C158.541 9.58775 157.901 10.4278 157.901 11.7078C157.901 13.4878 159.181 14.6278 161.001 14.6278C162.421 14.6278 163.501 14.1278 164.261 13.2078C164.261 13.5078 164.381 14.1278 164.461 14.4478H166.721C166.521 13.9678 166.441 12.9878 166.441 11.8078V8.14775C166.441 6.58775 166.221 5.76775 165.601 5.18775C164.941 4.54775 163.981 4.22775 162.621 4.22775C160.081 4.22775 158.481 5.42775 158.321 7.58775L160.561 7.78775C160.681 6.68775 161.221 6.06775 162.441 6.06775C163.061 6.06775 163.541 6.20775 163.821 6.48775C164.081 6.74775 164.201 7.12775 164.201 7.68775V8.22775ZM164.201 10.2478C164.181 10.8078 164.081 11.3678 163.761 11.8278C163.321 12.4878 162.581 12.8678 161.681 12.8678C160.641 12.8678 160.161 12.3278 160.161 11.6078C160.161 11.0478 160.401 10.6678 161.021 10.3878C161.721 10.0478 163.061 9.84775 164.201 9.78775V10.2478Z" fill="black"/>
<path d="M171.535 14.4478V9.80775C171.535 8.74775 171.715 8.04775 172.055 7.54775C172.495 6.90775 173.155 6.56775 173.935 6.56775C174.375 6.56775 174.675 6.64775 175.055 6.84775V4.48775C174.755 4.40775 174.515 4.36775 174.195 4.36775C172.815 4.36775 172.035 4.94775 171.435 6.02775V4.48775H169.195V14.4478H171.535Z" fill="black"/>
<path d="M109.401 26.8278C108.681 24.4878 106.841 23.0078 104.041 23.0078C100.041 23.0078 97.3813 25.6478 97.3813 30.2878C97.3813 34.9278 99.8413 37.7678 103.901 37.7678C106.621 37.7678 108.701 36.3678 109.581 33.7678L107.141 32.8878C106.761 34.6078 105.561 35.4878 104.001 35.4878C101.501 35.4878 100.041 33.4078 100.041 30.1878C100.041 27.1478 101.421 25.2678 104.001 25.2678C105.541 25.2678 106.521 26.2078 106.901 27.7478L109.401 26.8278Z" fill="black"/>
<path d="M111.481 27.4878V33.7678C111.481 34.9278 111.661 35.8078 112.101 36.4278C112.661 37.2278 113.441 37.6278 114.721 37.6278C116.121 37.6278 117.141 36.9878 117.821 36.0278V37.4478H120.121V27.4878H117.781V32.6478C117.781 33.5878 117.581 34.2478 117.161 34.7878C116.801 35.2278 116.221 35.5678 115.561 35.5678C114.801 35.5678 114.321 35.2678 114.061 34.7278C113.881 34.3478 113.801 33.7678 113.801 33.1678V27.4878H111.481Z" fill="black"/>
<path d="M125.277 23.3278H122.917V37.4478H125.277V23.3278Z" fill="black"/>
<path d="M132.982 35.5478C132.662 35.6678 132.302 35.7278 132.022 35.7278C131.302 35.7278 131.002 35.3678 131.002 34.3478V29.3678H132.942V27.4878H131.002V24.2478H128.682V27.4878H127.082V29.3678H128.642V34.8078C128.642 35.7278 128.782 36.4278 129.202 36.9078C129.602 37.3878 130.262 37.6278 131.242 37.6278C131.822 37.6278 132.462 37.5478 132.982 37.4078V35.5478Z" fill="black"/>
<path d="M134.751 27.4878V33.7678C134.751 34.9278 134.931 35.8078 135.371 36.4278C135.931 37.2278 136.711 37.6278 137.991 37.6278C139.391 37.6278 140.411 36.9878 141.091 36.0278V37.4478H143.391V27.4878H141.051V32.6478C141.051 33.5878 140.851 34.2478 140.431 34.7878C140.071 35.2278 139.491 35.5678 138.831 35.5678C138.071 35.5678 137.591 35.2678 137.331 34.7278C137.151 34.3478 137.071 33.7678 137.071 33.1678V27.4878H134.751Z" fill="black"/>
<path d="M148.528 37.4478V32.8078C148.528 31.7478 148.708 31.0478 149.048 30.5478C149.488 29.9078 150.148 29.5678 150.928 29.5678C151.368 29.5678 151.668 29.6477 152.048 29.8477V27.4878C151.748 27.4078 151.508 27.3678 151.188 27.3678C149.808 27.3678 149.028 27.9478 148.428 29.0278V27.4878H146.188V37.4478H148.528Z" fill="black"/>
<path d="M159.435 31.2278C157.855 31.3278 155.935 31.6078 154.955 32.0478C153.775 32.5878 153.135 33.4278 153.135 34.7078C153.135 36.4878 154.415 37.6278 156.235 37.6278C157.655 37.6278 158.735 37.1278 159.495 36.2078C159.495 36.5078 159.615 37.1278 159.695 37.4478H161.955C161.755 36.9678 161.675 35.9878 161.675 34.8078V31.1478C161.675 29.5878 161.455 28.7678 160.835 28.1878C160.175 27.5478 159.215 27.2278 157.855 27.2278C155.315 27.2278 153.715 28.4278 153.555 30.5878L155.795 30.7878C155.915 29.6878 156.455 29.0678 157.675 29.0678C158.295 29.0678 158.775 29.2078 159.055 29.4878C159.315 29.7478 159.435 30.1277 159.435 30.6877V31.2278ZM159.435 33.2478C159.415 33.8078 159.315 34.3678 158.995 34.8278C158.555 35.4878 157.815 35.8678 156.915 35.8678C155.875 35.8678 155.395 35.3278 155.395 34.6078C155.395 34.0478 155.635 33.6678 156.255 33.3878C156.955 33.0478 158.295 32.8478 159.435 32.7878V33.2478Z" fill="black"/>
<path d="M166.789 23.3278H164.429V37.4478H166.789V23.3278Z" fill="black"/>
<path d="M184.126 30.6478C183.866 31.6278 183.446 32.4678 182.946 33.1278L180.466 29.8878C182.566 28.6078 183.206 27.5478 183.206 26.0678C183.206 24.4478 181.866 23.2678 179.906 23.2678C177.586 23.2678 176.246 24.5878 176.246 26.4678C176.246 27.4078 176.566 28.2678 177.286 29.2878C174.706 30.6478 174.006 31.9078 174.006 33.6078C174.006 35.9878 175.886 37.6478 178.686 37.6478C180.206 37.6478 181.566 37.2878 182.706 36.2878C183.846 37.4678 184.566 37.5078 185.606 37.5078C185.806 37.5078 186.106 37.4878 186.346 37.4478V35.4878C186.226 35.5078 186.026 35.5278 185.906 35.5278C185.266 35.5278 184.966 35.3478 184.546 34.9278L184.306 34.6878C185.006 33.8878 185.586 32.9278 186.066 31.6678L184.126 30.6478ZM181.386 34.7478C180.686 35.3878 179.926 35.6878 178.986 35.6878C177.506 35.6878 176.406 34.9078 176.406 33.5678C176.406 32.5678 176.826 31.8278 178.446 30.9078L181.386 34.7478ZM179.386 28.4078C178.686 27.4478 178.486 26.9478 178.486 26.3478C178.486 25.6278 179.006 25.1078 179.866 25.1078C180.646 25.1078 181.146 25.6078 181.146 26.2678C181.146 27.0078 180.666 27.6678 179.386 28.4078Z" fill="black"/>
<path d="M205.18 37.4478L200.02 23.3278H197.2L191.84 37.4478H194.58L195.72 34.1478H201.3L202.42 37.4478H205.18ZM196.34 32.1478C197.58 28.6878 198.08 27.2878 198.54 25.8678C199.2 27.9278 199.88 29.8478 200.68 32.1478H196.34Z" fill="black"/>
<path d="M209.14 37.4478V32.8078C209.14 31.7478 209.32 31.0478 209.66 30.5478C210.1 29.9078 210.76 29.5678 211.54 29.5678C211.98 29.5678 212.28 29.6477 212.66 29.8477V27.4878C212.36 27.4078 212.12 27.3678 211.8 27.3678C210.42 27.3678 209.64 27.9478 209.04 29.0278V27.4878H206.8V37.4478H209.14Z" fill="black"/>
<path d="M219.462 35.5478C219.142 35.6678 218.782 35.7278 218.502 35.7278C217.782 35.7278 217.482 35.3678 217.482 34.3478V29.3678H219.422V27.4878H217.482V24.2478H215.162V27.4878H213.562V29.3678H215.122V34.8078C215.122 35.7278 215.262 36.4278 215.682 36.9078C216.082 37.3878 216.742 37.6278 217.722 37.6278C218.302 37.6278 218.942 37.5478 219.462 37.4078V35.5478Z" fill="black"/>
<path d="M237.804 26.8278C237.084 24.4878 235.244 23.0078 232.444 23.0078C228.444 23.0078 225.784 25.6478 225.784 30.2878C225.784 34.9278 228.244 37.7678 232.304 37.7678C235.024 37.7678 237.104 36.3678 237.984 33.7678L235.544 32.8878C235.164 34.6078 233.964 35.4878 232.404 35.4878C229.904 35.4878 228.444 33.4078 228.444 30.1878C228.444 27.1478 229.824 25.2678 232.404 25.2678C233.944 25.2678 234.924 26.2078 235.304 27.7478L237.804 26.8278Z" fill="black"/>
<path d="M246.603 34.2278C246.243 35.3678 245.383 35.7678 244.363 35.7678C242.783 35.7678 241.843 34.7878 241.763 33.0678H248.723C248.703 29.5078 247.383 27.2078 244.223 27.2078C241.323 27.2078 239.403 29.1878 239.403 32.3678C239.403 35.6678 241.123 37.7478 244.323 37.7478C246.403 37.7478 247.923 36.7478 248.663 34.9478L246.603 34.2278ZM241.783 31.3878C241.943 29.8278 242.883 29.0278 244.163 29.0278C245.443 29.0278 246.263 29.8278 246.343 31.3878H241.783Z" fill="black"/>
<path d="M259.608 37.4478V31.2078C259.608 29.8678 259.448 29.0878 259.048 28.4878C258.548 27.7278 257.768 27.3078 256.568 27.3078C255.168 27.3078 253.988 27.9478 253.268 28.9678V27.4878H250.948V37.4478H253.288V32.6478C253.288 31.6878 253.368 30.9478 253.868 30.2878C254.268 29.7478 254.928 29.4078 255.568 29.4078C256.208 29.4078 256.648 29.5878 256.908 29.9678C257.188 30.3678 257.268 30.9478 257.268 31.7278V37.4478H259.608Z" fill="black"/>
<path d="M267.185 35.5478C266.865 35.6678 266.505 35.7278 266.225 35.7278C265.505 35.7278 265.205 35.3678 265.205 34.3478V29.3678H267.145V27.4878H265.205V24.2478H262.885V27.4878H261.285V29.3678H262.845V34.8078C262.845 35.7278 262.985 36.4278 263.405 36.9078C263.805 37.3878 264.465 37.6278 265.445 37.6278C266.025 37.6278 266.665 37.5478 267.185 37.4078V35.5478Z" fill="black"/>
<path d="M275.674 34.2278C275.314 35.3678 274.454 35.7678 273.434 35.7678C271.854 35.7678 270.914 34.7878 270.834 33.0678H277.794C277.774 29.5078 276.454 27.2078 273.294 27.2078C270.394 27.2078 268.474 29.1878 268.474 32.3678C268.474 35.6678 270.194 37.7478 273.394 37.7478C275.474 37.7478 276.994 36.7478 277.734 34.9478L275.674 34.2278ZM270.854 31.3878C271.014 29.8278 271.954 29.0278 273.234 29.0278C274.514 29.0278 275.334 29.8278 275.414 31.3878H270.854Z" fill="black"/>
<path d="M282.36 37.4478V32.8078C282.36 31.7478 282.54 31.0478 282.88 30.5478C283.32 29.9078 283.98 29.5678 284.76 29.5678C285.2 29.5678 285.5 29.6477 285.88 29.8477V27.4878C285.58 27.4078 285.34 27.3678 285.02 27.3678C283.64 27.3678 282.86 27.9478 282.26 29.0278V27.4878H280.02V37.4478H282.36Z" fill="black"/>
<path d="M101.1 51.4766C102.45 50.6666 103.674 49.6946 104.718 48.5606C105.798 49.6406 107.13 50.6306 108.534 51.4766H101.1ZM109.344 53.0246V51.9266C110.244 52.4306 111.144 52.8446 112.026 53.1686C112.278 52.7186 112.8 52.0526 113.178 51.7106C110.478 50.9006 107.454 49.1906 105.69 47.4266C105.852 47.2106 105.996 46.9766 106.158 46.7426L104.592 46.0406C102.882 48.6866 99.6239 50.6666 96.2759 51.6926C96.6899 52.1066 97.1579 52.7546 97.3919 53.2406C98.2919 52.9166 99.1559 52.5386 100.002 52.0886V53.0246H103.764V55.2026H97.8239V56.7146H103.764V60.7286H96.9959V62.2586H112.44V60.7286H105.546V56.7146H111.576V55.2026H105.546V53.0246H109.344ZM108.192 60.6566C108.804 59.8466 109.596 58.6226 110.28 57.4886L108.66 56.8946C108.282 57.8846 107.526 59.2526 106.914 60.1166L108.192 60.6566ZM99.1919 57.4346C99.8399 58.4426 100.542 59.7926 100.794 60.6386L102.252 60.0086C101.964 59.1626 101.244 57.8486 100.56 56.8946L99.1919 57.4346Z" fill="black"/>
<path d="M119.802 56.1026V54.5546H123.474V56.1026H119.802ZM119.802 51.7646H123.474V53.2766H119.802V51.7646ZM128.928 51.7646V53.2766H125.202V51.7646H128.928ZM128.928 56.1026H125.202V54.5546H128.928V56.1026ZM132.438 58.6946H125.202V57.4526H130.602V50.3966H125.202V49.2986H131.898V47.7686H125.202V46.2206H123.474V47.7686H116.886V49.2986H123.474V50.3966H118.2V57.4526H123.474V58.6946H116.382V60.2246H123.474V62.7266H125.202V60.2246H132.438V58.6946Z" fill="black"/>
<path d="M147.576 50.9186C146.766 53.1326 145.65 54.9686 144.192 56.4806C142.662 54.8966 141.456 53.0426 140.592 50.9186H147.576ZM152.238 50.9186V49.2986H144.156L145.758 48.7946C145.524 48.0566 144.948 46.9046 144.426 46.0586L142.662 46.5806C143.148 47.4266 143.652 48.5606 143.868 49.2986H136.074V50.9186H138.846C139.854 53.5466 141.186 55.7966 142.932 57.6506C141.024 59.2166 138.666 60.3326 135.768 61.1066C136.11 61.5026 136.614 62.2766 136.812 62.7086C139.728 61.8086 142.176 60.5486 144.174 58.8566C146.118 60.5486 148.512 61.8266 151.374 62.6006C151.644 62.1146 152.13 61.4126 152.508 61.0526C149.736 60.3686 147.396 59.1986 145.47 57.6326C147.162 55.8326 148.494 53.6366 149.448 50.9186H152.238Z" fill="black"/>
<path d="M165.954 49.2086H167.592V48.5066H171.732V47.3006H167.592V46.1846H165.954V47.3006H164.172V48.5066H165.954V49.2086ZM160.032 49.2086H161.652V48.5066H163.596V47.3006H161.652V46.1846H160.032V47.3006H156V48.5066H160.032V49.2086ZM160.14 61.3226C160.896 60.9266 161.652 60.4946 162.39 60.0086H166.8L166.026 60.4586C166.422 60.6386 166.854 60.8546 167.268 61.0706L160.14 61.3226ZM155.838 60.0086H160.14C159.258 60.5666 158.43 60.9806 158.07 61.1426C157.602 61.3586 157.206 61.5026 156.846 61.5566C157.008 61.8626 157.242 62.4746 157.332 62.7086C158.052 62.5106 159.114 62.4926 168.888 62.0606C169.338 62.3846 169.716 62.6726 170.022 62.9426L171.174 62.1686C170.382 61.5026 168.96 60.6026 167.646 60.0086H171.804V59.0006H155.838V60.0086ZM158.07 57.2366V58.2446H169.698V57.2366H158.07ZM170.292 55.5446C170.202 55.5446 170.13 55.5266 170.094 55.4546C170.04 55.4006 170.04 55.2206 170.04 54.8966V50.5406H167.448V49.3886H166.152V50.5406H164.226V51.7646H166.116C166.098 52.0886 166.044 52.4306 165.954 52.7546C165.54 52.5386 165.072 52.3406 164.676 52.1786L163.938 53.0786C164.46 53.3126 165.018 53.6006 165.54 53.8886C165.18 54.5906 164.64 55.2566 163.794 55.8686V55.5626L160.698 55.7246V55.0406H163.236V54.1406H160.698V53.4566C160.86 53.6546 161.13 53.7446 161.562 53.7446H162.714C163.002 53.7446 163.362 53.7446 163.56 53.6726C163.524 53.4026 163.506 53.1146 163.47 52.8446C163.272 52.9166 162.894 52.9346 162.696 52.9346H161.832C161.58 52.9346 161.562 52.8266 161.562 52.5206V52.2326H163.83V51.3146H160.698V50.6846H162.984V49.7846H160.698V49.2626H159.294V49.7846H156.99V50.6846H159.294V51.3146H156.144V52.2326H158.016C157.764 52.8086 157.152 53.1146 155.838 53.3126C156.054 53.4926 156.324 53.8706 156.432 54.1226C158.142 53.7986 158.862 53.2406 159.15 52.2326H160.5V52.5026C160.5 52.8086 160.518 53.0606 160.59 53.2586H159.294V54.1406H156.828V55.0406H159.294V55.7966C158.052 55.8506 156.954 55.9226 156.054 55.9586L156.144 56.9666C158.142 56.8766 160.968 56.6786 163.722 56.4626C163.956 56.6786 164.172 56.8946 164.316 57.0566C165.486 56.3366 166.206 55.4906 166.692 54.6266C167.106 54.9146 167.502 55.2026 167.772 55.4726L168.582 54.4286C168.222 54.1226 167.736 53.7626 167.16 53.4206C167.322 52.8626 167.394 52.2866 167.43 51.7646H168.69V54.8606C168.69 55.8506 168.78 56.1386 169.014 56.3726C169.248 56.6066 169.608 56.7146 169.95 56.7146H170.67C170.94 56.7146 171.246 56.6606 171.426 56.5346C171.642 56.4266 171.804 56.2286 171.894 55.9766C171.984 55.7066 172.038 54.9686 172.074 54.3206C171.732 54.2306 171.354 54.0326 171.102 53.8346C171.084 54.4286 171.066 54.9326 171.03 55.1306C171.012 55.3286 170.958 55.4366 170.886 55.4726C170.832 55.5266 170.724 55.5446 170.616 55.5446H170.292Z" fill="black"/>
<path d="M184.368 55.3466V50.9906H189.048V55.3466H184.368ZM177.96 55.3466V50.9906H182.622V55.3466H177.96ZM184.368 49.3526V46.2206H182.622V49.3526H176.286V58.0466H177.96V56.9846H182.622V62.7086H184.368V56.9846H189.048V57.9566H190.794V49.3526H184.368Z" fill="black"/>
<path d="M200.334 47.8046C202.008 48.9566 204.15 50.7026 205.14 51.8186L206.382 50.5406C205.32 49.4066 203.124 47.7866 201.468 46.6886L200.334 47.8046ZM207.714 52.5386C208.686 54.6626 209.64 57.4886 209.964 59.3246L211.638 58.6226C211.26 56.7866 210.306 54.0686 209.262 51.9266L207.714 52.5386ZM196.59 52.4486C196.356 54.6806 195.78 57.4166 195.078 59.2706L196.752 59.9726C197.436 58.0106 197.958 54.9686 198.228 52.7546L196.59 52.4486ZM199.596 51.2426V59.8286C199.596 61.8086 200.19 62.3846 202.296 62.3846H205.626C207.714 62.3846 208.2 61.3586 208.398 57.9746C207.966 57.8666 207.228 57.5606 206.832 57.2546C206.706 60.2246 206.544 60.8186 205.518 60.8186H202.476C201.522 60.8186 201.324 60.6746 201.324 59.8286V51.2426H199.596Z" fill="black"/>
</svg>
