<?xml version="1.0" encoding="UTF-8"?><svg id="_圖層_1" xmlns="http://www.w3.org/2000/svg" viewBox="0 0 210 157.55" width="210" height="157.55"><defs><style>.cls-1{fill:#fff;}</style></defs><path class="cls-1" d="m89.64,25.98h30.73v1.28h-30.73v-1.28h0Zm0,2.55h30.73v1.38h-30.73v-1.38h0Zm0,2.65h30.73v1.28h-30.73v-1.28h0Zm0,2.55h30.73v1.28h-30.73v-1.28h0Zm17.28,2.55h13.45v1.28h-11.59c-.29-.2-.59-.39-.88-.59-.3-.2-.69-.49-.98-.69h0Zm-17.28,0h13.45c-.29.2-.69.49-.98.69-.29.2-.59.39-.88.59h-11.59v-1.28h0Zm21.11,2.55h9.62v1.28h-7.66c-.29-.2-.59-.39-.89-.59-.39-.2-.69-.49-1.08-.69h0Zm-21.11,0h9.72c-.39.2-.78.49-1.08.69-.39.2-.69.39-.88.59h-7.76v-1.28h0Zm0,2.55h5.79c-.39.3-.79.49-1.18.78-.19.2-.49.29-.69.49h-3.93v-1.27h0Zm24.84,0h5.89v1.27h-3.93c-.19-.2-.49-.29-.78-.49-.29-.29-.69-.49-1.18-.78h0Zm3.93,2.55h1.96v1.28l-1.96-1.28h0Zm-28.77,0h1.96l-1.96,1.28v-1.28h0Zm0-39.66l15.32,10.21,15.41-10.21v20.42h-30.73V4.28Z"/><path class="cls-1" d="m56.38,87.68v1.43h-12.61v-1.43h5.5c-.11-.35-.23-.7-.34-1l1.76-.43c.16.44.39.97.56,1.43h5.14m-.33,10.45c0,.74-.18,1.04-.73,1.26-.51.17-1.28.19-2.27.17-.09-.37-.31-.86-.5-1.2h-4.08v.6h-1.57v-3.77h6.21v3.17h-.2c.5.01,1,.01,1.14,0,.2,0,.28-.06.28-.24v-3.46h-8.53v5.01h-1.64v-6.38h11.88v4.84Zm-1.37-5.42h-9.01v-3.05h9.01v3.05Zm-1.78-1.91h-5.53v.78h5.53v-.78Zm-1.29,5.59h-3.14v.81h3.14v-.81Z"/><path class="cls-1" d="m74.92,99.03h-4.59v.67h-1.5v-8.24c-.27.43-.57.83-.85,1.17-.17-.33-.65-1.04-.93-1.37.3-.36.59-.76.87-1.2h-2.8c-.44,2.75-1.14,5.17-2.24,6.87-.3-.24-1.04-.75-1.41-.97,1.01-1.43,1.66-3.51,2.04-5.9h-1.45v-1.63h1.68c.08-.69.14-1.39.2-2.1l1.62.13c-.06.67-.13,1.33-.21,1.97h2.8v1.24c.57-.99,1.04-2.11,1.37-3.26l1.45.4c-.23.71-.52,1.46-.83,2.17h1.9c-.16-.55-.52-1.38-.82-2l1.44-.44c.35.6.73,1.43.89,1.96l-1.3.48h2.56v1.49h-1.54v1.38h1.47v1.43h-1.47v1.37h1.48v1.43h-1.48v1.4h1.66v1.54m-7.44-4.91c.47,1.49.95,3.35,1.17,4.61l-1.34.49c-.04-.29-.1-.61-.17-.96-2.67.45-3.17.6-3.47.77-.07-.3-.32-1.01-.5-1.41.3-.1.51-.5.79-1.1.28-.57,1.17-2.9,1.54-5.01l1.61.34c-.23.88-.52,1.81-.85,2.68l1.22-.42Zm-.63,2.81c-.18-.8-.4-1.61-.61-2.33-.34.91-.73,1.8-1.1,2.59l1.71-.26Zm4.9-6.45h-1.41v1.38h1.41v-1.38Zm0,2.81h-1.41v1.37h1.41v-1.37Zm-1.41,4.2h1.41v-1.4h-1.41v1.4Z"/><path class="cls-1" d="m87.5,89.94v1.6h4.6v4.81c0,.84-.17,1.32-.77,1.57-.59.27-1.41.29-2.51.29-.07-.5-.32-1.22-.57-1.67.71.04,1.56.04,1.77.03.24,0,.32-.06.32-.24v-3.13h-2.83v6.43h-1.77v-6.43h-2.64v5.01h-1.71v-6.67h4.36v-1.6h-5.55v-1.66h5.72c-.21-.51-.48-1.1-.73-1.57l1.68-.53c.36.66.83,1.51,1.07,2.1h5.27v1.66h-5.7"/><path class="cls-1" d="m111.41,97.43v1.73h-12.95v-1.73h7c.71-1.74,1.47-4.34,1.84-6.35l1.93.37c-.54,2.07-1.29,4.33-1.93,5.98h4.11m-.6-6.81h-11.71v-1.71h5.18c-.14-.64-.43-1.59-.69-2.28l1.7-.43c.3.71.61,1.66.77,2.27l-1.53.44h6.27v1.71Zm-8.75,6.47c-.17-1.53-.7-3.87-1.19-5.64l1.71-.41c.54,1.8,1.06,4.06,1.3,5.59l-1.82.47Z"/><path class="cls-1" d="m124.62,96.16c1.71.6,3.97,1.47,5.15,2.1l-.8,1.46c-1.25-.71-3.87-1.81-5.71-2.48l.64-1.07h-.51c-.69,1.76-2.21,2.88-6.03,3.51-.11-.46-.51-1.17-.84-1.53,2.87-.39,4.21-1.03,4.88-1.99h-4.26v-1.44h4.81c.05-.23.09-.49.12-.74h-5.26v-1.47h5.48v-.76h-4.23v-1.43h4.23v-.73h-5.04v-1.5h2.71c-.21-.43-.51-.89-.8-1.26l1.52-.6c.44.5.88,1.18,1.07,1.67l-.41.19h3.14c.36-.56.79-1.3,1.02-1.86l1.83.47c-.32.5-.64.97-.96,1.39h2.75v1.5h-5.06v.73h4.37v1.43h-4.37v.76h5.68v1.47h-5.87c-.03.26-.07.5-.11.74h5.57v1.44h-4.71"/><path class="cls-1" d="m148.14,92.38h-1.1v5.34c0,.8-.11,1.25-.63,1.53-.48.27-1.19.29-2.13.29-.04-.47-.24-1.16-.46-1.65.57.03,1.17.03,1.36.02.19,0,.24-.04.24-.21v-5.31h-1.24v-1.13h-2.08v8.38h-1.49v-8.38h-1.88v-.99c-.23.5-.51,1.04-.83,1.56v7.87h-1.57v-5.68c-.27.31-.54.6-.8.84-.16-.34-.64-1.2-.93-1.56,1.08-.96,2.17-2.44,2.78-3.94l1.34.44v-.1h1.88v-3.31h1.49v3.31h2.14v1.16h3.91v1.53m-9.43-5.48c-.74,1.27-1.89,2.64-2.97,3.5-.2-.34-.6-.97-.87-1.26.88-.71,1.86-1.86,2.3-2.77l1.54.53Zm1.47,5.13c0,2.71-.16,4.51-1.26,5.6-.14-.3-.51-.77-.8-.99.8-.9.86-2.28.87-4.61h1.18Zm3.2-2.6c-.2-.48-.66-1.27-1.08-1.84l1.03-.56c.44.54.93,1.3,1.16,1.78l-1.1.61Zm.53,7.8c-1.13,0-1.34-.43-1.34-1.67v-3.51h1.21v3.53c0,.39,0,.5.08.5h.33c.14,0,.33-.03.47-.07.03.31.07.87.11,1.14-.17.08-.37.08-.6.08h-.27Zm4.03-8.29h-3.4v-1.5h3.4v1.5Z"/><path class="cls-1" d="m160.89,94.12v.86h4.8v4.65h-1.5v-.44h-3.3v.48h-1.49v-9.12h-.73v-2.24l-.54,1.02c-.46-.3-1.3-.76-2.03-1.12-.23.27-.48.56-.73.83h2.21v1.11h-2.51v-.81c-.47.43-.95.83-1.44,1.16-.1-.33-.46-1.16-.66-1.53,1.09-.64,2.23-1.68,2.86-2.8l1.33.49c-.08.14-.16.27-.24.41.64.28,1.39.64,1.83.9h3.08c-.17-.39-.39-.8-.57-1.16l1.5-.6c.27.47.63,1.1.83,1.53l-.48.23h3.12v2.58h-1.17v3.57h-4.17m-3.51,1.77c.47.89,1.08,2.07,1.37,2.79l-1.23.61c-.1-.29-.24-.63-.4-1.01-2.54.94-2.98,1.14-3.28,1.39-.07-.39-.31-1.07-.54-1.4.27-.11.57-.34.57-.86v-6.74h4.4v5.11h-2.96v1.76l1.27-.43c-.11-.26-.24-.5-.36-.72l1.16-.5Zm-.6-3.99h-1.47v.73h1.47v-.73Zm-1.47,2.67h1.47v-.77h-1.47v.77Zm9.47-5.25h-4.7v.9h4.7v-.9Zm-1.16,2.24h-2.72v1.23h2.72v-1.23Zm.57,4.83h-3.3v1.38h3.3v-1.38Z"/><path class="cls-1" d="m48,146.23c0,2.61-2.17,4.72-4.88,4.72s-4.86-2.11-4.86-4.72,2.17-4.73,4.86-4.73,4.88,2.12,4.88,4.73m-1.63,0c0-1.74-1.45-3.15-3.25-3.15s-3.25,1.41-3.25,3.15,1.46,3.16,3.25,3.16,3.25-1.42,3.25-3.16"/><polygon class="cls-1" points="55.09 143.08 55.09 145.45 59.15 145.45 59.15 147.01 55.09 147.01 55.09 150.97 53.47 150.97 53.47 141.49 59.97 141.49 59.97 143.08 55.09 143.08"/><path class="cls-1" d="m134.87,145.67l1.52,3.7h-3.05l1.52-3.7Zm0-4.18l-3.89,9.47h7.79l-3.9-9.47Z"/><polygon class="cls-1" points="77.37 143.07 77.37 145.44 81.42 145.44 81.42 147.01 77.37 147.01 77.37 150.96 75.74 150.96 75.74 141.49 82.25 141.49 82.25 143.07 77.37 143.07"/><polygon class="cls-1" points="89.9 143.07 89.9 149.38 90.71 149.38 90.71 150.96 87.47 150.96 87.47 149.38 88.27 149.38 88.27 143.07 87.47 143.07 87.47 141.49 90.71 141.49 90.71 143.07 89.9 143.07"/><polygon class="cls-1" points="104.36 150.96 102.71 150.96 97.86 144.22 97.86 150.96 96.23 150.96 96.23 141.49 97.88 141.49 102.74 148.23 102.74 141.49 104.36 141.49 104.36 150.96"/><polygon class="cls-1" points="111.68 143.07 111.68 145.44 115.73 145.44 115.73 147.01 111.68 147.01 111.68 149.38 116.55 149.38 116.55 150.96 110.05 150.96 110.05 141.49 116.55 141.49 116.55 143.07 111.68 143.07"/><path class="cls-1" d="m149.08,150.96l-2.54-3.95h-.93v3.95h-1.63v-5.52h1.54l-1.54-2.37v-1.58h3.25s3.26,0,3.26,2.76c0,1.68-1.2,2.34-2.15,2.6l2.65,4.11h-1.91Zm-1.65-5.53c.43-.04,1.42-.24,1.42-1.18,0-1.18-1.63-1.18-1.63-1.18h-1.31l1.52,2.35Z"/><polygon class="cls-1" points="160.53 143.07 158.9 143.07 158.9 150.96 157.28 150.96 157.28 143.07 155.65 143.07 155.65 141.49 160.53 141.49 160.53 143.07"/><path class="cls-1" d="m165.65,148.2h1.63c.03.78.7,1.18,1.42,1.18s1.42-.43,1.42-1.18c0-.8-.76-1.16-1.42-1.19-.08,0-.75,0-1.46-.31-1.02-.46-1.59-1.33-1.59-2.45,0-1.68,1.48-2.76,3.05-2.76,1.69,0,3.01,1.15,3.04,2.76h-1.62c-.02-.78-.68-1.18-1.42-1.18s-1.42.42-1.42,1.18.7,1.19,1.42,1.19c.07,0,.75,0,1.45.31,1.03.46,1.59,1.33,1.59,2.45,0,1.69-1.46,2.76-3.04,2.76-1.69-.04-3.02-1.11-3.05-2.76"/><rect class="cls-1" x="194.95" y="129.07" width="4.61" height="1.62"/><path class="cls-1" d="m21.47,125.39l1.52,3.7h-3.05l1.52-3.7Zm0-4.18l-3.89,9.47h7.79l-3.89-9.47Z"/><polygon class="cls-1" points="8.11 126.03 12.16 130.68 10.03 130.68 7.02 127.22 6.1 128.22 6.1 130.68 4.47 130.68 4.47 121.21 6.1 121.21 6.1 125.85 10.38 121.21 12.55 121.21 8.11 126.03"/><path class="cls-1" d="m39.54,125.95c0,2.61-2.17,4.72-4.88,4.72s-4.86-2.11-4.86-4.72,2.17-4.74,4.86-4.74,4.88,2.12,4.88,4.74m-1.63,0c0-1.74-1.45-3.15-3.25-3.15s-3.25,1.41-3.25,3.15,1.46,3.15,3.25,3.15,3.25-1.42,3.25-3.15"/><polygon class="cls-1" points="52.32 121.21 52.32 130.68 50.69 130.68 50.69 126.73 46.64 126.73 46.64 130.68 45.01 130.68 45.01 121.21 46.64 121.21 46.64 125.13 50.69 125.13 50.69 121.21 52.32 121.21"/><path class="cls-1" d="m57.81,127.92h1.63c.03.78.7,1.18,1.42,1.18s1.42-.43,1.42-1.18c0-.8-.77-1.16-1.42-1.19-.08,0-.75,0-1.46-.31-1.02-.46-1.59-1.33-1.59-2.45,0-1.68,1.48-2.76,3.05-2.76,1.69,0,3.01,1.15,3.04,2.76h-1.62c-.03-.78-.68-1.18-1.42-1.18s-1.42.42-1.42,1.18.7,1.19,1.42,1.19c.07,0,.75,0,1.45.31,1.03.46,1.59,1.33,1.59,2.45,0,1.69-1.46,2.76-3.04,2.76-1.69-.04-3.02-1.11-3.05-2.76"/><polygon class="cls-1" points="71.52 122.79 71.52 129.1 72.33 129.1 72.33 130.68 69.08 130.68 69.08 129.1 69.89 129.1 69.89 122.79 69.08 122.79 69.08 121.21 72.33 121.21 72.33 122.79 71.52 122.79"/><path class="cls-1" d="m77.8,127.51v-6.3h1.63v6.3c.08,1.1.99,1.58,2.02,1.58s2.04-.53,2.04-1.58v-6.3h1.63v6.3c0,2.02-1.71,3.15-3.66,3.17-2.01-.08-3.65-1.22-3.65-3.17"/><polygon class="cls-1" points="98.98 130.68 97.34 130.68 92.49 123.94 92.49 130.68 90.86 130.68 90.86 121.21 92.51 121.21 97.37 127.95 97.37 121.21 98.98 121.21 98.98 130.68"/><path class="cls-1" d="m113.29,125.16v5.52h-1.63v-.64c-.73.4-1.55.64-2.44.64-2.69,0-4.88-2.13-4.88-4.74s2.19-4.74,4.88-4.74c1.35,0,2.56.53,3.44,1.39l-1.14,1.11c-.59-.57-1.41-.92-2.3-.92-1.8,0-3.24,1.41-3.24,3.15s1.45,3.15,3.24,3.15c.98,0,1.84-.41,2.44-1.07v-1.3h-1.63v-1.57h3.26Z"/><path class="cls-1" d="m145.55,127.52v-6.31h1.63v6.31c.08,1.1.99,1.58,2.02,1.58s2.03-.53,2.03-1.58v-6.31h1.63v6.31c0,2.01-1.71,3.15-3.66,3.17-2.01-.08-3.65-1.22-3.65-3.17"/><path class="cls-1" d="m158.38,127.93h1.63c.03.78.69,1.18,1.42,1.18s1.42-.43,1.42-1.18c0-.8-.77-1.16-1.42-1.19-.08,0-.75,0-1.46-.31-1.02-.46-1.59-1.33-1.59-2.45,0-1.68,1.48-2.76,3.05-2.76,1.69,0,3.01,1.15,3.04,2.76h-1.62c-.03-.79-.68-1.18-1.42-1.18s-1.42.42-1.42,1.18.69,1.19,1.42,1.19c.07,0,.75,0,1.45.31,1.03.46,1.59,1.33,1.59,2.45,0,1.69-1.46,2.76-3.04,2.76-1.69-.04-3.02-1.11-3.05-2.76"/><polygon class="cls-1" points="171.59 122.8 171.59 125.17 175.64 125.17 175.64 126.74 171.59 126.74 171.59 129.1 176.47 129.1 176.47 130.69 169.96 130.69 169.96 121.22 176.47 121.22 176.47 122.8 171.59 122.8"/><path class="cls-1" d="m181.89,127.52v-6.31h1.63v6.31c.08,1.1.99,1.58,2.02,1.58s2.03-.53,2.03-1.58v-6.31h1.63v6.31c0,2.01-1.71,3.15-3.66,3.17-2.01-.08-3.65-1.22-3.65-3.17"/><polygon class="cls-1" points="205.53 130.69 203.9 130.69 203.9 124.87 201.1 130.69 199.56 130.69 196.58 124.75 196.58 130.69 194.95 130.69 194.95 121.2 196.61 121.2 200.32 128.58 203.87 121.2 205.53 121.2 205.53 130.69"/><polygon class="cls-1" points="139.78 130.69 138.15 130.69 138.15 124.87 135.35 130.69 133.82 130.69 130.84 124.75 130.84 130.69 129.21 130.69 129.21 121.2 130.86 121.2 134.57 128.58 138.13 121.2 139.78 121.2 139.78 130.69"/><rect class="cls-1" x="129.21" y="129.07" width="6.14" height="1.62"/></svg>