<?xml version="1.0" encoding="UTF-8"?>
<svg width="158px" height="35px" viewBox="0 0 158 35" version="1.1" xmlns="http://www.w3.org/2000/svg" xmlns:xlink="http://www.w3.org/1999/xlink">
    <!-- Generator: Sketch 52.1 (67048) - http://www.bohemiancoding.com/sketch -->
    <title>main/logo-2/black</title>
    <desc>Created with Sketch.</desc>
    <g id="main/logo-2/black" stroke="none" stroke-width="1" fill="none" fill-rule="evenodd">
        <g id="logo-2" fill="#000000">
            <path d="M45.1033333,0 L26.6116667,5.915 L0,5.915 L0,34.7083333 L13.125,34.7083333 L44.8233333,24.2083333 L55.1366667,34.7083333 L57.47,34.7083333 L57.47,6.055 L45.1033333,0 Z M54.6,27.2533333 L54.6,30.0416667 L49.6766667,25.5966667 L54.6,27.2533333 Z M54.6,19.8216667 L54.6,24.325 L30.4616667,16.66 L44.8116667,12.2033333 L54.6,19.8216667 Z M2.68333333,25.41 L2.68333333,21.7116667 L13.0433333,21.7116667 L21.21,19.2033333 L12.53,25.41 L2.68333333,25.41 Z M12.74,18.9116667 L2.68333333,18.9116667 L2.68333333,15.1666667 L13.1833333,15.1666667 L26.7166667,8.44666667 L39.55,11.4333333 L12.74,18.9116667 Z M2.68333333,31.92 L2.68333333,28.21 L13.3466667,28.21 L26.8333333,18.13 L41.125,22.7383333 L12.7166667,31.92 L2.68333333,31.92 Z M2.68333333,12.4133333 L2.68333333,8.70333333 L20.86,8.70333333 L12.6933333,12.4133333 L2.68333333,12.4133333 Z M54.6,14.595 L54.6,16.45 L50.61,13.615 L54.6,14.595 Z M44.9283333,2.98666667 L54.6,7.735 L54.6,11.7483333 L31.325,7.08166667 L44.9283333,2.98666667 Z" id="Shape" fill-rule="nonzero"></path>
            <rect id="Rectangle" x="112.968333" y="5.6" width="8.98333333" height="3.10333333"></rect>
            <rect id="Rectangle" x="112.968333" y="12.25" width="8.98333333" height="3.10333333"></rect>
            <polygon id="Path" points="117.915 17.6866667 113.003333 34.7083333 116.468333 34.7083333 121.38 17.6866667"></polygon>
            <rect id="Rectangle" x="137.491667" y="17.6866667" width="3.325" height="17.0333333"></rect>
            <polygon id="Path" points="150.745 31.3016667 150.745 17.6866667 147.42 17.6866667 147.42 34.7083333 156.555 34.7083333 156.555 31.3016667"></polygon>
            <polygon id="Path" points="126.163333 34.7083333 129.43 34.7083333 131.985 17.6866667 128.625 17.6866667 126.07 34.7083333"></polygon>
            <path d="M135.426667,8.41166667 L124.378333,12.6 L124.378333,15.3416667 L156.543333,15.3416667 L156.543333,12.6583333 L145.425,8.41166667 L156.543333,8.41166667 L156.543333,5.83333333 L141.878333,5.83333333 L141.878333,3.01 L138.833333,3.01 L138.833333,5.83333333 L124.378333,5.83333333 L124.378333,8.41166667 L135.426667,8.41166667 Z M140.431667,9.32166667 L149.333333,12.7166667 L131.506667,12.7166667 L140.431667,9.32166667 Z" id="Shape" fill-rule="nonzero"></path>
            <polygon id="Path" points="65.415 34.7083333 68.4833333 34.7083333 68.4833333 21.525 105.396667 21.525 105.396667 31.5816667 98.4083333 31.5816667 98.4083333 34.6383333 108.453333 34.6383333 108.453333 18.725 65.415 18.725"></polygon>
            <path d="M100.986667,23.1466667 L72.8816667,23.1466667 L72.8816667,30.3333333 L100.986667,30.3333333 L100.986667,23.1466667 Z M97.9066667,27.72 L75.95,27.72 L75.95,25.7483333 L97.9066667,25.7483333 L97.9066667,27.72 Z" id="Shape" fill-rule="nonzero"></path>
            <path d="M72.8816667,10.2316667 L72.8816667,16.9516667 L100.986667,16.9516667 L100.986667,10.2316667 L72.8816667,10.2316667 Z M97.93,14.3616667 L75.9383333,14.3616667 L75.9383333,12.8333333 L97.93,12.8333333 L97.93,14.3616667 Z" id="Shape" fill-rule="nonzero"></path>
            <polygon id="Path" points="88.5733333 5.88 88.5733333 3.01 85.295 3.01 85.295 5.88 65.1466667 5.88 65.1466667 8.68 108.721667 8.68 108.721667 5.88"></polygon>
        </g>
    </g>
</svg>