<?xml version="1.0" encoding="utf-8"?>
<!-- Generator: Adobe Illustrator 26.0.2, SVG Export Plug-In . SVG Version: 6.00 Build 0)  -->
<svg version="1.1" id="圖層_1" xmlns="http://www.w3.org/2000/svg" xmlns:xlink="http://www.w3.org/1999/xlink" x="0px" y="0px"
	 viewBox="0 0 197.6 63.1" style="enable-background:new 0 0 197.6 63.1;" xml:space="preserve">
<style type="text/css">
	.st0{fill:#FFFFFF;}
</style>
<g id="XMLID_2316_">
	<g id="XMLID_2334_">
		<path id="XMLID_2343_" class="st0" d="M11.1,61.2L5.6,50L3.4,60.6h-2L5,44.5l6.1,12.8l6.1-12.8l3.5,16h-2L16.5,50L11.1,61.2z"/>
		<path id="XMLID_2340_" class="st0" d="M41.1,52.9c0,2.3-0.9,4.2-2.7,5.7c-1.8,1.6-4,2.4-6.6,2.4c-2.6,0-4.8-0.8-6.6-2.4
			c-1.8-1.6-2.7-3.5-2.7-5.7c0-2.3,0.9-4.2,2.7-5.8c1.8-1.6,4-2.4,6.6-2.4c2.6,0,4.8,0.8,6.6,2.3C40.2,48.7,41.1,50.6,41.1,52.9z
			 M31.7,59.3c2,0,3.6-0.6,5-1.9c1.4-1.2,2.1-2.7,2.1-4.5c0-1.8-0.7-3.3-2.1-4.5c-1.4-1.2-3.1-1.9-5.1-1.9c-2,0-3.7,0.6-5.1,1.9
			c-1.4,1.3-2.1,2.8-2.1,4.5c0,1.8,0.7,3.3,2.1,4.5C28.1,58.6,29.8,59.3,31.7,59.3z"/>
		<path id="XMLID_2337_" class="st0" d="M62.1,52.9c0,2.3-0.9,4.2-2.7,5.7c-1.8,1.6-4,2.4-6.6,2.4c-2.6,0-4.8-0.8-6.6-2.4
			c-1.8-1.6-2.7-3.5-2.7-5.7c0-2.3,0.9-4.2,2.7-5.8c1.8-1.6,4-2.4,6.6-2.4c2.6,0,4.8,0.8,6.6,2.3C61.2,48.7,62.1,50.6,62.1,52.9z
			 M52.7,59.3c2,0,3.6-0.6,5-1.9c1.4-1.2,2.1-2.7,2.1-4.5c0-1.8-0.7-3.3-2.1-4.5c-1.4-1.2-3.1-1.9-5.1-1.9c-2,0-3.7,0.6-5.1,1.9
			c-1.4,1.3-2.1,2.8-2.1,4.5c0,1.8,0.7,3.3,2.1,4.5C49.1,58.6,50.8,59.3,52.7,59.3z"/>
		<path id="XMLID_2335_" class="st0" d="M65.2,60.6V44.5L78,56.8V45.1h2v16L67.2,48.9v11.6H65.2z"/>
	</g>
	<g id="XMLID_2317_">
		<path id="XMLID_2332_" class="st0" d="M104.9,52.5h7.6V53c0,2.5-0.8,4.5-2.5,6c-1.7,1.5-3.9,2.2-6.8,2.2c-1.8,0-3.3-0.3-4.7-0.9
			c-1.5-0.7-2.7-1.7-3.5-3c-0.8-1.3-1.2-2.7-1.2-4.4c0-2.7,1-4.8,3-6.5c1.7-1.4,3.9-2.1,6.6-2.1c3.5,0,6.2,1.1,7.9,3.4l-1.8,1.3
			c-1.3-1.9-3.3-2.9-6-2.9c-2.2,0-3.9,0.6-5.2,1.9c-1.3,1.3-2,2.9-2,4.9c0,1.9,0.7,3.5,2,4.7c1.4,1.2,3.1,1.9,5.2,1.9
			c1.9,0,3.4-0.5,4.6-1.5c1.2-1,1.9-2.2,2.1-3.8h-5.3V52.5z"/>
		<path id="XMLID_2329_" class="st0" d="M121.7,44l8.4,16.7h-2.4l-2.4-4.9h-7.3l-2.4,4.9h-2.4L121.7,44z M121.7,48.3l-2.9,5.9h5.9
			L121.7,48.3z"/>
		<path id="XMLID_2327_" class="st0" d="M132,60.7V44.7h2.2v14.3h7v1.8H132z"/>
		<path id="XMLID_2325_" class="st0" d="M143.8,60.7V44.7h2.2v14.3h7v1.8H143.8z"/>
		<path id="XMLID_2323_" class="st0" d="M155.7,60.7V44.7h9.8v1.7h-7.6V51h7.6v1.8h-7.6V59h7.6v1.8H155.7z"/>
		<path id="XMLID_2320_" class="st0" d="M169.2,60.7V44.7h4.4c2,0,3.5,0.3,4.3,0.8c1.1,0.8,1.7,2,1.7,3.6c0,2.7-1.7,4-5,4l-0.4,0
			l7.1,7.7h-2.8l-6.8-7.7h-0.3v7.7H169.2z M171.3,46.3v5.4h1.7c1.7,0,2.8-0.2,3.5-0.6c0.6-0.4,0.9-1,0.9-2c0-1-0.3-1.8-0.9-2.2
			c-0.6-0.4-1.8-0.6-3.4-0.6H171.3z"/>
		<path id="XMLID_2318_" class="st0" d="M187.1,60.7v-7.4l-6.3-8.7h2.6l4.8,7l4.8-7h2.5l-6.3,8.7v7.4H187.1z"/>
	</g>
</g>
<path id="XMLID_2132_" class="st0" d="M10.1,10.7h12.2V4.2C22.3,4,22.2,3.9,22,3.9H10.6L10.1,4V10.7z M9.8,18.2h12.5v-6.7H10.1
	l0,0.2C10.1,14.2,10,16.4,9.8,18.2 M9.8,19.1c0,0.1,0,0.3,0,0.4c-0.3,2.4-0.8,4.4-1.5,5.9c-1.4,3-3.5,5-6.4,5.8
	c-0.2,0.1-0.3,0-0.3-0.1c-0.1-0.1,0-0.3,0.1-0.3c2.5-1.9,4.1-5,4.9-9.3C6.9,19,7,12.5,7,1.9c0-0.4,0.1-0.5,0.2-0.4
	c0.9,0.3,2,0.9,3.1,1.6h0.2h10.8c0.3,0,0.5-0.1,0.7-0.2c0.4-0.5,0.7-0.9,1-1.1c0.2-0.1,0.3-0.2,0.6-0.1c1.3,0.6,2.2,1.1,2.7,1.6
	c0.6,0.6,0.5,1.1-0.5,1.4c-0.3,0.1-0.4,0.4-0.4,0.7v22.5c0,1.2-0.4,2-1.2,2.5c-0.8,0.5-1.6,0.7-2.4,0.7c-0.2,0-0.3,0-0.3-0.2
	c-0.1-0.5-0.4-1-0.9-1.5c-0.6-0.6-1.3-0.9-2.2-0.9C18.1,28.3,18,28.2,18,28c0-0.2,0.2-0.3,0.5-0.2c2,0.1,3.2,0,3.6-0.3
	c0.2-0.2,0.3-0.4,0.3-0.7v-7.7H9.8z"/>
<path id="XMLID_2121_" class="st0" d="M76.7,27.9h1.8v-6.7c-0.1-0.1-0.2-0.1-0.3-0.1h-1.1l-0.3,0.1V27.9z M76.7,28.8v1.5
	c0,0.4-0.1,0.7-0.4,0.9c-0.3,0.2-0.8,0.3-1.2,0.3c-0.3,0-0.6-0.1-0.8-0.2c-0.1-0.1-0.2-0.3-0.2-0.6v-11c0-0.1,0-0.2,0.1-0.2
	c0.9,0.2,1.7,0.5,2.5,0.9h0.3h1c0.1,0,0.2-0.1,0.3-0.2c0.2-0.2,0.5-0.5,0.7-0.6c0.1,0,0.2,0,0.3,0c0.8,0.3,1.6,0.7,2.3,1.2
	c0.1,0.1,0.1,0.2,0.2,0.2c0,0.1-0.2,0.5-0.7,1.2v7.8c0,0.3-0.2,0.6-0.4,0.7c-0.3,0.2-0.7,0.3-1.3,0.3c-0.4,0-0.6-0.1-0.8-0.3
	c-0.1-0.2-0.2-0.4-0.2-0.8v-1.1H76.7z M70.5,15.7H76v-4.6C75.9,11,75.8,11,75.7,11h-4.5l-0.6,0.1V15.7z M68.4,27.8h1.7v-6.6
	c-0.1-0.1-0.2-0.1-0.3,0h-0.8l-0.5,0.1V27.8z M70.5,16.6v0.5c0,0.5-0.2,0.8-0.4,0.9c-0.4,0.2-0.8,0.3-1.2,0.4
	c-0.4,0-0.7-0.1-0.9-0.2c-0.1-0.1-0.2-0.3-0.1-0.6V9.4c0-0.1,0-0.2,0.1-0.2c0.9,0.2,1.8,0.5,2.6,1l0.6,0h4.3c0.1,0,0.2-0.1,0.3-0.1
	c0.2-0.3,0.5-0.5,0.7-0.7c0.1,0,0.2-0.1,0.3,0c0.9,0.3,1.7,0.7,2.4,1.3c0.1,0.1,0.2,0.2,0.3,0.3c0.1,0.1-0.2,0.5-0.7,1.2v5
	c0,0.4-0.2,0.6-0.4,0.8C78,18,77.6,18.1,77,18.1c-0.4,0-0.7-0.1-0.8-0.3C76.1,17.6,76,17.4,76,17v-0.5H70.5z M69.1,7.1
	c-1.2,1.7-2.6,3-4.2,3.9c-0.2,0-0.2,0-0.3,0c0-0.1,0-0.2,0.1-0.3c1.9-2.5,3-5.2,3.3-8.2c0-0.1,0-0.3,0-0.4c0-0.1,0.1-0.2,0.2-0.2
	c1,0.1,2,0.2,3,0.5c0.4,0.1,0.6,0.3,0.6,0.6c0,0.2-0.2,0.3-0.6,0.4c0,0-0.6,1-1.7,3h7.6c0.2,0,0.4-0.1,0.5-0.2
	c0.5-0.6,1-1.2,1.5-1.8c0.1-0.2,0.3-0.2,0.5,0c0.9,0.6,1.7,1.4,2.4,2.2c0.1,0.2,0.2,0.3,0.1,0.4c-0.1,0.1-0.3,0.2-0.5,0.2H69.1z
	 M57.1,26.3h1.4v-7.2h-1.4V26.3z M57.1,18.3h5.1v-5.7c-0.1-0.1-0.2-0.2-0.3-0.1h-4.2l-0.6,0.1V18.3z M57.7,11.7h0.9V5.4h-1.4v6.3
	L57.7,11.7z M68.4,28.6v1.5c0,0.5-0.2,0.8-0.4,0.9c-0.4,0.2-0.8,0.3-1.2,0.4c-0.4,0-0.7-0.1-0.9-0.2c-0.1-0.1-0.2-0.3-0.1-0.6V27
	c-0.1,0.1-0.3,0.2-0.5,0.2h-8.1v2.4c0,0.6-0.1,0.9-0.4,1.1c-0.3,0.2-0.8,0.4-1.4,0.4c-0.3,0-0.6-0.1-0.8-0.3
	c-0.1-0.1-0.2-0.4-0.2-0.7V3.6c0-0.1,0-0.2,0-0.2c0,0,0.1,0,0.3,0c0.9,0.2,1.8,0.6,2.8,1.1h4.6c0.2,0,0.4-0.1,0.5-0.2
	C63,3.8,63.5,3.2,64,2.7c0.1-0.2,0.3-0.2,0.5,0c0.9,0.6,1.6,1.2,2.1,2.1c0.1,0.2,0.2,0.3,0.1,0.4c-0.1,0.1-0.3,0.2-0.5,0.2h-4.9v6.3
	h0.4c0.1,0,0.2-0.1,0.3-0.2c0.2-0.3,0.5-0.5,0.7-0.7c0.1,0,0.2-0.1,0.3,0c0.9,0.3,1.7,0.7,2.4,1.3c0.1,0.1,0.2,0.2,0.3,0.3
	c0.1,0.1-0.2,0.5-0.7,1.2v5.8c0,0.4-0.2,0.6-0.4,0.8c-0.3,0.2-0.8,0.3-1.4,0.3c-0.4,0-0.7-0.1-0.8-0.3c-0.1-0.2-0.2-0.5-0.2-0.8
	v-0.2h-1v7.2h0.2c0.2,0,0.4-0.1,0.4-0.2c0.4-0.5,0.9-1.1,1.3-1.6c0.1-0.1,0.3-0.2,0.4,0c0.8,0.6,1.5,1.2,2,2c0,0,0,0.1,0.1,0.1v-7
	c0-0.1,0-0.2,0.1-0.2c0.9,0.2,1.7,0.5,2.3,0.8l0.7,0h0.7c0.1,0,0.2-0.1,0.3-0.2c0.4-0.5,0.8-0.7,1-0.6c0.8,0.3,1.5,0.7,2.2,1.2
	c0.1,0.1,0.2,0.2,0.2,0.3c0,0.1-0.2,0.4-0.7,1.1v7.8c0,0.3-0.2,0.6-0.4,0.7c-0.3,0.2-0.7,0.3-1.2,0.3c-0.4,0-0.6-0.1-0.7-0.3
	c-0.1-0.2-0.2-0.4-0.2-0.7v-1.2H68.4z"/>
<path id="XMLID_2110_" class="st0" d="M125.5,26.6h5.8V24h-5.8V26.6z M125.5,20.5v2.6h5.8v-2.5c-0.1-0.1-0.2-0.2-0.3-0.1H125.5z
	 M125.3,11.5v2.4h5c0.2,0,0.4-0.1,0.5-0.2c0.3-0.5,0.7-1,1.2-1.5c-0.2-0.1-0.4-0.2-0.5-0.3c-0.1-0.1-0.2-0.3-0.2-0.4H125.3z
	 M125.3,10.7h5.9V8.5h-5.9V10.7z M125.3,5.3v2.4h5.9V5.4c-0.1-0.1-0.2-0.2-0.3-0.1H125.3z M122.5,24h-6.2v2.6h6.2V24z M122.5,23.1
	v-2.6h-6l-0.2,0v2.6H122.5z M116.4,27.4L116.4,27.4c0,0.5-0.2,0.9-0.5,1c-0.4,0.2-0.9,0.4-1.4,0.4c-0.4,0-0.7-0.1-0.9-0.2
	c-0.1-0.1-0.2-0.4-0.2-0.7V19c0-0.2,0-0.2,0.1-0.2c0.9,0.2,1.7,0.4,2.5,0.9h0.5h14.2c0.1,0,0.3-0.1,0.3-0.2c0.2-0.3,0.5-0.5,0.7-0.7
	c0.1,0,0.2-0.1,0.3,0c0.9,0.3,1.7,0.8,2.6,1.4c0.6,0.4,0.5,0.8-0.2,1.1c-0.2,0.1-0.3,0.2-0.3,0.5v5.9c0,0.3-0.2,0.6-0.5,0.8
	c-0.3,0.2-0.8,0.3-1.4,0.3c-0.4,0-0.7-0.1-0.9-0.3c-0.1-0.2-0.2-0.5-0.2-0.8v-0.2H116.4z M125.3,17h8.1c0.3,0,0.4-0.1,0.5-0.2
	c0.5-0.6,1-1.3,1.5-1.9c0.2-0.2,0.3-0.2,0.5,0c1,0.6,1.8,1.4,2.5,2.3c0.1,0.2,0.2,0.3,0.1,0.4c-0.1,0.1-0.3,0.2-0.5,0.2h-25.3
	l-1.8,0.3c-0.2,0.1-0.3,0.1-0.3-0.1c-0.1-0.4-0.2-0.7-0.3-1.1c0-0.1,0.1-0.2,0.3-0.1l2.1,0.2h9.6v-2.2h-6.6L114,15
	c-0.2,0.1-0.3,0.1-0.3-0.1c-0.1-0.3-0.2-0.7-0.3-1.1c0-0.1,0.1-0.2,0.3-0.1l2.1,0.2h6.6v-2.4h-7l-1.8,0.2c-0.2,0-0.3,0-0.3-0.1
	c-0.1-0.4-0.2-0.7-0.3-1c0-0.1,0.1-0.1,0.3-0.1l2.1,0.2h7V8.5h-10.1l-1.8,0.3c-0.2,0.1-0.3,0-0.3-0.1c-0.1-0.3-0.2-0.7-0.3-1.1
	c0-0.2,0.1-0.2,0.3-0.1l2.1,0.2h10.1V5.3h-6.7l-1.8,0.1c-0.2,0.1-0.3,0-0.3,0c-0.1-0.3-0.2-0.6-0.2-0.8c0-0.1,0-0.2,0.3-0.2l2.1,0.1
	h6.7V2.1V1.7c0-0.1,0-0.1,0.2-0.1c1.1,0.1,2.1,0.2,3,0.4c0.4,0.1,0.6,0.3,0.6,0.5c0,0.3-0.2,0.4-0.5,0.5c-0.2,0.1-0.3,0.2-0.3,0.4
	v1.1h5.4c0.1,0,0.3-0.1,0.3-0.2c0.2-0.3,0.5-0.5,0.7-0.7c0.1,0,0.2,0,0.3,0c0.9,0.3,1.7,0.8,2.6,1.4c0.6,0.4,0.5,0.8-0.2,1.1
	c-0.2,0.1-0.3,0.2-0.3,0.5v1.2h0.3c0.2,0,0.3-0.1,0.4-0.2c0.4-0.5,0.9-1.1,1.4-1.6c0.1-0.1,0.2-0.2,0.4,0c0.8,0.6,1.5,1.2,2,2
	c0.1,0.2,0.2,0.3,0.1,0.4c-0.1,0.1-0.3,0.2-0.5,0.2h-4.1v2.6c0,0.3-0.2,0.6-0.5,0.8c-0.2,0.1-0.3,0.2-0.6,0.2c0.8,0.6,1.4,1.2,2,2
	c0.1,0.2,0.2,0.3,0.1,0.4c-0.1,0.1-0.3,0.2-0.5,0.2h-9.4V17z M110.1,29.7l2.1,0.2h21.5c0.2,0,0.4-0.1,0.5-0.2c0.5-0.6,1-1.2,1.5-1.8
	c0.1-0.2,0.3-0.2,0.5,0c0.9,0.6,1.7,1.4,2.4,2.2c0.1,0.2,0.2,0.3,0.1,0.4c-0.1,0.1-0.3,0.2-0.5,0.2h-26l-1.8,0.3
	c-0.2,0.1-0.3,0.1-0.3-0.1c-0.1-0.3-0.2-0.7-0.3-1.1C109.7,29.7,109.8,29.6,110.1,29.7"/>
<path id="XMLID_2103_" class="st0" d="M188.4,10.2v14.4c0.6,0.2,1.2,0.3,1.8,0.3c0.7,0,1.1-0.2,1.3-0.5c0.4-0.4,0.6-1.1,0.6-2
	c-0.1-2-0.6-3.4-1.5-4.3c-0.8-1.2-1.1-1.8-1.1-1.9c0.7-1.6,1.2-3.6,1.7-6H188.4z M188.5,9.4h2.5c0.1,0,0.2-0.1,0.3-0.2
	c0.2-0.3,0.5-0.6,0.9-0.9c0.1-0.1,0.2-0.1,0.3,0c0.8,0.4,1.5,0.9,2.2,1.5c0.2,0.2,0.3,0.4,0.3,0.6c0,0.2-0.2,0.4-0.5,0.4
	c-0.2,0-0.4,0.2-0.5,0.5c-0.9,1.7-1.8,3.1-2.5,4.2c-0.5,0.6-0.6,1-0.3,1.2c1.7,1.3,2.8,2.7,3.4,4.3c0.7,1.9,0.7,3.7-0.2,5.3
	c-0.4,0.7-0.9,1.3-1.7,1.6c-0.7,0.3-1.5,0.5-2.3,0.5c-0.1,0-0.2-0.1-0.2-0.2c0-0.6-0.2-1.2-0.5-1.6c-0.3-0.5-0.8-0.9-1.4-1.1v4.5
	c0,0.6-0.1,1-0.4,1.2c-0.3,0.3-0.8,0.4-1.4,0.4c-0.4,0-0.6-0.1-0.8-0.3c-0.2-0.2-0.2-0.4-0.2-0.7V8.5c0-0.1,0-0.2,0-0.2
	c0,0,0.1,0,0.3,0C186.6,8.5,187.6,8.9,188.5,9.4 M176.5,18h4.3v-2.9h-4.3V18z M176.5,11.5v2.8h4.3v-2.8c-0.1-0.1-0.2-0.2-0.3-0.1
	h-3.6L176.5,11.5z M180.6,25.1c-0.8,0.6-1.7,1.2-2.8,1.8c-1,0.6-2.1,1.1-3,1.6c-0.5,0.2-0.8,0.5-0.8,0.7c-0.1,0.3-0.2,0.6-0.5,0.6
	c-0.2,0-0.4-0.2-0.6-0.6c-0.4-0.8-0.8-1.7-1.2-2.7c-0.1-0.2,0-0.3,0.2-0.3c0.6-0.1,1.1-0.1,1.6-0.2V9.9c0-0.2,0.1-0.4,0.2-0.3
	c0.7,0.3,1.5,0.6,2.3,1l0.9,0V7.9V7.5c0-0.1,0-0.1,0.2-0.1c1.1,0.1,2.1,0.2,3,0.4c0.4,0.1,0.6,0.3,0.6,0.5c0,0.3-0.2,0.4-0.5,0.5
	c-0.2,0.1-0.3,0.2-0.3,0.4v1.4h0.5c0.1,0,0.3-0.1,0.3-0.2c0.2-0.3,0.5-0.5,0.7-0.7c0.1,0,0.2-0.1,0.3,0c0.9,0.3,1.8,0.8,2.6,1.3
	c0.6,0.4,0.5,0.8-0.2,1.1c-0.2,0.1-0.3,0.2-0.3,0.5v6.7c0,0.4-0.2,0.6-0.5,0.8c-0.3,0.2-0.8,0.3-1.4,0.3c-0.4,0-0.7-0.1-0.9-0.3
	c-0.1-0.2-0.2-0.5-0.2-0.8v-0.4h-4.3v6.6c1.2-0.3,2.5-0.7,3.8-1.1c-0.7-1.6-1.5-2.7-2.4-3.4c-0.1-0.1-0.1-0.2-0.1-0.3
	c0.1-0.1,0.2-0.1,0.3-0.1c0.1,0,0.2,0.1,0.3,0.1c3,1.5,4.9,3.5,5.6,5.8c0.2,0.6,0.1,1.2-0.1,1.8c-0.2,0.6-0.6,0.9-1.1,1
	c-0.6,0.1-1-0.1-1.3-0.5c-0.3-0.3-0.5-0.8-0.5-1.4C180.9,26.4,180.8,25.7,180.6,25.1 M172.1,5.8h8V2.1V1.6c0-0.1,0.1-0.1,0.2-0.1
	c1.1,0.1,2.2,0.2,3.1,0.4c0.4,0.1,0.6,0.3,0.6,0.5c0,0.3-0.2,0.5-0.5,0.6c-0.2,0.1-0.3,0.2-0.3,0.4v2.5h6.8c0.2,0,0.4-0.1,0.5-0.3
	c0.5-0.7,1-1.3,1.6-2c0.2-0.2,0.4-0.2,0.6-0.1c1.1,0.7,1.9,1.5,2.6,2.5c0.1,0.2,0.2,0.3,0.1,0.4c-0.1,0.1-0.3,0.2-0.5,0.2H172V7v4.3
	c0,2.1-0.1,4.1-0.2,5.9c-0.5,6.8-2.2,11.5-4.9,14c-0.2,0.1-0.3,0.1-0.4,0c-0.1-0.1,0.2-0.8,0.7-2.1c1.2-3.7,1.8-9.6,1.8-17.9V7V4.7
	c0-0.2,0.1-0.3,0.2-0.2C170,4.8,171,5.2,172.1,5.8"/>
</svg>
