<?xml version="1.0" encoding="utf-8"?>
<!-- Generator: Adobe Illustrator 26.0.3, SVG Export Plug-In . SVG Version: 6.00 Build 0)  -->
<svg version="1.1" id="圖層_1" xmlns="http://www.w3.org/2000/svg" xmlns:xlink="http://www.w3.org/1999/xlink" x="0px" y="0px"
	 viewBox="0 0 265.9 57.4" style="enable-background:new 0 0 265.9 57.4;" xml:space="preserve">
<style type="text/css">
	.st0{fill:#A43034;}
	.st1{fill:#425A7B;}
</style>
<path class="st0" d="M7.9,31.5c0-2,0-4.1,0-6.1c0-0.3,0-0.7,0-1c0-0.5,0.2-0.9,0.4-1.4c0.5-0.9,1.2-1.5,2.2-1.7
	c0.6-0.1,1.2-0.1,1.9,0.1c0.8,0.2,1.4,0.7,1.8,1.4c0.2,0.4,0.4,0.9,0.5,1.4c0,0.2,0,0.5,0.1,0.7V25l0.1,0.1c0.1,0,0.1,0,0.2,0
	c0.6,0,1.2,0,1.9,0h0.1c0.2,0,0.3,0,0.3-0.3c0-0.5,0-1.1,0-1.6c0-0.3,0-0.6,0.1-0.9c0.1-0.6,0.4-1,0.8-1.4c0.5-0.6,1.2-0.9,1.9-1.1
	c1.3-0.4,2.5-0.3,3.7,0.3c0.5,0.2,0.9,0.5,1.2,0.9c0.5,0.5,0.8,1.1,0.9,1.8c0,0.1,0,0.3,0,0.4c0,0.5,0,1,0,1.4c0,0.1,0,0.2,0,0.3
	l0.1,0.1c0.1,0,0.1,0,0.2,0c0.7,0,1.4,0,2,0c0.1,0,0.1,0,0.2,0l0.1-0.1c0-0.1,0-0.1,0-0.2c0-0.2,0-0.3,0-0.5c0-0.5,0.2-1,0.4-1.4
	c0.5-0.9,1.2-1.4,2.1-1.6c0.6-0.1,1.3-0.1,1.9,0.1c0.8,0.2,1.3,0.7,1.7,1.4c0.3,0.4,0.4,0.9,0.5,1.4c0,0.3,0.1,0.7,0.1,1
	c0,4.4,0,8.8,0,13.1c0,0.1,0,0.3,0,0.4l-0.1,0.1c-0.1,0-0.2,0-0.3,0c-0.4,0-0.9,0-1.3,0c-1.5,0-3,0-4.5,0c-0.1,0-0.3,0-0.4,0
	l-0.1-0.1c0-0.1,0-0.1,0-0.2c0-0.1,0-0.3,0-0.4c0-2.8,0-5.7,0-8.5c0-0.2,0-0.3,0-0.5c0-0.1-0.1-0.1-0.2-0.1h-0.1c-0.7,0-1.4,0-2.1,0
	c-0.1,0-0.1,0-0.2,0c0,0-0.1,0-0.1,0.1v0.1c0,0.1,0,0.3,0,0.4c0,2.8,0,5.7,0,8.5c0,0.1,0,0.2,0,0.4s0,0.3-0.3,0.3
	c-0.1,0-0.2,0-0.2,0c-2.5,0-5.1,0-7.6,0c-0.1,0-0.3,0-0.4,0s-0.1-0.1-0.1-0.1c0-0.1,0-0.3,0-0.4c0-2.9,0-5.8,0-8.7
	c0-0.1,0-0.3,0-0.4S17.2,29,17.2,29c-0.1,0-0.1,0-0.2,0c-0.6,0-1.2,0-1.9,0c-0.1,0-0.1,0-0.2,0l-0.1,0.1c0,0.1,0,0.1,0,0.2
	s0,0.3,0,0.4c0,2.9,0,5.7,0,8.6c0,0.1,0,0.3,0,0.4c0,0.1-0.1,0.1-0.2,0.1c-0.1,0-0.2,0-0.3,0c-1.9,0-3.9,0-5.8,0c-0.1,0-0.2,0-0.4,0
	L8,38.7c0-0.1,0-0.1,0-0.2c0-0.2,0-0.4,0-0.6C7.9,35.8,7.9,33.6,7.9,31.5z"/>
<path class="st1" d="M72.2,22.1c-0.2,0.2-0.4,0.3-0.6,0.4c-0.1,0-0.1,0.1-0.1,0.2s0.1,0.3,0.2,0.4c0.1,0.2,0.2,0.3,0.2,0.5
	C72,23.8,72,24,72,24.1c-0.1,0.7,0,1.4,0.3,2c0.1,0.2,0.2,0.5,0.3,0.7c0.1,0.2,0.2,0.5,0.2,0.8c0,0.2,0,0.4,0,0.6
	c0,0.3,0.1,0.7,0.2,1s0.2,0.6,0.3,0.9c0.1,0.4,0.2,0.8,0.3,1.2c0,0.1,0,0.3,0,0.4c0,0.5,0,1,0,1.5c0,0.4-0.1,0.8-0.3,1.2
	c-0.1,0.1-0.1,0.2-0.2,0.3c-0.1,0.2-0.2,0.5-0.3,0.8c0,0.1-0.1,0.3-0.2,0.4c-0.2,0.4-0.5,0.6-0.9,0.8c-0.2,0.1-0.5,0.1-0.7,0.1
	c-0.4,0-0.9,0-1.3-0.1c-0.1,0-0.2,0-0.2,0c-0.2,0-0.2-0.1-0.2-0.3c0-0.1,0-0.2,0-0.3s0-0.2-0.1-0.3c-0.2-0.3-0.4-0.6-0.8-0.7
	c-0.3-0.1-0.6-0.2-1-0.2s-0.7,0-1.1,0s-0.9,0-1.3,0c-0.1,0-0.2,0-0.4,0c-0.3-0.1-0.7-0.1-1,0c-0.4,0-0.8,0.1-1.1,0.1
	s-0.6,0.1-0.9,0.1c-0.3,0-0.7,0.1-1,0.1c-1.4,0.2-2.7,0.4-4.1,0.8c-0.6,0.2-1.2,0.3-1.8,0.5c-0.2,0.1-0.4,0.1-0.5,0.2
	c-0.2,0.1-0.4,0.1-0.6,0.1c-0.3,0-0.5-0.1-0.6-0.3c0-0.2,0-0.3-0.1-0.5c0-0.1-0.1-0.3-0.1-0.4c0-0.3-0.1-0.5-0.1-0.8s0-0.6-0.1-0.9
	c0-0.1,0-0.2,0-0.4c0-0.1,0.1-0.2,0.2-0.2c0.2,0,0.3,0,0.5,0c0.1,0,0.1,0,0.2,0l0.1-0.1v-0.1V33c-0.2-0.6-0.1-1.2-0.1-1.9
	c0-0.4,0.1-0.7,0.1-1.1c0.1-0.5,0.1-1,0.2-1.5c0.1-0.9,0.3-1.8,0.4-2.6c0.1-0.6,0.2-1.3,0.4-1.9c0.1-0.4,0.3-0.9,0.5-1.3
	c0.1-0.1,0.1-0.2,0.1-0.4c0.3-0.9,0.6-1.8,0.9-2.8c0.1-0.2,0.1-0.4,0.2-0.7c0.1-0.3,0.2-0.6,0.3-0.9c0.1-0.2,0.2-0.4,0.4-0.6
	c0.3-0.3,0.6-0.4,1-0.4c0.2,0,0.5,0,0.7,0s0.4,0,0.6-0.1c0.3-0.1,0.6-0.2,0.8-0.4c0.1-0.1,0.2-0.3,0.3-0.4c0.3-0.4,0.6-0.6,1-0.8
	c0.8-0.3,1.5-0.5,2.3-0.7c0.5-0.1,1.1-0.2,1.6-0.3s1.1-0.1,1.6-0.1c0.4,0,0.8,0.1,1.1,0.2c0.3,0.1,0.5,0.2,0.7,0.3
	c0.1,0.1,0.3,0.2,0.4,0.3c0.3,0.3,0.7,0.5,1,0.8c0.2,0.1,0.3,0.3,0.4,0.5c0.2,0.4,0.3,0.8,0.5,1.1c0.2,0.4,0.3,0.8,0.3,1.2
	c0,0.1,0,0.2,0,0.3c0,0.6,0.1,1.1,0.4,1.6c0.1,0.1,0.1,0.2,0.2,0.4C72.2,21.4,72.3,21.8,72.2,22.1z M68.2,22.4c0-0.3,0-0.6-0.1-1
	c-0.1-0.6-0.3-1.2-0.5-1.8c0-0.1,0-0.2-0.1-0.2c-0.1-0.2-0.2-0.4-0.4-0.5c-0.2-0.1-0.3-0.1-0.5-0.2c-0.1,0-0.2,0-0.2,0.1
	c0,0.2-0.1,0.4-0.1,0.6s0,0.3,0.1,0.5c0.1,0.1,0.1,0.2,0.1,0.4c0.1,0.2,0.2,0.5,0.2,0.7c0.1,0.3,0,0.6-0.2,0.8
	c0,0.1-0.1,0.1-0.1,0.2c-0.1,0.2-0.3,0.3-0.4,0.5s-0.3,0.4-0.4,0.6c-0.1,0.1-0.1,0.2,0,0.3c0.2,0.4,0.4,0.7,0.6,1.1
	c0.1,0.1,0.2,0.3,0.3,0.4c0.1,0.1,0.2,0.3,0.3,0.4c0,0.1,0.1,0.2,0.1,0.2c0,0.1,0.1,0.1,0.2,0.1c0,0,0.1,0,0.1-0.1v-0.1
	c0-0.5,0.1-0.9,0.4-1.3c0,0,0,0,0-0.1c0.1-0.2,0.2-0.4,0.3-0.6C68.1,23.1,68.2,22.7,68.2,22.4z M57.9,29.6c0,0.2,0,0.3,0,0.5v0.1
	c0,0,0,0.1,0.1,0.1s0.1,0,0.2,0c0.1,0,0.2,0,0.4-0.1c0.3,0,0.7-0.1,1-0.3c0.3-0.1,0.5-0.2,0.8-0.4c0.3-0.2,0.7-0.3,1-0.3
	c0.1,0,0.1,0,0.2-0.1c0.1-0.1,0.1-0.2,0.1-0.3c-0.1-0.1-0.2-0.1-0.2-0.2c-0.1-0.1-0.2-0.2-0.2-0.3c-0.1-0.2-0.2-0.4-0.2-0.6
	c0,0,0-0.1,0.1-0.1s0.2,0,0.2,0c0.3,0,0.3,0,0.4-0.3c0.1-0.1,0.1-0.3,0.2-0.4c0.3-0.7,0.3-0.6-0.4-0.6c-0.1,0-0.3,0-0.4,0
	c-0.1,0-0.1,0-0.1,0.1C61,26.6,61,26.8,60.9,27c-0.1,0.3-0.1,0.6-0.1,0.9c0,0.1,0,0.3,0,0.4c0,0.5-0.4,0.7-0.7,0.8
	c-0.2,0.1-0.4,0.1-0.7,0.1c-0.1,0-0.2-0.1-0.3-0.1c-0.1-0.1-0.2-0.2-0.2-0.3c-0.1-0.2-0.1-0.3-0.2-0.5c-0.1-0.4-0.1-0.8-0.1-1.2
	c0-0.3,0.1-0.7,0.3-1c0-0.1,0.1-0.1,0.1-0.2s0.1-0.2,0-0.3v-0.1h-0.1c0,0,0,0-0.1,0c-0.2,0.3-0.3,0.5-0.4,0.9c-0.1,0.3-0.1,0.7,0,1
	c0,0.1,0,0.2,0,0.3c0,0.1-0.1,0.3-0.1,0.4C58,28.8,57.9,29.2,57.9,29.6z M59.8,32.9c0.4,0,0.8-0.1,1.2-0.1c0.3,0,0.5-0.1,0.8-0.1
	c0.4,0,0.9-0.1,1.3-0.1c0.2,0,0.3,0,0.5,0c0.1,0,0.1,0,0.2-0.1c0.1-0.1,0.2-0.3,0.2-0.4c0.3-0.6,0.6-1.1,0.9-1.6
	c0.2-0.3,0.2-0.3-0.2-0.5c-0.1,0-0.2-0.1-0.3-0.1h-0.1c0,0,0,0.1-0.1,0.1c-0.1,0.2-0.2,0.3-0.2,0.5c-0.1,0.2-0.2,0.4-0.5,0.6
	c-0.2,0.1-0.3,0.2-0.5,0.4c-0.3,0.3-0.6,0.5-1,0.6c-0.3,0.1-0.7,0.2-1,0.3c-0.6,0.1-1.2,0.3-1.7,0.4c0,0-0.1,0-0.1,0.1
	c0,0,0,0.1,0.1,0.1C59.6,32.9,59.7,32.9,59.8,32.9z M66.4,32c0.2-0.1,0.3-0.1,0.4-0.2s0.3-0.1,0.5-0.1c0.2-0.1,0.4-0.1,0.7,0
	c0.2,0,0.3,0.1,0.4,0.3c0,0.1,0.1,0.1,0.1,0.2s0.1,0.1,0.1,0.1c0.1,0.1,0.2,0.1,0.3,0.1l0.1-0.1c0-0.1,0-0.1,0-0.2
	c0-0.1,0-0.3,0-0.4s0-0.1,0-0.2c0-0.2-0.1-0.4-0.2-0.6c0,0-0.1-0.1-0.2-0.1c-0.3-0.2-0.6-0.4-0.8-0.6c-0.1-0.1-0.1-0.1-0.2-0.2
	c-0.1,0-0.1,0-0.2-0.1c-0.1,0-0.1,0-0.1,0s-0.1,0.1-0.1,0.2c-0.1,0.2-0.2,0.4-0.3,0.6c-0.2,0.4-0.4,0.8-0.7,1.1
	C66.1,31.9,66,32,66,32.1l-0.1,0.1v0.1l0.1,0.1c0.1,0,0.2-0.1,0.3-0.2C66.3,32.2,66.3,32.1,66.4,32z M64.7,28.5L64.7,28.5
	c0.2,0,0.4,0,0.7,0c0.2,0,0.3-0.1,0.4-0.2v-0.1c0-0.1-0.1-0.1-0.1-0.2c-0.1-0.2-0.3-0.4-0.4-0.5s-0.2-0.2-0.2-0.4
	c0-0.1-0.1-0.3-0.2-0.4s-0.2-0.1-0.2,0c-0.1,0.1-0.2,0.2-0.3,0.3c-0.3,0.4-0.4,0.9-0.4,1.4c0,0.1,0.1,0.2,0.1,0.2
	C64.3,28.5,64.5,28.5,64.7,28.5z M57.4,32c0,0.1,0,0.2,0,0.3c0,0.3,0.2,0.5,0.5,0.7c0.2,0.1,0.5,0.2,0.7,0.1c0,0,0,0,0.1,0V33
	c0-0.1-0.1-0.1-0.1-0.1c-0.2-0.1-0.3-0.3-0.5-0.4C58,32.4,58,32.4,58,32.3c0-0.5-0.1-1.1,0.1-1.6c0-0.1,0-0.1-0.1-0.1
	c-0.1-0.1-0.3-0.1-0.3,0.1c0,0,0,0,0,0.1C57.4,31.1,57.4,31.6,57.4,32z M63.5,23.8L63.5,23.8c0-0.1,0-0.1,0-0.2v-0.1l-0.1-0.1h-0.1
	c-0.3,0.1-0.6,0.1-0.9,0.2c-0.1,0-0.1,0-0.2,0.1l-0.1,0.1c0,0.1,0,0.3,0,0.4c0,0.2,0.2,0.3,0.4,0.3c0.1,0,0.2,0,0.3,0
	c0.2,0,0.3-0.1,0.5-0.2c0.1,0,0.2-0.1,0.2-0.2C63.5,23.9,63.5,23.8,63.5,23.8z M69,27.2c0-0.1,0-0.2,0-0.4l-0.1-0.1h-0.1
	c-0.4,0.2-0.5,0.6-0.5,1c0,0,0,0.1,0.1,0.1c0.1,0.1,0.3,0.2,0.5,0.2c0,0,0.1,0,0.1-0.1s0-0.2,0.1-0.3C68.9,27.6,68.9,27.4,69,27.2z
	 M59.8,21.1c-0.2,0-0.3,0-0.5,0.1c-0.1,0-0.2,0.1-0.2,0.2c-0.1,0.2-0.2,0.4-0.2,0.7l0.1,0.1l0,0c0.4-0.2,0.7-0.5,0.9-0.9l0,0
	C59.9,21.1,59.9,21.1,59.8,21.1L59.8,21.1z M63.9,18.4c-0.1,0-0.3,0-0.4,0.1c-0.1,0.1-0.1,0.2,0,0.2c0.2,0.1,0.4,0.3,0.6,0.4
	c0.1,0,0.2,0,0.3,0l0.1-0.1c-0.1-0.1-0.2-0.3-0.2-0.4C64.2,18.4,64.1,18.4,63.9,18.4z M61.3,20.6L61.3,20.6c0.2,0,0.2-0.1,0.2-0.2
	v-0.1c-0.1-0.1-0.2-0.2-0.2-0.4c-0.1-0.1-0.2,0-0.3,0c-0.1,0.2-0.1,0.4,0.1,0.5C61.1,20.6,61.2,20.6,61.3,20.6z"/>
<path class="st1" d="M199.4,28.7c0.3,0,0.5,0,0.7,0.1l0.1,0.1c0,0.1,0,0.1,0,0.2s-0.1,0.2-0.1,0.3c-0.1,0.2,0,0.3,0.1,0.4
	s0.3,0.2,0.5,0.2s0.4,0,0.6,0c0.4-0.1,0.8-0.2,1.2-0.4c0.4-0.2,0.8-0.4,1.2-0.6c0.6-0.3,1.2-0.6,1.8-0.9c0.3-0.2,0.7-0.3,1-0.5
	c0.2-0.1,0.4-0.2,0.6-0.3c0.1,0,0.1-0.1,0.2-0.2c0-0.1,0-0.2,0-0.2l-0.1-0.1c-0.1-0.1-0.2-0.1-0.3-0.2s-0.2-0.1-0.3-0.2
	c-0.2-0.1-0.3-0.3-0.3-0.5c-0.1-0.5-0.2-1.1-0.2-1.7v-0.1c0-0.1-0.1-0.1-0.2-0.1c-0.1,0-0.3,0.1-0.3,0.2c-0.2,0.3-0.3,0.5-0.5,0.8
	s-0.3,0.6-0.4,0.9c-0.1,0.2-0.1,0.4-0.2,0.6c0,0.1-0.1,0.2-0.1,0.3c0,0.1-0.1,0.2-0.2,0.2l0,0c-0.3,0-0.5,0.1-0.7,0.2
	c-0.1,0.1-0.3,0-0.4-0.1C203,27,203,27,203,26.9c-0.2-0.4-0.4-0.9-0.5-1.4c-0.1-0.4-0.2-0.8-0.2-1.2c0-0.2-0.1-0.5-0.2-0.7
	c0-0.1-0.1-0.1-0.2-0.1c-0.2,0-0.4,0-0.6,0c-0.1,0-0.3,0.1-0.4,0.1c-0.1,0-0.2,0.1-0.2,0.1c-0.3,0.1-0.5,0.3-0.8,0.4
	c-0.2,0.1-0.3,0.2-0.4,0.4c-0.1,0.2-0.1,0.4-0.2,0.6c-0.1,0.5-0.2,1-0.3,1.6c0,0.5-0.1,0.9-0.1,1.4c0,0.4-0.1,0.7-0.3,1
	c-0.1,0.2-0.2,0.4-0.3,0.6c-0.1,0.4-0.2,0.7-0.2,1.1c0,0.1,0,0.2,0,0.2c0,0.5-0.1,1-0.1,1.5c-0.1,0.6-0.2,1.1-0.3,1.7
	c0,0.1,0,0.3,0,0.4c0,0.3,0,0.6,0,1c0,0.3,0,0.6,0,0.8c0,0.5-0.1,1-0.3,1.4c0,0,0,0.1-0.1,0.1c0,0.1-0.1,0.1-0.2,0.1
	c-0.1,0-0.1,0-0.2,0c-0.6,0-1.1-0.1-1.7-0.2c-0.1,0-0.2,0-0.4,0c-0.1,0-0.1-0.1-0.2-0.2c0-0.1,0-0.2,0-0.2c0-0.1,0-0.2,0-0.4
	c-0.1-0.4-0.1-0.9-0.1-1.3c0-0.2,0-0.5,0-0.7c0-0.6,0.1-1.1,0.3-1.7c0.2-0.5,0.3-1,0.4-1.5c0.1-0.3,0.1-0.5,0.1-0.8
	c0.1-0.6,0.1-1.1,0.2-1.7c0.1-0.6,0.2-1.2,0.3-1.8c0.1-0.3,0.2-0.7,0.3-1s0.2-0.5,0.2-0.8c0.1-0.3,0.1-0.7,0-1
	c0-0.2-0.1-0.4-0.1-0.6c0-0.1-0.1-0.2-0.1-0.3c-0.2-0.3-0.4-0.4-0.7-0.5c-0.2,0-0.5,0-0.7,0c-0.3,0.1-0.7,0.1-1,0.1s-0.6,0-0.9,0.1
	c-0.2,0-0.4,0.1-0.7,0.1c-0.4,0.1-0.8,0-1.2-0.3c-0.1,0-0.1-0.1-0.1-0.2c0-0.3,0-0.6,0.1-0.9s0.3-0.6,0.5-0.8c0.3-0.2,0.6-0.4,1-0.6
	c0.3-0.1,0.7-0.1,1-0.1s0.5,0.1,0.8,0.1c0.1,0,0.2,0,0.3,0c0.3,0,0.6-0.1,0.9-0.3c0.1-0.1,0.3-0.2,0.4-0.3c0.1-0.1,0.2-0.2,0.4-0.3
	c0.1-0.1,0.2-0.2,0.3-0.2c0-0.1,0-0.2,0.1-0.4c0-0.2,0.1-0.4,0.2-0.6c0.1-0.2,0.2-0.5,0.3-0.7c0.1-0.3,0.1-0.5,0.1-0.8
	c0-0.6,0-1.1-0.1-1.7c-0.1-0.4-0.1-0.8-0.1-1.3c0-0.4-0.1-0.7-0.1-1.1c0-0.1,0-0.2,0-0.4s0.1-0.5,0.2-0.7c0.1-0.1,0.2-0.3,0.3-0.4
	c0.3-0.4,0.2-0.3,0.7-0.2c0.4,0.1,0.7,0.3,1,0.6c0.1,0.1,0.2,0.3,0.2,0.5s0,0.4-0.1,0.6c-0.1,0.4-0.1,0.7,0,1.1
	c0,0.2,0.1,0.4,0.1,0.6c0.1,0.4,0.2,0.8,0.3,1.2c0.1,0.5,0.2,1,0.3,1.4c0,0.2,0,0.4,0,0.7c0,0.1-0.1,0.3-0.1,0.4
	c0,0.3,0.1,0.5,0.3,0.6s0.4,0.2,0.6,0.2c0.2,0,0.3,0,0.5,0.1c0.3,0,0.5,0,0.7-0.1c0.1-0.1,0.3-0.2,0.4-0.3c0.1-0.1,0.1-0.1,0.2-0.2
	c0.2-0.1,0.4-0.2,0.6-0.2c0.2,0,0.3,0,0.5-0.1c0.2,0,0.4,0,0.6-0.1c0.1,0,0.2,0,0.2,0c0.2,0,0.4,0,0.6,0.2l0.1,0.1
	c0,0,0.1,0,0.1-0.1s0-0.2,0-0.3c0-0.2,0-0.3,0.1-0.5c0-0.1,0.1-0.2,0.3-0.2c0.1,0,0.2,0,0.2,0c0.1,0,0.1-0.1,0-0.2s-0.2-0.2-0.3-0.3
	c-0.2-0.1-0.4-0.2-0.6-0.2c-0.3,0-0.6,0-1,0.1c-0.3,0.1-0.7,0.1-1,0.1c-0.6,0-1.3-0.6-1.2-1.5c0-0.2,0.1-0.4,0.1-0.5
	s0.1-0.1,0.1-0.2c0.1-0.1,0.2-0.2,0.3-0.2s0.2,0,0.3,0s0.1,0,0.2,0c0.5,0.1,1-0.1,1.4-0.5l0.1-0.1c0.2-0.2,0.4-0.3,0.7-0.4
	c0.1,0,0.3-0.1,0.4-0.1c0.1,0,0.3-0.1,0.4-0.1c0.3-0.1,0.6-0.3,0.7-0.5c0.1-0.1,0.1-0.2,0.2-0.4c0.1-0.2,0.1-0.4,0.1-0.7
	c0-0.4,0-0.8,0-1.2s-0.1-0.8-0.2-1.3c0-0.1,0-0.2,0-0.3s0.1-0.2,0.1-0.3c0,0,0.1,0,0.1-0.1h0.1c0.4,0,0.8,0,1.2,0
	c0.1,0,0.2,0.1,0.3,0.1c0.2,0.3,0.3,0.5,0.4,0.8c0.1,0.2,0.1,0.4,0,0.6c-0.1,0.3-0.2,0.5-0.4,0.7c-0.1,0.1-0.2,0.3-0.3,0.4
	c-0.1,0.1-0.2,0.2-0.3,0.4s-0.1,0.4-0.1,0.7c0,0.1,0,0.1,0.1,0.1l0.1,0.1c0.4,0,0.7,0,1-0.3l0.1-0.1c0.2-0.2,0.4-0.3,0.7-0.4
	c0.2,0,0.4-0.1,0.7,0c0.1,0.3,0.3,0.6,0.5,0.8c0.1,0.1,0.2,0.3,0.3,0.4c0.1,0.2,0.2,0.4,0.2,0.7c0,0.2,0,0.4,0,0.6
	c0,0.2,0,0.4-0.1,0.6c0,0.1,0,0.1,0.1,0.2c0.1,0,0.2,0.1,0.3,0.1c0.4,0.2,0.8,0.4,1.2,0.6c0.1,0.1,0.3,0.2,0.4,0.3
	c0.2,0.2,0.3,0.4,0.3,0.7c-0.1,0.5-0.1,1-0.2,1.5c0,0.5-0.1,0.9-0.3,1.4c-0.1,0.5-0.3,0.9-0.4,1.4c-0.1,0.4-0.3,0.8-0.4,1.2
	c-0.2,0.5-0.4,1.1-0.5,1.6c-0.1,0.3-0.1,0.6-0.1,0.9v0.1c0,0.1-0.1,0.2-0.2,0.1c-0.2-0.1-0.4,0-0.6,0c-0.2,0-0.3,0-0.5,0
	c-0.1,0-0.3,0-0.4,0c-0.1,0-0.2,0-0.2,0.1s0,0.2,0.1,0.2c0.1,0.1,0.2,0.2,0.4,0.2c0.1,0,0.1,0,0.1,0c0.1-0.1,0.2-0.1,0.3-0.1
	c0.2,0.1,0.5,0.1,0.8,0.1c0.2,0,0.4,0,0.6,0c0.2,0,0.5,0.1,0.7,0.2s0.4,0.3,0.6,0.5c0.1,0.1,0.2,0.3,0.2,0.5c0,0.1,0,0.2,0,0.3
	c0,0.1,0,0.2-0.1,0.3c-0.1,0.3-0.2,0.5-0.3,0.8c-0.1,0.1-0.2,0.1-0.2,0.1c-0.3,0-0.6,0.1-0.9,0.1c-0.2,0-0.4,0-0.7-0.1
	c-0.4-0.2-0.4-0.2-0.9,0c-0.1,0-0.2,0.1-0.2,0.2c-0.1,0.2-0.1,0.4,0,0.6c0.1,0.4,0.2,0.9,0.3,1.3c0,0.1,0.1,0.3,0.1,0.4
	c0.4,0.8,0.8,1.7,1.3,2.5c0.1,0.3,0.2,0.5,0.2,0.8c0,0.4,0,0.8,0,1.2c0,0.2,0,0.4,0,0.6c0,0.4,0,0.7-0.1,1.1c0,0.3-0.1,0.6-0.1,0.9
	c0,0.4-0.2,0.8-0.3,1.2c-0.1,0.2-0.2,0.4-0.3,0.5l-0.1,0.1c-0.5,0.5-1.1,0.7-1.7,0.7c-0.4,0-0.8-0.1-1.1-0.2c-0.5-0.2-1-0.5-1.4-1
	c-0.2-0.3-0.5-0.6-0.9-0.8c-0.5-0.3-0.8-0.8-1-1.4c-0.2-0.6-0.4-1.1-0.8-1.5c-0.2-0.2-0.3-0.5-0.5-0.7c-0.1-0.2-0.2-0.3-0.2-0.5
	c-0.1-0.3-0.1-0.6-0.2-0.9c-0.1-0.4-0.2-0.9-0.2-1.3c0-0.1-0.1-0.3-0.1-0.4c-0.1-0.2-0.2-0.3-0.3-0.3s-0.2,0-0.3,0
	c-0.2,0-0.3,0-0.5,0c-0.4,0-0.8-0.1-1.3-0.2c-0.4-0.1-0.7-0.2-1.1-0.2c-0.2,0-0.3-0.1-0.4-0.2l-0.1-0.1c0-0.3,0-0.7,0-1
	c0-0.1,0-0.2,0.1-0.3l0.1-0.1c0.1-0.2,0.3-0.3,0.4-0.5C199.2,28.8,199.3,28.8,199.4,28.7z M208.3,33.9c0-0.3,0-0.6-0.1-0.9
	c-0.1-0.8-0.2-1.6-0.4-2.4c0-0.1-0.1-0.3-0.1-0.4c-0.1-0.1-0.1-0.3-0.1-0.4s0-0.3,0-0.4l-0.1-0.1c-0.1,0-0.2,0-0.2,0
	c-0.3,0-0.5,0.1-0.7,0.4l-0.1,0.1c-0.2,0.2-0.4,0.5-0.7,0.6c-0.1,0-0.1,0.1-0.2,0.1v0.1c0.1,0.1,0.2,0.2,0.3,0.2
	c0.2,0.2,0.5,0.4,0.7,0.6c0.6,0.5,0.7,0.7,1.1,1.5c0,0.1,0.1,0.2,0.1,0.3c0.1,0.2,0.1,0.5,0.2,0.7c0,0.5,0,1-0.2,1.4
	c-0.1,0.1-0.1,0.3-0.2,0.4c-0.1,0.2-0.1,0.4-0.2,0.6c0,0.1,0,0.1,0,0.2c0,0,0,0,0.1,0c0,0,0.1,0,0.1-0.1c0.2-0.2,0.4-0.5,0.5-0.8
	s0.2-0.7,0.2-1C208.3,34.4,208.3,34.2,208.3,33.9z M208.6,23.9c0-0.2-0.1-0.4-0.1-0.7c0-0.1-0.1-0.2-0.2-0.3c-0.1,0-0.1-0.1-0.2,0
	c-0.2,0.1-0.5,0.2-0.7,0.4c-0.2,0.1-0.3,0.3-0.3,0.5c-0.1,0.2-0.1,0.5-0.2,0.7c0,0.1,0,0.1,0.1,0.1s0.3,0,0.4,0
	c0.3-0.1,0.7-0.2,1-0.4C208.6,24.2,208.6,24.1,208.6,23.9z M205.1,21.6c-0.1,0-0.2,0-0.3,0s-0.2,0.1-0.1,0.2c0,0.2,0.1,0.3,0.1,0.5
	c0,0.1,0.1,0.1,0.2,0.1c0.3-0.1,0.5-0.2,0.7-0.4c0,0,0-0.1,0.1-0.1c0-0.1,0-0.2-0.1-0.2h-0.1C205.4,21.7,205.2,21.6,205.1,21.6z
	 M205.6,19.3C205.6,19.2,205.6,19.2,205.6,19.3c0-0.1,0-0.1,0-0.1h-0.1c-0.4,0.2-0.7,0.4-1.1,0.7c0,0,0,0,0,0.1v0.1c0,0,0.1,0,0.2,0
	c0.2,0,0.4-0.1,0.6-0.2c0.1,0,0.2-0.1,0.3-0.2C205.6,19.5,205.6,19.4,205.6,19.3z M208.1,21.2C208,21.1,208,21.1,208.1,21.2
	c-0.1-0.1-0.1-0.1-0.1-0.1c-0.3-0.1-0.5,0-0.7,0.3c0,0,0,0.1,0,0.2v0.1v0.1c0.2,0,0.3,0,0.5-0.1C207.9,21.5,208,21.3,208.1,21.2z
	 M207.9,18.9c0.1,0,0.2,0,0.3,0s0.2-0.1,0.3-0.2c0,0,0-0.1,0-0.2c-0.1-0.1-0.1-0.2-0.3-0.1c-0.2,0-0.4,0.1-0.6,0.2l-0.1,0.1
	c-0.1,0.1,0,0.2,0.1,0.2C207.8,18.9,207.9,18.9,207.9,18.9z"/>
<path class="st1" d="M116.5,23c0,0,0,0.1,0.1,0.1c0,0.1,0.1,0.2,0.3,0.3c0.3,0.2,0.5,0.3,0.8,0.5c0.2,0.1,0.4,0.3,0.6,0.4
	c0.1,0.1,0.1,0.1,0.2,0.2c0.3,0.2,0.5,0.6,0.5,1c0,0.2,0,0.4,0,0.6c-0.1,0.6-0.2,1.2-0.4,1.7c-0.2,0.6-0.4,1.1-0.5,1.7
	c-0.1,0.3-0.2,0.6-0.2,0.8c-0.1,0.4-0.1,0.8,0.1,1.2c0.1,0.2,0.1,0.3,0.2,0.5c0.3,0.6,0.6,1.3,0.9,2c0,0.1,0.1,0.2,0.1,0.3
	c0.2,0.6,0.6,1.1,1.1,1.5c0.3,0.2,0.5,0.5,0.7,0.7l0.1,0.1c0.3,0.3,0.7,0.4,1.1,0.5c0.1,0,0.1,0,0.2-0.1s0.2-0.2,0.3-0.3h0.1
	c0,0.1,0,0.2,0,0.2c0.1,0.4,0.2,0.8,0.4,1.2c0.2,0.3,0.3,0.6,0.5,0.9c0.1,0.2,0.2,0.4,0.3,0.7c0.1,0.2,0.2,0.5,0.2,0.7
	s0,0.5-0.1,0.7c-0.2,0.3-0.4,0.6-0.6,0.9c-0.3,0.2-0.6,0.4-1,0.4c-0.5,0-1,0-1.5,0c-0.1,0-0.1-0.1-0.2-0.2c0-0.3-0.1-0.5-0.2-0.8
	c-0.1-0.5-0.3-0.9-0.6-1.3c-0.1-0.2-0.3-0.4-0.5-0.6c-0.1-0.2-0.3-0.3-0.5-0.5c-0.1-0.1-0.3-0.3-0.3-0.5c-0.1-0.1-0.1-0.2-0.2-0.3
	s-0.3-0.2-0.4-0.3c-0.3-0.2-0.6-0.5-0.8-0.8c-0.5-0.6-0.9-1.2-1.2-1.8c-0.1-0.3-0.2-0.5-0.3-0.8c0-0.1-0.1-0.2-0.2-0.4
	c-0.1-0.1-0.2-0.2-0.3-0.3c-0.1-0.1-0.2,0-0.3,0c-0.1,0.1-0.2,0.1-0.2,0.2c0,0.1-0.1,0.2-0.1,0.3l-0.1,0.1c-0.2,0-0.3,0.2-0.4,0.3
	s-0.2,0.3-0.1,0.5v0.1l0,0c-0.3,0.2-0.5,0.5-0.6,0.8c-0.1,0.1-0.1,0.3-0.2,0.4c-0.1,0.2-0.2,0.3-0.4,0.4c-0.1,0.1-0.3,0.1-0.4,0.2
	c-0.1,0.1-0.2,0.1-0.3,0l0,0c-0.1-0.1-0.1-0.1-0.2,0l-0.1,0.1c-0.1,0.1-0.2,0.2-0.4,0.2c-0.1,0-0.1,0-0.2-0.1c0-0.1-0.1-0.1-0.2-0.1
	c-0.3,0-0.5,0.1-0.7,0.3s-0.4,0.4-0.7,0.5c-0.6,0.2-1.1,0.6-1.6,1c0,0-0.1,0-0.1,0.1c-0.3,0.2-0.6,0.5-0.7,0.9s-0.3,0.7-0.5,1
	c0,0.1-0.1,0.1-0.1,0.2c0,0-0.1,0-0.1,0.1c-0.3,0-0.6,0-0.8-0.2c-0.2-0.1-0.3-0.2-0.3-0.4c0-0.1,0-0.1,0-0.2c0-0.3,0-0.3,0.3-0.4
	c0.1,0,0.2-0.1,0.4-0.2c0.1,0,0.1-0.1,0.2-0.2v-0.1h-0.1c-0.1,0-0.2,0.1-0.3,0.1c0,0-0.1,0-0.2,0c0,0-0.1,0-0.1-0.1
	c-0.1-0.1-0.1-0.1-0.1-0.2c0-0.1,0-0.2,0-0.2c0.1-0.2,0.3-0.5,0.5-0.6c0.1-0.1,0.3-0.2,0.4-0.3s0.2-0.2,0.3-0.3
	c0.2-0.2,0.4-0.2,0.7-0.3c0,0,0.1,0,0.1,0.1s0.1,0.1,0.1,0.2l0.1,0.1c0.1,0,0.3-0.1,0.4-0.2l0.1-0.1c0.1-0.2,0.2-0.2,0.4-0.3
	c0.6-0.4,1.2-0.8,1.7-1.3c0.2-0.2,0.3-0.3,0.4-0.5c0,0,0-0.1,0.1-0.1c0,0,0-0.1-0.1-0.1s-0.2,0-0.2,0c-0.1,0-0.1,0-0.2,0
	s-0.1-0.1-0.1-0.1c0-0.1,0-0.2,0.1-0.3c0.1-0.2,0.2-0.4,0.3-0.6c0.3-0.5,0.6-1,0.8-1.4c0.3-0.5,0.6-1,0.9-1.5c0,0,0-0.1,0.1-0.1
	c0.1-0.1,0.1-0.1,0.3-0.1c0.1,0,0.1,0,0.2,0.1c0,0.1,0,0.1,0.1,0.2c0,0.1,0,0.1,0,0.2c0,0,0,0.1-0.1,0.1c-0.3,0.3-0.4,0.7-0.6,1
	c-0.1,0.3-0.2,0.5-0.3,0.8c-0.1,0.4-0.3,0.7-0.5,1c-0.1,0.2-0.3,0.3-0.3,0.5v0.1c0,0,0,0,0.1,0c0,0,0,0,0.1,0
	c0.1-0.1,0.1-0.1,0.2-0.2c0.3-0.3,0.5-0.7,0.7-1.1c0.3-0.7,0.6-1.4,0.9-2c0.1-0.3,0.2-0.6,0.3-0.9c0-0.1,0.1-0.2,0.1-0.3l-0.1-0.1
	c-0.1,0-0.1,0.1-0.2,0.1c0,0-0.1,0-0.1-0.1s0-0.3,0-0.4c0-0.3,0-0.6-0.1-0.9c0-0.1-0.1-0.3-0.1-0.4c-0.1-0.2-0.2-0.4-0.3-0.5
	c-0.1-0.1-0.1-0.1-0.2-0.2s-0.2-0.2-0.2-0.4c0-0.2-0.2-0.4-0.3-0.6c-0.3-0.3-0.6-0.6-0.9-1c-0.1-0.2-0.3-0.3-0.4-0.5
	c-0.2-0.3-0.4-0.5-0.7-0.7c-0.1-0.1-0.2-0.1-0.3-0.2c-0.3-0.2-0.6-0.4-0.8-0.6c-0.2-0.2-0.5-0.3-0.8-0.4s-0.5,0-0.8,0.1
	c-0.2,0.1-0.4,0.2-0.5,0.2s-0.2,0.1-0.3,0.2c-0.2,0.1-0.5,0.2-0.8,0.3c-0.3,0-0.5,0.1-0.8,0.1s-0.7,0.1-1,0.2
	c-0.4,0.1-0.8,0.3-1.2,0.4c-0.3,0.1-0.4,0.3-0.5,0.5c-0.1,0.3-0.2,0.7-0.2,1.1c0,0.3,0.1,0.6,0.2,0.8c0,0.1,0.1,0.1,0.2,0.1
	c0.2,0,0.4-0.1,0.6-0.2s0.3-0.2,0.5-0.3c0.4-0.3,0.8-0.6,1.3-0.9c0.3-0.1,0.5-0.3,0.8-0.4c0.4-0.2,0.7-0.3,1.1-0.2
	c0.4,0.1,0.8,0.2,1.1,0.5c0.1,0.1,0.2,0.2,0.3,0.3c0.3,0.3,0.5,0.6,0.5,1.1c0,0.3,0.1,0.5,0.1,0.8c0,0.5,0,0.9-0.1,1.4
	c-0.1,0.4-0.1,0.7-0.1,1.1c0,0.3,0,0.6,0,0.9c0,0.1,0,0.3-0.1,0.4c-0.1,0.1-0.1,0.2-0.2,0.3c-0.2,0.2-0.3,0.5-0.4,0.7
	s-0.1,0.3-0.2,0.5c0,0.1-0.1,0.2-0.2,0.3c-0.2,0.1-0.3,0.3-0.4,0.5c-0.2,0.3-0.4,0.5-0.7,0.6c-0.2,0.1-0.4,0.1-0.6,0.2
	c-0.3,0.1-0.5,0-0.8-0.1c-0.2-0.1-0.3-0.2-0.4-0.3s-0.3-0.2-0.4-0.4c-0.1-0.1-0.2-0.1-0.4-0.1c-0.2,0-0.3,0-0.5,0
	c-0.1,0-0.3,0-0.4,0s-0.1-0.1-0.1-0.1c-0.1-0.1-0.1-0.2-0.2-0.3s-0.2-0.3-0.2-0.5s-0.1-0.3-0.2-0.4c-0.1-0.2-0.2-0.3-0.2-0.5
	c-0.1-0.1-0.1-0.3-0.1-0.4c0-0.2,0.1-0.4,0.2-0.5c0.3-0.1,0.5-0.1,0.8-0.1c0.5,0.1,1,0.1,1.5,0.1c0.1,0,0.3,0,0.4-0.1
	c0.2-0.1,0.4-0.2,0.4-0.5c0-0.1,0-0.3,0-0.4c0-0.3,0-0.6,0-0.9c0-0.2,0-0.3-0.1-0.5c-0.1-0.3-0.3-0.4-0.6-0.5c-0.3,0-0.5,0-0.8,0
	c-0.1,0-0.3,0.1-0.4,0.1s-0.1,0.1-0.2,0.1c-0.5,0.3-0.4,0.3-0.7,0.7c-0.2,0.3-0.4,0.6-0.6,0.9c-0.1,0.1-0.2,0.2-0.3,0.3
	c-0.2,0.2-0.4,0.5-0.5,0.8c0,0.1-0.1,0.3-0.1,0.4c-0.1,0.2-0.1,0.5-0.3,0.7c-0.1,0-0.2,0-0.3,0c-0.1,0-0.2,0-0.3,0
	c-0.2,0-0.4,0.1-0.5,0.2c-0.1,0.1-0.2,0.2-0.2,0.2c-0.2,0.2-0.3,0.4-0.5,0.6c-0.1,0.2-0.2,0.4-0.2,0.6c0,0.1,0,0.2,0,0.3
	s0,0.3-0.1,0.4c-0.1,0.3-0.3,0.5-0.5,0.5c-0.4,0.1-0.8,0.1-1.1-0.1c-0.2-0.1-0.4-0.2-0.6-0.3c-0.4-0.2-0.8-0.5-1.2-0.6
	c-0.2-0.1-0.4-0.3-0.5-0.5c-0.2-0.4-0.3-0.8-0.3-1.2c0-0.1,0-0.1,0.1-0.2c0.1,0,0.3-0.1,0.4-0.1c0.2-0.1,0.4-0.1,0.6-0.2
	c0.3-0.2,0.6-0.4,0.7-0.7c0.2-0.4,0.4-0.7,0.5-1.1s0.1-0.8,0.1-1.1c-0.1-0.4-0.1-0.9-0.2-1.3c0-0.2,0-0.3-0.1-0.5
	c-0.2-0.5-0.2-1-0.1-1.5c0.1-0.3,0.1-0.5,0-0.8c0-0.3-0.1-0.6-0.1-0.9v-0.1c0-0.3-0.1-0.5-0.3-0.8c-0.1-0.1-0.2-0.2-0.3-0.3v-0.1
	c0,0,0.1,0,0.1-0.1c0.2-0.1,0.3-0.2,0.4-0.4l0.1-0.1c0.1-0.3,0.4-0.6,0.6-0.9c0.1-0.1,0.1-0.1,0.2-0.1c0.5,0,1,0,1.4,0
	c0.1,0,0.2,0,0.2,0.1s0.1,0.1,0.2,0.2c0.3,0.1,0.5,0.2,0.8,0.2s0.7,0,1,0c0.2,0,0.5,0,0.7,0.1c0.1,0,0.3,0.1,0.4,0.2
	c0.2,0.1,0.3,0.2,0.4,0.4c0,0.1,0.1,0.2,0.1,0.3c0.1,0.2,0.2,0.3,0.4,0.3c0.2,0.1,0.4,0.1,0.7,0c0.2,0,0.3-0.1,0.4-0.2
	s0.2-0.2,0.2-0.3c0.1-0.1,0.1-0.3,0.2-0.4s0.1-0.3,0.2-0.4c0.2-0.2,0.4-0.4,0.7-0.4h0.1c0.4-0.1,0.4,0,0.4-0.5c0-0.4,0-0.8,0-1.3
	s0-1-0.1-1.5c-0.1-0.3-0.2-0.6-0.3-0.9c-0.1-0.2-0.2-0.3-0.3-0.4c-0.2-0.1-0.3-0.3-0.4-0.5c0-0.1-0.1-0.1-0.1-0.2
	c-0.1-0.3-0.2-0.5-0.4-0.7c-0.1-0.1-0.2-0.2-0.3-0.3c-0.3-0.3-0.5-0.6-0.5-1c0-0.2-0.1-0.3-0.2-0.4c-0.4-0.6-0.9-1.2-1.4-1.7
	c-0.2-0.2-0.4-0.4-0.5-0.6c-0.1-0.1-0.2-0.2-0.3-0.2c-0.3-0.2-0.5-0.4-0.8-0.7c-0.3-0.2-0.5-0.5-0.7-0.8c-0.1-0.2-0.2-0.3-0.3-0.5
	c-0.1-0.1-0.1-0.3-0.1-0.4c0-0.3,0.1-0.5,0.3-0.6c0.2-0.1,0.3-0.2,0.4-0.3s0.2-0.1,0.3-0.2c0.6-0.2,1.1-0.4,1.7-0.4
	c0.4-0.1,0.7,0,1.1,0.1c0.3,0.1,0.6,0.2,0.9,0.3c0.1,0,0.1,0.1,0.1,0.2c0,0.1,0,0.2,0,0.4c0,0.1,0,0.2,0,0.2c0,0.1,0,0.2,0,0.4
	c0,0.1,0.1,0.2,0.1,0.3c0.2,0.4,0.4,0.7,0.6,1.1c0.1,0.2,0.3,0.4,0.5,0.7c0.3,0.3,0.6,0.7,0.8,1c0.2,0.2,0.4,0.5,0.6,0.7
	c0.2,0.3,0.4,0.5,0.6,0.9c0,0.1,0.1,0.1,0.1,0.2c0.2,0.3,0.4,0.7,0.5,1c0.1,0.1,0.1,0.2,0.2,0.4c0.1,0.3,0.3,0.6,0.5,0.9
	c0.2,0.3,0.3,0.6,0.5,0.9c0.1,0.2,0.2,0.4,0.3,0.5c0.3,0.4,0.6,0.6,1,0.7c0.2,0.1,0.4,0.1,0.6,0.2s0.3,0.2,0.4,0.4
	c0.1,0.3,0.3,0.6,0.4,0.9c0.1,0.4,0.1,0.9,0.1,1.3c0,0.2-0.1,0.5-0.2,0.7c0,0.1,0,0.2,0.1,0.3c0.1,0.1,0.2,0.3,0.3,0.4
	c0.3,0.3,0.5,0.5,0.8,0.8c0.2,0.2,0.4,0.4,0.5,0.5c0.2,0.2,0.3,0.4,0.5,0.6c0.1,0.2,0.2,0.3,0.3,0.4c0.3,0.2,0.6,0.4,0.9,0.7
	c0.2,0.2,0.4,0.4,0.6,0.6c0.3,0.3,0.3,0.2,0.5,0c0.1-0.1,0.1-0.1,0.2-0.2c0.2-0.2,0.3-0.5,0.3-0.7s0-0.5,0-0.7c0-0.1,0-0.1,0-0.2
	s-0.1-0.3-0.2-0.3s-0.2-0.1-0.3-0.1c-0.1,0-0.1-0.1-0.1-0.2c0-0.2,0-0.4,0.1-0.6c0-0.1,0.1-0.1,0.2-0.2c0.2-0.1,0.5-0.1,0.7-0.1
	C116.2,23,116.3,23,116.5,23z M98.2,24.6c0-0.1,0-0.2,0-0.2c0-0.4-0.2-0.6-0.5-0.8c-0.1-0.1-0.2-0.1-0.3-0.2h-0.1
	c-0.1,0.1-0.1,0.1-0.2,0.2C97,23.8,96.8,24,96.5,24h-0.1c-0.1,0-0.1,0.1-0.1,0.2v0.1c0.2,0.3,0.3,0.6,0.4,1c0,0.1,0.1,0.3,0.2,0.4
	c0.2,0.2,0.2,0.5,0.2,0.7c0,0.1,0,0.2,0,0.4c0,0.2,0.1,0.5,0.2,0.7s0.2,0.4,0.4,0.5c0.1,0,0.2,0,0.2,0c0-0.3,0.1-0.6,0.1-0.9
	c0-0.2,0-0.4,0-0.6c0-0.3,0.1-0.7,0.2-1C98.2,25,98.2,24.8,98.2,24.6z M118,35.7C118,35.7,118.1,35.7,118,35.7c0.1-0.2,0-0.3,0-0.4
	c0-0.1,0-0.2,0.1-0.3s0-0.2,0-0.2c-0.1-0.1-0.3-0.2-0.4-0.3h-0.1c-0.1,0-0.1,0-0.1,0.1c0,0.3,0.1,0.6,0.3,0.9
	C117.7,35.5,117.8,35.6,118,35.7C117.9,35.7,118,35.7,118,35.7z M106.6,39L106.6,39c0.3-0.1,0.5-0.3,0.5-0.5c0-0.1,0-0.1-0.1-0.2
	c0,0,0,0-0.1,0h-0.1c-0.2,0.2-0.3,0.3-0.4,0.6C106.6,38.9,106.6,38.9,106.6,39L106.6,39z M118.3,36.1
	C118.4,36.1,118.4,36.1,118.3,36.1c0.1-0.2,0-0.2-0.2-0.2c0,0,0,0,0,0.1C118.2,36,118.2,36.1,118.3,36.1z"/>
<path class="st1" d="M228,18.2c0.2,0,0.4,0,0.5,0c0.2,0,0.4,0,0.6,0c0.3-0.1,0.7-0.1,1-0.1c0.2,0,0.5,0,0.7,0s0.4,0.1,0.4,0.3
	c0.1,0.2,0.1,0.4,0.1,0.6c0,0.1,0,0.2,0,0.4c-0.1,0.5-0.1,0.9-0.3,1.4c-0.1,0.3-0.3,0.6-0.5,0.9c-0.1,0.1-0.2,0.2-0.3,0.2
	c-0.2,0.2-0.3,0.3-0.4,0.6c-0.1,0.2-0.2,0.4-0.3,0.6s-0.2,0.3-0.4,0.5c-0.1,0.1-0.1,0.2-0.2,0.2c0,0.1,0,0.1,0,0.1h0.1
	c0.1-0.2,0.2-0.3,0.4-0.3c0.1-0.1,0.2-0.1,0.3-0.2s0.1-0.1,0.2-0.2c0.1-0.1,0.2-0.1,0.3-0.2c0.1,0,0.2-0.1,0.3-0.1
	c0.2-0.1,0.3-0.1,0.5-0.2c0.3-0.1,0.5-0.3,0.7-0.6l0,0c0.3-0.5,0.8-0.8,1.4-1c0.1,0,0.2-0.1,0.3-0.1c0.4-0.1,0.7-0.2,1-0.4
	c0.1-0.1,0.3-0.2,0.4-0.3c0.1-0.1,0.2-0.1,0.3-0.2c0.4-0.2,0.8-0.2,1.2,0c0.2,0.1,0.5,0.2,0.7,0.4c0.1,0.1,0.3,0.3,0.4,0.4
	c0.1,0.1,0.1,0.3,0.2,0.4c0.2,0.4,0.5,0.8,0.8,1.2c0.1,0.1,0.3,0.3,0.4,0.4c0.1,0.1,0.2,0.3,0.3,0.5s0,0.4-0.1,0.6
	c0,0.1-0.1,0.2-0.2,0.2c-0.1,0.2-0.3,0.4-0.4,0.6c-0.1,0.1-0.1,0.2-0.2,0.3c0,0.1,0,0.2,0,0.2c0,0.1,0.1,0.1,0.1,0.2
	c0.2,0.3,0.2,0.5,0.2,0.8c0,0.6-0.1,1.1-0.2,1.7c-0.1,0.4-0.2,0.7-0.3,1s-0.2,0.6-0.3,0.9s-0.1,0.6-0.2,0.9
	c-0.2,0.7-0.4,1.4-0.6,2.2c-0.1,0.4-0.3,0.9-0.5,1.3c-0.2,0.4-0.4,0.8-0.6,1.2c-0.2,0.4-0.4,0.8-0.7,1.2c-0.1,0.1-0.2,0.3-0.3,0.4
	c-0.1,0.1-0.2,0.2-0.3,0.3s-0.2,0.2-0.4,0.2c-0.3,0-0.6,0-0.9,0c-0.1,0-0.2-0.1-0.2-0.1c-0.2-0.2-0.5-0.4-0.7-0.5
	c-0.3-0.2-0.7-0.4-1.1-0.6c-0.4-0.2-0.8-0.4-1.2-0.7c-0.3-0.2-0.5-0.4-0.8-0.5c-0.1,0-0.1-0.1-0.2-0.1c-0.2-0.2-0.2-0.2-0.2-0.5
	s0.1-0.5,0.1-0.8c0-0.1,0-0.3,0-0.4l-0.1-0.1c-0.1,0-0.2,0.1-0.4,0.2c-0.2,0.1-0.4,0.2-0.6,0.3c-0.3,0.1-0.5,0.4-0.6,0.7
	c-0.1,0.2-0.1,0.4-0.2,0.6c-0.1,0.4-0.1,0.3-0.5,0.4c-0.1,0-0.2,0-0.2,0c-0.2,0-0.5-0.1-0.7-0.2c-0.2-0.1-0.4-0.3-0.5-0.5
	c0.1-0.4,0.3-0.8,0.6-1.1c0.2-0.2,0.4-0.3,0.6-0.4c0.3-0.2,0.7-0.4,1-0.6c0.1-0.1,0.2-0.2,0.4-0.2c0.2-0.2,0.4-0.4,0.5-0.6
	c0-0.1,0.1-0.2,0.2-0.3c0.2-0.5,0.5-1,0.7-1.5c0.1-0.1,0.2-0.3,0.2-0.5c0.1-0.3,0.3-0.5,0.4-0.8c0,0,0-0.1,0.1-0.1
	c0,0,0-0.1-0.1-0.1h-0.1c-0.3,0.1-0.5,0.2-0.8,0.3c-0.3,0.1-0.5,0.3-0.7,0.5c-0.1,0.1-0.2,0.2-0.3,0.3c-0.2,0.2-0.4,0.4-0.7,0.5
	c-0.2,0.1-0.4,0.3-0.5,0.5c-0.1,0.1-0.2,0.2-0.3,0.3c-0.2,0.2-0.4,0.4-0.6,0.6c-0.3,0.3-0.6,0.4-0.9,0.6c-0.1,0-0.2,0-0.2,0
	c-0.2-0.1-0.4-0.2-0.6-0.3c-0.1,0-0.1-0.1-0.2-0.1c0,0-0.1-0.1,0-0.2c0.1-0.3,0.3-0.6,0.4-0.8c0.5-0.7,0.9-1.4,1.3-2.1
	c0.3-0.5,0.7-1.1,1-1.6c0.1-0.2,0.3-0.4,0.5-0.6c0.1-0.2,0.3-0.4,0.4-0.5c0-0.1,0.1-0.1,0.1-0.2s0-0.1-0.1-0.2
	c-0.4-0.1-0.7-0.3-1-0.6c0,0,0,0-0.1,0s-0.1,0-0.1,0c-0.1,0.1-0.2,0.2-0.3,0.2c-0.1,0.1-0.2,0.2-0.3,0.3c-0.3,0.3-0.6,0.4-1,0.4
	c-0.1,0-0.1,0-0.2-0.1c0-0.2,0-0.3-0.1-0.5c0-0.1,0-0.2,0-0.4c0-0.1-0.1-0.1-0.1-0.1c-0.1,0-0.2,0-0.2,0c-0.4,0.2-0.8,0.3-1.1,0.5
	c-0.1,0-0.1,0.1-0.2,0.1c-0.2,0.1-0.3,0.3-0.3,0.5c0,0.1,0,0.3,0,0.4c0,0.2,0,0.4,0,0.6c0,0.1,0.1,0.2,0.2,0.1
	c0.1,0,0.1-0.1,0.2-0.2c0.1-0.1,0.1-0.2,0.1-0.2c0-0.1,0.1-0.2,0.1-0.2c0-0.1,0.1-0.1,0.2-0.2c0.1-0.1,0.3-0.1,0.4,0.1
	c0.1,0.1,0.2,0.3,0.2,0.5c0.1,0.4,0.1,0.8-0.1,1.2c-0.1,0.1-0.1,0.2-0.2,0.3c-0.1,0.2-0.3,0.5-0.4,0.7c-0.1,0.2-0.2,0.4-0.2,0.6
	c0,0.1,0,0.2,0,0.3c0,0.3,0.1,0.7,0.1,1c0.1,0.8,0.3,1.6,0.4,2.4c0,0.4,0.1,0.8,0.2,1.2c0,0.1,0,0.1,0,0.2c0,0.3,0,0.6-0.2,0.8
	c-0.2,0.3-0.4,0.6-0.6,0.9c-0.1,0.2-0.3,0.3-0.4,0.4c-0.2,0.1-0.4,0.2-0.6,0.4c-0.2,0.2-0.5,0.3-0.9,0.4c-0.6,0.1-1.3,0-1.9-0.2
	c-0.4-0.1-0.8-0.3-1.3-0.5c-0.6-0.3-1-0.7-1.2-1.3c-0.1-0.5-0.3-0.9-0.3-1.4c0-0.2,0-0.4,0-0.6c0-0.3,0.1-0.5,0.4-0.6
	c0.1-0.1,0.2-0.1,0.3-0.2c0.1-0.1,0.3-0.1,0.4-0.2c0.3-0.1,0.6-0.4,0.8-0.7c0.1-0.2,0.2-0.3,0.3-0.5c0.1-0.1,0.2-0.3,0.3-0.4
	c0.1-0.2,0.3-0.4,0.5-0.6s0.4-0.4,0.6-0.7c0.2-0.4,0.5-0.7,0.6-1.1c0.1-0.1,0.1-0.2,0.1-0.4c0.1-0.2,0.1-0.4,0-0.6
	c-0.2-0.3-0.2-0.7-0.1-1v-0.1v-0.1l-0.1-0.1c-0.3-0.2-0.3-0.2-0.7-0.1s-0.7,0.3-1.1,0.3c-0.1,0-0.2,0-0.3,0c-0.6,0-1.2,0-1.8,0
	c-0.2,0-0.4,0-0.7-0.1c-0.1,0-0.2-0.1-0.3-0.1c-0.2-0.1-0.3-0.2-0.4-0.4c-0.1-0.3-0.3-0.5-0.3-0.8c0-0.1,0-0.2,0-0.4
	c0-0.5,0-1,0.1-1.6c0.1-0.4,0.1-0.8,0.2-1.2c0.1-0.3,0.2-0.6,0.3-0.9c0.3-0.4,0.5-0.9,0.7-1.4c0.1-0.1,0.1-0.2,0.1-0.3
	c0-0.1,0-0.2,0-0.3c0-0.1,0-0.3,0.1-0.4c0.1-0.2,0.3-0.4,0.6-0.5c0.1-0.1,0.3-0.1,0.4-0.1c0.7,0.1,1.5,0.3,2.2,0.6
	c0.1,0,0.3,0.1,0.4,0.2c0.3,0.2,0.5,0.5,0.5,0.9c0,0.2,0,0.4-0.1,0.7c-0.1,0.3-0.2,0.6-0.3,1c0,0.1-0.1,0.3-0.2,0.4
	c-0.2,0.2-0.3,0.3-0.5,0.5c-0.3,0.3-0.5,0.5-0.7,0.8c-0.1,0.2-0.3,0.4-0.5,0.5s-0.3,0.2-0.4,0.4c0,0.1,0,0.2-0.1,0.3
	c0,0.1,0.1,0.2,0.2,0.2c0.4,0,0.9-0.1,1.3-0.4c0.2-0.1,0.4-0.2,0.5-0.4c0.1-0.1,0.3-0.3,0.4-0.4c0.3-0.2,0.4-0.6,0.5-0.9
	s0.1-0.6,0.2-0.9c0.1-0.6,0.2-1.1,0.3-1.7c0.1-0.5,0.2-1,0.4-1.4c0.1-0.4,0.3-0.8,0.4-1.2c0.1-0.5,0.2-1,0.1-1.5c0-0.2,0-0.5,0-0.7
	c0-0.1,0-0.2,0.1-0.3s0.3-0.2,0.5-0.3c0,0,0.1,0,0.2,0c0.3,0,0.6,0,1,0h0.1c0.1,0,0.1,0.1,0.2,0.1c0,0.1,0.1,0.1,0.1,0.2
	c0.1,0.3,0.1,0.6,0,0.9c-0.1,0.4-0.2,0.9-0.3,1.3c-0.1,0.7-0.2,1.4-0.3,2c-0.1,0.3-0.2,0.7-0.3,1c-0.1,0.4-0.2,0.8-0.3,1.1
	c-0.1,0.3-0.1,0.7-0.1,1c0,0.1,0,0.1,0,0.2l0.1,0.1c0.1,0,0.2,0,0.3,0c0.3,0,0.5,0,0.8,0s0.5,0.1,0.7,0.2c0.1,0.1,0.3,0.2,0.4,0.3
	c0.1,0.1,0.2,0.2,0.4,0.3c0,0,0.1,0,0.1,0.1h0.1c0.1-0.2,0.2-0.3,0.3-0.5s0.3-0.4,0.4-0.7c0.3-0.7,0.6-1.3,1-1.9
	c0.1-0.2,0.2-0.3,0.2-0.5c0-0.1,0-0.2,0-0.3l-0.1-0.1c-0.2-0.4-0.2-0.3,0-0.7C227.8,18.4,227.9,18.3,228,18.2z M235.6,24.5
	c0.1-0.1,0.2-0.1,0.3-0.2c0,0,0.1-0.1,0-0.1c-0.1-0.2-0.2-0.4-0.2-0.5s-0.1-0.2-0.2-0.2c-0.4-0.1-0.8-0.2-1.3-0.1
	c-0.3,0.1-0.6,0.1-0.9,0.3c-0.7,0.3-1.4,0.7-2,1.1c-0.1,0.1-0.2,0.2-0.3,0.3c-0.2,0.2-0.3,0.5-0.3,0.8s0.1,0.6,0.1,0.9l0.1,0.1
	c0.1,0,0.1-0.1,0.2-0.1c0.2-0.2,0.3-0.3,0.4-0.5c0.2-0.3,0.5-0.7,0.7-1c0.1-0.2,0.3-0.4,0.4-0.6c0.1-0.1,0.1-0.1,0.3-0.1h0.1
	c0.3,0.1,0.7,0.1,1,0.1c0.1,0,0.3,0,0.4,0.1c0.1,0,0.2,0.1,0.3,0.2c0.3,0.4,0.5,0.9,0.3,1.4c0,0.1,0,0.2-0.1,0.3
	c-0.1,0.4-0.3,0.8-0.3,1.2c0,0.3-0.2,0.5-0.3,0.7c-0.1,0.1-0.2,0.3-0.4,0.4c-0.1,0.1-0.2,0.3-0.3,0.4c-0.4,0.6-0.8,1.3-1.1,1.9
	c0,0,0,0,0,0.1c-0.2,0.3-0.4,0.6-0.8,0.7c-0.2,0.1-0.5,0.2-0.7,0.3s-0.4,0.2-0.6,0.3c-0.1,0.1-0.2,0.1-0.3,0.2L230,33v0.1
	c0.1,0.1,0.3,0.1,0.5,0.2c0.3,0.1,0.7,0.2,1,0.4c0.1,0.1,0.3,0.1,0.4,0.2c0.2,0.1,0.3,0.1,0.5,0.2c0.2,0.1,0.4,0.1,0.6,0
	c0.2,0,0.3-0.1,0.5-0.1s0.4-0.2,0.4-0.4c0-0.1,0.1-0.3,0.1-0.4c0-0.3,0.1-0.6,0.1-0.9c0.1-0.4,0.2-0.9,0.3-1.3
	c0.1-0.3,0.2-0.5,0.3-0.8c0.1-0.2,0.2-0.4,0.2-0.6c0.1-0.5,0.2-1.1,0.4-1.6c0.1-0.6,0.2-1.2,0.2-1.8c0-0.3,0-0.5,0-0.8
	C235.6,24.8,235.6,24.7,235.6,24.5z M220.9,32.9c0-0.4,0-0.7,0-1c0-0.1,0-0.1,0-0.2c0,0,0,0-0.1,0h-0.1c-0.8,0.3-1.3,0.9-1.6,1.7
	c-0.1,0.1-0.1,0.3-0.1,0.4c0,0.1,0,0.2,0.1,0.3c0.2,0.2,0.3,0.3,0.5,0.4c0,0,0.1,0,0.2,0c0.4-0.1,0.7-0.2,1-0.5
	c0.1,0,0.1-0.1,0.1-0.2c0-0.1,0-0.2,0-0.3C220.9,33.3,220.9,33.1,220.9,32.9z"/>
<path class="st1" d="M123.9,28.2c0.1,0,0.2,0,0.4,0c0.4,0,0.7-0.1,1-0.3c0.2-0.1,0.4-0.4,0.5-0.6c0-0.2,0.1-0.4,0.1-0.5
	c0-0.2,0-0.4,0-0.6c0-0.3,0-0.6,0-1c0-0.1,0-0.2,0-0.3c0-0.1-0.1-0.2-0.2-0.2s-0.2,0-0.3,0.1c-0.3,0.2-0.7,0.2-1.1,0.2
	c-0.1,0-0.2,0-0.3,0c-0.1,0-0.1-0.1-0.2-0.2c-0.3-0.6-0.6-1.2-0.7-1.8c-0.1-0.6-0.2-1.1-0.1-1.7v-0.1l0.1-0.1
	c0.2-0.1,0.5-0.1,0.7-0.2c0.1,0,0.1-0.1,0.2-0.1c0.1-0.3,0.4-0.5,0.7-0.7c0.2-0.1,0.4-0.2,0.6-0.3c0.2-0.1,0.5-0.2,0.7-0.4
	c0.6-0.4,0.5-0.4,1.3-0.7c0.3-0.1,0.6-0.3,0.9-0.5c0.2-0.2,0.4-0.2,0.7-0.2c0.2,0,0.3,0,0.5,0.1c0.2,0,0.4,0.1,0.5,0.2
	c0.2,0.1,0.3,0.2,0.4,0.3c0,0.1,0.1,0.1,0.1,0.2c0.4,0.7,0.8,1.5,1,2.3c0,0.1,0,0.1,0,0.2s0,0.2-0.1,0.3c-0.1,0.1-0.1,0.2-0.2,0.3
	c-0.4,0.4-0.8,0.8-1.3,1.1c-0.1,0-0.1,0.1-0.1,0.2c0,0.3,0.1,0.6,0.2,0.9l0.1,0.1c0.1,0,0.1,0,0.2,0c0.3-0.1,0.6-0.3,0.7-0.6
	c0.1-0.2,0.2-0.3,0.3-0.5c0.2-0.3,0.4-0.5,0.7-0.6c0.3-0.2,0.5-0.3,0.8-0.5c0.2-0.1,0.4-0.3,0.6-0.5c0.3-0.3,0.7-0.6,1-0.9
	c0.1-0.1,0.2-0.2,0.3-0.2c0.2-0.2,0.5-0.4,0.8-0.6c0.1-0.1,0.3-0.1,0.4-0.2c0.3-0.2,0.6-0.5,0.7-0.9c0.1-0.2,0.2-0.4,0.2-0.7
	c0.1-0.2,0.1-0.4,0.2-0.6c0.1-0.5,0.3-1,0.6-1.4c0.4-0.7,0.6-1.4,0.8-2.2c0.2-0.7,0.3-1.5,0.5-2.2c0.1-0.5,0.2-0.9,0.3-1.4
	c0-0.2,0.1-0.4,0.2-0.5c0.1-0.3,0.4-0.5,0.7-0.6c0.2,0,0.5,0,0.7,0.1c0.6,0.2,1,0.5,1.4,1c0.2,0.3,0.3,0.6,0.3,0.9
	c0,0.3,0,0.5,0,0.8c0,0.2,0,0.4,0,0.6c0,0.2-0.1,0.4-0.2,0.6c-0.1,0.2-0.2,0.4-0.4,0.5c-0.1,0.2-0.2,0.3-0.3,0.5
	c-0.1,0.3-0.2,0.5-0.5,0.7c-0.1,0.1-0.2,0.3-0.3,0.4c-0.1,0.2-0.2,0.4-0.3,0.5c-0.1,0.2-0.2,0.5-0.3,0.7s-0.2,0.5-0.4,0.7
	c-0.1,0.1-0.1,0.2-0.2,0.3c-0.2,0.4-0.3,0.7-0.4,1.2c0,0.1,0,0.1,0,0.2s0,0.1,0.1,0.2c0.4,0.1,0.7,0.3,1.1,0.3c0.5,0,1,0.1,1.5,0.1
	c0.6,0.1,1.1,0.2,1.7,0.5c0.3,0.2,0.5,0.3,0.7,0.6c0.2,0.3,0.3,0.6,0.3,0.9c0,0.1,0,0.2,0,0.4c-0.1,0.6-0.1,1.1-0.1,1.7
	c0,0.2,0,0.4,0,0.6c0,0.1-0.1,0.1-0.1,0.2c-0.1,0-0.2,0.1-0.3,0.1s-0.1,0-0.2,0c-0.2,0.1-0.4,0.2-0.4,0.4c0,0.1-0.1,0.2-0.1,0.3
	c-0.1,1-0.3,1.9-0.4,2.8c0,0.3-0.1,0.6-0.3,0.9c-0.1,0.2-0.2,0.4-0.2,0.6c0,0.4-0.2,0.8-0.4,1.2c-0.1,0.1-0.2,0.3-0.3,0.4
	s-0.1,0.3-0.2,0.4c-0.1,0.2-0.1,0.4,0,0.7c0,0.1,0.1,0.2,0.1,0.3c0.2,0.5,0.1,0.9-0.1,1.4c-0.1,0.1-0.2,0.3-0.3,0.4
	c-0.2,0.3-0.5,0.6-0.7,0.9l0,0c-0.3,0.4-0.6,0.5-1,0.5c-0.2,0-0.4,0-0.6-0.1c-0.1,0-0.3,0-0.4,0c-0.1,0-0.3-0.1-0.4-0.1
	c-0.1,0-0.2,0-0.4,0c-0.1,0-0.3,0.1-0.4,0.1c-0.1,0-0.1,0-0.2,0c-0.2,0-0.3,0-0.5-0.1s-0.3-0.3-0.5-0.4c-0.4-0.4-0.9-0.9-1.3-1.4
	c-0.1-0.1-0.1-0.1-0.2-0.2c-0.1-0.1-0.2-0.2-0.4-0.1h-0.1c-0.1,0-0.2,0.1-0.3,0.2c-0.2,0.2-0.3,0.5-0.4,0.7
	c-0.1,0.1-0.1,0.3-0.2,0.4c-0.2,0.5-0.3,1-0.5,1.4c-0.1,0.2-0.1,0.3-0.2,0.5c-0.1,0.2-0.2,0.4-0.4,0.6c-0.1,0.2-0.2,0.3-0.3,0.5
	s-0.2,0.4-0.4,0.6c-0.1,0.1-0.2,0.2-0.3,0.3s-0.1,0.2-0.2,0.3c-0.1,0.1-0.1,0.2-0.1,0.3v0.1c0,0.4,0,0.8-0.1,1.3
	c0,0.2,0,0.4-0.1,0.6c-0.2,0.6-0.5,1-1.1,1.2c-0.2,0.1-0.4,0.1-0.7,0.2c-0.1,0-0.2,0-0.2-0.1c-0.2-0.1-0.3-0.3-0.5-0.4
	c-0.2-0.1-0.3-0.3-0.3-0.6c-0.1-0.3-0.1-0.5,0-0.8c0.1-0.8,0.3-1.5,0.6-2.2c0.2-0.5,0.3-0.6,0.7-0.8c0.1,0,0.2-0.1,0.2-0.1
	c0.4-0.2,0.6-0.5,0.8-0.9c0.1-0.2,0.2-0.5,0.3-0.7s0.1-0.4,0.2-0.5c0.1-0.4,0.3-0.7,0.6-1c0.1-0.1,0.2-0.2,0.3-0.3
	c0.2-0.2,0.4-0.4,0.4-0.6c0.1-0.3,0.2-0.6,0.3-0.9c0.3-1.1,0.8-2.1,1.3-3c0.1-0.1,0.1-0.3,0.2-0.4c0.3-0.6,0.5-1.1,0.6-1.8
	c0.1-0.5,0.2-1,0.3-1.6c0.1-0.5,0.3-1.1,0.5-1.6c0.2-0.3,0.3-0.7,0.4-1c0-0.1,0.1-0.2,0.1-0.4c0-0.2,0-0.5,0-0.7c0-0.1,0-0.1,0-0.2
	c0,0-0.1-0.1-0.1,0c0,0-0.1,0-0.1,0.1c-0.5,0.3-1,0.6-1.4,1c-0.2,0.1-0.3,0.3-0.5,0.4c-0.3,0.2-0.5,0.4-0.8,0.6
	c-0.1,0.1-0.3,0.2-0.4,0.4c-0.3,0.2-0.6,0.5-0.8,0.8c-0.5,0.7-0.6,0.8-1.2,2c-0.1,0.2-0.2,0.4-0.3,0.6c-0.2,0.5-0.5,0.9-0.9,1.3
	c-0.2,0.2-0.4,0.4-0.5,0.6c-0.2,0.2-0.4,0.4-0.6,0.5c-0.1,0.1-0.2,0.1-0.3,0.2c-0.1,0-0.2,0.1-0.3,0.1c-0.3,0.1-0.6,0.3-0.8,0.6
	c-0.4,0.5-1,0.8-1.6,1c-0.2,0-0.3,0.1-0.5,0.1c-0.3,0-0.6-0.1-0.8-0.3c-0.2-0.2-0.3-0.3-0.4-0.5c-0.1-0.3-0.2-0.7-0.2-1
	c0-0.5,0.1-0.9,0.4-1.4C123.6,28.6,123.8,28.4,123.9,28.2z M135.8,30.5c0,0.7,0.4,1.3,1,1.6c0.1,0,0.1,0.1,0.2,0.1
	c0.2,0,0.4-0.1,0.5-0.2c0.1-0.1,0.2-0.2,0.2-0.3c0.1-0.3,0.2-0.5,0.3-0.8s0.3-0.7,0.5-0.9c0.1-0.2,0.2-0.3,0.3-0.5
	c0-0.1,0.1-0.2,0.1-0.3c0.2-0.5,0.3-1,0.5-1.5c0.2-0.6,0.3-1.2,0.5-1.8c0-0.2,0.1-0.4,0.1-0.6c0-0.3,0.1-0.6,0.1-0.9s0-0.6,0.1-0.8
	c0.1-0.3,0.1-0.5,0.1-0.8c0-0.1,0-0.3,0.1-0.4v-0.1c0-0.1,0-0.2-0.1-0.1c-0.2,0-0.4,0-0.6-0.1c-0.1,0-0.2-0.1-0.2-0.1
	c-0.2-0.1-0.4-0.1-0.5,0c-0.2,0.1-0.4,0.2-0.5,0.4c-0.1,0.1-0.1,0.3-0.1,0.4s0,0.2,0,0.3c0,0.1,0,0.3,0,0.4c0,0.2-0.1,0.4-0.1,0.6
	c-0.1,0.5-0.3,0.9-0.5,1.4c-0.1,0.3-0.3,0.6-0.4,0.9c-0.1,0.2-0.1,0.3-0.3,0.4s-0.3,0.3-0.4,0.5c-0.1,0.1-0.1,0.3-0.2,0.4
	c-0.1,0.3-0.2,0.7-0.2,1c-0.1,0.3-0.1,0.7-0.3,0.9c-0.1,0.1-0.1,0.2-0.2,0.4C135.9,30,135.8,30.3,135.8,30.5z"/>
<path class="st1" d="M181.1,22.3c0.2,0,0.4,0,0.7,0c0.8,0,1.5,0.2,2.2,0.6c0.1,0.1,0.3,0.2,0.4,0.3l0.1,0.1c0,0.3,0,0.6-0.1,1
	c0,0.2-0.1,0.3-0.2,0.5c-0.2,0.3-0.5,0.6-0.8,0.9c-0.3,0.2-0.6,0.4-0.9,0.4c-0.4,0-0.7,0-1.1,0c-0.2,0-0.3,0-0.5-0.1
	c-0.1,0-0.2-0.1-0.3-0.1c-0.2-0.2-0.4-0.4-0.5-0.6c0-0.1-0.1-0.2,0-0.3c0-0.1,0.1-0.2,0.2-0.2l0,0c0.2,0.1,0.3,0,0.4-0.1
	c0.1-0.1,0.2-0.1,0.3-0.2l0.1-0.1c0.1-0.1,0.1-0.2-0.1-0.3c-0.2-0.1-0.3-0.1-0.5-0.2c-0.3-0.1-0.6-0.1-0.9-0.1c-0.1,0-0.1,0-0.2,0
	c-0.5,0-1,0.1-1.4,0.1c-0.2,0-0.4,0-0.7,0.1c-0.6,0.1-1.1,0.2-1.7,0.3c-0.1,0-0.3,0.1-0.4,0.2c-0.3,0.3-0.7,0.4-1.1,0.5
	c-0.4,0.1-0.8,0.2-1.3,0.2c-0.2,0-0.3,0.1-0.5,0.2c-0.1,0.1-0.2,0.2-0.3,0.3c-0.1,0.1-0.2,0.2-0.3,0.2c-0.2,0.1-0.4,0.2-0.7,0.2
	c-0.2,0-0.4,0-0.6,0c-0.2,0-0.5,0-0.7,0c-0.1,0-0.3,0.1-0.3,0.2c-0.2,0.4-0.5,0.7-0.7,1c-0.5,0.6-0.7,1.3-0.7,2.1c0,0.3,0,0.7,0.1,1
	c0,0.3,0,0.6,0,1c0,0.2-0.1,0.3-0.1,0.5c-0.1,0.2-0.2,0.4-0.5,0.6c-0.1,0.1-0.2,0.1-0.3,0.2c-0.5,0.2-0.5,0.2-0.8-0.2
	c-0.1-0.1-0.1-0.2-0.2-0.3c-0.2-0.2-0.3-0.4-0.5-0.5c-0.4-0.3-0.6-0.7-0.7-1.2c0-0.3,0-0.6,0-0.8c0-0.3,0-0.6,0.1-0.8
	c0.1-0.9,0.4-1.8,0.8-2.7c0.2-0.4,0.5-0.8,0.8-1.2c0.3-0.4,0.5-0.8,0.6-1.3s0.2-1,0.3-1.6s0.1-1.1,0.2-1.7c0-0.4,0.1-0.8,0.1-1.2
	c0.1-0.7,0.1-1.3,0.1-2c0-0.2,0-0.4-0.1-0.6c0-0.3-0.1-0.5-0.2-0.8c0-0.1-0.1-0.2-0.1-0.4c-0.1-0.3-0.2-0.6-0.2-0.9
	c0-0.7-0.2-1.3-0.5-1.9c-0.1-0.1-0.1-0.2-0.2-0.3c-0.1-0.1-0.1-0.2-0.2-0.3c-0.1-0.2-0.1-0.3,0-0.5c0-0.1,0-0.2,0.1-0.2
	c0.1-0.3,0.2-0.5,0.2-0.8c0-0.1,0.1-0.2,0.2-0.2c0.4,0,0.7,0,1.1,0.1c0.1,0,0.2,0.1,0.2,0.2c0,0.2,0,0.3,0,0.5c0,0.3,0,0.7,0.1,1
	c0.2,0.8,0.5,1.7,0.7,2.5c0.1,0.5,0.3,1.1,0.4,1.6c0.1,0.4,0.1,0.7,0.1,1.1c0,0.3,0,0.7,0,1s0,0.7,0,1c0,0.4,0,0.8,0.1,1.2
	c0,0.2,0,0.4,0,0.6c0,0.1,0,0.2,0,0.2s0.1,0.1,0.1,0l0.1-0.1c0.1-0.2,0.2-0.3,0.2-0.5c0-0.1,0-0.2,0-0.2c0-0.1,0-0.3,0-0.4
	c0-0.6,0-1.1,0.1-1.7c0.1-0.5,0.1-1,0-1.5c0-0.3-0.1-0.6-0.1-0.9c0-0.1,0-0.3,0-0.4c0-0.1,0-0.2,0-0.3c0-0.3-0.1-0.6-0.1-0.8
	c0-0.1-0.1-0.1-0.2-0.1c-0.1,0-0.2,0-0.3,0s-0.1,0-0.1-0.1s-0.1-0.3-0.1-0.4c0-0.4-0.1-0.7-0.2-1.1c0-0.1-0.1-0.2-0.3-0.3
	c-0.1,0-0.1-0.1-0.1-0.2c0-0.2,0-0.5,0.1-0.7c0.1-0.3,0.3-0.6,0.4-0.8c0.1-0.2,0.3-0.3,0.5-0.4c0.1,0,0.3-0.1,0.4-0.1
	c0.1,0,0.2,0,0.2,0.1c0.1,0.1,0.2,0.2,0.3,0.4c0.1,0.1,0.2,0.3,0.3,0.4c0.1,0.1,0.1,0.2,0.1,0.4c-0.1,0.3-0.1,0.5,0,0.8
	c0,0.1,0,0.2,0,0.3c0,0.2,0,0.4,0.1,0.6c0.1,0.4,0.2,0.9,0.3,1.3c0,0.1,0,0.2,0.1,0.2h0.1c0,0,0.1,0,0.1-0.1s0.1-0.2,0.1-0.2
	c0-0.1,0.1-0.2,0.1-0.3c0.1-0.3,0.2-0.6,0.4-0.9c0.3-0.5,0.6-1.1,0.8-1.7c0.2-0.5,0.2-0.9,0-1.4c0-0.2-0.1-0.3-0.2-0.4
	c-0.1-0.1-0.1-0.2-0.2-0.4c-0.2-0.3-0.2-0.7-0.2-1.1c0-0.1,0-0.2,0.1-0.3c0.3-0.4,0.6-0.7,0.9-1c0,0,0,0,0.1,0s0.1-0.1,0.2,0
	c0.2,0.1,0.4,0.2,0.6,0.4c0.1,0.1,0.1,0.1,0.1,0.2c0.1,0.2,0.2,0.4,0.4,0.6c0.1,0.1,0.1,0.3,0.2,0.4c0,0.1,0,0.1,0,0.2
	c0,0.1-0.1,0-0.2,0.1c0,0-0.1,0-0.1,0.1c0,0,0,0,0,0.1c-0.1,0.2-0.1,0.4-0.2,0.6c-0.1,0.2-0.1,0.4,0,0.6c0,0.1,0,0.2,0,0.4
	c0,0.1,0,0.1,0,0.2l0.1,0.1c0.1,0,0.3-0.1,0.4-0.1c0.5-0.2,1-0.1,1.6,0c0.4,0.1,0.5,0.3,0.5,0.7c0,0.1,0,0.3,0,0.4
	c0,0.1,0,0.2,0,0.2l0.1,0.1c0.1,0,0.1,0,0.2-0.1c0.2-0.1,0.4-0.2,0.6-0.2c0.5-0.1,1-0.2,1.5-0.1c0.6,0.1,1,0.3,1.4,0.8
	s0.6,1,0.8,1.6c0,0.1,0,0.2,0,0.2c0.1,0.6,0,1.2-0.2,1.7c-0.1,0.4-0.3,0.7-0.4,1c-0.2,0.5-0.4,0.9-0.6,1.4c-0.1,0.2-0.2,0.4-0.1,0.7
	c0,0.1,0,0.2-0.1,0.3c-0.1,0.1-0.1,0.3-0.2,0.4c-0.1,0.2-0.3,0.5-0.4,0.7c-0.2,0.4-0.4,0.7-0.5,1.1c0,0.1-0.1,0.2-0.1,0.3
	c0,0.1,0,0.1,0.1,0.1s0.3,0,0.4,0C180.6,22.3,180.8,22.3,181.1,22.3z M177.9,20.6c0.1,0.1,0.3,0,0.4-0.1c0.2-0.1,0.3-0.3,0.3-0.5
	c0,0,0-0.1-0.1-0.1h-0.1c-0.1,0-0.2,0.1-0.3,0.2C178.1,20.2,178,20.4,177.9,20.6c-0.1,0-0.1,0.1-0.2,0.1c-0.1,0-0.2,0.1-0.1,0.2
	c0,0.1,0,0.2,0.1,0.2c0,0.1,0.1,0.1,0.2,0.2c0.1,0,0.1,0,0.1-0.1C178.1,21,178.1,20.8,177.9,20.6z M177.4,13.5L177.4,13.5
	c0-0.1,0-0.3,0-0.4c0,0-0.1-0.1-0.1,0c-0.1,0-0.1,0.1-0.2,0.1c-0.5,0.4-0.9,0.7-1.3,1.1c-0.2,0.2-0.3,0.3-0.6,0.4
	c-0.1,0.1-0.2,0.2-0.3,0.4c0,0.1,0,0.1-0.1,0.2c0,0,0,0.1,0.1,0.1s0.1,0,0.2,0c0.2,0,0.5,0,0.7,0c0.3,0,0.5,0.1,0.6,0.3
	c0.1,0.1,0.2,0.2,0.2,0.3c0.1,0.2,0.2,0.3,0.3,0.5c0,0.1,0.1,0.1,0.1,0.2c0,0,0.1,0.1,0.1,0c0.1,0,0.1-0.1,0.2-0.1
	c0.2-0.1,0.3-0.3,0.5-0.4c0.1-0.1,0.3-0.3,0.4-0.4c0.2-0.2,0.5-0.3,0.8-0.3c0,0,0.1,0,0.1,0.1v0.1c0.1,0.3,0.2,0.6,0.2,1
	c0,0.1,0,0.1,0,0.2l0.1,0.1c0,0,0.1,0,0.1-0.1l0,0c0.2-0.5,0.3-1,0.5-1.5c0.1-0.3,0.1-0.6,0-0.9c0-0.2-0.1-0.3-0.2-0.4
	c-0.2-0.2-0.4-0.4-0.7-0.5c-0.1-0.1-0.3,0-0.4,0.1c-0.1,0.1-0.1,0.1-0.2,0.2c-0.1,0.1-0.1,0.2-0.2,0.3c-0.1,0.1-0.3,0.2-0.5,0.2
	c-0.1,0-0.3,0-0.4-0.1c-0.3-0.1-0.3-0.1-0.3-0.4C177.4,13.7,177.4,13.6,177.4,13.5z M173.5,19.6c0.2-0.1,0.4-0.1,0.6-0.1
	c0.1,0,0.1,0,0.2-0.1c0.1-0.3,0.4-0.6,0.5-0.9c0.1-0.1,0.1-0.2,0.1-0.3c0,0,0-0.1,0-0.2v-0.1c0,0-0.1,0-0.2,0
	c-0.5-0.1-0.9-0.2-1.3-0.3c-0.2-0.1-0.3-0.2-0.3-0.4c0-0.1,0-0.2,0-0.2c0-0.2,0.1-0.4,0.1-0.6c0-0.3,0.1-0.6,0.1-0.8v-0.1
	c0-0.1-0.1-0.1-0.1-0.1c-0.3,0.1-0.5,0.1-0.8,0.2l0,0c-0.1,0-0.1,0.1-0.1,0.1c0,0.1,0,0.2,0,0.3c0,0.3,0.1,0.7,0,1
	c0,0.2,0,0.4,0,0.7c0,0.3,0.1,0.6,0.1,0.9c0,0.4,0.1,0.8,0.1,1.2c0,0.1,0,0.1,0,0.2c0,0.4,0.1,0.8,0.1,1.3c0,0.3,0.1,0.5,0.1,0.8
	c0,0.2,0.1,0.2,0.3,0.3h0.1c0,0,0,0,0-0.1c0-0.4,0.1-0.8-0.1-1.2V21c0-0.1,0-0.1,0-0.2l0.1-0.1c0.2-0.2,0.3-0.5,0.3-0.7
	C173.4,19.7,173.4,19.7,173.5,19.6z M172.7,23.6c0,0.1,0,0.2,0,0.3V24c0,0.1,0.1,0.1,0.1,0.1c0.1,0,0.2,0,0.4-0.1
	c0.7-0.2,1.3-0.4,2-0.5c0,0,0,0,0.1,0s0.1-0.1,0.1-0.1c0-0.1,0-0.1-0.1-0.2c-0.1,0-0.2,0-0.3-0.1c-0.2-0.1-0.4,0-0.5,0.1l-0.1,0.1
	c-0.1,0.1-0.2,0.1-0.4,0.1c-0.1,0-0.2,0-0.3-0.1c-0.2-0.1-0.3-0.1-0.5-0.2C172.7,23,172.7,23,172.7,23.6z M175.6,22.7
	c0,0.1,0,0.1,0,0.2s0,0.2,0,0.2c0,0.1,0.1,0.2,0.2,0.2c0.1,0,0.3,0,0.4,0c0.2,0,0.4-0.1,0.6-0.1c0.1,0,0.1,0,0.2,0
	c0.1,0,0.1-0.1,0.1-0.2c-0.1-0.2-0.1-0.3-0.3-0.4c-0.1-0.1-0.2-0.2-0.2-0.3c-0.1-0.1-0.1-0.1-0.2-0.1c-0.1,0-0.2,0.1-0.3,0.2
	C175.8,22.5,175.7,22.6,175.6,22.7z M177.3,19c0,0,0,0.1,0,0.2c0,0,0,0.1,0.1,0.1h0.1l0.1-0.1c0.3-0.4,0.4-0.9,0.4-1.4
	c0-0.3-0.1-0.3-0.3-0.3h-0.1l-0.1,0.1c0,0.3-0.1,0.5-0.2,0.8C177.4,18.5,177.3,18.7,177.3,19z"/>
<path class="st1" d="M255.8,22.5c-0.2,0-0.3,0-0.5,0.1c-0.7,0.2-1.3,0.6-1.6,1.3c0,0,0,0.1-0.1,0.1l-0.1,0.1c-0.1,0-0.2,0-0.3,0.1
	c-0.2,0-0.4-0.1-0.6-0.1c-0.1,0-0.2-0.1-0.2-0.2s-0.1-0.2-0.1-0.2c-0.2-0.5-0.4-1-0.5-1.5c0-0.2,0-0.3,0-0.5
	c0.1-0.2,0.1-0.3,0.2-0.5c0.3-0.7,0.7-1.4,1.1-2c0.1-0.1,0.2-0.3,0.3-0.5s0.2-0.4,0.2-0.7c0-0.1,0-0.2,0-0.4c0-0.2,0.1-0.4,0.3-0.5
	s0.3-0.2,0.5-0.2s0.5,0,0.7,0.2c0.1,0.1,0.3,0.3,0.4,0.4c0.1,0.1,0.2,0.3,0.3,0.4s0.2,0.2,0.3,0.3c0.1,0.1,0.3,0.1,0.4,0.1h0.1
	c0.4-0.1,0.7-0.3,1-0.5c0.1-0.1,0.2-0.2,0.3-0.3c0.1-0.1,0.1-0.2,0-0.3c-0.1-0.1-0.1-0.2-0.2-0.2c-0.2-0.2-0.4-0.5-0.6-0.7
	c-0.1-0.1-0.2-0.3-0.2-0.4c-0.2-0.5-0.3-1-0.2-1.5c0-0.1,0.1-0.3,0.1-0.4c0.1-0.2,0.2-0.5,0.3-0.7c0-0.1,0.1-0.1,0.1-0.1
	c0.1,0,0.2,0,0.3,0c0.2,0,0.5,0,0.7,0c0.1,0,0.2,0,0.4,0c0.3,0,0.5-0.1,0.8-0.1s0.7,0,1,0.1c0.6,0.2,1,0.6,1.1,1.2
	c0,0.1,0,0.2,0,0.4c0,0.3-0.1,0.5-0.2,0.8c-0.1,0.2-0.2,0.4-0.3,0.7c-0.1,0.2-0.2,0.4-0.3,0.6c0,0.1-0.1,0.2-0.1,0.3
	c0,0,0,0.1,0.1,0.1s0.3,0,0.3-0.1l0.1-0.1c0.3,0,0.6,0,0.8,0c0.3,0,0.5,0,0.8,0s0.5,0.1,0.8,0.2c0.1,0,0.2,0.1,0.3,0.1
	c0.4,0.2,0.6,0.6,0.7,1c0,0.5-0.1,1-0.2,1.5c-0.1,0.3-0.2,0.6-0.4,0.8c-0.3,0.5-0.8,0.8-1.4,0.9c-0.2,0-0.3,0-0.5,0
	c-0.1,0-0.2,0-0.3,0.1c-0.1,0.1-0.2,0.2-0.3,0.2c-0.1,0.1-0.2,0.2-0.4,0.2c-0.6,0-1.1,0.1-1.7,0.2c-0.3,0-0.6,0.1-0.9,0.2
	c0,0-0.1,0.1,0,0.1c0,0.1,0.1,0.2,0.1,0.3c0,0.2,0.1,0.4,0,0.6c0,0.2-0.1,0.5-0.2,0.7c-0.1,0.3-0.2,0.5-0.2,0.8
	c0,0.2-0.1,0.5-0.1,0.7c0,0.1,0,0.1,0,0.2l0.1,0.1h0.1c0.2,0,0.4-0.2,0.5-0.3c0.1-0.1,0.2-0.3,0.2-0.4c0.1-0.2,0.1-0.3,0.2-0.5
	c0-0.1,0.1-0.2,0.1-0.3h0.1c0.3,0,0.5,0,0.8,0s0.6,0.1,0.8,0.2c0.4,0.2,0.6,0.4,0.7,0.8c0.1,0.2,0.1,0.5,0,0.7
	c-0.1,0.4-0.1,0.7-0.2,1.1c0,0.2-0.1,0.4-0.1,0.7c0,0.1,0,0.2,0.1,0.2c0.2,0.1,0.3,0.2,0.5,0.4c0.1,0,0.1,0.1,0.1,0.2
	c0,0.2,0,0.3,0,0.5c0,0.1,0,0.1,0,0.2c0,0,0,0.1,0.1,0.1c0,0,0.1,0,0.2,0c0.2,0,0.4,0,0.6,0s0.4,0,0.7,0.1c0.3,0,0.6,0.2,0.8,0.3
	c0.1,0.1,0.2,0.2,0.3,0.3c0.2,0.2,0.5,0.5,0.7,0.7s0.3,0.5,0.3,0.8c0,0.1,0,0.3,0,0.4c0,0.3,0,0.7,0,1s-0.1,0.7-0.3,0.9
	c-0.1,0.2-0.3,0.3-0.4,0.5c-0.2,0.2-0.3,0.3-0.5,0.5c-0.1,0.1-0.2,0.3-0.3,0.4c-0.1,0.2-0.1,0.3-0.1,0.5c0,0.1,0,0.3,0.1,0.4
	c0.1,0.3,0,0.6,0,0.9c0,0.1-0.1,0.1-0.1,0.1c-0.3,0.1-0.7,0.2-1,0.3c-0.6,0.1-1.1,0.2-1.7,0.3c-0.4,0-0.9,0-1.3-0.1
	c-0.2,0-0.4-0.1-0.5-0.2c-0.3-0.2-0.5-0.5-0.5-0.9c0-0.2,0-0.4,0-0.6c0.1-0.5,0.2-1,0.3-1.6c0-0.1,0-0.2,0.1-0.2
	c0.1-0.2,0.1-0.3,0.3-0.4c0.2-0.1,0.4-0.4,0.6-0.6v-0.1c0,0,0-0.1-0.1-0.1c-0.2,0-0.5,0.2-0.6,0.3s-0.1,0.2-0.2,0.3l-0.1,0.1
	c-0.4,0-0.8,0-1.2-0.1h-0.1c0,0-0.1,0-0.1,0.1s-0.1,0.2-0.1,0.4c-0.1,0.3-0.1,0.6-0.2,0.9c-0.1,0.4-0.1,0.8,0,1.2
	c0,0.4,0.1,0.7,0.1,1.1l0,0c0,0,0.1,0.1,0.1,0c0.1-0.1,0.2-0.1,0.3-0.2c0,0,0.1,0,0.1,0.1v0.1v0.1c0,0.2-0.1,0.5-0.1,0.7
	s0,0.3,0.1,0.5c0.1,0.1,0.1,0.2,0.1,0.3c0,0.3,0,0.6,0,0.8c0,0.1,0,0.1,0,0.2c0,0.1-0.1,0.2-0.2,0.3c-0.1,0-0.1,0.1-0.2,0.1
	c-0.2,0.1-0.4,0.2-0.6,0.2c-0.4,0.2-0.9,0.2-1.3,0.1c-0.1,0-0.2-0.1-0.2-0.1c-0.3-0.1-0.4-0.3-0.5-0.6c-0.1-0.2-0.1-0.4-0.2-0.7
	c-0.1-0.4-0.2-0.9-0.4-1.3c0-0.1-0.1-0.2-0.1-0.3c-0.1-0.6-0.1-1.2,0-1.8c0-0.5,0.1-1,0.2-1.5c0-0.3,0-0.7,0-1
	c0-0.4-0.1-0.9-0.1-1.3c-0.1-0.4-0.1-0.9-0.1-1.3c0-0.3,0-0.6,0.1-0.9c0.1-0.4,0.1-0.8,0.1-1.2c0-0.1,0-0.3,0-0.4s0.1-0.1,0.2-0.1
	l0,0c0.2,0,0.3-0.1,0.3-0.2c0-0.2,0-0.4,0.1-0.6c0.1-0.4,0.1-0.8,0.2-1.3c0.1-0.4,0.1-0.9,0.2-1.3c0-0.1,0-0.2,0.1-0.2
	c0.1-0.2,0.2-0.3,0.3-0.4c0,0,0.1,0,0.1-0.1v-0.1c0-0.1,0-0.2,0-0.3c0-0.1,0-0.2,0-0.3c0-0.2,0.1-0.3,0.2-0.5l0.1-0.1
	c0.3-0.2,0.3-0.2,0.4-0.5c0.1-0.1,0.2-0.3,0.3-0.4c0.1-0.1,0.2-0.1,0.3-0.2c0.2-0.1,0.3-0.2,0.5-0.3c0.2-0.2,0.4-0.3,0.6-0.4
	s0.4-0.2,0.6-0.3c0.2-0.1,0.3-0.2,0.5-0.3c0.2-0.1,0.3-0.3,0.4-0.5c0,0,0-0.1,0-0.2v-0.1c-0.1,0-0.1,0-0.2,0
	c-0.2,0.1-0.3,0.1-0.5,0.2c-0.3,0.1-0.5,0.2-0.8,0.3c-0.2,0.1-0.4,0.1-0.6,0.2s-0.4,0.2-0.5,0.3c-0.5,0.3-0.8,0.7-1,1.3
	C255.9,22.3,255.9,22.4,255.8,22.5z M257.1,30.5c0,0.2,0,0.3,0,0.4s0,0.2,0,0.4l0.1,0.1h0.1c0.1,0,0.2-0.1,0.3-0.2
	c0.2-0.3,0.4-0.5,0.7-0.7c0,0,0,0,0.1-0.1c0.1,0,0.1-0.1,0.1-0.2c0-0.4,0-0.8,0-1.2c0-0.1,0-0.2,0-0.2c0.1-0.4,0.1-0.8,0.2-1.3
	c0-0.1,0-0.1,0-0.2c0,0,0,0-0.1,0s-0.1,0-0.1,0c-0.3,0.2-0.7,0.4-1,0.6c-0.1,0-0.1,0.1-0.1,0.1c0,0.4-0.1,0.8-0.1,1.2
	c0,0.1,0,0.3,0,0.4C257.2,30,257.1,30.3,257.1,30.5z"/>
<path class="st1" d="M150,15.2c0.2-0.1,0.3-0.3,0.4-0.4c0.1-0.1,0.2-0.1,0.2-0.1c0.3-0.1,0.6-0.3,1-0.5c0.3-0.2,0.6-0.3,1-0.5
	c0.2-0.1,0.5-0.2,0.8-0.3c0.1,0,0.2,0,0.3,0c0.3,0,0.5,0.2,0.6,0.4s0.2,0.4,0.2,0.7c0,0.2,0,0.3,0,0.5c0,0.1,0,0.3,0,0.4
	c0,0.3,0,0.7,0.1,1c0.1,0.5,0.1,1,0.1,1.5c-0.1,0.5-0.2,1.1-0.2,1.6c0,0.2,0,0.3,0,0.5c0,0.1,0,0.2,0.1,0.2c0,0.1,0.1,0.2,0.2,0.2
	c0.1,0,0.2,0.1,0.4,0.1c0.1,0,0.2,0,0.3,0c0.5,0,1.1,0,1.6,0c0.1,0,0.1,0,0.2,0c0.3,0.1,0.6,0.1,1,0.1h0.1c0.4,0,0.5,0.1,0.6,0.4
	c0.1,0.2,0.1,0.5,0.2,0.7c0.1,0.2,0,0.4-0.1,0.7c-0.1,0.1-0.1,0.3-0.2,0.4c-0.1,0.2-0.2,0.4-0.3,0.6c0,0.1-0.1,0.2-0.2,0.3
	c-0.3,0.3-0.5,0.6-0.8,0.9c-0.1,0.1-0.2,0.2-0.3,0.2h-0.1c-0.3,0.1-0.5,0.2-0.7,0.4c-0.3,0.2-0.7,0.5-1.1,0.6l-0.1,0.1
	c-0.1,0-0.1,0.1-0.1,0.2s0,0.3,0,0.4c0.1,0.4,0.1,0.7,0.3,1c0.2,0.6,0.5,1,0.9,1.5c0.1,0.2,0.3,0.3,0.4,0.4c0.2,0.2,0.4,0.5,0.5,0.7
	c0,0.1,0.1,0.1,0.2,0.1c0.1,0,0.2,0,0.2-0.1c0.2-0.1,0.4-0.1,0.5,0s0.3,0.1,0.4,0.1c0.3,0,0.6,0,0.9,0c0.5,0,0.9,0.1,1.3,0.1
	c0.2,0,0.4,0,0.6,0c0.5,0,0.9,0.1,1.4,0.4c0.3,0.2,0.7,0.4,1,0.6c0.6,0.3,0.7,0.4,1,1c0.1,0.2,0.2,0.3,0.3,0.5
	c0.1,0.1,0.1,0.2,0.1,0.4c0.1,0.5,0.2,1,0.2,1.6c0,0.1,0,0.3,0,0.4c0,0.2-0.1,0.3-0.2,0.5c0,0.1-0.1,0.1-0.1,0.2
	c-0.1,0.1-0.2,0.3-0.3,0.4c-0.5,0.6-1.1,0.9-1.9,0.9c-0.3,0-0.6,0-0.9-0.1c-0.3-0.1-0.6-0.2-0.9-0.3c-0.2-0.1-0.4-0.2-0.6-0.3
	c-0.6-0.3-1.2-0.6-1.8-0.8c-0.4-0.1-0.8-0.3-1.1-0.6c-0.2-0.1-0.3-0.2-0.5-0.3s-0.3-0.2-0.4-0.3c-0.2-0.2-0.3-0.4-0.5-0.5
	c-0.2-0.3-0.5-0.6-0.7-0.9c-0.2-0.2-0.4-0.4-0.5-0.6c-0.1-0.2-0.3-0.3-0.4-0.5c-0.1-0.1-0.2-0.3-0.4-0.4c-0.1,0-0.2,0-0.2,0
	c-0.1,0.1-0.1,0.1-0.2,0.2c-0.2,0.2-0.4,0.4-0.6,0.6c-0.2,0.1-0.4,0.3-0.5,0.5s-0.2,0.3-0.4,0.5c-0.1,0.1-0.2,0.2-0.2,0.3
	c-0.1,0.1-0.3,0.2-0.5,0.3c-0.3,0.1-0.6,0.1-0.9,0.2c-0.2,0.1-0.5,0.1-0.8,0.1c-0.2,0-0.4-0.1-0.6-0.2l-0.1-0.1
	c-0.1-0.1-0.3-0.2-0.5-0.1c-0.1,0-0.3,0.1-0.4,0.2c-0.1,0.1-0.2,0.2-0.4,0.3c-0.1,0.1-0.3,0.2-0.4,0.3c-0.3,0.2-0.7,0.3-1,0.3
	c-0.1,0-0.2,0-0.2-0.2c0-0.1-0.1-0.2-0.1-0.3l-0.1-0.1c-0.1,0-0.2,0-0.3,0.1c-0.1,0-0.2,0.1-0.3,0.1s-0.1,0-0.1,0
	c-0.1-0.1-0.2-0.2-0.3-0.4c-0.3-0.4-0.5-0.9-0.6-1.4c-0.1-0.9,0.2-1.6,0.9-2.1c0.1-0.1,0.3-0.1,0.4,0c0.1,0.1,0.2,0.1,0.3,0.2
	s0.2,0.2,0.3,0.3c0.1,0.1,0.2,0.2,0.3,0.3c0.2,0.2,0.5,0.3,0.8,0.2c0.1,0,0.2,0,0.3-0.1c0,0,0.1-0.1,0-0.1l-0.1-0.1
	c-0.2-0.1-0.4-0.2-0.6-0.3c0,0-0.1,0-0.1-0.1l0,0l0,0c0.1,0,0.2,0,0.2,0c0.2,0,0.4-0.1,0.6-0.2c0.3-0.2,0.5-0.2,0.8-0.2
	c0.2,0,0.5,0,0.7-0.1c0.3-0.2,0.5-0.3,0.8-0.5c0.1-0.1,0.2-0.1,0.3-0.2c0.2-0.2,0.4-0.5,0.5-0.7s0.2-0.4,0.3-0.7
	c0.1-0.3,0.1-0.5,0.1-0.8c0-0.1,0-0.2-0.1-0.3c-0.1-0.1-0.1-0.2-0.2-0.3c-0.3-0.5-0.9-0.7-1.5-0.6c-0.3,0.1-0.6,0.2-0.9,0.3
	c-0.2,0.1-0.5,0.2-0.7,0.3c-0.2,0-0.4,0.1-0.6,0c-0.2,0-0.4-0.1-0.5-0.2c-0.2-0.2-0.3-0.4-0.5-0.6c-0.1-0.1-0.1-0.2-0.2-0.3
	c-0.2-0.3-0.2-0.5-0.1-0.8c0-0.1,0.1-0.2,0.1-0.3c0.2-0.4,0.3-0.7,0.5-1.1c0-0.1,0.1-0.2,0.2-0.2c0.3,0,0.6,0,0.9,0
	c0.1,0,0.1,0,0.2,0c0.1,0,0.2,0.1,0.2,0.2s0,0.2,0,0.2c0,0.2-0.1,0.3-0.1,0.5c-0.1,0.3,0,0.5,0.1,0.8l0.1,0.1c0.1,0,0.1,0,0.2,0
	c0.3-0.1,0.6-0.3,0.8-0.6c0.1-0.1,0.2-0.3,0.3-0.4c0.2-0.2,0.3-0.5,0.6-0.7c0.1-0.1,0.2-0.3,0.3-0.4s0.1-0.3,0.2-0.4
	c0-0.1,0-0.1,0-0.2c0-0.2,0.1-0.3,0.2-0.4c0.1-0.1,0.1-0.1,0.2-0.2c0.1-0.1,0.1-0.1,0.2-0.2c0.2-0.2,0.3-0.5,0.3-0.9
	c0-0.3-0.1-0.5-0.2-0.8c-0.1-0.5-0.3-1-0.5-1.6c-0.1-0.4-0.2-0.8-0.3-1.2c0-0.2-0.1-0.5-0.1-0.8C150,16.1,150,15.7,150,15.2z
	 M146.5,32.8C146.4,32.8,146.4,32.8,146.5,32.8c-0.1,0-0.2,0.1-0.2,0.2c0,0.2,0.1,0.3,0.2,0.5c0.1,0.1,0.1,0.2,0.3,0.2
	s0.3,0,0.5,0.1h0.1c0.1-0.2,0.2-0.4,0.3-0.5c0,0,0-0.1-0.1-0.1h-0.1c-0.2,0-0.4-0.1-0.5-0.1C146.8,32.8,146.6,32.8,146.5,32.8z
	 M147.2,32c-0.1,0-0.3,0-0.5,0c-0.1,0-0.1,0.1-0.1,0.1c0,0.1,0,0.1,0.1,0.2c0.1,0,0.2,0.1,0.3,0.1c0.3,0.1,0.6,0,0.8-0.2v-0.1
	l-0.1-0.1C147.5,32,147.4,32,147.2,32z"/>
<path class="st1" d="M185.1,32c0.4,0.1,0.7-0.1,1.1-0.3c0,0,0,0,0.1,0c0.4-0.2,0.8-0.3,1.3-0.3c0.3,0,0.7-0.1,1,0
	c0.2,0,0.5,0.1,0.7,0.1s0.4,0,0.7,0c0.1,0,0.2,0,0.3,0c0.5,0,0.9,0.1,1.3,0.2c0.4,0.2,0.8,0.4,1.1,0.6s0.5,0.5,0.5,0.9
	c0,0.3,0,0.6-0.1,0.9c-0.1,0.2-0.1,0.3-0.3,0.4l-0.1,0.1c-0.2,0.1-0.3,0.2-0.5,0.4c-0.1,0.1-0.1,0.1-0.2,0.2c-0.1,0.1-0.1,0.1-0.2,0
	c-0.2-0.1-0.4-0.1-0.6-0.2c-0.1,0-0.2,0-0.3-0.1c-0.4-0.1-0.8-0.2-1.2-0.4c-0.2-0.1-0.4-0.2-0.6-0.2c-0.3-0.1-0.6-0.2-0.9-0.4
	c0,0-0.1,0-0.1-0.1c-0.2-0.1-0.4-0.1-0.6,0c-0.1,0.1-0.2,0.1-0.3,0.2c-0.2,0.2-0.5,0.3-0.8,0.3c-0.4,0-0.7,0-1.1,0
	c-0.3,0-0.6,0.1-0.8,0.2c-0.1,0.1-0.3,0.1-0.4,0.2H184v-0.1c0.1-0.1,0.1-0.2,0.2-0.3c0.1-0.1,0.1-0.2,0.2-0.3c0-0.1,0.1-0.1,0.1-0.2
	c0-0.1-0.1,0-0.2,0c-0.2,0-0.5,0.1-0.6,0.3c-0.1,0.1-0.1,0.1-0.2,0.2c-0.4,0.4-0.8,0.7-1.3,0.9c-0.1,0-0.1,0-0.2,0.1
	c-0.1,0-0.1,0.1-0.1,0.1c0,0.2-0.1,0.3-0.1,0.5c0,0.4-0.1,0.9-0.1,1.3c0,0.1,0,0.3,0,0.4c0,0.4,0,0.7-0.1,1.1c0,0.4-0.1,0.8-0.3,1.1
	c-0.1,0.2-0.2,0.4-0.4,0.6c-0.1,0.1-0.3,0.3-0.5,0.3l0,0c-0.6,0.2-1.1,0.4-1.6,0.7c-0.6,0.3-1.2,0.4-1.8,0.5c-0.1,0-0.1,0-0.2,0
	c-0.5,0-1,0-1.5,0c-0.2,0-0.5-0.1-0.6-0.2c-0.3-0.2-0.6-0.2-0.9-0.3c-0.1,0-0.2,0-0.2,0c-0.5-0.2-1.1-0.2-1.6-0.3h-0.1
	c-0.2,0-0.2-0.1-0.2-0.3c0-0.3,0.1-0.5,0.2-0.7c0.2-0.3,0.4-0.6,0.7-0.9c0.1,0,0.1-0.1,0.2,0c0.2,0.1,0.4,0.2,0.6,0.3
	c0.2,0.1,0.3,0.2,0.4,0.3c0.1,0.1,0.1,0.2,0.2,0.2c0.1,0.1,0.1,0.1,0.2,0c0.1,0,0.1-0.1,0.2-0.1c0.2-0.1,0.3-0.2,0.5-0.3
	c0.1,0,0.2-0.1,0.2-0.2c0-0.1,0.1-0.2,0.1-0.3c0.2-0.3,0.4-0.6,0.8-0.7c0.2-0.1,0.4-0.1,0.6-0.1c0.1,0,0.2,0.1,0.2,0.1
	c0.1,0,0.1,0.1,0.2,0.2c0.1,0.1,0.2,0.1,0.3,0.1c0.1-0.1,0.3-0.1,0.4,0c0.1,0,0.2,0.1,0.3,0.1s0.3,0,0.4-0.1
	c0.1-0.1,0.2-0.1,0.2-0.2c0.2-0.3,0.4-0.6,0.4-0.9c0-0.1,0-0.2,0.1-0.4c0-0.1,0-0.2-0.1-0.2s-0.2,0-0.4,0c-0.4,0-0.9,0.1-1.3,0.1
	c-0.3,0-0.6,0.1-0.9,0.1c-0.2,0-0.5,0.1-0.7,0.1c-0.6,0.1-1.1,0.2-1.7,0.2c-0.3,0-0.6,0.1-0.9,0.1c-0.3,0-0.7,0.1-1,0.2
	c-0.2,0-0.3,0.1-0.5,0.2c-0.6,0.3-1.2,0.6-1.8,0.9c-0.1,0-0.1,0.1-0.2,0.1c-0.5,0.3-1.1,0.6-1.7,0.8c-0.4,0.2-0.9,0.4-1.2,0.6
	c-0.3,0.2-0.7,0.4-1.1,0.5c-0.3,0.1-0.7,0.3-1,0.5c-0.5,0.2-1,0.4-1.5,0.5s-0.9,0.2-1.4,0.2c-0.1,0-0.1,0-0.2,0
	c-0.1,0-0.1,0-0.1-0.1c-0.1-0.3-0.2-0.5-0.3-0.8c0-0.1,0-0.2,0-0.2c0-0.1,0.1-0.3,0.1-0.4c0.1-0.2,0.1-0.4,0.1-0.6
	c0-0.1,0-0.2,0.1-0.2s0.2-0.1,0.4-0.1c0.2-0.1,0.4-0.2,0.7-0.3c0.2-0.1,0.5-0.2,0.7-0.3s0.3-0.2,0.4-0.3c0.2-0.2,0.4-0.4,0.4-0.6
	c0-0.1,0.1-0.1,0.1-0.2c0.1-0.1,0.2-0.2,0.3-0.2s0.2,0,0.4-0.1c0.3-0.1,0.6-0.2,0.9-0.4c0.2-0.1,0.3-0.2,0.4-0.3
	c0.2-0.2,0.4-0.3,0.6-0.5c0.6-0.4,1.2-0.6,1.8-0.7c0.4-0.1,0.7-0.1,1.1-0.1c0.5,0,1-0.1,1.5-0.2c0.5-0.1,1-0.2,1.5-0.2
	c0.4,0,0.8-0.1,1.3-0.1c0.5-0.1,1-0.2,1.5-0.4c0.1,0,0.2-0.1,0.3-0.1c0.4-0.2,0.8-0.3,1.2-0.3c0.2,0,0.4-0.1,0.7-0.2
	c0.2-0.1,0.3-0.1,0.4-0.3c0.1-0.1,0.1-0.2,0-0.3s-0.2-0.2-0.2-0.3c-0.1-0.1-0.3-0.3-0.4-0.4c-0.2-0.2-0.3-0.4-0.4-0.6
	c-0.2-0.3-0.3-0.6-0.2-1c0-0.2,0.1-0.3,0.2-0.5c0.1-0.1,0.2-0.2,0.3-0.3c0.2-0.1,0.3-0.2,0.5-0.3c0.2-0.1,0.3-0.3,0.4-0.5
	c0,0,0-0.1,0-0.2v-0.1c0,0,0,0-0.1,0c-0.3-0.1-0.5-0.2-0.7-0.4c-0.1-0.1-0.3-0.2-0.5-0.2s-0.4-0.1-0.6-0.2c-0.2-0.1-0.4-0.2-0.5-0.3
	c-0.1-0.1-0.2-0.2-0.2-0.4c-0.1-0.4-0.1-0.8-0.1-1.3c0-0.1,0-0.2,0-0.4c0-0.3,0.2-0.5,0.4-0.7l0.1-0.1c0.1-0.1,0.3-0.2,0.3-0.4
	c0-0.1,0.1-0.1,0.2-0.1c0.1,0,0.2,0,0.3,0.1c0.2,0.1,0.3,0.2,0.5,0.3c0.3,0.2,0.7,0.4,1.1,0.4c0.2,0.1,0.5,0.1,0.7,0.2
	c0.4,0.1,0.7,0.3,0.9,0.6c0.2,0.4,0.4,0.8,0.5,1.2c0,0.3,0.1,0.6,0.1,0.9c0,0.2,0,0.5,0.1,0.7c0,0.1,0,0.2-0.1,0.2
	c-0.3,0.2-0.5,0.4-0.7,0.7c-0.1,0.1-0.2,0.2-0.3,0.4c-0.1,0.1-0.1,0.1-0.2,0.2c-0.2,0.2-0.2,0.5,0,0.8c0,0.1,0.1,0.2,0.2,0.2
	c0.2,0.2,0.4,0.4,0.6,0.5c0.2,0.1,0.4,0.2,0.7,0.2c0.4-0.1,0.7-0.1,1.1,0c0.3,0,0.5,0.1,0.7,0.1c0.3,0.1,0.7,0.1,1,0.2
	c0.4,0.1,0.7,0.1,1.1,0.2c0.1,0,0.3,0,0.4,0c0.2,0,0.3-0.2,0.2-0.3c0-0.1,0-0.2-0.1-0.2c-0.1-0.3-0.1-0.3-0.4-0.3
	c-0.1,0-0.1,0-0.2,0c-0.1,0-0.1,0-0.1-0.1s0-0.1,0.1-0.1c0.2-0.1,0.3-0.2,0.5-0.2C184.8,32,185,32,185.1,32z M162.5,40.5
	C162.4,40.5,162.4,40.5,162.5,40.5c-0.1-0.1-0.1-0.1-0.1-0.1c-0.1,0.1-0.2,0.2-0.2,0.3c0,0,0,0,0,0.1c0,0,0,0,0.1,0
	C162.4,40.8,162.5,40.7,162.5,40.5z"/>
<path class="st0" d="M21.5,8.5c-0.2,0.1-0.3,0.1-0.4,0.2c-4.8,2.1-9.6,4.2-14.5,6.4c-0.1,0-0.2,0.1-0.3,0.1c-0.1,0-0.2,0.1-0.2,0.3
	c0,0.3,0,0.5,0,0.8c0,0.1,0,0.3,0,0.4c0,0.2-0.1,0.2-0.2,0.2s-0.2,0-0.3,0c-1.7,0-3.3,0-5,0c-0.1,0-0.3,0-0.4,0l-0.1-0.1
	c0-0.1,0-0.1,0-0.2c0-0.4,0-0.8,0-1.3v-0.1c0-0.1,0-0.1,0.1-0.1C0.3,15,0.4,15,0.5,14.9c3.1-1.4,6.2-2.8,9.3-4.2
	c3.5-1.5,7-3.1,10.4-4.6c0.1,0,0.2-0.1,0.3-0.1c0.1-0.1,0.2-0.2,0.2-0.3c0-0.3,0-0.6,0-0.8c0-0.1,0-0.1,0-0.2l0.1-0.1h0.1
	c0.4,0,0.7,0,1.1,0h0.1c0,0,0.1,0,0.1,0.1s0,0.2,0,0.2c0,0.3,0,0.5,0,0.8c0,0.1,0,0.1,0,0.2s0,0.1,0.1,0.1c0.1,0.1,0.2,0.1,0.4,0.2
	c5.7,2.5,11.4,5.1,17,7.6c1,0.4,1.9,0.9,2.9,1.3c0.3,0.2,0.3,0.1,0.3,0.5s0,0.7,0,1.1c0,0.1,0,0.1,0,0.2L42.8,17h-0.1
	c-0.1,0-0.2,0-0.3,0c-1.7,0-3.4,0-5.1,0c-0.1,0-0.3,0-0.4,0c-0.1,0-0.1-0.1-0.1-0.1c0-0.2,0-0.5,0-0.7c0-0.2,0-0.4,0-0.6
	c0-0.1,0-0.2-0.1-0.2c-0.1-0.1-0.3-0.1-0.4-0.2c-3.5-1.5-7-3.1-10.5-4.6c-1.3-0.6-2.6-1.2-4-1.7C21.8,8.6,21.7,8.5,21.5,8.5z"/>
<path class="st1" d="M249.6,30c0-0.1-0.1-0.2-0.1-0.3c0-0.1-0.1-0.1-0.1-0.1c-0.1,0-0.2,0-0.2,0.1l-0.1,0.1c0,0.1-0.1,0.1-0.1,0.2
	c-0.1,0.2-0.3,0.4-0.6,0.5c-0.2,0.1-0.5,0.1-0.7,0.1c-0.3,0-0.7,0.1-1,0.2c-0.1,0-0.2,0.1-0.3,0.1c-0.2,0.1-0.3,0.2-0.4,0.4
	c0,0.1-0.1,0.2-0.1,0.3c-0.1,0.5-0.2,0.9-0.3,1.4c0,0.1,0,0.1,0.1,0.1c0.2,0.1,0.3,0.2,0.5,0.1c0.1,0,0.2,0,0.3-0.1
	c0,0,0.1,0,0.1-0.1s0-0.3,0.1-0.4v-0.1c-0.3-0.3-0.2-0.2-0.3-0.6c0-0.2,0-0.4,0-0.7c0-0.1,0.1-0.2,0.1-0.2h0.1c0.5,0,1,0,1.5,0.1
	h0.1c0.3,0.1,0.5,0.3,0.6,0.5c0.2,0.4,0.3,0.8,0.4,1.3c0,0.1,0,0.1,0,0.2c0,0.1-0.1,0.1-0.1,0.1c-0.2,0.1-0.4,0.2-0.7,0.2
	c-0.2,0-0.4,0.2-0.5,0.3c-0.2,0.2-0.3,0.4-0.4,0.7c0,0.1-0.1,0.3-0.1,0.4c-0.1,0.3-0.3,0.5-0.5,0.7c-0.3,0.2-0.5,0.3-0.8,0.4
	c-0.4,0.1-0.8,0.2-1.2,0.2c-0.1,0-0.2,0-0.3-0.1c-0.2-0.2-0.4-0.5-0.5-0.8c-0.2-0.5-0.3-0.9-0.2-1.4s0.2-1,0.3-1.5
	c0.2-0.9,0.5-1.7,0.7-2.6c0.1-0.3,0.2-0.7,0.1-1.1c0-0.5,0.1-0.9,0.4-1.3c0.1-0.1,0.2-0.3,0.3-0.4s0.1-0.2,0.1-0.3
	c0-0.1-0.1-0.3-0.1-0.4c-0.1-0.3-0.2-0.5-0.2-0.8c0-0.2,0-0.5,0-0.7c0-0.1,0.1-0.2,0.3-0.2s0.4-0.1,0.6-0.1c0,0,0.1,0,0.1,0.1
	c0,0,0.1,0.1,0.1,0.2c0,0,0.1,0.1,0.1,0c0.1,0,0.2-0.1,0.3-0.2v-0.1c0-0.2,0-0.3,0.1-0.5c0-0.1,0.1-0.1,0.1-0.2
	c0.1-0.1,0.1-0.1,0.2-0.2c0.1-0.1,0.2-0.2,0.3-0.3c0.1-0.1,0.3-0.2,0.5-0.3h0.1c0.1,0,0.1,0,0.2-0.1c0-0.1,0-0.2,0-0.3
	c-0.3-0.3-0.6-0.6-0.9-0.8c-0.1,0-0.1,0-0.2,0.1v0.1c0,0.1,0,0.1-0.1,0.2c-0.1,0.3-0.2,0.5-0.5,0.6c-0.2,0.1-0.3,0.3-0.5,0.4
	c-0.3,0.3-0.7,0.7-1.1,0.9c-0.1,0.1-0.3,0.1-0.4,0.2c-0.1,0.1-0.2,0.1-0.2,0.2c-0.2,0.2-0.5,0.4-0.7,0.6c-0.1,0.1-0.2,0.1-0.2,0.1
	c-0.2,0.1-0.4,0.3-0.5,0.5s-0.3,0.3-0.5,0.4c-0.1,0.1-0.3,0.1-0.4,0.2c-0.2,0.1-0.5,0.2-0.7,0.3c-0.2,0.1-0.4,0.1-0.6,0
	c-0.3-0.1-0.6-0.3-0.9-0.4c-0.1,0-0.1-0.1-0.2-0.1c-0.2-0.2-0.2-0.3,0-0.5s0.4-0.3,0.6-0.5c0.1-0.1,0.1-0.1,0.2-0.1
	c0.2,0,0.4,0,0.6,0c0.1,0,0.3,0,0.4,0c0.3,0,0.6-0.1,0.7-0.4c0-0.1,0.1-0.2,0.1-0.2c0.1-0.2,0.2-0.4,0.4-0.5
	c0.1-0.1,0.2-0.2,0.2-0.3c0-0.1,0-0.2,0.1-0.3c0-0.3,0.2-0.6,0.4-0.9c0.1-0.1,0.2-0.2,0.3-0.3c0.2-0.2,0.3-0.4,0.4-0.6
	c0.2-0.3,0.3-0.5,0.5-0.8c0.1-0.1,0.1-0.2,0.2-0.3c0.3-0.5,0.6-1.1,0.9-1.6c0.1-0.2,0.2-0.4,0.3-0.5c0.1-0.3,0.3-0.6,0.3-0.9
	c0.1-0.4,0.2-0.7,0.3-1.1c0.2-0.4,0.3-0.8,0.3-1.2c0-0.1,0-0.2,0-0.3c0-0.3,0.1-0.6,0.1-0.9c0-0.1,0-0.3,0.1-0.4
	c0.1-0.3,0.3-0.5,0.5-0.6s0.3-0.2,0.5-0.2c0.6-0.2,1.3-0.3,2-0.2c0.2,0,0.5,0.1,0.7,0.2c0.3,0.1,0.5,0.3,0.6,0.6
	c0.2,0.4,0.3,0.7,0.3,1.1c0,0.5,0,0.9-0.2,1.3c-0.1,0.3-0.2,0.5-0.3,0.8c0,0.1-0.1,0.1-0.1,0.2v0.1c0,0.1,0.1,0.1,0.1,0.1
	c0.2,0.2,0.4,0.4,0.5,0.6c0.2,0.4,0.4,0.7,0.5,1.1c0,0.1,0.1,0.2,0.1,0.3c0.1,0.3,0,0.5-0.2,0.7s-0.5,0.4-0.8,0.4
	c-0.3,0.1-0.5,0.1-0.8,0.1c-0.2,0-0.4-0.1-0.6,0l-0.1,0.1l0,0v0.1c0.1,0.4,0.3,0.9,0.4,1.3c0.1,0.3,0.2,0.6,0.3,0.9
	c0.2,0.4,0.3,0.8,0.5,1.1c0.2,0.4,0.3,0.7,0.3,1.1c0.1,0.6,0.1,1.2-0.1,1.7c-0.1,0.2-0.1,0.4-0.2,0.6c-0.1,0.3-0.2,0.7-0.3,1.1
	c-0.1,0.5-0.3,1.1-0.5,1.6c0,0.1-0.1,0.1-0.2,0.1c-0.2,0-0.4,0-0.6,0C249.7,30.1,249.7,30,249.6,30z M247,26.3
	c-0.1,0-0.2,0.1-0.3,0.2c0,0.1-0.1,0.2-0.1,0.4V27v0.1c0,0,0,0,0.1,0c0,0,0,0,0.1,0c0.1-0.1,0.2-0.2,0.4-0.2c0.1,0,0.2,0,0.3,0h0.1
	l0.1-0.1c0,0,0-0.1-0.1-0.1C247.4,26.4,247.3,26.3,247,26.3z M247,28.7C247,28.6,247,28.6,247,28.7c-0.1-0.2-0.2-0.2-0.3-0.3
	c0,0-0.1,0-0.2,0c-0.2,0.2-0.3,0.4-0.1,0.7h0.1C246.9,29,247,28.9,247,28.7L247,28.7z M248.8,26.2c-0.1,0-0.3,0-0.3,0.1
	c-0.2,0.2-0.1,0.3,0.1,0.4h0.1c0.1,0,0.2,0,0.3-0.1c0-0.1,0.1-0.2,0.1-0.3C249,26.3,249,26.3,248.8,26.2
	C248.9,26.2,248.9,26.2,248.8,26.2z M248.7,28.3c-0.1,0-0.1,0-0.2,0.1c-0.2,0.2-0.2,0.3,0,0.4c0.1,0.1,0.2,0.1,0.3,0.1
	c0,0,0.1,0,0.1-0.1C249,28.6,248.9,28.5,248.7,28.3C248.8,28.3,248.8,28.3,248.7,28.3z"/>
<path class="st1" d="M88,33.9L88,33.9c-0.4,0-0.8,0-1.1-0.1c-0.4-0.2-0.9-0.2-1.4-0.2c-0.6,0-1.1,0-1.7,0c-0.3,0-0.5,0-0.8,0.1
	c-0.1,0-0.2,0-0.3,0.1C82.3,34,81.8,34,81.3,34s-1.1,0.1-1.6,0.1c-0.8,0.1-1.6,0.2-2.4,0.3c-0.4,0-0.7,0.1-1.1,0.2
	c-0.1,0-0.3,0-0.4,0s-0.2,0-0.2-0.1c-0.2-0.3-0.4-0.6-0.5-0.9C75,33.5,75,33.3,75,33.2c0-0.2,0-0.3,0.2-0.4c0.1-0.1,0.2-0.1,0.3-0.1
	c0.2-0.1,0.4-0.1,0.5-0.1c0.3-0.1,0.6-0.1,0.9-0.2c0.3,0,0.6-0.1,0.9-0.1c0.4,0,0.8,0,1.2-0.1c0.2,0,0.3,0,0.5-0.1
	c0.4-0.1,0.9-0.2,1.3-0.3l0.1-0.1c0-0.1,0-0.2,0-0.3c0-0.1,0-0.2-0.1-0.3c-0.1-0.1-0.3-0.3-0.3-0.4c-0.1-0.3-0.2-0.6-0.1-0.9
	c0-0.2,0.1-0.4,0.1-0.7c0.1-0.4,0.1-0.8,0.2-1.2c0.1-0.6,0.2-1.1,0.3-1.7c0-0.1,0-0.2,0-0.4l-0.1-0.1c-0.1,0.1-0.2,0.1-0.3,0.2
	c-0.1,0.1-0.2,0.2-0.4,0.2c-0.2,0-0.5,0-0.7-0.1c-0.5-0.1-1-0.1-1.5-0.2h-0.1c0,0-0.1,0-0.1-0.1s-0.1-0.2-0.1-0.3
	c0-0.4-0.1-0.9-0.1-1.3s0-0.7,0.1-1.1l0,0c0.1-0.5,0.1-0.4,0.5-0.7c0.3-0.2,0.5-0.3,0.9-0.3c0.1,0,0.2,0,0.3-0.1
	c0.1-0.1,0.3-0.1,0.4-0.2c0.2-0.2,0.5-0.4,0.7-0.6c0.1-0.1,0.3-0.2,0.4-0.3c0.1-0.1,0.2-0.1,0.4-0.1c0.3-0.1,0.7-0.2,1-0.2
	c0,0,0.1,0,0.1-0.1c0,0,0,0,0-0.1c0,0,0-0.1-0.1-0.1c-0.1-0.2-0.3-0.4-0.4-0.6c-0.1-0.1-0.2-0.2-0.3-0.4c-0.2-0.3-0.2-0.5-0.2-0.8
	c0-0.1,0-0.1,0.1-0.2s0.2-0.1,0.3-0.2c0.3-0.2,0.5-0.4,0.7-0.6c0.1-0.1,0.3-0.2,0.5-0.2c0.3,0,0.6,0,1,0c0.2,0,0.3,0,0.5,0.1
	s0.4,0.2,0.5,0.3c0.1,0.1,0.2,0.3,0.3,0.5c0.2,0.4,0.4,0.8,0.6,1.1c0,0.1,0.1,0.2,0.2,0.3c0,0.1,0.1,0.1,0.2,0.1s0.2,0,0.3,0
	c0.2,0,0.4,0,0.7,0.1c0.1,0,0.1,0,0.1,0.1l0.1,0.1c0.1,0.3,0.2,0.6,0.3,0.9c0,0.1,0,0.1,0,0.2c0,0.3,0,0.3-0.2,0.4
	c-0.1,0.1-0.3,0.1-0.4,0.2c-0.2,0.1-0.3,0.2-0.3,0.4c0,0.1-0.1,0.2-0.1,0.3c0,0.2-0.1,0.3-0.3,0.4l0,0c-0.2,0.1-0.4,0.2-0.5,0.4
	c-0.1,0.2-0.3,0.3-0.4,0.3c-0.2,0.1-0.3,0.1-0.5,0.2s-0.3,0.1-0.5,0.1c-0.5,0.1-1,0.4-1.4,0.8c-0.1,0.1-0.2,0.2-0.3,0.3
	c-0.1,0.1-0.1,0.2,0,0.3c0.1,0.2,0.1,0.4,0.2,0.5c0.1,0.3,0.2,0.6,0.2,0.9c0,0.2,0,0.4,0,0.6c0,0.5-0.1,1-0.1,1.4c0,0.2,0,0.5,0,0.7
	v0.1c0,0.1,0.1,0.1,0.2,0.1s0.1-0.1,0.2-0.1c0.1-0.1,0.2-0.2,0.3-0.4c0.1-0.2,0.2-0.4,0.3-0.7c0.1-0.3,0.2-0.6,0.2-0.9
	c0-0.2,0.1-0.4,0.1-0.5c0.1-0.2,0.1-0.3,0.3-0.5c0.1,0,0.1-0.1,0.1-0.2c0-0.2,0.1-0.4,0.1-0.6c0-0.3,0-0.6,0-0.9
	c0-0.1,0-0.2,0.1-0.3c0.1-0.1,0.3-0.1,0.4-0.1s0.2,0,0.3,0c0.4,0.1,0.8,0.1,1.2,0.2c0.1,0,0.3,0.1,0.4,0.1c0.6,0.2,0.9,0.7,0.9,1.3
	c0,0.3,0,0.6-0.1,0.8c-0.1,0.5-0.3,1-0.7,1.4c-0.3,0.3-0.5,0.6-0.8,0.9s-0.7,0.6-1.1,0.9s-0.8,0.7-1,1.1c0,0,0,0.1,0,0.2
	c0,0,0,0.1,0.1,0.1c0,0,0,0,0.1,0c0.2,0,0.4,0.1,0.6,0.1s0.4,0,0.6-0.1c0.5,0,0.9-0.1,1.4-0.3c0.2-0.1,0.5-0.1,0.7-0.2
	c0.5-0.2,0.9-0.3,1.4-0.3c0.3,0,0.7-0.1,1-0.1s0.5,0,0.8,0c0.2,0,0.4,0.1,0.6,0.1c0.1,0,0.1,0,0.2,0.1c0.1,0,0.2,0.1,0.2,0.2v0.1
	c-0.1,0.4,0,0.8,0,1.3c0,0.2,0,0.4-0.1,0.6c-0.1,0.3-0.2,0.4-0.5,0.5c-0.2,0-0.4,0.1-0.5,0.1c-0.4,0-0.8,0.1-1.3,0.1h-0.1
	C89.1,33.9,88.5,33.9,88,33.9C88,34,88,33.9,88,33.9z"/>
<path class="st0" d="M1.1,29.2c0-3,0-6,0-9c0-0.1,0-0.3,0-0.4l0.1-0.1c0.1,0,0.1,0,0.2,0c1.1,0,2.2,0,3.3,0c0.1,0,0.1,0,0.2,0
	L5,19.8v0.1c0,0.1,0,0.2,0,0.3c0,6,0,12.1,0,18.1c0,0.1,0,0.2,0,0.4c0,0.1-0.1,0.2-0.1,0.2c-0.1,0-0.2,0-0.2,0c-1,0-2.1,0-3.1,0
	c-0.1,0-0.1,0-0.2,0s-0.2-0.1-0.2-0.2c0-0.1,0-0.3,0-0.4C1.1,35.2,1.1,32.2,1.1,29.2z"/>
<path class="st0" d="M38.1,29.2c0-3,0-6,0-9c0-0.1,0-0.3,0-0.4l0.1-0.1c0.1,0,0.1,0,0.2,0c1.1,0,2.2,0,3.3,0c0.1,0,0.1,0,0.2,0
	l0.1,0.1v0.1c0,0.1,0,0.2,0,0.3c0,6,0,12.1,0,18.1c0,0.1,0,0.3,0,0.4l-0.1,0.1c-0.1,0-0.1,0-0.2,0c-1.1,0-2.2,0-3.3,0
	c-0.1,0-0.1,0-0.2,0c-0.1,0-0.1-0.1-0.1-0.1c0-0.1,0-0.1,0-0.2c0-0.1,0-0.2,0-0.4C38.1,35.2,38.1,32.2,38.1,29.2z"/>
<path class="st0" d="M7.7,51.8c-0.1-0.1-0.2-0.3-0.3-0.4c-0.9-1.5-1.9-3-2.8-4.5c-0.3-0.5-0.6-1-1-1.6c-0.1-0.1-0.1-0.2-0.2-0.3
	c0,0-0.1-0.1-0.1,0c0,0,0,0.1-0.1,0.1c0,0.1,0,0.1,0,0.2c0,0.1,0,0.2,0,0.3c0,1.8,0,3.7,0,5.5c0,0.1,0,0.2,0,0.3
	c0,0.3,0,0.3-0.3,0.3c-0.4,0-0.8,0-1.3,0c-0.1,0-0.1,0-0.2,0l-0.1-0.1c0-0.1,0-0.1,0-0.2c0-0.1,0-0.2,0-0.4c0-3.1,0-6.2,0-9.3
	c0-0.1,0-0.3,0-0.4c0-0.1,0.1-0.2,0.2-0.2h0.1c0.5,0,1.1,0,1.6,0c0.1,0,0.2,0,0.3,0.1s0.2,0.2,0.2,0.4c1.2,2,2.5,4,3.7,6.1
	c0.1,0.1,0.1,0.2,0.2,0.3h0.1c0,0,0,0,0-0.1s0-0.3,0-0.4c0-2,0-3.9,0-5.9c0-0.1,0-0.3,0-0.4c0-0.1,0-0.1,0.1-0.1s0.1,0,0.2,0
	c0.5,0,1,0,1.4,0c0.1,0,0.1,0,0.2,0c0,0,0.1,0,0.1,0.1v0.1c0,0.1,0,0.2,0,0.3c0,3.2,0,6.3,0,9.5c0,0.6,0.1,0.5-0.5,0.5
	c-0.4,0-0.8,0-1.2,0C8,51.8,7.8,51.8,7.7,51.8z"/>
<path class="st0" d="M29.5,51.8c-0.1-0.1-0.2-0.3-0.3-0.4c-0.8-1.4-1.6-2.7-2.4-4.1c-0.1-0.1-0.1-0.2-0.2-0.3h-0.1l-0.1,0.1
	c-0.4,0.4-0.9,0.9-1.3,1.3L25,48.5c-0.1,0.1-0.1,0.2-0.1,0.3s0,0.2,0,0.3c0,0.8,0,1.5,0,2.3c0,0.1,0,0.2,0,0.3c0,0,0,0-0.1,0.1h-0.1
	c-0.6,0-1.1,0-1.7,0h-0.1l-0.1-0.1v-0.1c0-0.1,0-0.2,0-0.3c0-3.2,0-6.3,0-9.5c0-0.1,0-0.2,0-0.3s0.1-0.2,0.2-0.2h0.1
	c0.5,0,1,0,1.5,0c0.1,0,0.1,0,0.2,0c0,0,0.1,0,0.1,0.1s0,0.2,0,0.4c0,1,0,2,0,3c0,0.3,0,0.6,0,0.9c0,0.1,0,0.1,0,0.2H25
	c0.1-0.1,0.2-0.2,0.3-0.2c0.7-0.8,1.5-1.6,2.2-2.4c0.5-0.5,1-1.1,1.5-1.6c0.1-0.1,0.1-0.1,0.2-0.2c0.1-0.1,0.1-0.1,0.2-0.1h0.1
	c0.8,0,1.5,0,2.3,0c0.1,0,0.1,0,0.2,0c0,0,0,0,0,0.1c0,0,0,0,0,0.1c-0.1,0.1-0.2,0.2-0.3,0.3c-1.1,1.1-2.1,2.2-3.2,3.3
	c-0.1,0.1-0.2,0.2-0.3,0.3c0,0,0,0.1,0,0.2c0.1,0.1,0.2,0.2,0.2,0.4c0.9,1.5,1.9,2.9,2.8,4.4c0.3,0.4,0.6,0.9,0.8,1.3
	c0,0.1,0.1,0.1,0.1,0.2c0,0,0,0.1-0.1,0.1s-0.1,0-0.2,0c-0.7,0-1.5,0-2.2,0C29.7,51.8,29.6,51.8,29.5,51.8z"/>
<path class="st0" d="M39.6,44.9c0-1.1,0-2.2,0-3.3c0-0.4,0-0.4,0.4-0.4c0.5,0,0.9,0,1.4,0c0.1,0,0.2,0,0.2,0l0.1,0.1v0.1
	c0,0.1,0,0.2,0,0.3c0,1.7,0,3.4,0,5.1c0,0.3,0,0.7,0,1c0,0.4,0,0.8-0.1,1.3c0,0.3-0.1,0.6-0.2,0.9c-0.2,0.5-0.6,1-1,1.3
	s-0.9,0.5-1.4,0.6C38.7,52,38.4,52,38.1,52c-0.4,0-0.8,0-1.3,0c-0.3,0-0.7-0.1-1-0.2c-0.8-0.2-1.5-0.7-1.9-1.4
	c-0.2-0.3-0.3-0.6-0.4-0.9c-0.1-0.5-0.1-0.9-0.2-1.4c0-0.4,0-0.7,0-1.1c0-1.7,0-3.4,0-5.1c0-0.5,0-0.5,0.5-0.5c0.4,0,0.8,0,1.2,0
	c0.1,0,0.2,0,0.3,0s0.1,0.1,0.1,0.1v0.1c0,0.1,0,0.2,0,0.4c0,1.7,0,3.3,0,5c0,0.5,0,1,0,1.4c0,0.2,0,0.4,0.1,0.6
	c0.1,0.5,0.5,0.9,1,1.1c0.2,0.1,0.4,0.1,0.6,0.2c0.3,0,0.6,0,0.9,0c0.4,0,0.7-0.2,1-0.5c0.2-0.2,0.4-0.5,0.4-0.8
	c0-0.2,0.1-0.5,0.1-0.8c0-0.4,0-0.7,0-1.1C39.6,46.3,39.6,45.6,39.6,44.9L39.6,44.9z"/>
<path class="st0" d="M20.8,48.6c-0.2,0.7-0.5,1.3-0.9,1.9c-0.5,0.6-1.2,1-1.9,1.3c-0.4,0.1-0.8,0.2-1.2,0.2c-0.4,0-0.8,0-1.2-0.1
	c-1.4-0.2-2.4-1-3.1-2.1c-0.3-0.5-0.5-1.1-0.6-1.7c-0.1-0.7-0.2-1.4-0.1-2.1c0-0.5,0.1-1.1,0.3-1.6c0.2-0.8,0.6-1.5,1.2-2
	c0.7-0.6,1.4-1,2.3-1.2c0.5-0.1,1.1-0.1,1.6-0.1c0.6,0,1.2,0.2,1.7,0.5c0.8,0.4,1.4,1,1.7,1.8c0.1,0.2,0.2,0.4,0.2,0.7
	c0,0,0,0.1-0.1,0.1h-0.1c-0.6,0.1-1.2,0.3-1.7,0.4c-0.1,0-0.1,0-0.1-0.1s-0.1-0.2-0.1-0.3c-0.4-1-1.2-1.4-2-1.4
	c-0.2,0-0.5,0-0.7,0.1c-0.8,0.2-1.3,0.6-1.6,1.3c-0.2,0.3-0.3,0.7-0.3,1.1C14,45.9,14,46.4,14,47c0,0.5,0.1,1,0.2,1.4
	c0.1,0.4,0.3,0.8,0.6,1.1c0.4,0.4,1,0.7,1.6,0.7c0.3,0,0.5,0,0.8-0.1c0.5-0.1,0.9-0.4,1.2-0.8c0.2-0.2,0.3-0.5,0.4-0.8
	c0-0.1,0.1-0.3,0.1-0.4C18.9,48,19,48,19,48c0.1,0,0.1,0,0.2,0c0.5,0.2,1,0.3,1.5,0.5C20.7,48.5,20.8,48.5,20.8,48.6z"/>
<path class="st1" d="M223.9,47c-0.1,0.1-0.1,0.2-0.1,0.3c-0.1,0.8-0.3,1.6-0.4,2.5c-0.1,0.6-0.2,1.2-0.3,1.8v0.1
	c0,0.1-0.1,0.1-0.1,0.1h-0.1c-0.3,0-0.7,0-1,0c-0.1,0-0.2-0.1-0.2-0.2c0-0.2,0.1-0.3,0.1-0.5c0.2-0.9,0.3-1.8,0.5-2.7
	c0.1-0.8,0.3-1.7,0.4-2.5c0.1-0.5,0.2-1,0.3-1.6v-0.1c0-0.1,0.1-0.1,0.1-0.1h0.1c0.3,0,0.7,0,1,0c0.1,0,0.2,0,0.2,0.1
	s0.1,0.2,0.1,0.3c0.5,1.5,1,3,1.5,4.5c0,0.1,0.1,0.3,0.1,0.4h0.1l0.1-0.1c0-0.1,0.1-0.2,0.1-0.2c0.5-1.4,0.9-2.8,1.4-4.1
	c0.1-0.2,0.2-0.5,0.2-0.7c0-0.1,0.1-0.1,0.2-0.1l0,0c0.3,0,0.7,0,1,0c0.1,0,0.2,0.1,0.2,0.2v0.1c0,0.2,0.1,0.4,0.1,0.6
	c0.1,0.6,0.2,1.2,0.3,1.7s0.2,1.1,0.3,1.6s0.2,1.1,0.3,1.6s0.2,1,0.3,1.6c0,0.1,0,0.1,0,0.2c0,0.1,0,0.2-0.1,0.2h-0.1
	c-0.3,0-0.6,0-0.9,0c-0.2,0-0.2,0-0.3-0.2c0-0.2-0.1-0.5-0.1-0.7c-0.1-0.6-0.2-1.1-0.3-1.7c-0.1-0.5-0.2-1.1-0.3-1.6
	c0-0.2-0.1-0.3-0.1-0.5c0,0,0,0-0.1,0h-0.1c0,0,0,0,0,0.1s-0.1,0.2-0.1,0.3c-0.4,1.3-0.9,2.6-1.3,4c-0.2,0.5-0.1,0.4-0.6,0.4
	c-0.2,0-0.5,0-0.7,0c-0.1,0-0.1,0-0.1-0.1c-0.1-0.1-0.1-0.2-0.1-0.4c-0.4-1.3-0.9-2.6-1.3-3.9c0-0.1-0.1-0.2-0.1-0.3
	C224,47.1,223.9,47,223.9,47z"/>
<path class="st1" d="M59.5,47.9c0,1.1,0,2.2,0,3.2c0,0.1,0,0.2,0,0.3c0,0.3,0,0.3-0.3,0.3s-0.6,0-0.9,0c-0.1,0-0.2,0-0.2-0.1
	c-0.1-0.1-0.1-0.2-0.2-0.3C57,49.9,56,48.4,55.1,47c-0.1,0-0.1-0.1-0.2-0.2l0,0c0,0,0,0-0.1,0v0.1c0,0.1,0,0.3,0,0.4
	c0,1.3,0,2.6,0,3.9c0,0.1,0,0.3,0,0.4c0,0.1-0.1,0.2-0.2,0.2c-0.3,0-0.5,0-0.8,0c-0.1,0-0.2,0-0.3,0l-0.1-0.1c0-0.1,0-0.1,0-0.2
	c0-0.1,0-0.2,0-0.3c0-2.2,0-4.4,0-6.6c0-0.1,0-0.3,0-0.4c0-0.1,0.1-0.2,0.2-0.2h0.1c0.3,0,0.6,0,0.9,0c0.1,0,0.2,0.1,0.3,0.2
	c0.2,0.2,0.3,0.5,0.5,0.7c0.8,1.3,1.7,2.5,2.5,3.8c0.1,0.1,0.1,0.2,0.2,0.3h0.1l0.1-0.1c0-0.1,0-0.1,0-0.2c0-0.1,0-0.2,0-0.4
	c0-1.3,0-2.6,0-3.9c0-0.1,0-0.3,0-0.4c0-0.1,0.1-0.1,0.1-0.1h0.1c0.3,0,0.6,0,0.9,0h0.1c0.1,0,0.2,0.1,0.2,0.2c0,0.1,0,0.2,0,0.3
	c0,0.3,0,0.6,0,0.9C59.5,46.2,59.5,47.1,59.5,47.9z"/>
<path class="st1" d="M134.8,48.9c0,0.8,0,1.5,0,2.3c0,0.4-0.1,0.8-0.2,1.1c-0.2,0.7-0.6,1.1-1.2,1.4c-0.4,0.2-0.7,0.3-1.1,0.3
	c-0.3,0-0.6,0-0.9,0c-0.4,0-0.8-0.1-1.2-0.3c-0.5-0.3-0.9-0.7-1.2-1.3c0-0.1,0-0.1,0.1-0.1h0.1c0.1,0,0.3,0,0.4,0c0.2,0,0.5,0,0.7,0
	c0.1,0,0.2,0,0.3,0.1c0.5,0.4,1,0.4,1.6,0.4c0.2,0,0.3-0.1,0.5-0.1c0.1,0,0.2-0.1,0.4-0.2c0.2-0.1,0.4-0.3,0.4-0.6
	c0-0.2,0.1-0.4,0.1-0.6l-0.1-0.1c0,0-0.1,0-0.1,0.1c-0.1,0-0.1,0.1-0.2,0.1c-0.4,0.3-0.8,0.4-1.2,0.4c-1.4,0.1-2.5-0.8-2.9-2.1
	c-0.1-0.2-0.1-0.4-0.1-0.7c0-0.4,0-0.7,0.1-1.1c0.3-0.9,0.8-1.5,1.7-1.8c0.8-0.3,1.5-0.2,2.2,0.3c0.1,0.1,0.2,0.2,0.3,0.2
	c0,0,0.1,0,0.1-0.1s0-0.2,0-0.3s0.1-0.1,0.1-0.2h0.1c0.3,0,0.6,0,0.9,0c0.1,0,0.1,0,0.2,0c0,0,0.1,0,0.1,0.1s0,0.2,0,0.3
	C134.8,47.3,134.8,48.1,134.8,48.9L134.8,48.9z M133.5,48.9c0-0.1,0-0.2,0-0.2c-0.1-0.7-0.4-1.1-1-1.3c-0.2-0.1-0.5-0.1-0.7-0.1
	c-0.4,0-0.7,0.2-0.9,0.4c-0.5,0.4-0.6,1-0.5,1.6c0,0.3,0.2,0.6,0.4,0.8c0.4,0.5,0.9,0.6,1.5,0.6c0.6-0.1,1.1-0.5,1.3-1.1
	C133.5,49.2,133.5,49.1,133.5,48.9z"/>
<path class="st1" d="M164.8,48.9c0,0.8,0,1.5,0,2.3c0,0.4-0.1,0.8-0.2,1.1c-0.2,0.7-0.6,1.1-1.2,1.4c-0.4,0.2-0.8,0.3-1.2,0.3
	c-0.3,0-0.6,0-0.9,0c-0.4,0-0.7-0.1-1.1-0.2c-0.6-0.2-1-0.6-1.3-1.2c0-0.1,0-0.1-0.1-0.2c0,0,0,0,0-0.1c0,0,0,0,0.1,0
	c0.4,0,0.8,0,1.2,0c0.1,0,0.2,0,0.2,0.1c0.5,0.4,1,0.4,1.6,0.4c0.1,0,0.2,0,0.3-0.1c0.2,0,0.4-0.1,0.5-0.2c0.2-0.1,0.3-0.3,0.4-0.5
	c0.1-0.2,0.1-0.4,0.1-0.6c0,0,0,0,0-0.1c0,0-0.1-0.1-0.1,0c-0.1,0.1-0.2,0.1-0.2,0.2c-0.4,0.3-0.9,0.4-1.4,0.5c-0.3,0-0.6,0-0.9-0.1
	c-0.9-0.3-1.5-1-1.8-1.9c-0.1-0.2-0.1-0.4-0.1-0.7c0-0.4,0-0.8,0.1-1.1c0.3-0.9,0.8-1.6,1.8-1.9c0.8-0.2,1.5-0.1,2.2,0.3
	c0.1,0.1,0.1,0.1,0.2,0.2c0.1,0,0.1,0.1,0.2,0.1c0.1,0,0.1-0.1,0.1-0.2c0-0.1,0-0.1,0-0.2l0.1-0.1l0,0c0.3,0,0.7,0,1,0
	c0.1,0,0.1,0.1,0.1,0.1c0,0.1,0,0.2,0,0.4C164.8,47.4,164.8,48.1,164.8,48.9L164.8,48.9z M163.5,48.9c0-0.1,0-0.2,0-0.3
	c-0.1-0.6-0.4-1-1-1.3c-0.2-0.1-0.5-0.1-0.7-0.1c-0.5,0-0.9,0.2-1.2,0.6c-0.2,0.2-0.3,0.5-0.3,0.8c-0.1,0.5,0,0.9,0.3,1.3
	c0.4,0.5,1,0.7,1.6,0.6c0.6-0.1,1-0.5,1.2-1.1C163.5,49.3,163.5,49.1,163.5,48.9z"/>
<path class="st1" d="M256.7,48.9c0-0.8,0-1.5,0-2.3c0-0.1,0-0.2,0-0.4c0-0.1,0.1-0.1,0.1-0.2h0.1c0.3,0,0.6,0,0.9,0h0.1
	c0.1,0,0.1,0.1,0.1,0.1c0,0.1,0,0.3,0,0.4l0.1,0.1c0.1-0.1,0.1-0.1,0.2-0.2c0.4-0.4,1-0.5,1.5-0.5c0.6,0,1.1,0.2,1.4,0.7
	c0.1,0.1,0.1,0.2,0.2,0.3h0.1c0.1-0.1,0.1-0.2,0.2-0.2c0.5-0.5,1.1-0.7,1.8-0.7c0.4,0,0.9,0.2,1.2,0.5c0.3,0.2,0.4,0.5,0.5,0.8
	c0,0.2,0.1,0.4,0.1,0.6c0,0.2,0,0.3,0,0.5c0,1,0,2,0,2.9c0,0.1,0,0.2,0,0.3s-0.1,0.1-0.1,0.1c-0.4,0-0.7,0-1.1,0l-0.1-0.1
	c0-0.1,0-0.2,0-0.4c0-0.8,0-1.5,0-2.3c0-0.3,0-0.6-0.1-0.9c0-0.1-0.1-0.3-0.1-0.4c-0.1-0.2-0.3-0.4-0.5-0.5c-0.4-0.1-1,0-1.3,0.5
	c-0.1,0.2-0.2,0.3-0.2,0.5s-0.1,0.4-0.1,0.7s0,0.6,0,0.9c0,0.5,0,1.1,0,1.6c0,0.1,0,0.2,0,0.3l-0.1,0.1l0,0c-0.4,0-0.7,0-1.1,0
	c-0.1,0-0.1-0.1-0.1-0.1c0-0.1,0-0.2,0-0.3c0-0.7,0-1.5,0-2.2c0-0.2,0-0.5,0-0.7s0-0.3-0.1-0.5c0-0.1-0.1-0.2-0.1-0.3
	c-0.2-0.3-0.5-0.5-0.9-0.5s-0.7,0.2-0.9,0.5c-0.1,0.2-0.2,0.4-0.2,0.6c0,0.3-0.1,0.6-0.1,0.9c0,0.7,0,1.4,0,2.1c0,0.1,0,0.2,0,0.4
	l-0.1,0.1c-0.1,0-0.3,0-0.4,0c-0.2,0-0.4,0-0.6,0c-0.1,0-0.2-0.1-0.2-0.2c0-0.1,0-0.2,0-0.4C256.7,50.5,256.7,49.7,256.7,48.9z"/>
<path class="st1" d="M143.4,51.8c-0.1-0.1-0.2-0.2-0.2-0.3c-0.6-0.9-1.3-1.9-1.9-2.8c-0.1-0.1-0.1-0.2-0.2-0.2H141c0,0,0,0,0,0.1
	s0,0.2,0,0.4c0,0.8,0,1.6,0,2.4c0,0.1,0,0.2,0,0.4l-0.1,0.1l0,0c-0.4,0-0.7,0-1.1,0c-0.1,0-0.1-0.1-0.1-0.1c0-0.1,0-0.1,0-0.2
	c0-0.2,0-0.5,0-0.7c0-2.1,0-4.1,0-6.2c0-0.1,0-0.3,0-0.4l0.1-0.1h0.1c0.3,0,0.7,0,1,0c0.1,0,0.2,0.1,0.2,0.2c0,0.1,0,0.2,0,0.3
	c0,0.6,0,1.2,0,1.8c0,0.3,0,0.3,0.1,0.3s0.2-0.1,0.2-0.2c0.5-0.6,1-1.3,1.5-1.9c0.1-0.1,0.2-0.2,0.2-0.3c0.1-0.1,0.2-0.2,0.3-0.2
	c0.4,0,0.9,0,1.3,0c0,0,0.1,0,0.1,0.1v0.1c-0.3,0.3-0.5,0.6-0.8,1c-0.5,0.7-1.1,1.4-1.6,2c-0.2,0.3-0.2,0.3,0,0.6
	c0.8,1.2,1.6,2.4,2.4,3.5c0.1,0.1,0.1,0.2,0.2,0.3c0,0,0,0.1-0.1,0.1c-0.3,0-0.7,0-1,0C143.8,51.8,143.6,51.8,143.4,51.8z"/>
<path class="st1" d="M106.9,49.6C106.9,49.6,107,49.6,106.9,49.6c0.3,0.4,0.6,0.6,0.8,0.9c0.1,0.1,0.1,0.1,0,0.2
	c-0.7,0.7-1.5,1.2-2.5,1.3c-0.4,0-0.7,0-1.1,0c-0.6,0-1.2-0.2-1.7-0.5c-1-0.6-1.7-1.5-1.9-2.7c-0.1-0.5-0.1-0.9-0.1-1.4
	c0.2-1.3,0.8-2.3,1.9-2.9c0.8-0.5,1.6-0.7,2.5-0.6c1.1,0.1,2.1,0.6,2.9,1.4c0,0,0,0,0,0.1v0.1c-0.2,0.2-0.5,0.5-0.7,0.7
	c-0.1,0.1-0.1,0.1-0.2,0.2c-0.1-0.1-0.2-0.2-0.3-0.3c-0.4-0.3-0.8-0.6-1.4-0.7c-0.8-0.2-1.5-0.1-2.2,0.3c-0.8,0.5-1.2,1.3-1.2,2.2
	c0,0.3,0,0.6,0.1,0.9c0.3,0.9,0.9,1.5,1.8,1.8c0.6,0.2,1.1,0.1,1.7,0c0.3-0.1,0.6-0.3,0.9-0.5c0.1-0.1,0.2-0.2,0.4-0.3
	C106.8,49.6,106.8,49.6,106.9,49.6z"/>
<path class="st1" d="M174.7,47c0,0.8,0,1.7,0,2.5c0,0.2,0,0.4-0.1,0.6c0,0.1,0,0.2-0.1,0.3c-0.4,0.9-1,1.4-2,1.5c-0.2,0-0.5,0-0.7,0
	c-0.6,0-1.2-0.3-1.6-0.7c-0.2-0.2-0.4-0.5-0.5-0.9c-0.1-0.3-0.1-0.5-0.1-0.8s0-0.6,0-1c0-1.3,0-2.7,0-4c0-0.1,0-0.2,0-0.3
	s0.1-0.2,0.2-0.2c0.4,0,0.7,0,1.1,0c0.1,0,0.2,0.1,0.2,0.2c0,0.1,0,0.2,0,0.4c0,1.4,0,2.9,0,4.3c0,0.2,0,0.4,0,0.6
	c0,0.1,0,0.3,0.1,0.4c0.1,0.3,0.3,0.5,0.5,0.6c0.4,0.2,0.8,0.2,1.2,0c0.3-0.1,0.5-0.4,0.6-0.7c0-0.1,0-0.2,0.1-0.4
	c0-0.2,0-0.5,0-0.7c0-1.4,0-2.8,0-4.2c0-0.5,0-0.5,0.5-0.5c0.2,0,0.4,0,0.6,0c0.1,0,0.1,0,0.2,0l0.1,0.1c0,0.1,0,0.2,0,0.4
	C174.7,45.4,174.7,46.2,174.7,47L174.7,47z"/>
<path class="st0" d="M24.2,13.2c0,1.5-1.1,2.7-2.7,2.7c-1.5,0-2.7-1.2-2.7-2.7s1.2-2.7,2.7-2.7S24.2,11.7,24.2,13.2z"/>
<path class="st1" d="M66.9,49c0,0.8,0,1.5,0,2.3c0,0.1,0,0.2,0,0.4c0,0.1-0.1,0.2-0.1,0.2c-0.4,0-0.7,0-1.1,0
	c-0.1,0-0.1-0.1-0.1-0.2c0-0.1,0-0.2,0-0.3s-0.1-0.1-0.2-0.1c-0.1,0.1-0.1,0.1-0.2,0.2c-0.1,0.1-0.2,0.2-0.4,0.2
	c-0.4,0.2-0.9,0.3-1.4,0.2c-1.2-0.1-2-1.1-2.3-1.9c-0.2-0.5-0.2-1.1-0.1-1.6c0-0.2,0.1-0.4,0.1-0.5c0.2-0.7,0.6-1.2,1.2-1.5
	c0.8-0.5,1.9-0.5,2.7,0.1c0.1,0.1,0.2,0.1,0.3,0.2h0.1c0-0.1,0-0.2,0-0.2c0-0.1,0-0.1,0-0.2c0,0,0,0,0.1-0.1h0.1c0.4,0,0.7,0,1.1,0
	c0.1,0,0.1,0.1,0.1,0.1c0,0.1,0,0.2,0,0.4C66.9,47.4,66.9,48.2,66.9,49z M65.6,48.9c0-0.1,0-0.3-0.1-0.4c-0.2-0.7-0.6-1.1-1.3-1.2
	c-0.8-0.2-1.6,0.3-1.8,1.1c-0.1,0.3-0.1,0.7-0.1,1c0.1,0.7,0.7,1.3,1.4,1.4c0.8,0.1,1.5-0.4,1.7-1C65.5,49.5,65.6,49.2,65.6,48.9z"
	/>
<path class="st1" d="M93.4,48.9c0,0.8,0,1.6,0,2.5c0,0.4,0,0.4-0.4,0.4c-0.3,0-0.5,0-0.8,0c-0.1,0-0.1,0-0.2,0c0,0,0,0-0.1-0.1v-0.1
	c0-0.1,0-0.2-0.1-0.3c-0.1,0-0.2,0.1-0.3,0.2c-0.2,0.1-0.4,0.3-0.7,0.4c-0.8,0.3-1.6,0.2-2.3-0.4c-0.5-0.4-0.9-0.9-1.1-1.6
	c-0.1-0.4-0.2-0.8-0.1-1.2c0-0.2,0-0.4,0.1-0.6c0.2-0.6,0.5-1.1,0.9-1.4c0.9-0.7,2.1-0.8,3-0.1c0,0,0,0,0.1,0
	c0.1,0.1,0.2,0.2,0.3,0.2c0.1-0.1,0-0.2,0.1-0.3v-0.1c0,0,0-0.1,0.1-0.1H92c0.3,0,0.7,0,1,0l0,0c0.1,0,0.2,0.1,0.2,0.1
	c0,0.1,0,0.2,0,0.3C93.4,47.4,93.4,48.2,93.4,48.9z M92.1,48.9c0-0.2,0-0.4-0.1-0.6c-0.2-0.6-0.8-1.2-1.6-1.1
	c-0.8,0-1.3,0.5-1.5,1.1c-0.1,0.4-0.1,0.9,0,1.3c0.3,0.8,1.1,1.3,2,1c0.5-0.2,0.8-0.5,1-1C92.1,49.4,92.1,49.1,92.1,48.9z"/>
<path class="st1" d="M246.6,49.3c-0.6,0-1.1,0-1.7,0c-0.1,0-0.2,0-0.3,0c-0.3,0-0.4,0.1-0.3,0.3c0.2,0.6,0.7,1,1.4,1.1
	c0.4,0,0.9,0,1.3-0.3c0.1,0,0.2-0.1,0.2-0.2c0.1-0.1,0.2-0.1,0.3,0c0.3,0.1,0.6,0.3,0.8,0.4c0.1,0,0.1,0.1,0.1,0.2
	c-0.3,0.4-0.7,0.7-1.1,0.9c-0.6,0.2-1.1,0.3-1.7,0.2c-0.3,0-0.6-0.1-0.8-0.2c-0.9-0.4-1.5-1-1.7-2c-0.1-0.6-0.1-1.2,0.1-1.8
	c0.3-0.9,1-1.6,1.9-1.9c0.4-0.1,0.9-0.2,1.3-0.1c0.2,0,0.4,0.1,0.7,0.2c0.9,0.4,1.5,1,1.8,2c0.1,0.3,0.1,0.7,0.1,1.1
	c0,0.1-0.1,0.1-0.2,0.2c-0.1,0-0.2,0-0.3,0C247.8,49.3,247.2,49.3,246.6,49.3z M245.9,48.3c0.4,0,0.7,0,1.1,0c0.1,0,0.2,0,0.3,0
	s0.1-0.1,0.1-0.2V48c-0.2-0.3-0.4-0.6-0.8-0.7c-0.5-0.2-0.9-0.2-1.4,0c-0.4,0.2-0.7,0.4-0.9,0.8v0.1c0,0,0,0.1,0.1,0.1s0.2,0,0.3,0
	C245.1,48.3,245.5,48.3,245.9,48.3z"/>
<path class="st1" d="M119,49.3c-0.6,0-1.2,0-1.9,0c-0.1,0-0.2,0-0.3,0c-0.1,0-0.1,0.1-0.1,0.1c0.2,0.7,0.6,1.1,1.2,1.2
	c0.4,0.1,0.8,0.1,1.2-0.1c0.2-0.1,0.4-0.2,0.5-0.3s0.2-0.1,0.3,0c0.3,0.1,0.6,0.3,0.9,0.4c0.1,0,0.1,0.1,0,0.2c-0.4,0.6-1,0.9-1.7,1
	c-0.2,0-0.3,0.1-0.5,0.1c-0.5,0-1,0-1.4-0.2c-0.9-0.4-1.5-1-1.7-2c-0.1-0.6-0.1-1.2,0.1-1.8c0.3-0.9,1-1.5,1.9-1.8
	c0.4-0.1,0.9-0.2,1.3-0.1c0.2,0,0.4,0.1,0.7,0.2c0.9,0.4,1.5,1,1.8,2c0.1,0.3,0.1,0.7,0.1,1c0,0.1-0.1,0.2-0.2,0.2s-0.2,0-0.3,0
	C120.2,49.3,119.6,49.3,119,49.3z M118.4,48.3L118.4,48.3c0.4,0,0.8,0,1.2,0c0.1,0,0.2,0,0.3,0c0.1,0,0.1-0.1,0.1-0.1s0-0.1-0.1-0.1
	c-0.2-0.3-0.4-0.5-0.7-0.7c-0.4-0.2-0.8-0.2-1.2-0.1c-0.5,0.1-0.9,0.4-1.1,0.9v0.1v0.1c0.1,0,0.1,0,0.2,0
	C117.5,48.3,117.9,48.3,118.4,48.3z"/>
<path class="st1" d="M195,49.3c-0.6,0-1.2,0-1.8,0c-0.1,0-0.2,0-0.4,0l-0.1,0.1v0.1c0.2,0.6,0.6,1,1.2,1.1c0.3,0.1,0.7,0.1,1-0.1
	c0.2-0.1,0.4-0.2,0.5-0.3c0.1,0,0.1-0.1,0.2-0.1h0.1l0,0c0.3,0.1,0.6,0.3,0.9,0.4c0.1,0,0.1,0.1,0,0.2c0,0,0,0,0,0.1
	c-0.4,0.4-0.8,0.8-1.4,0.9c-0.5,0.1-1,0.2-1.5,0.1c-0.2,0-0.4-0.1-0.7-0.1c-1-0.4-1.6-1.1-1.8-2.1c-0.1-0.6-0.1-1.2,0.1-1.8
	c0.3-0.9,1-1.5,1.9-1.7c0.5-0.1,0.9-0.2,1.4-0.1c0.2,0,0.3,0.1,0.5,0.1c1.1,0.3,1.7,1.1,2,2.1c0.1,0.3,0.1,0.6,0.1,0.9
	c0,0.1-0.1,0.2-0.2,0.2c-0.1,0-0.2,0-0.3,0C196.2,49.3,195.6,49.3,195,49.3z M194.3,48.3c0.4,0,0.8,0,1.2,0c0.1,0,0.2,0,0.3,0
	s0.1-0.1,0.1-0.2c-0.1-0.3-0.3-0.5-0.5-0.6c-0.6-0.5-1.5-0.5-2.1,0c-0.2,0.2-0.4,0.4-0.5,0.6c0,0.1,0,0.2,0.1,0.2s0.2,0,0.3,0
	C193.6,48.3,194,48.3,194.3,48.3z"/>
<path class="st1" d="M109.1,47.8c0-1.1,0-2.3,0-3.4c0-0.1,0-0.3,0-0.4c0-0.1,0.1-0.2,0.2-0.2c0.4,0,0.7,0,1.1,0
	c0.1,0,0.1,0.1,0.1,0.1c0,0.1,0,0.2,0,0.4c0,0.6,0,1.2,0,1.8c0,0.1,0,0.2,0,0.4l0.1,0.1c0.1,0,0.2-0.1,0.2-0.1
	c0.2-0.1,0.4-0.2,0.6-0.3c0.4-0.2,0.9-0.2,1.4-0.1c0.7,0.2,1.1,0.6,1.3,1.3c0,0.2,0.1,0.4,0.1,0.5c0,1.2,0,2.4,0,3.7v0.1
	c0,0.1-0.1,0.1-0.2,0.1c-0.3,0-0.7,0-1,0c-0.1,0-0.2-0.1-0.2-0.2c0-0.1,0-0.2,0-0.4c0-0.7,0-1.4,0-2c0-0.4,0-0.7-0.1-1.1
	c0-0.1-0.1-0.3-0.1-0.4c-0.2-0.5-0.7-0.6-1-0.6c-0.4,0-0.7,0.2-0.9,0.6c-0.1,0.2-0.2,0.4-0.2,0.6c0,0.2-0.1,0.5-0.1,0.7
	c0,0.7,0,1.4,0,2.1c0,0.7,0.1,0.6-0.6,0.6c-0.2,0-0.4,0-0.6,0c-0.1,0-0.1-0.1-0.1-0.1c0-0.1,0-0.2,0-0.4c0-0.5,0-1.1,0-1.6
	C109.1,49.1,109.1,48.4,109.1,47.8z"/>
<path class="st1" d="M74,49c0-0.5,0.1-1,0.4-1.5c0.5-0.8,1.2-1.3,2.1-1.5c1.6-0.3,3.2,0.8,3.5,2.4c0.3,1.7-0.7,3.1-2.2,3.5
	c-0.5,0.1-1,0.1-1.5,0c-0.9-0.2-1.9-1.1-2.1-2.3C74,49.4,74,49.2,74,49z M78.6,48.9c0-0.2,0-0.3-0.1-0.5c-0.2-0.9-1.1-1.4-2.1-1.1
	c-0.6,0.2-0.9,0.6-1.1,1.1c-0.1,0.3-0.1,0.7,0,1c0.2,0.6,0.5,1,1.1,1.2c0.2,0.1,0.3,0.1,0.5,0c0.6,0,1-0.3,1.3-0.8
	C78.5,49.6,78.6,49.3,78.6,48.9z"/>
<path class="st1" d="M152.7,48.9c0-0.8,0-1.6,0-2.5c0-0.4,0-0.4,0.4-0.4c0.3,0,0.6,0,0.8,0c0.1,0,0.1,0.1,0.1,0.1v0.1
	c0,0.3,0.1,0.3,0.3,0.1c0.1-0.1,0.3-0.2,0.4-0.3c0.5-0.3,1-0.3,1.5-0.2c0.5,0.2,1,0.5,1.2,1c0.1,0.2,0.1,0.3,0.1,0.5
	c0,0.3,0.1,0.5,0.1,0.8c0,1,0,2,0,3c0,0.1,0,0.2,0,0.4c0,0.1-0.1,0.2-0.1,0.2c-0.4,0-0.7,0-1.1,0c-0.1,0-0.1-0.1-0.1-0.1
	c0-0.1,0-0.2,0-0.4c0-0.7,0-1.4,0-2.1c0-0.2,0-0.4,0-0.6c0-0.2,0-0.4-0.1-0.6c0-0.1,0-0.2-0.1-0.2c-0.2-0.4-0.6-0.6-1-0.5
	c-0.3,0-0.6,0.2-0.8,0.5c-0.2,0.2-0.3,0.5-0.3,0.8s0,0.7,0,1c0,0.6,0,1.1,0,1.7c0,0.1,0,0.2,0,0.3c0,0.2,0,0.3-0.3,0.3s-0.6,0-0.9,0
	c-0.1,0-0.2-0.1-0.2-0.2c0-0.1,0-0.2,0-0.4C152.7,50.5,152.7,49.7,152.7,48.9z"/>
<path class="st1" d="M108.5,12.7c0.1,0,0.3,0,0.4,0s0.2,0,0.3,0.1c0,0,0.1,0,0.1,0.1c0.3,0.2,0.6,0.3,0.9,0.4
	c0.4,0.1,0.7,0.2,1.1,0.2c0.2,0,0.4,0.1,0.5,0.1s0.3,0.1,0.4,0.2c0.3,0.2,0.5,0.5,0.6,0.8c0.1,0.2,0.2,0.5,0.2,0.8s0.1,0.6,0.1,1
	c0,0.1,0,0.1,0,0.2s0,0.1-0.1,0.2c-0.4,0.3-0.8,0.5-1.2,0.7c-0.2,0.1-0.4,0.1-0.5,0.1c-0.6-0.1-1.2-0.3-1.8-0.7
	c-0.3-0.2-0.5-0.4-0.6-0.7c-0.2-0.3-0.4-0.7-0.5-1c-0.1-0.2-0.2-0.3-0.4-0.5c-0.4-0.4-0.5-0.9-0.5-1.4c0-0.1,0-0.2,0-0.2
	c0-0.2,0.1-0.3,0.3-0.3C108.1,12.7,108.3,12.7,108.5,12.7L108.5,12.7z"/>
<path class="st1" d="M122.6,48.9c0-0.8,0-1.6,0-2.3c0-0.1,0-0.2,0-0.4c0-0.1,0.1-0.1,0.1-0.1c0.4,0,0.7,0,1.1,0c0.1,0,0.1,0,0.1,0.1
	s0,0.2,0,0.3s0.1,0.1,0.2,0.1l0.1-0.1c0.1-0.1,0.2-0.1,0.2-0.2c0.3-0.2,0.6-0.3,0.9-0.4c0.7-0.1,1.3,0.1,1.8,0.5
	c0.3,0.3,0.4,0.6,0.5,1c0,0.2,0,0.4,0,0.6c0,1.1,0,2.1,0,3.2c0,0.1,0,0.2,0,0.4l-0.1,0.1h-0.1c-0.3,0-0.6,0-1,0h-0.1
	c0,0,0,0-0.1-0.1c0-0.1,0-0.2,0-0.3c0-0.9,0-1.7,0-2.6c0-0.3,0-0.5-0.1-0.8c0-0.1,0-0.1,0-0.2c-0.2-0.6-0.7-0.8-1.1-0.7
	c-0.3,0.1-0.6,0.3-0.8,0.6c-0.1,0.2-0.2,0.5-0.2,0.7c0,0.3-0.1,0.6-0.1,1c0,0.6,0,1.2,0,1.9c0,0.1,0,0.2,0,0.4
	c0,0.1-0.1,0.1-0.1,0.1h-0.1c-0.3,0-0.6,0-1,0h-0.1l-0.1-0.1c0-0.1,0-0.2,0-0.4C122.6,50.5,122.6,49.7,122.6,48.9z"/>
<path class="st1" d="M176.4,48.9c0-0.8,0-1.6,0-2.4c0-0.5,0-0.5,0.5-0.5c0.3,0,0.5,0,0.8,0c0.1,0,0.1,0.1,0.1,0.1c0,0.1,0,0.2,0,0.3
	s0.1,0.1,0.2,0.1c0.1-0.1,0.2-0.1,0.3-0.2c0.3-0.2,0.6-0.3,0.9-0.4c0.7-0.1,1.2,0,1.7,0.5c0.3,0.3,0.5,0.6,0.5,1c0,0.2,0,0.4,0,0.6
	c0,1.1,0,2.1,0,3.2c0,0.1,0,0.1,0,0.2c0,0.2,0,0.3-0.3,0.3s-0.6,0-0.9,0c-0.2,0-0.2,0-0.2-0.2c0-0.1,0-0.2,0-0.4c0-0.8,0-1.5,0-2.3
	c0-0.3,0-0.6-0.1-0.9c0-0.1,0-0.2-0.1-0.2c-0.2-0.5-0.7-0.7-1.1-0.6c-0.3,0.1-0.6,0.2-0.8,0.5c-0.1,0.2-0.2,0.4-0.3,0.7
	c0,0.3-0.1,0.6-0.1,0.9c0,0.6,0,1.2,0,1.8c0,0.1,0,0.2,0,0.2c0,0.4,0,0.4-0.4,0.4c-0.3,0-0.5,0-0.8,0c-0.1,0-0.2-0.1-0.2-0.2
	c0-0.1,0-0.2,0-0.4C176.4,50.5,176.4,49.7,176.4,48.9z"/>
<path class="st1" d="M81.3,48.9c0-0.8,0-1.5,0-2.3c0-0.1,0-0.2,0-0.4c0-0.1,0.1-0.2,0.1-0.2c0.4,0,0.7,0,1.1,0c0.1,0,0.1,0,0.1,0.1
	s0,0.2,0,0.3l0.1,0.1c0.1,0,0.2-0.1,0.2-0.1c0.2-0.1,0.3-0.2,0.5-0.3c0.5-0.2,1.1-0.3,1.6-0.1c0.7,0.3,1.1,0.8,1.2,1.5
	c0,0.2,0,0.3,0,0.5c0,1.1,0,2.1,0,3.2c0,0.1,0,0.2,0,0.4l-0.1,0.1H86c-0.3,0-0.6,0-0.9,0c-0.2,0-0.2,0-0.2-0.2c0-0.1,0-0.2,0-0.4
	c0-0.8,0-1.5,0-2.3c0-0.3,0-0.6-0.1-0.8c0-0.1,0-0.2-0.1-0.2c-0.2-0.5-0.6-0.7-1.1-0.6c-0.3,0.1-0.6,0.3-0.8,0.5
	c-0.1,0.2-0.2,0.4-0.3,0.7c0,0.3-0.1,0.6-0.1,0.9c0,0.7,0,1.3,0,2c0,0.1,0,0.2,0,0.4l-0.1,0.1h-0.1c-0.3,0-0.6,0-0.9,0
	c-0.2,0-0.2,0-0.2-0.2c0-0.1,0-0.2,0-0.3C81.3,50.5,81.3,49.7,81.3,48.9z"/>
<path class="st1" d="M253.8,47.9c0-0.5,0-1,0-1.5c0-0.1,0-0.2,0-0.3c0,0,0-0.1,0.1-0.1h0.1c0.3,0,0.7,0,1,0h0.1l0.1,0.1
	c0,0,0,0.1,0,0.2c0,0.9,0,1.9,0,2.8c0,0.4,0,0.7-0.1,1.1c-0.2,0.9-0.9,1.5-1.8,1.6c-0.4,0.1-0.8,0.1-1.2,0c-0.6-0.1-1.2-0.4-1.5-1
	c-0.2-0.3-0.3-0.6-0.3-0.9c0-0.3-0.1-0.6-0.1-0.9c0-0.9,0-1.8,0-2.7c0-0.1,0-0.1,0-0.2c0-0.1,0.1-0.1,0.1-0.1c0.4,0,0.7,0,1.1,0
	l0.1,0.1c0,0.1,0,0.2,0,0.3c0,0.7,0,1.5,0,2.2c0,0.3,0,0.5,0,0.8c0,0.2,0,0.3,0.1,0.5c0.1,0.4,0.5,0.7,0.9,0.7c0.1,0,0.2,0,0.2,0
	c0.4,0,0.7-0.2,0.9-0.6c0.1-0.1,0.1-0.3,0.1-0.5s0-0.5,0-0.7C253.8,48.6,253.8,48.3,253.8,47.9L253.8,47.9z"/>
<path class="st1" d="M213.4,46.1c0.1,0.1,0.1,0.2,0.2,0.2c0.3,0.6,0.5,1.2,0.8,1.9c0.2,0.4,0.3,0.8,0.5,1.2c0,0.1,0.1,0.1,0.1,0.2
	h0.1c0,0,0,0,0.1-0.1s0.1-0.2,0.2-0.4c0.4-0.9,0.8-1.8,1.2-2.6c0-0.1,0.1-0.2,0.1-0.3s0.1-0.2,0.2-0.2c0.3,0,0.7,0,1,0h0.1
	c0,0.1,0,0.1,0,0.2c-0.1,0.2-0.2,0.5-0.3,0.7c-1,2.2-2,4.3-3,6.5c0,0.1-0.1,0.1-0.1,0.2c-0.1,0.1-0.1,0.2-0.3,0.2c-0.3,0-0.7,0-1,0
	c-0.1,0-0.2-0.1-0.1-0.2v-0.1c0-0.1,0.1-0.2,0.1-0.3c0.2-0.5,0.5-1,0.7-1.6c0-0.1,0.1-0.2,0.1-0.3s0-0.1,0-0.2
	c-0.1-0.1-0.1-0.3-0.2-0.4c-0.6-1.4-1.2-2.9-1.8-4.3c0-0.1-0.1-0.2-0.1-0.3c-0.1-0.1,0-0.2,0.1-0.2c0.3,0,0.6,0,0.8,0
	C213.2,46.1,213.3,46.1,213.4,46.1z"/>
<path class="st1" d="M149.8,47.9c0-0.5,0-0.9,0-1.4c0-0.1,0-0.2,0-0.3s0.1-0.1,0.1-0.1c0.4,0,0.7,0,1.1,0c0.1,0,0.1,0.1,0.1,0.1
	c0,0.1,0,0.2,0,0.2c0,0.8,0,1.6,0,2.3c0,0.4,0,0.8-0.1,1.2c-0.1,0.8-0.7,1.6-1.6,1.8c-0.4,0.1-0.8,0.1-1.2,0.1c-0.2,0-0.4,0-0.5-0.1
	c-0.5-0.2-0.9-0.5-1.2-0.9c-0.2-0.3-0.3-0.6-0.3-0.9c-0.1-0.4-0.1-0.7-0.1-1.1c0-0.8,0-1.6,0-2.5c0-0.1,0-0.1,0-0.2
	c0-0.1,0.1-0.2,0.1-0.2c0.1,0,0.1,0,0.2,0c0.3,0,0.5,0,0.8,0h0.1l0.1,0.1c0,0.1,0,0.2,0,0.3c0,0.7,0,1.5,0,2.2c0,0.2,0,0.5,0,0.7
	s0,0.3,0.1,0.5c0.1,0.3,0.3,0.5,0.6,0.6s0.6,0.1,0.9,0c0.3-0.2,0.5-0.5,0.6-0.8c0-0.1,0-0.2,0-0.3C149.7,48.9,149.7,48.4,149.8,47.9
	L149.8,47.9z"/>
<path class="st1" d="M236.9,48c0,0.5,0,0.9,0,1.4c0,0.3,0,0.6-0.1,0.8c-0.1,0.7-0.7,1.5-1.8,1.7c-0.1,0-0.3,0-0.4,0.1
	c-0.4,0-0.8,0-1.1-0.1c-0.5-0.2-0.9-0.5-1.1-0.9c-0.2-0.3-0.3-0.7-0.3-1c-0.1-0.5-0.1-1-0.1-1.5c0-0.6,0-1.2,0-1.9
	c0-0.1,0-0.2,0-0.2s0,0,0.1-0.1h0.1c0.4,0,0.7,0,1.1,0l0,0c0.1,0,0.1,0.1,0.1,0.1c0,0.1,0,0.2,0,0.4c0,0.8,0,1.6,0,2.4
	c0,0.3,0,0.6,0.1,0.8c0,0.1,0,0.2,0.1,0.3c0.2,0.4,0.5,0.6,0.9,0.6c0.2,0,0.3,0,0.5,0c0.4-0.1,0.6-0.4,0.7-0.8
	c0.1-0.3,0.1-0.6,0.1-0.8c0-0.8,0-1.6,0-2.4c0-0.1,0-0.2,0-0.4c0-0.1,0.1-0.1,0.1-0.1c0.3,0,0.7,0,1,0c0.1,0,0.2,0.1,0.2,0.1
	c0,0.1,0,0.2,0,0.4C236.8,47,236.8,47.5,236.9,48L236.9,48z"/>
<path class="st1" d="M202.5,50.1c0.1,0.1,0.2,0.1,0.2,0.2c0.2,0.2,0.4,0.3,0.7,0.4c0.2,0.1,0.4,0,0.6-0.1c0.1,0,0.1-0.1,0.2-0.1
	c0.1-0.1,0.2-0.3,0.1-0.5c-0.1-0.1-0.1-0.2-0.2-0.2c-0.1-0.1-0.2-0.2-0.4-0.2c-0.2-0.1-0.4-0.2-0.6-0.3c-0.3-0.2-0.6-0.3-0.8-0.6
	c-0.2-0.2-0.3-0.4-0.4-0.7c-0.2-0.5-0.1-1,0.3-1.4c0.3-0.3,0.6-0.5,1-0.6c0.7-0.2,1.6,0.1,2.2,0.7l0.1,0.1v0.1c0,0,0,0.1-0.1,0.1
	c-0.2,0.2-0.4,0.4-0.6,0.6c-0.1,0.1-0.2,0.1-0.3,0s-0.2-0.1-0.3-0.2c-0.1-0.1-0.3-0.1-0.4-0.2c-0.2,0-0.3,0-0.5,0.1
	s-0.2,0.4-0.1,0.5c0.1,0.1,0.2,0.1,0.3,0.2c0.2,0.1,0.5,0.2,0.7,0.4c0.2,0.1,0.4,0.2,0.6,0.3c0.1,0.1,0.3,0.2,0.4,0.3
	c0.3,0.3,0.4,0.6,0.4,1c0,0.2,0,0.4-0.1,0.6c-0.2,0.5-0.5,0.8-0.9,1s-0.8,0.3-1.3,0.2c-0.1,0-0.3,0-0.4-0.1
	c-0.5-0.1-0.9-0.4-1.3-0.8c0-0.1-0.1-0.1,0-0.2c0.2-0.2,0.4-0.5,0.7-0.7C202.4,50.1,202.4,50.1,202.5,50.1z"/>
<path class="st1" d="M238.8,50.1c0.1,0.1,0.2,0.1,0.2,0.2c0.2,0.2,0.4,0.3,0.7,0.4c0.2,0.1,0.4,0.1,0.6,0c0.1,0,0.1-0.1,0.2-0.1
	c0.1-0.2,0.2-0.3,0-0.5c-0.1-0.1-0.2-0.2-0.3-0.3s-0.3-0.1-0.4-0.2c-0.2-0.1-0.4-0.2-0.6-0.3c-0.3-0.1-0.5-0.3-0.7-0.5
	s-0.3-0.4-0.4-0.7c-0.1-0.5,0-0.9,0.2-1.3c0.2-0.3,0.5-0.5,0.9-0.6c0.9-0.3,1.9,0.1,2.4,0.7c0,0.1,0,0.1,0,0.2
	c-0.2,0.2-0.4,0.5-0.7,0.7c0,0-0.1,0-0.2,0c-0.1-0.1-0.2-0.1-0.3-0.2c-0.1-0.1-0.3-0.2-0.4-0.2c-0.2-0.1-0.4,0-0.5,0.1
	c0,0-0.1,0-0.1,0.1c-0.1,0.1-0.1,0.3,0,0.4c0.1,0.1,0.2,0.2,0.3,0.2c0.2,0.1,0.4,0.2,0.6,0.3c0.2,0.1,0.4,0.2,0.6,0.3
	c0.1,0.1,0.3,0.2,0.4,0.3c0.3,0.3,0.5,0.6,0.5,1.1c0,0.2,0,0.5-0.1,0.7c-0.1,0.3-0.3,0.6-0.6,0.8c-0.2,0.2-0.4,0.3-0.7,0.3
	c-0.6,0.2-1.1,0.1-1.6-0.1c-0.4-0.1-0.7-0.4-1-0.7v-0.1C238.2,50.6,238.5,50.4,238.8,50.1L238.8,50.1z"/>
<path class="st1" d="M185,46.1c0.4,0,0.9,0,1.2,0c0.1,0.1,0.1,0.1,0.2,0.2c0.2,0.5,0.5,1.1,0.7,1.6c0.2,0.4,0.4,0.9,0.5,1.3
	c0,0.1,0,0.1,0.1,0.2h0.1c0-0.1,0.1-0.1,0.1-0.2c0.2-0.4,0.4-0.9,0.6-1.3c0.2-0.5,0.4-0.9,0.6-1.4c0-0.1,0.1-0.2,0.1-0.3
	s0.1-0.1,0.2-0.1c0.4,0,0.7,0,1.1,0h0.1c0,0,0,0,0,0.1s-0.1,0.2-0.1,0.3c-0.7,1.6-1.4,3.3-2.1,4.9c0,0.1-0.1,0.2-0.1,0.3l-0.1,0.1
	c-0.2,0-0.3,0-0.5,0s-0.3-0.1-0.4-0.2c-0.2-0.5-0.4-1-0.6-1.5c-0.5-1.2-1-2.3-1.5-3.5c0-0.1-0.1-0.2-0.1-0.3
	C185,46.2,185,46.2,185,46.1z"/>
<path class="st1" d="M209.6,49.5c0-0.6,0-1.1,0-1.7c0-0.1,0-0.2,0-0.3c0-0.2,0-0.3-0.3-0.3c-0.1,0-0.2,0-0.3,0s-0.1-0.1-0.1-0.1
	c0-0.3,0-0.6,0-0.9l0.1-0.1c0.1,0,0.2,0,0.4,0c0.1,0,0.1,0,0.2,0l0.1-0.1c0-0.1,0-0.2,0-0.2c0-0.5,0-0.9,0-1.4c0-0.1,0-0.2,0-0.3
	l0.1-0.1l0,0c0.4,0,0.7,0,1.1,0c0.1,0,0.1,0.1,0.1,0.1c0,0.1,0,0.2,0,0.2c0,0.4,0,0.8,0,1.2c0,0.1,0,0.2,0,0.3
	c0,0.2,0.1,0.2,0.2,0.2c0.2,0,0.3,0,0.5,0c0.1,0,0.1,0.1,0.1,0.1c0,0.3,0,0.6,0,0.9c0,0.1-0.1,0.1-0.2,0.1c-0.1,0-0.3,0-0.4,0
	c-0.2,0-0.3,0-0.3,0.3c0,0.1,0,0.2,0,0.3c0,1.1,0,2.3,0,3.4c0,0.5,0,0.5-0.5,0.5c-0.2,0-0.5,0-0.7,0c-0.1,0-0.2-0.1-0.2-0.2
	c0-0.1,0-0.2,0-0.3C209.6,50.7,209.6,50.1,209.6,49.5z"/>
<path class="st1" d="M70,49.6c0,0.6,0,1.2,0,1.8c0,0.4,0,0.4-0.4,0.4c-0.3,0-0.5,0-0.8,0c-0.1,0-0.2-0.1-0.2-0.2c0-0.1,0-0.3,0-0.4
	c0-1.1,0-2.2,0-3.3c0-0.1,0-0.3,0-0.4c0-0.1-0.1-0.2-0.2-0.2s-0.2,0-0.4,0c-0.1,0-0.2-0.1-0.2-0.2c0-0.3,0-0.6,0-0.8
	c0-0.1,0.1-0.2,0.2-0.2s0.3,0,0.4,0s0.1-0.1,0.2-0.2c0-0.1,0-0.2,0-0.3c0-0.4,0-0.8,0-1.2c0-0.1,0-0.2,0-0.3c0,0,0-0.1,0.1-0.1l0,0
	c0.4,0,0.7,0,1.1,0c0.1,0,0.1,0.1,0.1,0.1c0,0.1,0,0.2,0,0.3c0,0.4,0,0.8,0,1.2c0,0.1,0,0.2,0,0.3s0.1,0.2,0.2,0.2s0.2,0,0.4,0
	c0.1,0,0.1,0,0.2,0c0,0,0.1,0,0.1,0.1l0,0c0,0.3,0,0.6,0,0.9c0,0.1-0.1,0.1-0.1,0.1c-0.1,0-0.2,0-0.3,0c-0.1,0-0.2,0-0.2,0
	c-0.1,0-0.2,0.1-0.2,0.2c0,0.1,0,0.2,0,0.4C70,48.4,70,49,70,49.6L70,49.6z"/>
<path class="st1" d="M94.8,47.8c0-1.1,0-2.3,0-3.4c0-0.1,0-0.3,0-0.4c0-0.1,0.1-0.1,0.1-0.1c0.4,0,0.7,0,1.1,0
	c0.1,0,0.1,0.1,0.1,0.1c0,0.1,0,0.1,0,0.2c0,0.1,0,0.2,0,0.3c0,2.2,0,4.5,0,6.7c0,0.1,0,0.3,0,0.4c0,0.1-0.1,0.2-0.1,0.2
	c-0.4,0-0.7,0-1.1,0c-0.1,0-0.1-0.1-0.1-0.1c0-0.1,0-0.3,0-0.4C94.8,50.1,94.8,48.9,94.8,47.8z"/>
<path class="st1" d="M211.9,9.7c0.2,0.1,0.3,0.2,0.5,0.3c0.3,0.2,0.5,0.4,0.8,0.5c0.4,0.2,0.6,0.6,0.6,1c0,0.3,0,0.5,0,0.8
	c0,0.1-0.1,0.2-0.1,0.2c-0.2,0.2-0.4,0.3-0.7,0.5c-0.2,0.1-0.4,0.2-0.6,0.2c-0.4,0.1-0.7,0-0.9-0.2c-0.1-0.1-0.2-0.2-0.2-0.3
	c-0.1-0.1-0.1-0.2-0.2-0.3c-0.2-0.4-0.5-0.7-0.9-0.9c-0.1-0.1-0.2-0.1-0.3-0.2c-0.2-0.2-0.3-0.4-0.2-0.7c0.1-0.2,0.1-0.4,0.3-0.6
	c0.1-0.1,0.2-0.2,0.3-0.3s0.2-0.1,0.3-0.1c0.2,0.1,0.4,0,0.6,0.1C211.4,9.7,211.7,9.7,211.9,9.7z"/>
<path class="st1" d="M199.6,50c0,0.5,0,1,0,1.4c0,0.1,0,0.2,0,0.2l-0.1,0.1l0,0c-0.4,0-0.7,0-1.1,0c-0.1,0-0.1-0.1-0.1-0.1
	c0-0.1,0-0.2,0-0.2c0-1.7,0-3.3,0-5c0-0.1,0-0.1,0-0.2c0-0.2,0.1-0.2,0.2-0.2c0.2,0,0.4,0,0.6,0c0.4,0,0.4,0,0.4,0.4
	c0,0.1,0,0.1,0,0.2c0,0,0,0,0.1,0h0.1l0.1-0.1c0-0.1,0.1-0.1,0.1-0.2c0.2-0.2,0.5-0.4,0.8-0.4c0.2,0,0.4,0,0.6,0.1l0.1,0.1
	c-0.1,0.3-0.2,0.6-0.3,0.9l-0.1,0.1c-0.1,0-0.2,0-0.3,0c-0.2,0-0.3,0.1-0.5,0.2c-0.2,0.2-0.2,0.3-0.3,0.6c0,0.2-0.1,0.4-0.1,0.7
	C199.6,49,199.6,49.5,199.6,50L199.6,50z"/>
<path class="st1" d="M208.1,49c0,0.8,0,1.6,0,2.4c0,0.1,0,0.2,0,0.3c0,0,0,0.1-0.1,0.1h-0.1c-0.3,0-0.7,0-1,0
	c-0.1,0-0.2-0.1-0.2-0.2c0-0.1,0-0.1,0-0.2c0-1.6,0-3.3,0-4.9c0-0.4,0-0.4,0.4-0.4c0.3,0,0.6,0,0.9,0c0.1,0,0.1,0.1,0.1,0.1
	c0,0.1,0,0.2,0,0.4C208.1,47.4,208.1,48.2,208.1,49z"/>
<path class="st1" d="M72.9,49c0,0.8,0,1.6,0,2.3c0,0.1,0,0.2,0,0.4c0,0.1-0.1,0.1-0.1,0.1c-0.4,0-0.7,0-1.1,0l-0.1-0.1
	c0-0.1,0-0.1,0-0.2c0-0.1,0-0.2,0-0.3c0-1.5,0-3,0-4.5c0-0.1,0-0.3,0-0.4c0-0.1,0.1-0.1,0.2-0.1c0.3,0,0.7,0,1,0
	c0.1,0,0.2,0,0.2,0.2c0,0.1,0,0.2,0,0.4C72.9,47.4,72.9,48.2,72.9,49z"/>
<path class="st1" d="M182.8,48.9c0-0.8,0-1.6,0-2.3c0-0.1,0-0.2,0-0.4l0.1-0.1h0.1c0.3,0,0.6,0,1,0c0.1,0,0.2,0.1,0.2,0.2
	c0,0.1,0,0.2,0,0.4c0,0.7,0,1.5,0,2.2c0,0.8,0,1.6,0,2.4c0,0.1,0,0.2,0,0.4c0,0.1-0.1,0.2-0.2,0.2c-0.3,0-0.7,0-1,0
	c-0.1,0-0.2-0.1-0.2-0.2c0-0.1,0-0.2,0-0.4C182.8,50.5,182.8,49.7,182.8,48.9z"/>
<path class="st1" d="M72.2,45.5c-0.5,0-0.9-0.4-0.9-0.9c0-0.4,0.4-0.9,0.9-0.9c0.4,0,0.9,0.3,0.9,0.9S72.6,45.5,72.2,45.5z"/>
<path class="st1" d="M183.4,45.5c-0.5,0-0.9-0.4-0.9-0.9c0-0.6,0.5-0.9,0.9-0.9c0.5,0,0.9,0.5,0.9,0.9
	C184.3,45.1,183.9,45.5,183.4,45.5z"/>
<path class="st1" d="M206.5,44.7c0-0.6,0.4-1,0.9-1c0.4,0,0.8,0.4,0.8,0.8c0,0.2,0,0.4-0.2,0.6c-0.2,0.3-0.5,0.4-0.9,0.3
	C206.8,45.3,206.5,45.1,206.5,44.7C206.5,44.8,206.5,44.7,206.5,44.7z"/>
</svg>
