<svg id="圖層_1" data-name="圖層 1" xmlns="http://www.w3.org/2000/svg" viewBox="0 0 595.28 841.89"><defs><style>.cls-1{fill:#4dcecb;}.cls-2{opacity:0.8;}.cls-3{fill:#fff;}.cls-4{fill:#008f89;}</style></defs><path class="cls-1" d="M568.32,98c-1.14-15.79-15.66-28.65-31.49-28.65H185.94c-.85,0-1.7,0-2.55.1a85.4,85.4,0,0,0-53.83,25.65,80.46,80.46,0,0,0-22.33,47.16,12.53,12.53,0,0,1-7.11,10l-.41.2c-27.36,13-48.08,36.55-56.84,64.48-8.61,27.46-5.19,58.13,9.37,84.14A112.55,112.55,0,0,0,122.76,355c.52.14,1,.26,1.57.39a9.3,9.3,0,0,1,7.16,9h0a6.21,6.21,0,0,1-4.14,5.84,87.26,87.26,0,0,0-57.88,76.32c-3.82,59.66,52.92,107.63,114.6,88.29a83.91,83.91,0,0,0,55-55.42c15-48.86-12.24-94.45-53.9-109.17a6.22,6.22,0,0,1-4.16-5.84h0a10.41,10.41,0,0,1,7.85-10.12,190.76,190.76,0,0,0,39.49-14.94,6.16,6.16,0,0,1,8.8,4.29,116.38,116.38,0,0,0,119.26,92.57c53-2.44,97-40.89,108.06-91.29v94c0,23.11-19.28,37.46-50.32,37.46H304.82A30.94,30.94,0,0,0,274,509.71c1.14,15.79,15.66,28.65,31.49,28.65H414.13c32.32,0,60.2-9.65,80.63-27.9s31.56-43.55,31.56-71.43V142.37a11.14,11.14,0,0,1,11.14-11.14h0A30.94,30.94,0,0,0,568.32,98ZM199.64,447.56A43.65,43.65,0,1,1,161,408.91,43.7,43.7,0,0,1,199.64,447.56ZM346,374.31a54.35,54.35,0,1,1,59.07-59.08A54.46,54.46,0,0,1,346,374.31Zm118.47-79.05A116.08,116.08,0,0,0,260,248.09l-.07.07c-16,15.67-72.08,65.8-123.55,52.86a55.89,55.89,0,0,1-35.51-27.14C93.72,261.18,92,246.5,96,233.6c4.14-13.21,14.23-24.47,27.68-30.88a53.88,53.88,0,0,1,43.51-1.6c19.77,7.82,23.73,22.31,24.12,23.94v0c9.6,30.45,54.68,23.3,54.68-8.63V214.6c-3-16.85-18.65-49.56-58.31-65.26-.66-.26-1.32-.52-2-.76-8.6-3.22-7.39-15.94,1.7-17.31l.25,0h252A24.75,24.75,0,0,1,464.45,156Z"/><g class="cls-2"><path class="cls-3" d="M133.15,166.59a2.91,2.91,0,0,1-2.91-2.91V145.26c0-27.43,22.36-51,50.9-53.63l.27,0H333.67a2.91,2.91,0,1,1,0,5.82H181.54c-25.52,2.44-45.49,23.42-45.49,47.83v18.42A2.9,2.9,0,0,1,133.15,166.59Z"/><path class="cls-3" d="M151.71,384.13a2.91,2.91,0,0,1-2.91-2.91V325.61a2.91,2.91,0,0,1,5.82,0v55.61A2.91,2.91,0,0,1,151.71,384.13Z"/><path class="cls-3" d="M372.55,504.56H300.28a2.91,2.91,0,1,1,0-5.82h72.27a2.91,2.91,0,1,1,0,5.82Zm118.3-159.64a2.9,2.9,0,0,1-2.91-2.9V94.52a2.91,2.91,0,1,1,5.82,0V342A2.9,2.9,0,0,1,490.85,344.92Z"/><path class="cls-3" d="M150.76,328.29a108.69,108.69,0,0,1-26.46-3.22A87.4,87.4,0,0,1,64.62,273a2.91,2.91,0,1,1,5.4-2.16,81.58,81.58,0,0,0,55.7,48.59,103.06,103.06,0,0,0,25,3.05c53.87,0,103.37-40.23,122.15-57.53,1.8-1.65,2.07-1.9,3-2a2.92,2.92,0,0,1,2,5.29l-1.14,1C257.57,287,206.68,328.29,150.76,328.29Zm126-59.61Zm0,0h0Zm0,0Zm-62.71-52.06a2.91,2.91,0,0,1-2.86-2.4s-.11-.64-.42-1.75a2.91,2.91,0,1,1,5.61-1.54c.38,1.37.52,2.18.54,2.27a2.92,2.92,0,0,1-2.35,3.38A3.12,3.12,0,0,1,214.05,216.61Z"/><path class="cls-3" d="M270.79,356.78a2.91,2.91,0,0,1-2.58-1.56,88.2,88.2,0,1,1,163.86-61.81,2.91,2.91,0,1,1-5.65,1.38,82.38,82.38,0,1,0-153.06,57.74,2.91,2.91,0,0,1-1.23,3.92A2.82,2.82,0,0,1,270.79,356.78Z"/><path class="cls-3" d="M203.82,488.79a2.86,2.86,0,0,1-1.75-.59,2.91,2.91,0,0,1-.57-4.07,61.8,61.8,0,0,0,12.6-37.6,62.4,62.4,0,1,0-124.79,0,2.91,2.91,0,1,1-5.81,0,68.21,68.21,0,0,1,136.42,0,67.58,67.58,0,0,1-13.78,41.11A2.91,2.91,0,0,1,203.82,488.79Z"/></g><path class="cls-4" d="M135.24,656.35a16.21,16.21,0,0,1,5.78,1,13,13,0,0,1,7.56,7.42,16.82,16.82,0,0,1,0,11.78,13.18,13.18,0,0,1-7.53,7.56,16.71,16.71,0,0,1-11.66,0,13.07,13.07,0,0,1-7.54-7.53,17,17,0,0,1,0-11.84,13,13,0,0,1,3-4.5,13.29,13.29,0,0,1,4.56-2.89A16.17,16.17,0,0,1,135.24,656.35Zm0,26.79a13.83,13.83,0,0,0,4.85-.83,10.77,10.77,0,0,0,3.84-2.42,10.92,10.92,0,0,0,2.51-3.93,14.52,14.52,0,0,0,.9-5.29,14.31,14.31,0,0,0-.91-5.28,11,11,0,0,0-2.52-3.85,10.52,10.52,0,0,0-3.79-2.36,14.92,14.92,0,0,0-9.67,0,10.6,10.6,0,0,0-6.37,6.22,14.31,14.31,0,0,0-.91,5.26A14.52,14.52,0,0,0,124,676a11,11,0,0,0,2.5,3.93,10.6,10.6,0,0,0,3.82,2.42A13.83,13.83,0,0,0,135.21,683.14Z"/><path class="cls-4" d="M135.24,685.79a16.38,16.38,0,0,1-6.07-1.1,13.74,13.74,0,0,1-7.89-7.87,16.7,16.7,0,0,1-1.1-6.15,16.35,16.35,0,0,1,1.12-6.15,13.68,13.68,0,0,1,3.15-4.72,14,14,0,0,1,4.77-3,17.57,17.57,0,0,1,12,0,13.69,13.69,0,0,1,4.78,3,14.06,14.06,0,0,1,3.13,4.73,16.19,16.19,0,0,1,1.12,6.12,16.54,16.54,0,0,1-1.1,6.12,13.85,13.85,0,0,1-7.88,7.9A16.2,16.2,0,0,1,135.24,685.79Zm0-28.82a15.58,15.58,0,0,0-5.57,1,12.8,12.8,0,0,0-4.36,2.75,12.37,12.37,0,0,0-2.86,4.3,14.89,14.89,0,0,0-1,5.68,15.45,15.45,0,0,0,1,5.69,12.81,12.81,0,0,0,2.84,4.36,13,13,0,0,0,4.36,2.82,16,16,0,0,0,11.2,0,12.79,12.79,0,0,0,4.35-2.83,13,13,0,0,0,2.84-4.38,15.33,15.33,0,0,0,1-5.66,14.82,14.82,0,0,0-1-5.66,12.72,12.72,0,0,0-2.85-4.31,12.54,12.54,0,0,0-4.35-2.76A15.65,15.65,0,0,0,135.24,657Zm0,26.79a14.34,14.34,0,0,1-5.06-.87,11.14,11.14,0,0,1-4.05-2.56,11.71,11.71,0,0,1-2.64-4.14,15.4,15.4,0,0,1-.93-5.52,14.81,14.81,0,0,1,1-5.48,11.4,11.4,0,0,1,2.67-4.07,11.57,11.57,0,0,1,4.06-2.51,14.83,14.83,0,0,1,5.08-.85,14.51,14.51,0,0,1,5,.84,11.15,11.15,0,0,1,4,2.5,11.47,11.47,0,0,1,2.66,4.06,15,15,0,0,1,.95,5.51,15.4,15.4,0,0,1-.93,5.52,11.76,11.76,0,0,1-2.66,4.14,11.27,11.27,0,0,1-4.06,2.56A14.3,14.3,0,0,1,135.21,683.76Zm.08-24.76a13.68,13.68,0,0,0-4.66.77,9.93,9.93,0,0,0-6,5.87,13.49,13.49,0,0,0-.87,5,14,14,0,0,0,.86,5.07,10.51,10.51,0,0,0,2.35,3.71,10,10,0,0,0,3.61,2.28,14,14,0,0,0,9.26,0,10,10,0,0,0,3.62-2.28,10.28,10.28,0,0,0,2.37-3.71,14,14,0,0,0,.86-5.07,13.52,13.52,0,0,0-.87-5,10.13,10.13,0,0,0-2.37-3.63,9.86,9.86,0,0,0-3.58-2.23A13.42,13.42,0,0,0,135.29,659Z"/><path class="cls-4" d="M184.58,665l-7.87,20a33.15,33.15,0,0,1-1.47,3.12,10.64,10.64,0,0,1-1.61,2.26,5.78,5.78,0,0,1-1.91,1.37,5.7,5.7,0,0,1-2.33.46q-.45,0-.87,0c-.28,0-.56,0-.84-.07v-2.19a3.64,3.64,0,0,0,.48,0h.53a4.78,4.78,0,0,0,3.29-1.21,9.73,9.73,0,0,0,2.41-3.92L166.15,665h2.45l7.07,17.17L182.15,665Z"/><path class="cls-4" d="M169.39,692.85c-.31,0-.61,0-.91,0s-.58,0-.87-.08l-.55-.07v-3.42l.69.08.41,0h.53a4.19,4.19,0,0,0,2.89-1.05,9.06,9.06,0,0,0,2.14-3.45l-8.5-20.49H169l6.63,16.1,6.07-16.1h3.77l-8.21,20.88a31.44,31.44,0,0,1-1.5,3.2,11.9,11.9,0,0,1-1.7,2.39,6.63,6.63,0,0,1-2.11,1.51A6.42,6.42,0,0,1,169.39,692.85Zm-1.09-1.28.26,0a6.69,6.69,0,0,0,2.91-.39,5.08,5.08,0,0,0,1.71-1.23,10.14,10.14,0,0,0,1.52-2.13,28.77,28.77,0,0,0,1.43-3.06l7.54-19.18h-1.09l-6.88,18.23-7.51-18.23h-1.12l8,19.23-.09.23a10.4,10.4,0,0,1-2.57,4.17,5.44,5.44,0,0,1-3.7,1.36h-.39Z"/><path class="cls-4" d="M209.4,685.17q-8,0-8.68-5.82H203a3.79,3.79,0,0,0,1.8,2.79,8.59,8.59,0,0,0,4.59,1,10.53,10.53,0,0,0,2.6-.29,6.16,6.16,0,0,0,1.86-.79,3.24,3.24,0,0,0,1.1-1.18,3.14,3.14,0,0,0,.37-1.47,2.81,2.81,0,0,0-.3-1.35,2.75,2.75,0,0,0-1.06-1,10.53,10.53,0,0,0-2.09-.87c-.89-.28-2-.58-3.4-.9-1.17-.27-2.21-.55-3.13-.84a8.62,8.62,0,0,1-2.3-1.07,4.1,4.1,0,0,1-1.41-1.53,4.74,4.74,0,0,1-.48-2.25,4.11,4.11,0,0,1,.55-2.12,4.76,4.76,0,0,1,1.52-1.61,7.57,7.57,0,0,1,2.37-1,12.53,12.53,0,0,1,3.11-.36,11.68,11.68,0,0,1,5.85,1.19,4.49,4.49,0,0,1,2.22,3.72h-2.27a2.8,2.8,0,0,0-1.54-2.18,8.9,8.9,0,0,0-4-.69,11.38,11.38,0,0,0-2.26.2,5.93,5.93,0,0,0-1.77.6,3.15,3.15,0,0,0-1.16,1,2.28,2.28,0,0,0-.42,1.35,2.38,2.38,0,0,0,.17.89,2.12,2.12,0,0,0,.85.94,9,9,0,0,0,2.05,1,33.16,33.16,0,0,0,3.74,1c1.25.29,2.34.59,3.26.9a8.88,8.88,0,0,1,2.29,1.12,4.06,4.06,0,0,1,1.8,3.54,5.29,5.29,0,0,1-.57,2.42,5.84,5.84,0,0,1-1.62,1.95,8,8,0,0,1-2.56,1.28A11.46,11.46,0,0,1,209.4,685.17Z"/><path class="cls-4" d="M209.4,685.79c-5.64,0-8.77-2.14-9.3-6.36l-.09-.69h3.51l.07.53a3.2,3.2,0,0,0,1.53,2.35,8,8,0,0,0,4.25.9,9.78,9.78,0,0,0,2.44-.27,5.28,5.28,0,0,0,1.67-.71,2.61,2.61,0,0,0,.9-.95,2.44,2.44,0,0,0,.3-1.18,2.22,2.22,0,0,0-.23-1.06,2.09,2.09,0,0,0-.83-.77,9.23,9.23,0,0,0-2-.82c-.86-.27-2-.57-3.35-.89-1.18-.27-2.25-.56-3.17-.85a9.44,9.44,0,0,1-2.47-1.15,4.82,4.82,0,0,1-1.61-1.76,5.41,5.41,0,0,1-.55-2.53,4.89,4.89,0,0,1,.63-2.43,5.69,5.69,0,0,1,1.71-1.82,8.27,8.27,0,0,1,2.57-1.1,13.22,13.22,0,0,1,3.26-.37,12.16,12.16,0,0,1,6.16,1.26,5.09,5.09,0,0,1,2.52,4.2l.06.67H214l-.08-.52a2.22,2.22,0,0,0-1.22-1.72,8.34,8.34,0,0,0-3.67-.63,11,11,0,0,0-2.14.2,5.66,5.66,0,0,0-1.6.53,2.72,2.72,0,0,0-1,.8,1.73,1.73,0,0,0-.3,1,1.9,1.9,0,0,0,.13.68c0,.1.17.32.62.65a8.86,8.86,0,0,0,1.91.9,30.27,30.27,0,0,0,3.67,1c1.27.3,2.38.61,3.32.92a10,10,0,0,1,2.45,1.2,4.94,4.94,0,0,1,1.54,1.73,5.08,5.08,0,0,1,.52,2.32,5.93,5.93,0,0,1-.64,2.7,6.4,6.4,0,0,1-1.79,2.16,8.71,8.71,0,0,1-2.76,1.38A12,12,0,0,1,209.4,685.79Zm-8-5.82c.69,3.08,3.3,4.58,8,4.58a10.91,10.91,0,0,0,3.2-.44,7.56,7.56,0,0,0,2.36-1.18,5,5,0,0,0,1.44-1.74,4.62,4.62,0,0,0,.51-2.14,3.83,3.83,0,0,0-.38-1.75,3.7,3.7,0,0,0-1.16-1.29,8.29,8.29,0,0,0-2.13-1,31.21,31.21,0,0,0-3.2-.89,32.89,32.89,0,0,1-3.81-1.05,9.45,9.45,0,0,1-2.2-1,2.72,2.72,0,0,1-1.08-1.24,3.33,3.33,0,0,1-.2-1.1,2.94,2.94,0,0,1,.53-1.71,3.87,3.87,0,0,1,1.37-1.18,7.2,7.2,0,0,1,1.95-.66,12.7,12.7,0,0,1,2.38-.21,9.19,9.19,0,0,1,4.24.77,3.39,3.39,0,0,1,1.76,2.1H216a3.72,3.72,0,0,0-1.82-2.57,11.1,11.1,0,0,0-5.53-1.1,12.14,12.14,0,0,0-3,.34,6.93,6.93,0,0,0-2.18.93,4.15,4.15,0,0,0-1.33,1.41,3.44,3.44,0,0,0-.47,1.81,4.19,4.19,0,0,0,.41,2,3.5,3.5,0,0,0,1.21,1.31,8.19,8.19,0,0,0,2.14,1c.89.28,1.93.56,3.08.82,1.39.33,2.55.64,3.44.92a10.54,10.54,0,0,1,2.23.93,3.33,3.33,0,0,1,1.29,1.26,3.51,3.51,0,0,1,.36,1.64,3.72,3.72,0,0,1-.43,1.76,3.87,3.87,0,0,1-1.31,1.4,6.71,6.71,0,0,1-2,.87,10.85,10.85,0,0,1-2.76.32,9,9,0,0,1-4.93-1.11,4.37,4.37,0,0,1-2-2.68Z"/><path class="cls-4" d="M243.19,684.84l-.95.08-1,0a6.1,6.1,0,0,1-2.34-.37,2.82,2.82,0,0,1-1.34-1.1,4.75,4.75,0,0,1-.6-1.84,21.55,21.55,0,0,1-.14-2.58V667h-2.76v-2h2.76v-5.15h2.24V665h3.54v2h-3.54v12.22a7.76,7.76,0,0,0,.19,1.94,2.48,2.48,0,0,0,.59,1.12,1.87,1.87,0,0,0,1,.51,7.25,7.25,0,0,0,1.3.11h.53l.51,0Z"/><path class="cls-4" d="M241.29,685.56a6.63,6.63,0,0,1-2.57-.42,3.34,3.34,0,0,1-1.63-1.34,5,5,0,0,1-.69-2.1,20.42,20.42,0,0,1-.15-2.65V667.63h-2.76v-3.27h2.76v-5.15h3.48v5.15h3.54v3.27h-3.54v11.6a7,7,0,0,0,.17,1.78,1.89,1.89,0,0,0,.43.84,1.14,1.14,0,0,0,.64.34,6,6,0,0,0,1.18.1h.53l.45,0,.67-.07v3.19l-.55.06c-.33,0-.65.07-1,.08Zm-6.56-19.17h2.76v12.66a20,20,0,0,0,.14,2.5,3.87,3.87,0,0,0,.51,1.59,2.15,2.15,0,0,0,1.05.86,7.66,7.66,0,0,0,3,.3l.37,0v-.74h-.42a6.87,6.87,0,0,1-1.42-.13,2.46,2.46,0,0,1-1.28-.68,2.89,2.89,0,0,1-.74-1.39,8,8,0,0,1-.22-2.1V666.39H242v-.79h-3.55v-5.15h-1v5.15h-2.76Z"/><path class="cls-4" d="M269.29,685.17a11.43,11.43,0,0,1-4.11-.7,8.76,8.76,0,0,1-3.17-2,9.15,9.15,0,0,1-2.05-3.26,13.59,13.59,0,0,1,0-8.7,9.12,9.12,0,0,1,2-3.25,8.58,8.58,0,0,1,3-2,10.24,10.24,0,0,1,3.91-.72,10.58,10.58,0,0,1,4,.72,8.27,8.27,0,0,1,3.05,2,9,9,0,0,1,1.93,3.25,13.25,13.25,0,0,1,.67,4.33v.46h-17a10.86,10.86,0,0,0,.81,3.47A7.58,7.58,0,0,0,264,681.2a6.91,6.91,0,0,0,2.39,1.46,8.82,8.82,0,0,0,3,.48,10.57,10.57,0,0,0,2.23-.24,7.87,7.87,0,0,0,2-.73,5.32,5.32,0,0,0,1.52-1.19,3,3,0,0,0,.73-1.63H278a6.33,6.33,0,0,1-1.09,2.48,7.28,7.28,0,0,1-1.92,1.83,9,9,0,0,1-2.6,1.13A12.36,12.36,0,0,1,269.29,685.17Zm6.95-11.94a8.1,8.1,0,0,0-2.52-5.05,7.22,7.22,0,0,0-4.85-1.67,8.41,8.41,0,0,0-2.65.4,6.41,6.41,0,0,0-2.2,1.25,7.18,7.18,0,0,0-1.62,2.1,10.06,10.06,0,0,0-.93,3Z"/><path class="cls-4" d="M269.29,685.79a12.22,12.22,0,0,1-4.33-.74,9.62,9.62,0,0,1-3.39-2.17,9.74,9.74,0,0,1-2.19-3.49,13,13,0,0,1-.77-4.61,13.13,13.13,0,0,1,.74-4.51,9.74,9.74,0,0,1,2.12-3.47,9.37,9.37,0,0,1,3.26-2.19,11,11,0,0,1,4.14-.75,11.4,11.4,0,0,1,4.22.75,9.14,9.14,0,0,1,3.27,2.19,9.66,9.66,0,0,1,2.06,3.48,13.63,13.63,0,0,1,.71,4.53v1.07h-17a9.64,9.64,0,0,0,.69,2.62,6.83,6.83,0,0,0,1.53,2.25,6,6,0,0,0,2.17,1.32,8.94,8.94,0,0,0,4.84.22,7.36,7.36,0,0,0,1.87-.66,4.73,4.73,0,0,0,1.34-1.06,2.34,2.34,0,0,0,.58-1.29l.07-.54h3.52l-.16.75a7.1,7.1,0,0,1-1.19,2.7,8.08,8.08,0,0,1-2.09,2,9.57,9.57,0,0,1-2.78,1.21A13.17,13.17,0,0,1,269.29,685.79Zm-.42-20.7a9.81,9.81,0,0,0-3.68.67,8.11,8.11,0,0,0-2.83,1.9,8.63,8.63,0,0,0-1.85,3,11.94,11.94,0,0,0-.66,4.09,11.78,11.78,0,0,0,.69,4.18,8.43,8.43,0,0,0,1.91,3,8.13,8.13,0,0,0,2.95,1.89,10.91,10.91,0,0,0,3.89.66,11.55,11.55,0,0,0,2.94-.36,8.29,8.29,0,0,0,2.42-1.05,6.67,6.67,0,0,0,1.76-1.67,5.62,5.62,0,0,0,.78-1.5h-.89a3.59,3.59,0,0,1-.76,1.41,6,6,0,0,1-1.7,1.34,8.23,8.23,0,0,1-2.19.78,10.34,10.34,0,0,1-5.52-.26,7.47,7.47,0,0,1-2.6-1.59,8,8,0,0,1-1.82-2.66,11.78,11.78,0,0,1-.86-3.67l-.05-.67h17.09a12.51,12.51,0,0,0-.64-4,8.55,8.55,0,0,0-1.79-3,7.91,7.91,0,0,0-2.82-1.89A10.25,10.25,0,0,0,268.87,665.09Zm8.1,8.76H260.74l.12-.72a10.59,10.59,0,0,1,1-3.15,7.87,7.87,0,0,1,1.77-2.29,7.07,7.07,0,0,1,2.4-1.37,9.1,9.1,0,0,1,2.85-.43,7.86,7.86,0,0,1,5.25,1.82,8.69,8.69,0,0,1,2.73,5.42Zm-14.75-1.23h13.27a7.1,7.1,0,0,0-2.17-4,6.58,6.58,0,0,0-4.45-1.53,7.78,7.78,0,0,0-2.46.38,5.8,5.8,0,0,0-2,1.12,6.6,6.6,0,0,0-1.48,1.93A8.82,8.82,0,0,0,262.22,672.62Z"/><path class="cls-4" d="M306.87,666.56a3.51,3.51,0,0,0-.67,0h-.81a4.89,4.89,0,0,0-1.84.35,8.28,8.28,0,0,0-1.7.93,10.3,10.3,0,0,0-1.51,1.29,10,10,0,0,0-1.2,1.49v14.09H296.9V665h2.24v2.72a11,11,0,0,1,1.88-1.65,10.3,10.3,0,0,1,1.82-1,7.17,7.17,0,0,1,1.69-.47,10.13,10.13,0,0,1,1.48-.12l.42,0,.44,0Z"/><path class="cls-4" d="M299.76,685.28h-3.48V664.36h3.48v1.88a8.29,8.29,0,0,1,.92-.7,10.32,10.32,0,0,1,1.93-1.06,7.84,7.84,0,0,1,1.83-.5,10.64,10.64,0,0,1,2-.11l.47,0,.55.06v3.32l-.72-.12a3.27,3.27,0,0,0-.57,0h-.81a4.28,4.28,0,0,0-1.61.32,7.79,7.79,0,0,0-1.58.85,10.9,10.9,0,0,0-1.42,1.22,10.36,10.36,0,0,0-1,1.25ZM297.52,684h1V670.38l.1-.15a10.73,10.73,0,0,1,1.27-1.58,10.93,10.93,0,0,1,1.6-1.37,8.76,8.76,0,0,1,1.83-1,5.48,5.48,0,0,1,2.07-.4h.87v-.79a10.06,10.06,0,0,0-1.65.1,6.65,6.65,0,0,0-1.54.43,9.64,9.64,0,0,0-1.7.93,11.16,11.16,0,0,0-1.78,1.56l-1.07,1.15V665.6h-1Z"/><path class="cls-4" d="M465.76,684.66h-2.24V660.18l-11,24.48h-2.35l-11-24.48v24.48H437v-27.8h3.24l11.14,25.26,11.23-25.26h3.19Z"/><path class="cls-4" d="M466.37,685.28H462.9V663.07l-10,22.21h-3.15l-10-22.2v22.2h-3.47v-29h4.26l10.74,24.35,10.83-24.35h4.2ZM464.14,684h1V657.48h-1Zm-13.57,0h1.55l11.94-26.56H463l-11.63,26.17-11.55-26.17h-1.13Zm-13,0h1V657.48h-1Z"/><path class="cls-4" d="M494.37,685.17a11.42,11.42,0,0,1-4.1-.7,8.68,8.68,0,0,1-3.17-2,9.17,9.17,0,0,1-2.06-3.26,12.53,12.53,0,0,1-.72-4.4,12.39,12.39,0,0,1,.7-4.3,9,9,0,0,1,2-3.25,8.66,8.66,0,0,1,3-2,10.27,10.27,0,0,1,3.91-.72,10.63,10.63,0,0,1,4,.72,8.32,8.32,0,0,1,3,2,9,9,0,0,1,1.93,3.25,13,13,0,0,1,.67,4.33v.46h-17a10.86,10.86,0,0,0,.81,3.47A7.45,7.45,0,0,0,489,681.2a6.82,6.82,0,0,0,2.39,1.46,8.72,8.72,0,0,0,2.94.48,10.66,10.66,0,0,0,2.24-.24,7.8,7.8,0,0,0,2-.73,5.19,5.19,0,0,0,1.52-1.19,3,3,0,0,0,.73-1.63h2.21a6.64,6.64,0,0,1-1.09,2.48,7.32,7.32,0,0,1-1.93,1.83,8.87,8.87,0,0,1-2.6,1.13A12.3,12.3,0,0,1,494.37,685.17Zm7-11.94a8.1,8.1,0,0,0-2.53-5.05,7.2,7.2,0,0,0-4.85-1.67,8.41,8.41,0,0,0-2.65.4,6.28,6.28,0,0,0-2.19,1.25,7,7,0,0,0-1.62,2.1,10.06,10.06,0,0,0-.94,3Z"/><path class="cls-4" d="M494.37,685.79a12.16,12.16,0,0,1-4.32-.74,9.44,9.44,0,0,1-3.39-2.17,9.9,9.9,0,0,1-2.2-3.49,13.22,13.22,0,0,1-.76-4.61,13.37,13.37,0,0,1,.73-4.51,9.88,9.88,0,0,1,2.12-3.47,9.46,9.46,0,0,1,3.26-2.19,11.05,11.05,0,0,1,4.14-.75,11.42,11.42,0,0,1,4.23.75,9,9,0,0,1,3.26,2.19,9.52,9.52,0,0,1,2.06,3.48,13.63,13.63,0,0,1,.71,4.53v1.07h-17a9.64,9.64,0,0,0,.69,2.62,6.83,6.83,0,0,0,1.53,2.25,6.21,6.21,0,0,0,2.17,1.32,9,9,0,0,0,4.85.22,7.43,7.43,0,0,0,1.86-.66,4.64,4.64,0,0,0,1.35-1.06,2.34,2.34,0,0,0,.58-1.29l.06-.54h3.53l-.17.75a7.1,7.1,0,0,1-1.19,2.7,8.08,8.08,0,0,1-2.09,2,9.57,9.57,0,0,1-2.78,1.21A13.11,13.11,0,0,1,494.37,685.79Zm-.42-20.7a9.88,9.88,0,0,0-3.68.67,8.3,8.3,0,0,0-2.83,1.9,8.47,8.47,0,0,0-1.84,3,13.1,13.1,0,0,0,0,8.27,8.45,8.45,0,0,0,1.92,3,8,8,0,0,0,2.95,1.89,10.85,10.85,0,0,0,3.88.66,11.69,11.69,0,0,0,2.95-.36,8.23,8.23,0,0,0,2.41-1.05,6.71,6.71,0,0,0,1.77-1.67,5.9,5.9,0,0,0,.77-1.5h-.88a3.61,3.61,0,0,1-.77,1.41,6,6,0,0,1-1.7,1.34,8.16,8.16,0,0,1-2.18.78,10.34,10.34,0,0,1-5.52-.26,7.52,7.52,0,0,1-2.61-1.59,8.31,8.31,0,0,1-1.82-2.66,11.51,11.51,0,0,1-.85-3.67l-.06-.67H503a12.52,12.52,0,0,0-.63-4,8.57,8.57,0,0,0-1.8-3,7.91,7.91,0,0,0-2.82-1.89A10.21,10.21,0,0,0,494,665.09Zm8.11,8.76H485.82l.12-.72a10.59,10.59,0,0,1,1-3.15,7.68,7.68,0,0,1,1.76-2.29,7.12,7.12,0,0,1,2.41-1.37,9,9,0,0,1,2.84-.43,7.86,7.86,0,0,1,5.25,1.82,8.75,8.75,0,0,1,2.74,5.42Zm-14.76-1.23h13.28a7.17,7.17,0,0,0-2.18-4,6.56,6.56,0,0,0-4.45-1.53,7.83,7.83,0,0,0-2.46.38,5.8,5.8,0,0,0-2,1.12,6.57,6.57,0,0,0-1.47,1.93A8.82,8.82,0,0,0,487.3,672.62Z"/><path class="cls-1" d="M373.51,672.47c-2.52.27-3.6-1.45-4.87-2.89-3.14-3.58-7.25-4.53-10.9-2.48a8.13,8.13,0,0,0-4.43,8.1,7.85,7.85,0,0,0,5,7.18c3.29,1.34,6.53,1,9.07-1.59,1.58-1.63,3-2.21,5-1.07-1.14,4.62-7.08,8-12.62,7.08-6.48-1-10.92-7-10.31-13.85.52-5.91,6.18-10.71,12.51-10.61C368,662.44,373.21,667,373.51,672.47Z"/><path class="cls-1" d="M363.09,668c2.23-.07,3.4,1.45,4.6,3,3,3.79,7.51,4.65,11.51,2.2a8.4,8.4,0,0,0,3.18-10.87c-2.25-5.13-9.42-6.34-13.88-2.35-1.79,1.6-1.79,1.6-4.32.64,1.44-4.94,7.65-7.95,13.52-6.55,6.16,1.48,10.1,7.88,8.92,14.47a12,12,0,0,1-13,9.59C367.61,677.42,362.85,672.91,363.09,668Z"/><path class="cls-4" d="M141.2,612l1.86-.74a3.31,3.31,0,0,1,.66-.18c.17,0,.35.15.54.44a85.25,85.25,0,0,1,6.33,17.42,1.57,1.57,0,0,1,.08.39c0,.2-.33.42-1,.65l-2,.74a3.73,3.73,0,0,1-1,.35c-.19,0-.33-.22-.41-.65-.56-2.27-1.09-4.28-1.62-6-6.53,2.23-10.91,4.29-18.08,6.18a10.46,10.46,0,0,0-3.23,1.35,2.11,2.11,0,0,1-1.12.52c-.47,0-.81-.33-1-1q-.79-2.61-1.32-5.09c2.64-.21,3.3-.7,6.91-1.48q.83-.18,2.4-.57c1.05-.26,1.78-.44,2.19-.52V603.58h-6.53v4.1c0,.55-.25.82-.75.82h-3.06c-.47,0-.7-.27-.7-.82l.2-15.51v-7.23l-.2-10c0-.47.22-.7.66-.7l8.27.22h2.11v-4.83a101.08,101.08,0,0,0-.58-12,39.87,39.87,0,0,1,5.09.48c.61.09.91.32.91.7a3.37,3.37,0,0,1-.16.87c-.11.4-.2.71-.25.91a53.94,53.94,0,0,0-.41,8.84v5h2.19l8.15-.22c.44,0,.66.23.66.7l-.21,8.88V592l.21,15a.62.62,0,0,1-.7.7h-3.15c-.44,0-.66-.24-.66-.7v-3.4H136v19l7.4-2.13c-.85-2.33-1.86-4.76-3-7.32a1.08,1.08,0,0,1-.12-.44C140.25,612.45,140.56,612.22,141.2,612Zm-9.81-12.67v-20.6h-6.53v20.6Zm4.6,0h6.49v-20.6H136Zm47-31.66H160l-11.42.17a.62.62,0,0,1-.7-.7V563.3c0-.49.23-.74.7-.74l11.42.17H182.4l11.42-.17a.64.64,0,0,1,.71.74v3.83a.62.62,0,0,1-.71.7l-1.74,0c-1.21-.06-2.55-.11-4-.13V610.9l.17,16.59q0,5-2.28,6.88t-11.46,1.7c-.88,0-1.4-.1-1.57-.3a3.86,3.86,0,0,1-.54-1.57,11.72,11.72,0,0,0-1.61-3.92,63.49,63.49,0,0,0,7.82.43q2.81,0,3.6-.69a3.75,3.75,0,0,0,.78-2.79Zm-13.57,40.63H158.16v7c0,.47-.22.7-.66.7h-3.56a.62.62,0,0,1-.7-.7l.16-15.59v-7.57L153.24,582q0-.78.66-.78l6.87.17h6l6.86-.17c.44,0,.67.26.67.78l-.17,8.15v7.66l.17,14.59a.64.64,0,0,1-.71.74h-3.47a.66.66,0,0,1-.75-.74Zm0-4.62V586.12H158.16v17.55Z"/><path class="cls-4" d="M175.34,636.54h-.84c-1.08,0-1.66-.14-1.93-.47-.14-.11-.35-.45-.63-1.76a11.18,11.18,0,0,0-1.54-3.75l-.63-.87,1.07.14a64.35,64.35,0,0,0,7.76.43c2.29,0,3-.36,3.29-.58a3.42,3.42,0,0,0,.63-2.44V568.12H160l-11.41.17a1.07,1.07,0,0,1-1.17-1.16V563.3a1.08,1.08,0,0,1,1.16-1.2l11.43.17H182.4l11.42-.17a1.1,1.1,0,0,1,1.17,1.2v3.83a1.08,1.08,0,0,1-1.17,1.16l-1.75,0c-1.08,0-2.26-.09-3.53-.12V610.9l.16,16.59c0,3.44-.82,5.87-2.44,7.24S181.05,636.54,175.34,636.54Zm-3.67-5.69a14.54,14.54,0,0,1,1.17,3.23,4,4,0,0,0,.41,1.35s.24.18,1.25.18c5.91,0,9.67-.49,11.18-1.61s2.09-3.36,2.09-6.51l-.16-16.59V567.18h.47c1.47,0,2.81.07,4,.13l1.72,0c.21,0,.23,0,.23-.24V563.3c0-.28-.06-.28-.24-.28l-11.41.18H160L148.6,563c-.17,0-.24,0-.24.28v3.83c0,.2,0,.24.24.24l11.41-.18h23.44v60c0,1.55-.31,2.57-.95,3.13s-1.86.82-3.9.82A66.7,66.7,0,0,1,171.67,630.85Zm-49.43,2c-.47,0-1.11-.23-1.47-1.32-.53-1.76-1-3.49-1.34-5.15l-.11-.52.53,0a17.27,17.27,0,0,0,3.71-.69c.78-.21,1.75-.48,3.14-.78.55-.11,1.35-.3,2.39-.56l1.84-.45V604.05h-5.61v3.63a1.15,1.15,0,0,1-1.21,1.29h-3.06a1.13,1.13,0,0,1-1.17-1.29l.21-15.51v-7.23l-.21-10a1.06,1.06,0,0,1,1.13-1.17l8.29.22h1.63v-4.37a100.1,100.1,0,0,0-.58-11.92l-.06-.52h.52a40.71,40.71,0,0,1,5.16.48c1.14.16,1.31.79,1.31,1.16a3.55,3.55,0,0,1-.19,1l-.24.91a53.86,53.86,0,0,0-.4,8.72V574h1.73l8.14-.22a1.06,1.06,0,0,1,1.13,1.16l-.2,8.89V592l.2,15a1.07,1.07,0,0,1-1.16,1.17h-3.15A1.06,1.06,0,0,1,142,607v-2.93h-5.57V622l6.33-1.82C142,618,141,615.67,140,613.31a1.49,1.49,0,0,1-.17-.63c0-.59.67-.91,1.25-1.13l1.86-.73a2.83,2.83,0,0,1,.83-.21,1.24,1.24,0,0,1,.93.64A86.75,86.75,0,0,1,151,628.81a2,2,0,0,1,.1.51c0,.56-.66.87-1.31,1.09l-1.93.74a3.54,3.54,0,0,1-1.2.38c-.31,0-.71-.18-.87-1-.49-2-1-3.9-1.47-5.55-2,.71-3.88,1.4-5.67,2.07a114.59,114.59,0,0,1-12,4,9.88,9.88,0,0,0-3.07,1.28A2.5,2.5,0,0,1,122.24,632.88Zm-1.79-6.15c.34,1.48.74,3,1.2,4.55.22.67.5.67.59.67s.3,0,.84-.43a10.87,10.87,0,0,1,3.39-1.43,112.65,112.65,0,0,0,11.89-3.94c1.93-.72,3.92-1.47,6.16-2.23l.46-.16.14.46c.52,1.78,1.07,3.82,1.62,6.08a1.24,1.24,0,0,0,.07.27,6.7,6.7,0,0,0,.74-.28l2-.75a2.78,2.78,0,0,0,.68-.31l0-.16a86,86,0,0,0-6.3-17.35.71.71,0,0,0-.18-.19,3.92,3.92,0,0,1-.47.16l-1.84.73a2.18,2.18,0,0,0-.65.33.92.92,0,0,1,.08.17c1.16,2.56,2.18,5,3,7.36l.17.46-8.48,2.45V603.12h7.42V607c0,.23,0,.23.2.23h3.15c.22,0,.24,0,.24-.23l-.21-15v-8.2l.21-8.89c0-.22,0-.22-.2-.22l-8.14.21h-2.67v-5.47a53,53,0,0,1,.43-8.94l.25-.94a3.13,3.13,0,0,0,.15-.74c0-.16-.39-.23-.51-.24-1.91-.27-3.42-.43-4.5-.47a108.09,108.09,0,0,1,.52,11.51v5.29h-2.58l-8.28-.22c-.15,0-.19,0-.19.24l.21,10v7.24l-.21,15.51c0,.36.1.36.24.36h3.06c.18,0,.28,0,.28-.36v-4.56h7.47v21l-.37.08c-.41.09-1.14.26-2.18.52s-1.86.45-2.41.57c-1.37.29-2.32.55-3.09.76A18.64,18.64,0,0,1,120.45,626.73Zm37.05-10.31h-3.56a1.08,1.08,0,0,1-1.17-1.17l.17-15.59v-7.57l-.17-10.1a1.09,1.09,0,0,1,1.13-1.25l6.88.17h6l6.85-.17A1.09,1.09,0,0,1,174.8,582l-.17,8.16v7.65l.17,14.58a1.09,1.09,0,0,1-1.17,1.21h-3.47a1.11,1.11,0,0,1-1.21-1.2v-3.63H158.62v6.5A1.06,1.06,0,0,1,157.5,616.42Zm-3.61-34.76c-.12,0-.19,0-.19.32l.17,10.1v7.58l-.17,15.6c0,.19,0,.23.24.23h3.56c.16,0,.2,0,.2-.24v-7.43h12.18v4.56c0,.24,0,.28.28.28h3.47c.18,0,.24,0,.24-.28l-.16-14.58v-7.67l.16-8.16c0-.31-.07-.31-.2-.31l-6.85.18h-6Zm16,22.47H157.7V585.66h12.18Zm-11.26-.92H169V586.58H158.62Zm-15.68-3.43h-7.42V578.25h7.42Zm-6.49-.93H142V579.18h-5.57Zm-4.59.93h-7.47V578.25h7.47Zm-6.54-.93h5.61V579.18h-5.61Z"/><path class="cls-4" d="M299.07,601.54q0,.69-.66.69l-11-.17h-51l-11,.17a.6.6,0,0,1-.67-.69v-2.79a.61.61,0,0,1,.67-.7l11,.18h22.67v-4.88H245.78l-12,.17c-.39,0-.58-.23-.58-.69V590.3c0-.46.19-.7.58-.7l12,.18h13.28v-5.1H246.2l-11.75.18a.62.62,0,0,1-.7-.7v-2.61a.62.62,0,0,1,.7-.7l11.75.18h12.86v-5.45H237.88l-11.25.18c-.44,0-.66-.24-.66-.7v-2.7c0-.47.22-.7.66-.7l11.25.18h21.18v-5.19H246.61l-11.91.18a.62.62,0,0,1-.71-.7v-2.57c0-.55.24-.83.71-.83l11.91.18h12.45a36.92,36.92,0,0,0-.57-6.49,50.79,50.79,0,0,1,5.17.44c.85.08,1.28.34,1.28.78a5.07,5.07,0,0,1-.41,1.44,12.85,12.85,0,0,0-.54,3.83h11.87l13-.18c.44,0,.66.28.66.83l-.16,6.93v1.35l8-.18c.53,0,.79.23.79.7v2.7c0,.46-.26.7-.79.7l-1,0q-3.15-.09-7-.13v1.53l.16,7c0,.47-.22.7-.66.7l-13-.18H264v5.1h14.23l12-.18c.38,0,.58.24.58.7v2.53c0,.46-.2.69-.58.69l-12-.17H264v4.88H287.4l11-.18c.44,0,.66.24.66.7Zm0,32.66q0,.69-.66.69l-11-.17h-51l-11,.17a.6.6,0,0,1-.67-.69v-2.88a.6.6,0,0,1,.67-.69l11,.17h51l11-.17q.66,0,.66.69Zm-9.39-8.28c0,.47-.22.7-.66.7l-12.13-.09H247.15l-12.16.09c-.45,0-.67-.2-.67-.61l.21-6.53v-6.23l-.21-6.44c0-.47.22-.7.67-.7l12.16.17h29.74l12.13-.17c.44,0,.66.23.66.7l-.17,6.44v6.23Zm-30.49-11.45v-4.88H239.25v4.88Zm0,8.75v-5.61H239.25v5.61Zm25.57-8.75v-4.88h-21v4.88Zm0,8.75v-5.61h-21v5.61Zm-.17-51.38v-5.19H264v5.19Zm0,9.19v-5.45H264V581Z"/><path class="cls-4" d="M298.41,635.36l-11-.18h-51l-11,.18a1.06,1.06,0,0,1-1.13-1.16v-2.88a1.06,1.06,0,0,1,1.13-1.16l11.05.18h51l11-.18a1.06,1.06,0,0,1,1.13,1.16v2.88A1.06,1.06,0,0,1,298.41,635.36Zm-11-1.1,11,.17c.15,0,.19,0,.19-.23v-2.88c0-.23,0-.23-.2-.23l-11,.18h-51l-11-.18c-.15,0-.19,0-.19.23v2.88c0,.23,0,.23.2.23l11-.17Zm1.62-7.18L276.89,627H247.15l-12.16.08a1,1,0,0,1-1.13-1.07l.21-6.55v-6.21l-.21-6.43a1.07,1.07,0,0,1,1.13-1.18l12.17.18h29.73l12.12-.18a1.07,1.07,0,0,1,1.13,1.17l-.16,6.45v6.22l.16,6.44A1.06,1.06,0,0,1,289,627.08Zm-12.13-1,12.13.09c.16,0,.19,0,.2-.23l-.17-6.44v-6.24l.17-6.46c0-.22,0-.22-.2-.22l-12.12.18H247.15L235,606.57c-.15,0-.19,0-.19.24l.2,6.43v6.24l-.2,6.55c0,.07,0,.1,0,.1s0,0,.18,0l12.16-.09Zm8.33-2.38H263.28v-6.55h21.94Zm-21-.93h20.09v-4.69H264.2Zm-4.55.93H238.78v-6.55h20.87Zm-19.94-.93h19v-4.69h-19Zm45.51-7.83H263.28v-5.8h21.94Zm-21-.92h20.09v-4H264.2Zm-4.55.92H238.78v-5.8h20.87ZM239.71,614h19v-4h-19Zm58.7-11.31-11-.18h-51l-11,.18a1.06,1.06,0,0,1-1.13-1.16v-2.79a1.06,1.06,0,0,1,1.13-1.16l11.05.17h22.2v-4H245.78l-12,.18a1,1,0,0,1-1.05-1.16V590.3a1,1,0,0,1,1.05-1.16l12,.17H258.6v-4.16H246.2l-11.74.17a1.07,1.07,0,0,1-1.18-1.16v-2.61a1.07,1.07,0,0,1,1.17-1.16l11.75.17h12.4v-4.51H237.88l-11.24.17a1.06,1.06,0,0,1-1.14-1.16v-2.7a1.06,1.06,0,0,1,1.13-1.16l11.26.17H258.6v-4.25h-12l-11.91.17a1.08,1.08,0,0,1-1.17-1.16v-2.57a1.13,1.13,0,0,1,1.17-1.29l11.92.17h12a36.13,36.13,0,0,0-.56-5.93l-.12-.57.59,0a49,49,0,0,1,5.22.44c1.39.14,1.68.75,1.68,1.24a4.53,4.53,0,0,1-.44,1.61,10.4,10.4,0,0,0-.48,3.19h11.38l13-.17c.27,0,1.13.09,1.13,1.29l-.17,6.94v.86l7.55-.16a1.11,1.11,0,0,1,1.26,1.16v2.7a1.1,1.1,0,0,1-1.25,1.16l-1,0q-2.94-.09-6.55-.13v1.06l.17,7a1.06,1.06,0,0,1-1.13,1.17l-13-.17h-11.4v4.16h13.77l12-.17a1,1,0,0,1,1.05,1.16v2.53a1,1,0,0,1-1,1.16l-12.05-.18H264.45v4H287.4l11-.17a1.06,1.06,0,0,1,1.13,1.16v2.79A1.06,1.06,0,0,1,298.41,602.7Zm-11-1.1,11,.17c.15,0,.19,0,.19-.23v-2.79c0-.23,0-.23-.2-.23l-11,.17H263.52v-5.8h14.7l12,.17c.08,0,.11-.06.11-.23V590.3a.49.49,0,0,0,0-.22l-12.11.16H263.52v-6h12.34l13,.17c.15,0,.19,0,.19-.23l-.17-9h.47q3.9,0,7,.13l1,0c.33,0,.33-.08.33-.23v-2.7c0-.16,0-.23-.33-.23l-8.49.18v-1.82l.17-6.94c0-.35-.09-.35-.2-.35l-13,.17H263.5l0-.48a13.48,13.48,0,0,1,.58-4,4.1,4.1,0,0,0,.37-1.26c0-.12-.26-.26-.86-.32-1.53-.21-3.06-.34-4.56-.41a41.14,41.14,0,0,1,.48,6v.47H246.61l-11.92-.17c-.14,0-.23,0-.23.36v2.57c0,.2,0,.23.24.23l11.91-.17h12.92v6.11H237.88l-11.26-.17c-.15,0-.19,0-.19.23v2.7c0,.23,0,.23.2.23l11.24-.17h21.66v6.37H246.2l-11.76-.18c-.21,0-.23,0-.23.24v2.61c0,.2,0,.23.24.23l11.74-.17h13.34v6H245.78l-12-.17c-.07,0-.11.06-.11.23v2.53a.39.39,0,0,0,0,.22l12.11-.16h13.75v5.8H236.39l-11-.17c-.15,0-.19,0-.19.23v2.79c0,.23,0,.23.2.23l11-.17Zm-2.35-20.11H263.52v-6.37h21.53Zm-20.6-.93h19.68v-4.51H264.45Zm20.6-8.26H263.52v-6.11h21.53Zm-20.6-.93h19.68v-4.25H264.45Z"/><path class="cls-4" d="M404.9,630.45a11.27,11.27,0,0,0-2.94,3.62c-.5.84-.87,1.26-1.12,1.26a2.49,2.49,0,0,1-1.28-.61q-26-17.46-31.53-49.12-5.2,32.92-32.26,49a4.08,4.08,0,0,1-1.29.61c-.19,0-.58-.45-1.15-1.35a13.59,13.59,0,0,0-3.15-3.18A59,59,0,0,0,357,603.63a71.57,71.57,0,0,0,7.28-33.4,102.58,102.58,0,0,0-.58-10.59,42.11,42.11,0,0,1,6.33.7c.8.2,1.2.57,1.2,1.09a5.51,5.51,0,0,1-.5,1.74,13.57,13.57,0,0,0-.74,5c0,2.09,0,3.64-.12,4.66q2.93,20.6,11.66,34.75A67.51,67.51,0,0,0,404.9,630.45Z"/><path class="cls-4" d="M400.84,635.79a2.84,2.84,0,0,1-1.56-.7c-16.63-11.18-27.13-27-31.22-46.89-3.9,20.73-14.68,36.48-32.06,46.83-1.05.63-1.34.68-1.52.68-.35,0-.7-.25-1.54-1.57a13.09,13.09,0,0,0-3-3l-.62-.44.68-.35a58.8,58.8,0,0,0,26.56-26.88,71.45,71.45,0,0,0,7.24-33.19,104.67,104.67,0,0,0-.58-10.53l-.07-.54.55,0a43.22,43.22,0,0,1,6.4.7c1.3.34,1.57,1,1.57,1.55a5.75,5.75,0,0,1-.53,1.92,13.05,13.05,0,0,0-.71,4.83c0,2.09,0,3.67-.12,4.7,1.93,13.5,5.84,25.13,11.6,34.47a67.34,67.34,0,0,0,23.25,22.7l.57.34-.51.42a11,11,0,0,0-2.82,3.47C401.73,635.38,401.3,635.79,400.84,635.79Zm-32.83-53,.48,2.74c3.66,20.88,14.2,37.3,31.33,48.82.67.49.95.53,1,.53a7.69,7.69,0,0,0,.72-1,12,12,0,0,1,2.55-3.31,68.11,68.11,0,0,1-23-22.69c-5.83-9.44-9.78-21.19-11.73-34.93.07-1.1.11-2.65.11-4.72a14.13,14.13,0,0,1,.78-5.19,4.73,4.73,0,0,0,.47-1.56c0-.11,0-.42-.86-.64a40.27,40.27,0,0,0-5.68-.66c.26,2.31.44,5.7.51,10.09a72.31,72.31,0,0,1-7.33,33.61,59.66,59.66,0,0,1-26.31,27,14,14,0,0,1,2.65,2.84,7.43,7.43,0,0,0,.84,1.13,8.52,8.52,0,0,0,1-.53c17.83-10.61,28.61-27,32.05-48.71Zm-33.41,52Z"/><path class="cls-4" d="M505.15,631.41c0,.46-.22.7-.66.7l-6.22-.18H448.88l-7.5.18c-.45,0-.67-.24-.67-.7v-4.14a.6.6,0,0,1,.67-.69l7.5.17H470.8v-20H460.38l-11.88.17q-.66,0-.66-.69v-4.05c0-.47.22-.7.66-.7l11.88.17H470.8V583.2h-20a69.55,69.55,0,0,1-8.73,14.33c-.44.52-.76.78-.95.78s-.62-.29-1.28-.87a9.35,9.35,0,0,0-3-1.87A75.87,75.87,0,0,0,451,568.4a17.09,17.09,0,0,0,.91-5.1,31,31,0,0,1,5.17,1.53c.69.23,1,.55,1,.95a2,2,0,0,1-.66,1.27,7.25,7.25,0,0,0-1.37,2.83L453,578.19H470.8v-7.4a82.45,82.45,0,0,0-.66-12.24q2.94.13,5.92.48c.69.09,1,.35,1,.79a2.55,2.55,0,0,1-.17.74,5.49,5.49,0,0,0-.24.87c-.36,1.3-.54,4.37-.54,9.19v7.57h15.68l11.87-.17c.44,0,.66.23.66.7v4c0,.46-.22.7-.66.7l-11.87-.18H476.14v18.42h11.79l11.83-.17a.62.62,0,0,1,.71.7v4.05a.62.62,0,0,1-.71.69l-11.83-.17H476.14v20h22.13l6.22-.17q.66,0,.66.69Z"/><path class="cls-4" d="M504.49,632.57l-6.23-.17H448.88l-7.49.17a1.06,1.06,0,0,1-1.14-1.16v-4.14a1.06,1.06,0,0,1,1.13-1.16l7.51.18h21.45V607.18h-10l-11.87.18a1.06,1.06,0,0,1-1.13-1.16v-4.05A1.06,1.06,0,0,1,448.5,601l11.88.17h10V583.67H451.12a70.36,70.36,0,0,1-8.67,14.15c-.57.68-.95,1-1.31,1s-.66-.17-1.59-1a8.72,8.72,0,0,0-2.87-1.78l-.63-.22.43-.52a75.69,75.69,0,0,0,14.06-27,16.49,16.49,0,0,0,.89-5v-.58l.56.13a32.11,32.11,0,0,1,5.26,1.55c.86.29,1.32.76,1.32,1.38a2.38,2.38,0,0,1-.79,1.59,6.45,6.45,0,0,0-1.26,2.64l-2.84,7.72h16.66v-6.94a81.4,81.4,0,0,0-.66-12.16l-.09-.57.57,0c2,.09,4,.25,5.95.48,1.26.16,1.44.85,1.44,1.25a2.84,2.84,0,0,1-.19.89,4.31,4.31,0,0,0-.22.79c-.36,1.31-.54,4.36-.54,9.12v7.11h15.22l11.87-.17a1.06,1.06,0,0,1,1.13,1.16v4a1.06,1.06,0,0,1-1.13,1.16l-11.88-.17H476.6v17.49h11.33l11.83-.17a1.08,1.08,0,0,1,1.17,1.16v4.05a1.08,1.08,0,0,1-1.17,1.16l-11.84-.18H476.6v19.11h21.67l6.21-.18h0a1.07,1.07,0,0,1,1.14,1.16v4.14A1.06,1.06,0,0,1,504.49,632.57Zm-6.22-1.1,6.24.17c.14,0,.18,0,.18-.23v-4.14c0-.23,0-.23-.2-.23l-6.2.17H475.68v-21h12.25l11.84.18c.21,0,.23,0,.23-.23v-4.05c0-.2,0-.24-.24-.24l-11.82.18H475.68V582.74h16.14l11.88.17c.15,0,.19,0,.19-.23v-4c0-.24,0-.24-.2-.24l-11.86.18H475.68v-8c0-4.91.18-8,.55-9.31a5.33,5.33,0,0,1,.26-.9,2.19,2.19,0,0,0,.14-.59c0-.17-.22-.27-.63-.33-1.78-.2-3.56-.35-5.31-.45a90.42,90.42,0,0,1,.58,11.75v7.87H452.39l.18-.6c0-.08.49-1.35,3.07-8.34a7.43,7.43,0,0,1,1.47-3,1.6,1.6,0,0,0,.53-.94c0-.25-.5-.44-.72-.52a29.51,29.51,0,0,0-4.57-1.38,18.58,18.58,0,0,1-.92,4.66,77.12,77.12,0,0,1-13.83,26.84,10.3,10.3,0,0,1,2.56,1.71,5.21,5.21,0,0,0,1,.76s.19-.16.58-.62A69.79,69.79,0,0,0,450.4,583l.12-.27h20.75v19.35H460.38l-11.88-.18c-.16,0-.2,0-.2.24v4.05c0,.23,0,.23.2.23l11.87-.18h10.9v21H448.88l-7.51-.18c-.15,0-.19,0-.19.23v4.14c0,.23,0,.23.2.23l7.48-.17Z"/></svg>