<svg enable-background="new 0 0 160 70" viewBox="0 0 160 70" xmlns="http://www.w3.org/2000/svg"><g fill="#373a3f"><path d="m66.48 61.57c-.21-.07-.41-.11-.59-.11-.27 0-.49.07-.65.2s-.24.31-.24.54c0 .13.03.25.08.35.06.1.13.19.23.27s.2.14.33.2c.12.06.24.12.38.17.14.06.28.13.41.2s.26.15.36.24c.11.09.19.2.26.33s.1.28.1.45c0 .41-.16.72-.48.93-.32.22-.73.32-1.24.32-.33 0-.69-.05-1.08-.17l-.02-.02.15-1.05.14-.02.22.87c.22.09.44.13.67.13.31 0 .55-.07.72-.2s.26-.33.26-.58c0-.13-.03-.25-.08-.35s-.13-.18-.22-.26c-.09-.07-.2-.14-.32-.19-.12-.06-.24-.12-.37-.17-.14-.06-.28-.13-.42-.2s-.26-.15-.37-.25c-.11-.09-.2-.21-.26-.35-.07-.14-.1-.3-.1-.48 0-.37.15-.66.47-.86.31-.2.7-.3 1.15-.3.32 0 .66.04 1.02.11l.02.02-.18.96-.12.02z"/><path d="m67.97 64.14c0 .38.07.7.21.94s.36.36.64.36c.26 0 .47-.11.6-.32.14-.21.21-.53.21-.94 0-.39-.07-.7-.22-.93s-.36-.34-.63-.34c-.26 0-.46.1-.6.31-.14.2-.21.51-.21.92m2.29-.03c0 .47-.14.85-.42 1.13-.28.29-.64.43-1.08.43-.43 0-.77-.14-1.03-.41s-.39-.63-.39-1.06c0-.45.14-.82.41-1.11.28-.29.64-.43 1.09-.43.43 0 .77.13 1.03.4s.39.62.39 1.05"/><path d="m70.52 62.88c.34-.07.67-.14.98-.21l.03.02v.36c.36-.25.69-.38 1-.38.29 0 .52.08.69.24.16.16.25.39.25.69v1.09c0 .26 0 .45.01.57 0 .06.03.09.08.11l.34.1.01.13c-.27-.01-.51-.01-.71-.01s-.43 0-.67.01l-.01-.13.31-.09c.05-.02.07-.05.08-.1 0-.03 0-.09 0-.19v-1.34c0-.25-.06-.43-.18-.54s-.3-.16-.53-.16c-.21 0-.42.06-.64.18v1.34c0 .26 0 .49.01.7 0 .06.03.09.07.11l.32.09.01.13c-.25-.01-.48-.01-.68-.01s-.44 0-.72.01l-.01-.13.36-.1c.05-.02.07-.05.07-.1 0-.13 0-.26 0-.38v-1.05c0-.27 0-.52-.01-.75l-.41-.11z"/><path d="m74.79 63.68c0 .27.05.47.15.62.1.14.25.22.45.22.19 0 .33-.07.42-.2.09-.14.14-.34.14-.6 0-.25-.05-.45-.15-.6s-.25-.22-.45-.22c-.19 0-.33.07-.42.2s-.14.33-.14.58m.05 2.05c-.13.2-.19.39-.19.57s.07.32.2.42.31.15.54.15c.27 0 .51-.07.71-.2s.3-.32.3-.56c0-.12-.05-.22-.15-.29s-.29-.1-.57-.1c-.1 0-.21 0-.32.01-.12 0-.23.01-.34.01-.05 0-.11-.01-.18-.01m1.52-2.67c.16.17.24.37.24.61 0 .33-.11.59-.32.79s-.48.29-.8.29c-.18 0-.34-.03-.49-.09-.1.18-.15.32-.15.42 0 .06.03.09.08.11s.16.03.3.03c.11 0 .24 0 .39-.01s.29-.01.42-.01c.31 0 .56.06.75.19.18.12.27.31.27.55 0 .37-.18.66-.54.87s-.78.32-1.24.32c-.38 0-.68-.06-.9-.18-.23-.12-.34-.28-.34-.48 0-.26.17-.52.5-.78-.21-.08-.32-.19-.32-.33 0-.19.15-.45.44-.78-.32-.2-.48-.48-.48-.85 0-.32.12-.58.35-.77s.53-.29.9-.29c.1 0 .23.01.39.04s.28.04.37.04c.31 0 .6 0 .86-.01l.02.12z"/><path d="m78.81 62.98c-.12-.03-.25-.05-.39-.05-.19 0-.34.04-.46.11s-.17.18-.17.31.04.22.11.29.21.14.4.21l.25.09c.27.1.46.21.59.33.13.13.19.29.19.49 0 .28-.12.51-.37.68-.25.16-.54.25-.88.25-.31 0-.63-.06-.96-.19.07-.27.13-.53.17-.78l.12-.02.22.66c.12.04.26.07.45.07s.34-.04.45-.12.17-.19.17-.33c0-.13-.04-.24-.11-.31-.08-.07-.19-.14-.36-.19l-.32-.11c-.28-.09-.47-.2-.58-.33s-.16-.29-.16-.49c0-.27.13-.48.39-.64s.55-.23.89-.23c.31 0 .59.04.85.13-.06.23-.11.48-.16.74l-.14.02z"/><path d="m79.45 61.17c.33-.07.67-.14 1.01-.22l.03.03c-.01.19-.01.47-.02.82v1.21c.36-.23.69-.34 1-.34.28 0 .51.08.68.24s.25.39.25.7v1.09c0 .24 0 .43.01.57 0 .05.03.09.08.11l.34.1.01.13c-.27-.01-.51-.01-.71-.01s-.43 0-.67.01l-.01-.13.31-.09c.05-.02.08-.05.08-.1 0-.03 0-.09 0-.19v-1.34c0-.25-.06-.43-.18-.54s-.3-.16-.53-.16c-.2 0-.42.05-.64.15v1.38c0 .25 0 .49.01.7 0 .06.03.09.08.11l.32.09.01.13c-.26-.01-.49-.01-.69-.01s-.44 0-.72.01l-.01-.13.35-.1c.05-.02.08-.05.08-.1 0-.2.01-.45.01-.75v-1.29c0-.42 0-.79 0-1.11s-.01-.56-.01-.73l-.41-.12z"/><path d="m84.68 64.2c-.43 0-.72.04-.88.13s-.24.24-.24.44.05.33.16.41c.1.08.24.12.43.12.2 0 .38-.04.53-.11zm-1.49-1.27c.4-.17.76-.26 1.06-.26.32 0 .56.08.75.25.18.16.27.4.27.71l-.02 1.28c0 .11 0 .19.01.25s.03.11.06.15c.03.03.07.06.13.07s.14.02.24.02l.01.12c-.09.04-.2.07-.32.11-.13.04-.21.05-.26.05-.2 0-.34-.1-.41-.31-.29.21-.56.31-.82.31-.29 0-.52-.07-.69-.21-.18-.14-.26-.34-.26-.6 0-.32.14-.55.42-.7s.72-.23 1.33-.23v-.24c0-.23-.06-.4-.18-.51s-.3-.17-.55-.17c-.19 0-.42.03-.7.11z"/><path d="m85.83 62.88c.35-.07.67-.14.98-.21l.03.02v.36c.36-.25.69-.38 1-.38.29 0 .52.08.69.24.16.16.25.39.25.69v1.09.57c0 .06.03.09.08.11l.34.1.01.13c-.27-.01-.51-.01-.71-.01s-.43 0-.67.01l-.01-.13.31-.09c.05-.02.07-.05.08-.1 0-.03 0-.09 0-.19v-1.34c0-.25-.06-.43-.18-.54s-.3-.16-.54-.16c-.21 0-.42.06-.64.18v1.34c0 .26 0 .49.01.7 0 .06.02.09.07.11l.32.09.01.13c-.25-.01-.48-.01-.69-.01-.2 0-.44 0-.71.01l-.01-.13.36-.1c.04-.02.07-.05.07-.1 0-.13 0-.26 0-.38v-1.05c0-.27 0-.52-.01-.75l-.41-.11z"/><path d="m94.12 62.36-.12.02-.22-.81c-.25-.06-.49-.09-.69-.09-.5 0-.9.18-1.18.53-.29.35-.43.8-.43 1.36 0 .6.16 1.08.49 1.43.33.36.78.53 1.36.53.33 0 .67-.06 1.03-.19l.03.14c-.4.28-.86.42-1.37.42-.66 0-1.2-.2-1.61-.61-.41-.4-.61-.94-.61-1.6 0-.7.23-1.26.68-1.67s1.04-.62 1.76-.62c.35 0 .7.04 1.07.13l.02.03z"/><path d="m96.76 65.32c-.32.24-.64.36-.96.36s-.56-.08-.72-.25c-.16-.16-.24-.39-.24-.69v-.65c0-.44 0-.77-.01-.99l-.41-.11-.01-.11c.36-.07.69-.14 1-.21l.03.02c-.01.24-.02.55-.02.93v.98c0 .25.06.43.17.54.12.11.28.17.49.17s.43-.06.65-.17v-1.31c0-.29-.01-.53-.01-.72l-.41-.11-.02-.11c.36-.07.69-.14 1-.21l.03.02c-.01.24-.02.56-.02.94 0 .74 0 1.2.01 1.36 0 .08.01.15.02.2s.03.09.06.12.07.05.13.06.13.02.23.02l.02.12c-.09.04-.2.07-.33.11-.12.03-.21.05-.25.05-.22-.01-.36-.12-.43-.36"/><path d="m97.91 61.28-.02-.1c.36-.07.7-.14 1.01-.22l.03.03c-.01.33-.02.8-.02 1.39v2c0 .37 0 .66.01.89.01.06.04.1.09.11l.33.1.01.13c-.27-.01-.52-.01-.72-.01s-.44 0-.71.01l-.01-.13.35-.1c.05-.02.08-.05.08-.1 0-.23.01-.49.01-.78v-1.26c0-.76 0-1.37-.01-1.84z"/><path d="m100.46 63.08c-.01.69-.02 1.25-.02 1.68 0 .21.03.36.09.44.07.08.19.12.36.12.14 0 .33-.02.55-.05l.02.14c-.35.18-.67.27-.95.27-.23 0-.4-.06-.51-.18s-.17-.3-.17-.54c0-.4.01-1.03.02-1.89l-.42-.11-.02-.12.48-.04.22-.74c.12-.03.22-.06.32-.09l.03.02c-.01.25-.01.48-.01.7v.11h.93v.29h-.92z"/><path d="m103.87 65.32c-.32.24-.64.36-.96.36s-.56-.08-.73-.25c-.16-.16-.24-.39-.24-.69v-.65c0-.44 0-.77-.01-.99l-.41-.11-.02-.11c.36-.07.69-.14 1-.21l.03.02c-.01.24-.02.55-.02.93v.98c0 .25.06.43.18.54s.28.17.49.17.43-.06.66-.17v-1.31c0-.29-.01-.53-.01-.72l-.41-.11-.02-.11c.36-.07.69-.14 1-.21l.03.02c-.01.24-.02.56-.02.94 0 .74 0 1.2.01 1.36 0 .08.01.15.02.2s.03.09.06.12.07.05.13.06.13.02.23.02l.02.12c-.09.04-.2.07-.33.11-.12.03-.21.05-.25.05-.23-.01-.36-.12-.43-.36"/><path d="m105.03 62.88c.34-.07.67-.14.98-.21l.03.02v.36c.38-.25.75-.38 1.12-.38l.02.02c-.06.31-.12.62-.18.95l-.12.02c-.06-.17-.11-.31-.17-.42-.05-.11-.14-.16-.25-.16s-.25.05-.42.15v1.33c0 .32 0 .55.01.69 0 .05.03.09.08.11l.41.12.01.13c-.32-.01-.58-.01-.78-.01s-.44 0-.72.01l-.01-.13.36-.1c.05-.02.08-.05.08-.1 0-.09 0-.21 0-.38v-1.05c0-.33 0-.58-.01-.75l-.41-.11z"/><path d="m108.89 64.2c-.43 0-.73.04-.88.13-.16.09-.24.24-.24.44s.05.33.16.41c.1.08.25.12.42.12.2 0 .38-.04.53-.11zm-1.49-1.27c.4-.17.75-.26 1.06-.26s.56.08.74.25c.18.16.27.4.27.71l-.01 1.28c0 .11 0 .19.01.25s.03.11.06.15c.03.03.08.06.13.07.06.01.14.02.24.02l.02.12c-.09.04-.2.07-.32.11s-.21.05-.26.05c-.2 0-.34-.1-.41-.31-.29.21-.56.31-.82.31-.29 0-.52-.07-.7-.21s-.26-.34-.26-.6c0-.32.14-.55.42-.7s.72-.23 1.33-.23v-.24c.01-.23-.05-.4-.17-.51s-.3-.17-.55-.17c-.19 0-.42.03-.7.11z"/><path d="m110.04 61.28-.02-.1c.36-.07.7-.14 1.01-.22l.03.03c-.01.33-.02.8-.02 1.39v2c0 .37 0 .66.01.89.01.06.04.1.09.11l.33.1.01.13c-.28-.01-.52-.01-.72-.01s-.44 0-.72.01l-.01-.13.35-.1c.05-.02.08-.05.08-.1 0-.23.01-.49.01-.78v-1.26c0-.76 0-1.37-.01-1.84z"/><path d="m114.64 64.2c-.43 0-.72.04-.88.13s-.24.24-.24.44.05.33.16.41.25.12.43.12c.2 0 .38-.04.53-.11zm-1.49-1.27c.4-.17.75-.26 1.06-.26.32 0 .56.08.75.25.18.16.28.4.27.71l-.02 1.28c0 .11 0 .19.01.25s.02.11.05.15c.03.03.08.06.14.07s.14.02.24.02l.02.12c-.09.04-.2.07-.32.11-.13.04-.21.05-.26.05-.2 0-.34-.1-.41-.31-.29.21-.56.31-.82.31-.29 0-.52-.07-.7-.21s-.26-.34-.26-.6c0-.32.14-.55.42-.7s.72-.23 1.32-.23l.01-.24c0-.23-.06-.4-.18-.51s-.3-.17-.55-.17c-.19 0-.42.03-.7.11z"/><path d="m115.79 62.88c.35-.07.67-.14.97-.21l.03.02v.36c.36-.25.69-.38 1-.38.29 0 .52.08.69.24s.25.39.25.69v1.09c0 .26 0 .45.01.57 0 .06.03.09.08.11l.34.1.01.13c-.27-.01-.51-.01-.71-.01s-.43 0-.67.01l-.01-.13.31-.09c.05-.02.07-.05.08-.1 0-.03 0-.09 0-.19v-1.34c0-.25-.06-.43-.18-.54s-.3-.16-.53-.16c-.21 0-.42.06-.64.18v1.34c0 .26 0 .49.01.7 0 .06.03.09.07.11l.32.09.01.13c-.25-.01-.48-.01-.68-.01s-.44 0-.71.01l-.01-.13.36-.1c.04-.02.07-.05.07-.1 0-.13 0-.26 0-.38v-1.05c0-.27 0-.52-.01-.75l-.41-.11z"/><path d="m121.51 63.01c-.14-.04-.29-.06-.46-.06-.35 0-.61.1-.8.3-.18.2-.27.5-.27.91 0 .35.08.63.24.84s.39.31.69.31c.19 0 .39-.05.6-.16zm-.44-1.84c.36-.07.7-.14 1.01-.22l.03.03c-.01.44-.02.91-.02 1.42v1.67.84c0 .1 0 .19.01.25s.03.11.06.15c.03.03.07.06.13.07s.14.02.24.02l.02.12c-.09.04-.2.07-.33.11-.12.04-.21.05-.26.05-.21 0-.35-.12-.42-.35-.32.24-.63.35-.93.35-.38 0-.68-.14-.91-.4-.23-.27-.34-.6-.34-1 0-.51.15-.9.45-1.18s.72-.42 1.26-.42c.13 0 .28.01.44.04 0-.45-.01-.89-.01-1.32l-.42-.12z"/><path d="m127.59 62.36-.12.02-.22-.81c-.26-.06-.48-.09-.69-.09-.5 0-.9.18-1.19.53s-.43.8-.43 1.36c0 .6.16 1.08.49 1.43.33.36.78.53 1.36.53.33 0 .67-.06 1.03-.19l.03.14c-.4.28-.86.42-1.37.42-.66 0-1.2-.2-1.61-.61-.41-.4-.61-.94-.61-1.6 0-.7.23-1.26.68-1.67s1.04-.62 1.76-.62c.35 0 .7.04 1.06.13l.02.03z"/><path d="m128.08 62.88c.34-.07.67-.14.98-.21l.03.02v.36c.38-.25.75-.38 1.12-.38l.02.02c-.06.31-.12.62-.17.95l-.12.02c-.06-.17-.11-.31-.17-.42-.05-.11-.14-.16-.25-.16s-.25.05-.41.15v1.33c0 .32 0 .55.01.69 0 .05.03.09.08.11l.41.12.01.13c-.32-.01-.58-.01-.78-.01s-.44 0-.72.01l-.01-.13.36-.1c.05-.02.08-.05.08-.1 0-.09 0-.21 0-.38v-1.05c0-.33 0-.58-.01-.75l-.41-.11z"/><path d="m132.26 63.81v-.09c0-.29-.05-.5-.14-.62-.09-.13-.23-.19-.41-.19-.24 0-.42.09-.55.26-.13.18-.2.39-.21.64zm.61 1.56c-.17.11-.36.19-.54.23-.18.05-.36.07-.51.07-.45 0-.82-.13-1.09-.39-.28-.26-.42-.61-.42-1.07 0-.45.13-.83.39-1.12s.61-.43 1.04-.43c.36 0 .65.11.85.32.2.22.3.52.3.9 0 .06 0 .12-.01.18h-1.94c0 .44.1.76.31.95s.53.28.97.28c.2 0 .41-.02.63-.06z"/><path d="m134.83 64.2c-.43 0-.73.04-.88.13-.16.09-.24.24-.24.44s.05.33.16.41c.1.08.25.12.43.12.2 0 .38-.04.53-.11zm-1.49-1.27c.4-.17.75-.26 1.06-.26.32 0 .56.08.75.25.18.16.28.4.27.71l-.01 1.28c0 .11 0 .19.01.25s.03.11.06.15c.03.03.07.06.13.07s.14.02.24.02l.01.12c-.09.04-.2.07-.32.11-.13.04-.21.05-.26.05-.2 0-.34-.1-.41-.31-.29.21-.56.31-.82.31-.29 0-.52-.07-.69-.21s-.26-.34-.26-.6c0-.32.14-.55.42-.7s.72-.23 1.33-.23v-.24c0-.23-.06-.4-.18-.51s-.3-.17-.55-.17c-.19 0-.42.03-.7.11z"/><path d="m136.91 63.08c-.01.69-.02 1.25-.02 1.68 0 .21.03.36.1.44.06.08.18.12.36.12.14 0 .32-.02.55-.05l.02.14c-.35.18-.67.27-.95.27-.23 0-.4-.06-.51-.18s-.17-.3-.17-.54c0-.4.01-1.03.02-1.89l-.43-.11-.02-.12.47-.04.22-.74c.12-.03.22-.06.32-.09l.03.02c-.01.25-.01.48-.01.7v.11h.93v.29h-.91z"/><path d="m139.08 61.58c0 .11-.04.2-.1.27-.07.07-.16.1-.26.1s-.18-.03-.25-.1c-.07-.06-.1-.15-.1-.25 0-.11.03-.2.1-.26.07-.07.16-.1.27-.1.1 0 .18.03.25.09.06.06.09.14.09.25m-1.04 1.3c.36-.07.69-.14 1-.21l.03.02c-.01.27-.02.56-.02.88v1.18c0 .24 0 .41.01.51 0 .06.03.09.08.11l.36.1.01.13c-.28-.01-.53-.01-.73-.01s-.44 0-.72.01l-.01-.13.36-.1c.05-.02.07-.05.08-.1 0-.08 0-.21 0-.4v-1.03c0-.27 0-.52-.01-.74l-.41-.11z"/><path d="m139.33 62.74c.26.01.49.01.69.01.18 0 .41 0 .66-.01l.01.13-.36.1c.17.48.36.98.59 1.52.06.14.11.28.15.41.05-.13.1-.26.16-.4.19-.46.38-.97.59-1.52l-.35-.1-.01-.13c.17.01.34.01.52.01s.36 0 .53-.01l.01.13-.31.09c-.05.02-.09.06-.12.12-.16.38-.35.82-.56 1.34s-.38.92-.48 1.2l-.26.03c-.11-.3-.28-.7-.49-1.22s-.39-.96-.54-1.33c-.03-.07-.08-.12-.14-.14l-.28-.09z"/><path d="m144.35 63.81v-.09c0-.29-.04-.5-.14-.62-.09-.13-.23-.19-.41-.19-.24 0-.42.09-.55.26-.13.18-.2.39-.21.64zm.61 1.56c-.17.11-.35.19-.54.23-.18.05-.35.07-.51.07-.45 0-.82-.13-1.09-.39-.28-.26-.42-.61-.42-1.07 0-.45.13-.83.39-1.12s.61-.43 1.04-.43c.36 0 .65.11.85.32.2.22.3.52.3.9 0 .06 0 .12-.01.18h-1.94c0 .44.1.76.31.95s.53.28.97.28c.2 0 .41-.02.63-.06z"/><path d="m147.66 63.51c.15.03.29.04.43.04.33 0 .58-.08.75-.25s.26-.43.26-.78c0-.33-.08-.58-.24-.75-.16-.16-.42-.25-.77-.25-.14 0-.28.01-.42.03v1.96zm0 1.14v.33c0 .1 0 .19.01.27 0 .05.03.08.08.09l.42.13v.13c-.3-.01-.57-.01-.81-.01-.25 0-.5 0-.76.01l-.01-.13.38-.11c.05-.02.08-.05.08-.09 0-.08 0-.18 0-.28s0-.21 0-.34v-2.5c0-.1 0-.2 0-.28s0-.16 0-.23c0-.05-.03-.09-.07-.1l-.38-.12-.01-.13c.27.01.52.01.78.01.17 0 .33 0 .49-.01s.3-.01.43-.01c.49 0 .85.1 1.1.28.25.19.37.47.37.85 0 .44-.15.78-.43 1.03-.29.24-.69.37-1.21.37-.14 0-.3-.01-.46-.03z"/><path d="m151.61 64.2c-.43 0-.73.04-.88.13-.16.09-.24.24-.24.44s.05.33.16.41.25.12.43.12c.2 0 .38-.04.53-.11zm-1.49-1.27c.4-.17.75-.26 1.06-.26.32 0 .57.08.75.25.18.16.27.4.27.71l-.01 1.28c0 .11 0 .19.01.25s.02.11.05.15c.03.03.08.06.13.07.06.01.14.02.24.02l.02.12c-.09.04-.2.07-.32.11-.13.04-.22.05-.26.05-.2 0-.34-.1-.41-.31-.29.21-.56.31-.82.31-.29 0-.52-.07-.7-.21-.17-.14-.26-.34-.26-.6 0-.32.14-.55.42-.7s.72-.23 1.33-.23v-.24c0-.23-.06-.4-.18-.51s-.3-.17-.55-.17c-.19 0-.42.03-.7.11z"/><path d="m152.76 62.88c.34-.07.67-.14.98-.21l.03.02v.36c.38-.25.75-.38 1.12-.38l.02.02c-.06.31-.12.62-.18.95l-.12.02c-.06-.17-.11-.31-.17-.42-.05-.11-.14-.16-.25-.16s-.25.05-.42.15v1.33.69c0 .05.03.09.08.11l.41.12.01.13c-.32-.01-.58-.01-.78-.01s-.44 0-.71.01l-.01-.13.36-.1c.05-.02.08-.05.08-.1 0-.09 0-.21 0-.38v-1.05c0-.33 0-.58-.01-.75l-.41-.11z"/><path d="m158.18 65.6c-.27-.01-.48-.01-.61-.01-.09 0-.2 0-.35.01-.08-.12-.17-.26-.27-.4-.28-.4-.59-.78-.91-1.16l1.11-1.08-.34-.1-.01-.12c.27.01.46.01.58.01.11 0 .33 0 .64-.01l.01.13c-.21.05-.35.1-.45.14-.09.04-.2.12-.32.23l-.66.61.99 1.24c.11.14.2.23.26.27.06.05.17.09.32.12zm-3.23-4.32-.02-.1c.36-.07.7-.14 1.01-.22l.03.03c-.01.3-.02.76-.02 1.39v2.01c0 .3 0 .6.01.89 0 .06.03.1.08.11l.3.09.01.13c-.24-.01-.47-.01-.67-.01s-.44 0-.71.01l-.01-.13.36-.11c.04-.01.06-.04.07-.09 0-.23.01-.49.01-.78v-1.26c0-1.06 0-1.68-.01-1.84z"/><path d="m67.58 44.99v12.78c0 1.01-1.47.86-1.47.86v-14.47h.49s.98.02.98.83"/><path d="m82.28 48.19v9.56c0 1.01-1.47.86-1.47.86v-11.24h.49s.98.02.98.82"/><path d="m92.75 48.26v9.56c0 1.01-1.47.86-1.47.86v-11.25h.49s.98.02.98.83"/><path d="m121.88 46.26v7.8c0 1.01-1.47.86-1.47.86v-9.48h.49s.98.01.98.82"/><path d="m129.17 45.13v12.63c0 1.01-1.47.86-1.47.86v-14.32h.49s.98.02.98.83"/><path d="m140.39 45.13v12.63c0 1.01-1.47.86-1.47.86v-14.32h.49s.98.02.98.83"/><path d="m118.94 49.36v3.43c0 .96-1.39.81-1.39.81v-5.03h.47c-.01.01.92.03.92.79"/><path d="m114.8 54.96v2.88c0 .96-1.39.81-1.39.81v-4.48h.46c0 .01.93.02.93.79"/><path d="m119.06 54.96v2.88c0 .96-1.39.81-1.39.81v-4.48h.47c0 .01.92.02.92.79"/><path d="m68.76 47.16s.4.04.58-.41h.41s.23 1.02-.67 1.02h-5.08l-.26-.59z"/><path d="m74.13 44.81s.4.03.58-.41h.42s.23 1.02-.67 1.02h-2.18l-.27-.59z"/><path d="m91.66 56.45s.4.04.58-.42h.42s.23 1.02-.67 1.02h-9.79l-.26-.59z"/><path d="m108.48 47.19s.4.04.58-.42h.42s.23 1.02-.67 1.02h-12.9l-.26-.59z"/><path d="m155.44 44.88s.4.04.58-.41h.41s.23 1.02-.67 1.02h-11.45l-.27-.59z"/><path d="m155.88 57.2s.4.03.58-.42h.42s.23 1.01-.67 1.01h-11.46l-.27-.59z"/><path d="m137.07 46.93s.4.03.58-.42h.42s.23 1.02-.67 1.02h-7.16l-.27-.59z"/><path d="m137.59 48.67s.4.03.58-.42h.42s.23 1.02-.67 1.02h-8.29l-.27-.59z"/><path d="m66.06 47.58s-.1 2.88-2.59 6.87v.39s2.59-2.16 2.88-4.19v-3.14z"/><path d="m67.45 49.22s.4.16.76 1.49c.31 1.11 1.22.44 1.16-.26-.05-.58-.65-1.35-1.97-1.42z"/><path d="m70.57 45.66s-.3 4.26-1.87 6.61v.29s2.68-1.93 3.24-6.38z"/><path d="m74.4 45.3s.01 4.69 2.63 6.26l1.13-1.58s-2.81-.62-3.41-4.68"/><path d="m72.24 49.64s-.15 3.99-2.14 6.91l.29.03s2.93-2.37 3.32-6.35z"/><path d="m69.23 56.48s4.91-.03 6.61-.26l.03.36s-3.98 1.19-6.15 1.49z"/><path d="m74.6 53.14v.39s1.31 2.46 1.47 4.19c.12 1.27 1.7.79 1.37-.75-.32-1.53-1.56-2.88-2.84-3.83"/><path d="m87.51 56.71v-11.53c0-.81-.98-.83-.98-.83h-.49v12.36z"/><path d="m100.69 44.08v.33s1.22 1.13 1.54 1.9c.33.79 1.44.56 1.44-.29-.01-1.22-1.35-1.48-2.98-1.94"/><path d="m104.97 47.58s-.33 6.94-9.53 10.54v.29s9.2-1.44 11.13-10.83z"/><path d="m99.28 47.71s2.59 8.05 10.21 8.84l-1.24 1.67s-7.89-2.06-9.2-10.54z"/><path d="m115.02 44.05 1.28.88s-1.77 3.4-4.62 4.45v-.2s2.23-1.8 3.34-5.13"/><path d="m116.07 44.99s3.17.62 3.47 1.83c.29 1.21-.72 1.67-1.41.42-.69-1.24-2.16-2.09-2.16-2.09z"/><path d="m115.02 46.6s2.06.33 2.06 1.37c0 1.05-.85 1.11-1.08.46s-.43-1.15-1.05-1.64z"/><path d="m112.63 50.23s.46 4.68-1.37 7.69v.36s2.59-1.6 2.65-7.07l.04-1.5s.01-.92-.88-.92h-.5z"/><path d="m117.97 49.18h-4.78l.26.59h4.52z"/><path d="m118.64 50.97h-4.78l.26.59h4.52z"/><path d="m139.18 44.86h-10.4l.27.59h10.13z"/><path d="m139.18 57.21h-10.4l.27.59h10.13z"/><path d="m145.36 45.13v12.63c0 1.01-1.47.86-1.47.86v-14.32h.49s.98.02.98.83"/><path d="m118.18 52.76h-4.78l.26.59h4.52z"/><path d="m118.36 54.53h-4.78l.26.59h4.52z"/><path d="m118.36 57.46h-4.78l.26.59h4.52z"/><path d="m131.99 50.51v1.86c0 .96-1.39.81-1.39.81v-3.45h.47c-.01 0 .92.01.92.78"/><path d="m137.35 50.51v1.86c0 .96-1.39.81-1.39.81v-3.45h.47c-.01 0 .92.01.92.78"/><path d="m136.34 50.08h-5.57l.27.59h5.3z"/><path d="m136.34 52.26-5.57.01.27.59h5.3z"/><path d="m149.43 47.23v2.41c0 1.01-1.46.85-1.46.85v-4.09h.49c0 .01.97.03.97.83"/><path d="m154.01 47.23v2.41c0 1.01-1.46.85-1.46.85v-4.09h.49c-.01.01.97.03.97.83"/><path d="m153.23 46.78h-5.08l.28.62h4.8z"/><path d="m153.23 49.34h-5.08l.28.62h4.8z"/><path d="m147.68 51.9v3.41c0 1.01-1.46.85-1.46.85v-5.09h.49c0 .01.97.03.97.83"/><path d="m150.56 51.9v3.41c0 1.01-1.46.85-1.46.85v-5.09h.49c-.01.01.97.03.97.83"/><path d="m149.79 51.45h-3.38l.27.62h3.11z"/><path d="m149.79 55.01h-3.38l.27.62h3.11z"/><path d="m152.88 51.9v3.41c0 1.01-1.46.85-1.46.85v-5.09h.49c-.01.01.97.03.97.83"/><path d="m155.75 51.9v3.41c0 1.01-1.46.85-1.46.85v-5.09h.49c0 .01.97.03.97.83"/><path d="m154.98 51.45h-3.38l.28.62h3.1z"/><path d="m154.98 55.01h-3.38l.28.62h3.1z"/><path d="m123.72 44.16h-.49v12.77c-.4-.13-1.14-.28-2.45-.26v.24s1.95.17 2.09 1.41c.08.72 1.83.29 1.83-.56v-12.77c-.01-.81-.98-.83-.98-.83"/><path d="m134.71 48.99v-2.44c0-.79-.96-.81-.96-.81h-.48v3.25z"/><path d="m133.27 52.57v4.23s1.44.15 1.44-.84v-3.39z"/><path d="m132.81 52.74s-.26 1.22-3.32 2.97v.31s3.88-1.57 4.06-2.4l.35-1.09z"/><path d="m134.59 53.39s3.42.69 3.52 2.05c.07.96-.93.77-1.23.15-.31-.64-1.82-1.92-2.27-1.92z"/><path d="m137.42 52.66s-.52.98-1.26 1.3l.29.24s1.14-.3 1.8-.89z"/><path d="m41.69 18.17 24.35-13.95h-39.4l-24.82 13.95z"/><path d="m88.6 23.49 15.34-9.77h-25.53z"/><path d="m117.78 27.23 9.41-7.3h-16.83z"/><path d="m134.41 28.56 6.62-5.13h-11.84z"/><path d="m146.62 30.57 5.5-4.27h-9.83z"/><path d="m152.44 29.87c0 .32-.16.58-.37.58-.2 0-.37-.26-.37-.58s.16-.58.37-.58.37.26.37.58"/><path d="m152.11 29.3c.07.11.11.25.11.42 0 .32-.16.58-.37.58-.01 0-.03 0-.04-.01.07.1.16.16.25.16.2 0 .37-.26.37-.58.01-.3-.13-.54-.32-.57"/><path d="m141.34 27.93c0 .42-.22.76-.48.76-.27 0-.48-.34-.48-.76s.22-.76.48-.76.48.34.48.76"/><path d="m140.91 27.18c.09.14.15.33.15.55 0 .42-.21.76-.48.76-.02 0-.04-.01-.05-.01.08.13.2.21.33.21.27 0 .48-.34.48-.76 0-.39-.19-.7-.43-.75"/><path d="m127.89 25.55c0 .54-.28.97-.62.97s-.62-.43-.62-.97.28-.97.62-.97.62.44.62.97"/><path d="m127.34 24.59c.12.18.19.42.19.7 0 .54-.28.97-.62.97-.02 0-.04-.01-.07-.01.11.17.26.27.43.27.34 0 .62-.43.62-.97 0-.5-.24-.9-.55-.96"/><path d="m105.5 21.55c0 .75-.39 1.36-.87 1.36s-.87-.61-.87-1.36.39-1.36.87-1.36.87.61.87 1.36"/><path d="m104.73 20.2c.17.25.27.6.27.98 0 .75-.39 1.36-.87 1.36-.03 0-.07-.01-.1-.02.16.23.37.38.6.38.48 0 .87-.61.87-1.36 0-.69-.34-1.26-.77-1.34"/><path d="m68.63 15.11c0 1.07-.55 1.94-1.24 1.94-.68 0-1.24-.87-1.24-1.94s.55-1.94 1.24-1.94c.68 0 1.24.87 1.24 1.94"/><path d="m67.53 13.19c.24.35.38.85.38 1.4 0 1.07-.55 1.94-1.24 1.94-.05 0-.09-.01-.14-.02.22.33.52.54.85.54.68 0 1.23-.87 1.23-1.94.02-1-.46-1.81-1.08-1.92"/><path d="m156.99 33.07c-.25 0-.5-.1-.69-.3l-4.3-4.76-4.85 3.74c-.4.31-.98.24-1.29-.16l-5.1-6.49-5.97 5.02c-.2.16-.45.24-.7.21s-.48-.16-.64-.37l-6.26-8.43-8.75 6.7c-.37.29-.9.25-1.23-.09l-12.66-13.18-15.85 9.73c-.36.22-.82.17-1.13-.12l-20.24-19.63-24.6 14.16c-.44.25-1.01.1-1.26-.34s-.1-1.01.34-1.26l25.2-14.51c.36-.21.81-.15 1.11.14l20.23 19.61 15.88-9.75c.37-.23.85-.17 1.15.15l12.6 13.13 8.84-6.77c.2-.15.44-.22.69-.18.24.03.47.17.61.37l6.23 8.4 5.95-5c.19-.16.44-.24.69-.21s.48.15.63.35l5.13 6.52 4.8-3.7c.38-.29.93-.25 1.25.11l4.87 5.39c.34.38.31.96-.07 1.31-.17.14-.39.21-.61.21"/></g></svg>