<?xml version="1.0" encoding="utf-8"?>
<!-- Generator: Adobe Illustrator 28.2.0, SVG Export Plug-In . SVG Version: 6.00 Build 0)  -->
<svg version="1.1" id="圖層_1" xmlns="http://www.w3.org/2000/svg" xmlns:xlink="http://www.w3.org/1999/xlink" x="0px" y="0px"
	 viewBox="0 0 263.9 66.6" style="enable-background:new 0 0 263.9 66.6;" xml:space="preserve">
<path d="M120.4,38.9c-0.3-5.7,1.5-10.1,5.7-13.8c-1.9,0.3-3.4,0.5-5,0.7c0-0.1,0-0.2-0.1-0.3c0.6-0.3,1.2-0.6,1.8-0.9
	c0-0.1,0-0.1,0-0.2c-0.8,0.2-1.6,0.3-2.7,0.6c0.3-0.5,0.4-0.9,0.7-1c2.9-0.7,5.7-2.1,8.9-2c1.5,0.1,2.3,1.2,1.8,2.6
	c-0.4,1-1,1.4-2.1,1.1c-3.3-0.7-6.9,2.4-6.4,5.8c0.2,1.3,0.8,2.5,0.8,3.7c0,1.2-0.4,2.5-0.7,3.9c1.8,0.7,3.5,1.4,5.2,2.1
	c2.5,0.9,4.7,2.4,6.6,4.1c1.9,1.7,2.7,4.2,2.3,6.6c-0.2,1.2-1.5,2.3-2.2,3.2c-1.5-1-2.8-1.9-4.2-2.8c0.5-0.4,1.1-1.2,1.8-1.4
	c1.4-0.4,1.2-1.2,1-2.1c-0.2-0.5-0.5-1.1-0.9-1.4c-2.7-2-5.5-3.7-9-3.8c-0.8,0-1.3,0.1-1.6,1c-1.7,5-7.7,7.5-11.7,7.1
	c-0.8-0.1-1.3-0.3-1.6-1c-0.2-0.5-0.7-0.9-1-1.4c-0.2-0.4-0.2-1-0.3-1.5c-0.1-0.6,0-1.2,0-1.8c0-2.4-0.3-4.7,0.7-7
	c1-2.6,4.5-3.4,6.8-2.1C116.6,37.6,118.4,38.1,120.4,38.9z M120.2,42.9c-3.5-1.1-6.9-2.1-10.5-3.2c-0.1,1.9-0.4,3.6-0.4,5.2
	c0.1,3.1,3.7,5.3,6.4,3.8C118,47.6,119.6,45.7,120.2,42.9z"/>
<path d="M175,41.4c-1.2-1.3-2.3-2.4-3.4-3.5c-1.2-1.4-2.6-2.7-3.5-4.2c-0.6-1.1-0.5-2.6-0.6-3.9c0.8,1.7,1.5,3.5,2.5,5.1
	c1.2,1.8,3.1,2.5,5.3,2.4c1.9-0.1,3.6,0.6,5.1,1.7c1.3,1,1.5,2.4,1.2,3.9c-0.1,0.5-0.8,1.1-1.3,1.3c-4.5,1.8-9,3.9-13.7,5.3
	c-3.6,1.1-6.1,0.4-7.9-3c-1.7-3.2-2.2-6.5-1.4-10.1c0.8-3.7,1.4-7.4,2.1-11.1c0.1-0.5-0.5-1-0.4-1.5c0.1-0.9,0.1-1.9,0.6-2.6
	c0.7-1,2.9-1,4.1-0.3c0.9,0.6,1.6,2.4,1.2,3.5c-1.9,4.6-2.3,9.5-3.2,14.3c-0.2,1.1-0.2,2.3,0.1,3.4c0.6,2,1.9,2.7,4,2.3
	c1.6-0.3,3.1-0.8,4.7-1.2C171.9,42.6,173.3,42,175,41.4z"/>
<path d="M147.1,34.6c-1.6,2.2-1.9,5-4.4,6.3c-1.6-1.1-2.1-2.9-2.8-4.6c-0.3-0.9,0.4-1.6,1-2.4c1.5-2.2,2.8-4.6,4.1-7
	c1.3-2.5,2.6-5,3.8-7.5c0.4-0.7,0.5-1.6,0.9-2.4c0.1-0.3,0.8-0.7,1-0.6c1.8,1.2,4.1,2,5,4.3c0.4,1.3,0.3,2.4-1,3.1
	c-0.5,0.3-0.9,0.6-1.4,1c-0.7,0.6-1,1.2-0.8,2.3c0.3,2.2,0.2,4.4,0.4,6.6c0.1,0.7,0.5,1.4,0.7,2.1c0.2,0.6,0.4,1.1,0.4,1.7
	c0.2,2.4,1.1,4.7,0.1,7.1c-0.3,0.7-0.9,1.4-1.6,1.7c-0.3,0.2-1.1-0.4-1.5-0.8c-2.5-2.2-3.7-4.9-3.5-8.3
	C147.6,36.4,147.3,35.6,147.1,34.6z"/>
<path d="M215.6,50c0.5,0,0.9-0.1,1.4-0.1c1.1-0.2,2.3-0.2,3.3-0.6c0.5-0.2,1.1-0.9,1-1.3c-0.4-3-0.9-5.9-1.4-8.9c0,0,0-0.1,0-0.1
	c-0.4-2.5-0.4-2.5-3.2-1.8c-1.3,0.3-2.6,0.7-3.8,1c1.3-2.1,2.6-4.3,4.1-6.6c0.4,0.3,1.1,0.7,2,1.2c-0.2-1.2-0.4-2.2-0.7-3.2
	c-1.3-4.6-0.9-9.3-0.5-13.9c0-0.4,0-0.8,0.1-1.2c0.8-3.2-2.4-4.9-6.1-4.2c-0.6,0.1-1.3,0-1.9,0.1c-0.6,0.1-1.2,0.3-1.7,0.7
	c-1.7,1.1-3.2,2.7-5.1,3.4c-2.3,0.9-3.8,2.5-5.8,3.7c-0.7,0.4-1.3,0.8-2,1.2c-2.2,1-3.7,0.3-3.7-1.9c0-0.4,0.7-0.8,1.2-1
	c0.9-0.3,2-0.3,2.8-0.7c3-1.5,5.8-3.3,8.9-4.6c2.5-1.1,5.4-1.6,8.3-1.5c1.5,0,3.1-0.1,4.6,0c0.5,0,1.1,0.4,1.4,0.7
	c2.1,1.8,3.2,4,2.5,6.5c-1.6,6.2-1.1,12.4,0.2,18.6c0.7,3.7,1.5,7.3,2.1,11c0.2,1.3,0.2,2.7,0.1,4c-0.2,1.7-1.8,2.5-3.7,1.9
	c-0.8-0.2-1.7-0.4-2.5-0.5C216.3,51.6,215.8,51.2,215.6,50z"/>
<path d="M204.8,37.3c0.4,0.3,0.8,0.6,1.4,1.1c1.8-1.6,3.7-3.4,5.5-5.2c0.2-0.2-0.1-0.8-0.2-1.3c1.5-0.5,2.1-0.3,2.4,1.2
	c0.4,1.7-0.7,3.4-2.5,4.3c-1.7,0.9-3.3,2-4.8,3.1c-1,0.7-0.5,2.1,0.8,2.6c0.3,0.1,0.7,0.2,1.2,0.3c-0.3,1.2-0.7,2.3-1,3.6
	c0.9-0.1,1.8-0.2,2.6-0.4c1.4-0.3,2.4,0.4,2.8,1.2c0.2,0.5-0.5,1.3-0.9,2c-0.1,0.2-0.7,0.4-1,0.3c-2.6-1.1-4.9-0.2-7.2,0.5
	c-2.5,0.8-4.4,0.4-5.9-0.9c2.1-0.5,4.3-0.9,6.3-1.4c-0.5-1.8-0.9-3.4-1.4-5.2c-0.8,1.7-1.8,3.2-4.2,3.1c-0.3-1.6,0.7-2.5,1.9-3.2
	C203,41.5,204.2,39.6,204.8,37.3L204.8,37.3z"/>
<path d="M205.1,26.1c-1.4-0.4-2.6-0.7-3.8-1c-0.8-0.2-1.1-0.5-0.9-1.3c0.2-0.8,0.8-0.6,1.4-0.5c2.1,0.3,3.6-0.7,3.6-2.5
	c0-1.7-0.2-3.5-0.1-5.2c0-0.7,0.5-1.5,1.2-2c0.4-0.3,1.5-0.1,2.1,0.1c1.2,0.5,0.9,1.5,0.7,2.4c-0.4,1.3-0.7,2.7-1,4
	c0,0.1,0,0.3,0.1,0.4c2.3,0.6,2.4,0.6,2.2,2.3c0,0.5-0.4,1.1-0.9,1.3c-1.1,0.5-1.7,1.3-1.9,2.3c-0.2,1-0.6,1.8-1.4,2.7
	c-1.5,1.7-3,3.4-4.7,4.9c-1,0.9-2.1,1.6-3.1,2.5c-0.7,0.6-1.5,0.5-2,0c-0.4-0.4-0.6-1.2-0.4-1.6c0.2-0.5,0.9-1,1.6-1.3
	c3.2-1.5,5.4-3.8,7.1-6.5C204.9,26.9,205,26.5,205.1,26.1z"/>
<path d="M195,21.1c3,3,2.8,6.2,0.8,9.4c-1.5,2.4-1.6,5.1-1.7,7.7c-0.1,1.9,0.3,3.9,0.2,5.8c0,0.7-0.7,1.4-1.1,2.1
	c-0.6-0.3-1.3-0.6-1.8-0.9c-2.2-1.5-2-3.5-1.7-5.5c1-6,2.6-11.9,4.9-17.7C194.7,21.6,194.9,21.3,195,21.1z"/>
<path d="M26.7,24.3c-1.5,0.5-2.7,1.1-3.8,2c-1.2,1-2.3,2-3.5,2.9c-0.5,0.3-1,0.6-1.6,0.8c-1.6,0.5-3.3-0.9-3-2.5
	c0.1-0.5,0.2-1,0.3-1.4c0.2-0.6,0.5-1,1.2-1.2c1.1-0.3,2.3-0.7,3.1-1.7c-0.5-0.5-1.1-1.1-1.7-1.6c-0.2-0.2-0.7-0.1-1-0.1
	c-0.2,0-0.4,0.2-0.6,0.4c-0.8,0.9-1.9,1.5-3.1,1.9c-1,0.4-2.1,0.6-3-0.1c-0.7-0.5-0.9-2.1-0.7-3c0.5-2.1,2.2-2.7,4.1-3.1
	c1.3-0.2,1.4-0.4,1.2-1.6c-0.2-1.3-0.6-2.6-0.5-3.8c0.1-1.5,0.7-3,1.1-4.7c1.1,0.9,2.1,1.6,2.6,2.6c0.2,0.5,0.8,1,1.1,1.5
	c0.4,0.6,0.8,1.2,1,1.9c0.2,0.5,0.4,0.7,1,0.6c0.3-0.1,0.5-0.1,0.8-0.2c1.8-0.8,3.5-1.7,5.3-2.5c1-0.4,1.5-1.1,1.5-2.1
	c0-1.1,0.2-2.3,0.3-3.4c0-0.4,0.3-0.7,0.3-1.1c0.1-0.5,0.3-1,0.2-1.4c-0.2-1,0.2-1.7,1.3-1.9c0.9-0.2,1.8-0.3,2.8,0.1
	c1.7,0.7,2.2,2.2,1.9,3.2C35.3,5.2,35.2,5.6,35,6c-0.8,1.4-0.3,2.4,0.7,3.3c0.3,0.3,0.7,0.6,1.1,0.9c0.6,0.4,0.7,0.9,0.3,1.4
	c-0.6,0.7-1.4,1.2-2.2,1.8c-0.2,0.1-0.5,0.1-0.8,0c-1.3-0.3-2.3,0-3,1.1c-0.2,0.4-0.5,0.7-0.8,1.1c-0.4,0.5-0.5,1-0.2,1.6
	c0.3,0.6,0.4,1.2,0.6,1.8c0.2,0.7,0.7,1.1,1.4,1.4c1.9,0.9,2.1,2.8,0.6,4.1c-0.3,0.3-0.7,0.5-1,0.8c-0.3,0.3-0.5,0.7-0.8,1.1
	c0.1,0.1,0.1,0.1,0.2,0.2c0.3,0,0.5-0.1,0.8-0.1c2-0.6,4.1-1.2,6.1-1.7c0.4-0.1,0.9,0.1,1.3,0.2c0.2,0.1,0.4,0.2,0.6,0.3
	c0.7,0.4,1.4,0.6,1.2,1.6c-0.2,1.1-1,1.8-2,2.1c-1.8,0.5-3.5,1.1-5.3,1.7c0,0.1,0,0.2,0,0.3c0.9,0.7,1.8,1.5,2.7,2.1
	c0.6,0.4,0.7,0.8,0.2,1.3c-0.3,0.3-0.6,0.7-0.9,1c-0.4,0.4-0.5,0.8,0,1.2c0.6,0.6,1.2,1.2,1.8,1.8c0.9,0.8,0.9,1.8,0.5,2.5
	c-1.3,2.3-0.8,4.6-0.5,6.9c0.1,1.2,0.3,2.3,0.4,3.5c0.1,1.3,0,2.7,0.1,4c0,0.7,0.1,1.5,0.2,2.2c0.2,1.4,0,1.7-1.4,2.3
	c-0.2,0.1-0.5,0.2-0.7,0.4c-0.5,0.3-0.9,0.2-1.3-0.1c-0.3-0.3-0.8-0.5-1.3-0.7c0.3-0.2,0.6-0.4,0.9-0.7c0.2-0.3,0.5-0.6,0.5-0.9
	c0-1.7-0.1-3.5-0.3-5.2c-0.2-1.9-0.7-3.8-0.9-5.8c-0.2-1.8-0.3-3.7-0.4-5.5c-0.1-1.2,0-2.4,0-3.6c0-0.3-0.1-0.6-0.2-0.9
	C32,37,31,37.3,29.9,37.8c0.4,0.4,0.8,0.7,1.2,1c0.7,0.7,0.8,1.6,0.1,2.4c-0.6,0.6-1.3,1.2-1.9,1.7C29.1,43,29,43.1,29,43.1
	c0.7,0.8,1.4,1.5,2,2.3c0.4,0.5,0,1.1-0.4,1.6c-0.7,0.7-1.4,1.3-2.1,2c0,0.1,0.1,0.1,0.1,0.2c0.4-0.1,0.7-0.1,1.1-0.2
	c0.8,0.7,1.7,1.5,2.6,2.3c0.6,0.5,0.7,1,0.3,1.6c-0.4,0.5-0.6,1.3-1.4,1.3c-0.8,0-1.2-0.7-1.6-1.2c-0.2-0.2-0.3-0.5-0.5-0.7
	c-0.6-0.6-1.1-1.3-0.9-2.3c-0.7,0.3-0.9,0.8-0.6,1.5c0.4,1.1,0.8,2.1,1.4,3.1c0.6,1.1,0,3-1.3,3.5c-0.2,0.1-0.6-0.1-0.8-0.3
	c-0.8-1.1-1.6-2.2-1.5-3.6c0-0.2-0.1-0.4-0.3-0.6c-0.6,1.8-2.5,2.3-3.9,3.2c-0.7-0.3-0.7-1-0.8-1.5c-0.1-0.6-0.1-1.2,0-1.8
	c0-0.3,0.3-0.8,0.6-0.8c1.3-0.3,1.6-1.4,2.3-2.3c-0.5,0-0.9,0-1.4,0.2c-0.7,0.2-1-0.1-1.2-0.6c-0.4-1.1,0.2-2.7,1.3-3.5
	c0.4-0.3,0.7-0.6,1.2-1c-0.8-0.1-1.4-0.2-1.9-0.3c-0.5-0.1-0.8-0.4-0.8-1c0-0.9-0.1-1.9-0.1-2.8c0-0.4,0-0.7,0.1-1
	c-1.1-0.1-2.1-0.2-3.2-0.3c-0.7-0.1-0.9-0.5-0.6-1c0.4-0.7,0.9-1.6,1.6-2.1c2.3-1.7,4.7-3.3,7-4.9c0.4-0.3,0.9-0.6,0.8-1.2
	c-0.2,0-0.3,0-0.3,0.1c-1.9,1-3.9,1.7-5.6,3c-3,2.2-6.2,4-9.4,5.9c-2.1,1.2-3.8,3-5.8,4.4c-0.8,0.6-1.7,1-2.6,1.4
	c-1.1,0.4-1.8,0-2.1-1C0,43.4,0.8,41.8,2,41c1.6-1,3.2-2.3,4.9-3.2c4.1-2.1,8.2-4.1,12.3-6.2c1.1-0.6,2-1.4,3-2.1
	c1.1-0.9,2.2-1.8,3.4-2.7C26.4,26.2,26.5,25.3,26.7,24.3z M22.9,20.7c1.9-1.6,3.1-3.4,3.8-5.7c-0.3,0.1-0.4,0.1-0.5,0.1
	c-1.3,0.8-2.7,1.6-4,2.5c-0.4,0.3-0.5,1-0.4,1.5C22,19.6,22.5,20,22.9,20.7z M27.2,35.9c1.5-0.5,2.9-1,4.2-1.5
	c0.2-0.1,0.4-0.3,0.4-0.4c-0.2-0.6-0.5-1.2-0.8-1.8C31,32,30.5,32,30.3,32.1C27.6,32.8,27.6,33.2,27.2,35.9z M19.7,37.2
	c0.6,0.1,0.9,0.2,1.3,0.1c1.4-0.2,2.7-0.5,4.1-0.7c0.2,0,0.5-0.2,0.5-0.3c0.1-0.7,0.2-1.5,0.3-2.3C23.9,34.4,21.3,35.8,19.7,37.2z
	 M21.2,40.2c0,0.1-0.1,0.1-0.1,0.2c0.5,0.4,1.1,0.7,1.5,1.1c0.7,0.7,1.2,1.5,1.7,2.3c0.5-0.6,0.9-2.8,0.7-4.4
	C23.8,39.6,22.5,39.9,21.2,40.2z M27.4,38.8c-0.1,0-0.3,0-0.4-0.1c-0.1,0.4-0.1,0.9-0.2,1.3c0.1,0,0.2,0,0.3,0
	C27.2,39.7,27.3,39.3,27.4,38.8z"/>
<path d="M16.3,43.9c0.3,1.9,0.6,3.8,0.8,5.7c0,0.6-0.4,1.3-0.8,1.8c-1.6,1.8-3.1,3.5-4.8,5.2c-1.1,1.1-2.3,2-4,2.4
	c-0.7,0.2-1.3,0.4-2,0.6c-0.4-1.5-0.4-2.9,0.9-4.2c0.8,0.3,1.2-0.1,1.8-0.6c1.9-1.9,2.9-4.2,4.2-6.3c1-1.7,2.2-3.3,3.7-4.6
	C16.1,43.9,16.2,43.9,16.3,43.9z"/>
<g>
	<path d="M82.8,23.1c0.5-1.1,1.1-2.1,1.6-3.2c1.2-3.1,2.4-6.2,2.6-9.6c0-0.7,0-1.4-0.1-2.1c-0.1-0.7-0.7-0.9-1.2-0.3
		c-0.7,0.6-1.4,1.3-1.9,2.1c-1.9,2.7-3.6,5.6-5.5,8.3c-0.6,0.8-1.5,1.5-2.3,2.2c-0.1-0.1-0.3-0.2-0.4-0.2c0.9-2.1,1.8-4.3,2.8-6.3
		c1.4-2.6,2.9-5,5.2-7c1.3-1.1,3-1,4.2,0.2c1.2,1.2,1.5,2.7,1.6,4.2c0.3,3.6-0.9,7-2.3,10.3c-0.5,1.3-1.1,2.6-1.9,3.8
		c-0.7,1-1.7,1.8-2.6,2.7c-0.3,0.3-0.7,0.6-0.8,0.9c-0.5,1.7-0.8,3.4-1.4,5c-1.3,3.9-1.7,8-2.3,12.1c-0.4,3,0.7,5.7,2.5,8.2
		c0.5,0.6,1,1.2,1.7,1.7c1.5,1.1,3.1,1.2,4.9,0.6c2.2-0.8,4.4-1.4,6.6-2.2c1.1-0.4,2.1-1,3.2-1.6c-3.7-2.5-7-5-9-8.9
		c0.3,0.3,0.5,0.5,0.6,0.7c1.1,1.8,2.9,2.9,4.6,4.1c0.8,0.5,1.8,0.7,2.7,1c0.9,0.3,1.8,0.5,2.7,0.9c1.9,0.8,2,3.4,0,4.4
		c-1.1,0.6-2.3,1.1-3.5,1.5c-2.8,0.9-5.6,1.9-8.4,2.7c-1.5,0.4-3.1,0.2-4.6,0.2c-0.6,0-1.3-0.4-1.7-0.9c-1.3-1.7-2.8-3.4-3.5-5.4
		c-0.9-2.3-0.9-4.7-0.6-7.2c0.6-4.6,1.9-9,3-13.5c0.2-0.7,0.2-1.4,0.2-2c-0.1-3-0.3-6-0.5-9c-0.1-0.8,0-1.5,0.8-1.9
		c0.2-0.1,0.4-0.5,0.6-0.6c0.5-0.2,1-0.5,1.5-0.4c0.3,0,0.7,0.6,0.7,0.9c0.2,1.3,0.4,2.6-0.3,3.9C82.6,23,82.7,23.1,82.8,23.1z"/>
	<path d="M70.2,36.6c0.3-0.1,0.6-0.2,0.9-0.2c1.5-0.4,2.1-0.2,2.7,1.5c1.2,3.1,1.1,6.3,0.6,9.6c-0.1,0.3-0.1,0.7-0.1,1
		c0.2,1.7-0.8,2.9-1.9,4c-0.7,0.6-1.5,0.9-2.4,0.7c-0.5-0.1-1.1-0.1-1.6-0.3c-1.3-0.5-2.3-1.4-2.5-2.8c0-0.2-0.2-0.5-0.4-0.7
		c-0.1,0.7-0.1,1.5-0.2,2.2c-0.1,0.5-0.3,1.1-0.7,1.4C63.6,53.7,63,54,62.1,53c-1.5-1.7-1.7-2.9-0.5-4.9c0.9-1.4,1.6-3,2.5-4.4
		c2.3-3.4,4.7-6.8,7-10.2c0.1-0.1,0.2-0.3,0.3-0.4c-0.1-0.1-0.1-0.1-0.2-0.2c-1.3,1-2.9,1.9-3.9,3.2c-2.7,3.2-5.3,6.6-7.9,9.9
		c-0.4,0.4-0.8,0.8-1.3,1.2c-0.4,0.3-0.8,0.2-1-0.3c-0.1-0.4-0.4-0.8-0.3-1.2c0.2-1.2,0.3-2.4,1.3-3.4c2.6-2.8,5.1-5.6,7.6-8.5
		c2-2.3,4-4.7,6-7.1c0,0,0.1-0.1,0.1-0.1c0.2-0.5,0.3-0.9,0.5-1.4c-0.5-0.1-0.9-0.1-1.6-0.2c1-0.4,1.8-0.9,2.7-1
		c1-0.2,2.1,1,1.6,1.9c-0.4,0.9-1.1,1.7-1.8,2.4c-0.8,0.9-1.8,1.7-2.6,2.7c0.9-0.4,1.7-0.9,2.6-1.3c0.4-0.2,0.8-0.3,1.2-0.3
		c0.5,0,1.1,0.1,1.3,0.4c0.2,0.3,0.1,0.9-0.1,1.3c-0.2,0.4-0.6,0.7-1,0.9C72.5,33,71.5,34.9,70.2,36.6z M71.4,40.5
		c0.2,0.9,0.4,1.7,0.7,2.4c0.5,1.1,0.3,2-0.1,3.1c-0.3,0.7-1.5,1.4-2.2,1.2c-0.7-0.2-1.9-2-1.8-2.7c0-0.7-0.1-1.5-0.2-2.5
		c-0.8,0.8-1.3,1.5-1.2,2.4c0.2,1.4,0.3,2.7,0.8,4c0.3,0.8,1,1.6,1.6,2.3c0.2,0.2,0.8,0.3,1,0.1c0.9-0.5,1.7-1.1,2.1-2.1
		c1.2-2.8,1.1-5.7,0.9-8.7c-0.1-0.8-0.2-1.7-0.6-2.5c-0.5-1.1-1.9-1.1-2.6-0.1c-0.6,1-1.1,2-1.7,3c0.9,0.3,1.8,0.5,2.7,0.8
		C71,40.9,71.2,40.7,71.4,40.5z"/>
	<path d="M53.3,17.9c1.2,0.2,2.2,0.5,2.9,1.4c0,0,0,0,0.1,0c1.8-0.2,2,1.3,2.8,2.1c0.1,0.1,0.2,0.2,0.2,0.3c1.1,1.5,1,2.7-0.4,4
		c-0.9,0.8-1.8,1.6-2.8,2.4c-1,0.8-1.2,1.8-1.1,3c0.2,2.6,0.5,5.2,0.7,7.8c3-1.6,4.1-4.2,4.7-7c0.1,0.2,0.3,0.5,0.3,0.7
		c-0.4,2-0.6,4-1.5,5.8c-0.9,1.9-2.4,3.7-3.7,5.4c-0.4,0.6-1.3,0.8-2.2,1.4c-0.4-1.7-1.4-2.9-0.4-4.5c0.7-1.2,0.8-2.6,0.7-3.9
		c-0.1-1.8-0.3-3.6-0.9-5.5c-1.1,0.8-2.1,1.6-3.1,2.3c-0.9,0.6-1.6,0.3-1.9-0.7c-0.3-1.1,0-2.1,0.5-3.1c0.2-0.6,0.8-0.7,1.5-0.8
		c0.5,0,1-0.1,1.4-0.3c1.1-0.6,1.1-0.7,0.9-1.9c-0.3-1.2-0.6-2.5-0.8-3.7c-0.1-0.5,0-1,0.2-1.4C52,20.3,52.4,19,53.3,17.9z
		 M55.1,26.4c0.7-0.1,2.5-1.2,2.7-1.6c0.1-0.2,0.1-0.3,0.1-0.5c-0.1-1-1.7-2.9-3-3.2C56.1,22.8,55.3,24.6,55.1,26.4z"/>
	<path d="M70.7,18.8c-0.4,0.2-0.9,0.4-1.3,0.6c-3.4,1.6-4.9,4.4-5.9,7.5c-0.3,0.8-0.7,1.3-1.5,1.7c-0.7,0.3-1,0-1.3-0.5
		c-0.7-1.5-0.3-2.9,1-4c1.9-1.6,3.7-3.2,5.5-4.8c1.4-1.2,3-2,5.1-1.9c0.7,0,0.8,0.3,0.6,0.8c-0.5,1.1-1.1,2.3-1.7,3.4
		c-0.8,1.4-1.8,2.9-2.7,4.3c0.1,0.1,0.1,0.1,0.2,0.2c0.4-0.1,0.8-0.3,1.2-0.4c0,0,0,0.1,0.1,0.1c-0.3,0.2-0.6,0.4-0.8,0.6
		c-1.6,1.2-1.9,2.9-2.1,4.6c-0.1,0.6-1.2,1.3-2.2,1.5c-0.8,0.1-0.9-0.5-1.2-0.9c-0.1-0.1-0.1-0.3-0.1-0.4c0.4-1.5,0.6-3,2-4.2
		c0.4-0.4,0.7-0.8,1.1-1.3c1.3-1.9,2.7-3.8,4-5.7c0.2-0.3,0.4-0.6,0.5-0.9C70.8,18.9,70.7,18.8,70.7,18.8z"/>
	<path d="M82.6,44.6c0.8,0.4,1.4,0.9,2.1,1.2c1,0.5,2.1,0.9,3.1,1.2c1.3,0.4,1.9,1.3,1.9,2.5c0,1.3-0.7,2.2-1.9,2.7
		c-0.7,0.3-1.4,0.3-2.3-0.1c-1.5-0.6-2.4-1.4-2.8-2.8c-0.3-0.9-0.7-1.7-1-2.7c-0.1-0.5-0.1-1.1,0.1-1.6C82,44.9,82.4,44.7,82.6,44.6
		z"/>
	<path d="M83.8,34c1.2,0.6,2.3,1.1,3.4,1.7c1,0.5,2.1,1,2.4,2.2c0.3,1.3-0.9,3-2.3,3.1c-1,0.1-2.1,0.1-3.1,0.1
		c-0.1,0-0.3-0.1-0.5-0.3c-0.2,0.1-0.4,0.3-0.8,0.5c0.1-0.4,0.2-0.7,0.3-0.9c0.5-0.8,0.5-1.5,0.1-2.3c-0.8-1.2-0.5-2.4,0-3.6
		C83.4,34.3,83.7,34.1,83.8,34z"/>
	<path d="M71,12.8c0,1.5-0.6,2.3-1.7,2.6c-1.3,0.4-2,0.1-2.9-0.6c-1.5-1.2-1.1-2.8-1.6-4.2c-0.1-0.1-0.1-0.3-0.1-0.5
		c-0.1-0.3-0.3-0.8-0.1-0.9C65,9,65.5,8.8,65.9,8.8c1.2,0,2.4,0.3,3.2,1.2C70,10.9,70.9,11.9,71,12.8z"/>
	<path d="M87.7,28.8c0.5-1,0.9-1.9,1.4-2.7c0.4-0.7,0.3-1.2-0.6-1.5c-0.1,0-0.2-0.1-0.4-0.2c0.2-0.4,0.2-0.8,0.5-1.1
		c0.2-0.3,0.7-0.7,1-0.7c1.8-0.1,4.3,1.4,4.9,3c0.4,1-0.4,2.4-1.5,2.7c-1,0.3-2,0.6-3.1,0c-0.4-0.2-1,0.1-1.5,0.2
		C88.2,28.5,88.1,28.6,87.7,28.8z"/>
</g>
<path d="M241.8,48.5c1.6-0.4,3.2-0.7,4.8-1.1c2.3-0.5,4.6-1,6.8-1.6c2.5-0.7,5.8,0.3,6.8,2.4c0.3,0.7,0.1,1.7-0.3,2.4
	c-0.2,0.4-1.6,0.5-2.3,0.3c-2.9-0.6-5.7-0.7-8.6,0C246.2,51.6,244,50.3,241.8,48.5z"/>
<path d="M231.5,32.7c0.5-1.2,0.9-2.3,1.4-3.5c0.1-0.3,0.6-0.6,0.9-0.6c0.3,0,0.7,0.4,0.8,0.7c0.7,1.5,1,3,0.6,4.6
	c-1.2,4.2-0.6,8.3,1.7,12.2c0.5,0.9,1.9,1.7,3,2.2c1.2,0.5,1.4,1.1,1.3,2c-0.1,1-0.9,1.8-1.9,1.6c-0.9-0.1-2.1-0.8-2.5-1.5
	c-2.3-3.6-4.2-7.2-4.6-11.3c-0.2-2.1-0.2-4.2-0.4-6.3C231.7,32.8,231.6,32.7,231.5,32.7z"/>
<path d="M168.3,24.6c-0.3,1-0.5,1.6-0.7,2.3c-0.1-1.3-0.4-2.4-0.4-3.6c0-2.9,3.3-4.9,6-3.6c2.6,1.2,3.6,2.8,3.3,5
	c-0.2,1.5-1.6,2.8-3.1,2.8c-1.4,0-2.7-0.2-3.6-1.5C169.4,25.5,169,25.2,168.3,24.6z"/>
<path d="M112.7,15.6c1.7-1.9,3.6-1.5,5.5-0.9c1.8,0.5,2.9,1.7,3.4,3.4c0.4,1.3-0.2,2.5-1.3,3.3c-1.6,1.2-2.8,2.2-4.8-0.1
	c-0.3-0.4-0.9-0.5-1.5-0.9C116.1,18.3,113.7,17.2,112.7,15.6z"/>
<path d="M118.6,25c-0.2,0.6-0.4,0.9-0.5,1.3c0.8-0.2,1.6-0.4,2.6-0.7c-0.4,0.4-0.5,0.7-0.7,0.9c-4.6,2.3-8.3,5.7-12.1,9.1
	c-1.2,1.1-1.9,0.9-2.1-0.8c-0.1-0.8,0.1-1.8,0.3-2.6c0.2-0.5,0.4-1.3,1.4-0.9c0.2,0.1,0.7-0.3,1-0.5c2.1-1.4,4.2-2.9,6.4-4.2
	C116,26,117.2,25.6,118.6,25z"/>
<path d="M243,20c1.8-0.7,3.6-1.7,5.5-2.2c2.9-0.7,6.4,2,6,4.4c-0.2,1.1-1.5,1.9-2.8,1.6c-1.8-0.4-3.4-0.8-4.8-2
	c-1-0.8-2.5-1-3.7-1.5C243.1,20.3,243,20.2,243,20z"/>
<path d="M204.9,37.2c-0.7,0.4-1.4,0.8-2.1,1.2c-0.3,0.2-0.9,0.5-1.1,0.4c-0.3-0.2-0.7-0.7-0.7-1c0.1-0.7,0.3-1.4,0.8-1.9
	c1.9-2.1,3.9-4.1,5.8-6.2c0.6-0.7,1-1.5,1.6-2.1c0.5-0.5,1.1-1,1.7-1.4c0.1-0.1,1,0.4,1,0.6c-0.1,0.7-0.3,1.4-0.8,1.9
	c-1.6,1.7-3.4,3.2-5.1,4.8c0.1,0.1,0.2,0.3,0.4,0.4c0.7-0.3,1.4-0.6,2.2-1c0.1,0.1,0.2,0.1,0.3,0.2
	C207.5,34.6,206.2,35.9,204.9,37.2C204.8,37.3,204.9,37.2,204.9,37.2z"/>
<path d="M209.4,41.2c2.4-0.3,5.1-0.9,7.7,0.3c1.3,0.6,1.7,1.7,0.9,2.9c-0.8,1.1-2.3,1.4-3.4,0.8c-0.1-0.1-0.2-0.1-0.3-0.2
	C212.7,43.7,211.1,42.5,209.4,41.2z"/>
<g>
	<path d="M166.3,63.2c-0.3-0.1-0.5-0.3-0.6-0.5c-0.2-0.2-0.2-0.4-0.2-0.7c0,0,0-0.1,0-0.2h0.9c0,0.2,0,0.4,0.2,0.6
		c0.2,0.2,0.4,0.2,0.7,0.2c0.3,0,0.6-0.1,0.8-0.2c0.2-0.1,0.3-0.3,0.3-0.6c0-0.2,0-0.3-0.1-0.4c-0.1-0.1-0.2-0.2-0.3-0.3
		c-0.1-0.1-0.3-0.2-0.6-0.3c-0.3-0.1-0.6-0.3-0.8-0.4c-0.2-0.1-0.4-0.3-0.5-0.5c-0.1-0.2-0.2-0.4-0.2-0.7c0-0.3,0.1-0.6,0.2-0.8
		c0.2-0.2,0.4-0.4,0.7-0.6c0.3-0.1,0.6-0.2,1-0.2c0.4,0,0.7,0.1,1,0.2c0.3,0.1,0.5,0.3,0.6,0.5c0.1,0.2,0.2,0.5,0.2,0.8h-0.9
		c0-0.2,0-0.4-0.2-0.5c-0.2-0.1-0.4-0.2-0.7-0.2c-0.3,0-0.5,0.1-0.7,0.2c-0.2,0.1-0.3,0.3-0.3,0.6c0,0.1,0,0.3,0.1,0.4
		c0.1,0.1,0.2,0.2,0.3,0.3c0.1,0.1,0.3,0.2,0.6,0.3c0.3,0.1,0.6,0.3,0.8,0.4c0.2,0.1,0.4,0.3,0.5,0.5c0.1,0.2,0.2,0.4,0.2,0.7
		c0,0.3-0.1,0.6-0.2,0.8s-0.4,0.4-0.7,0.6c-0.3,0.1-0.6,0.2-1,0.2C166.9,63.3,166.6,63.3,166.3,63.2z"/>
	<path d="M171,63.1c-0.3-0.2-0.5-0.4-0.6-0.6c-0.2-0.3-0.2-0.6-0.2-0.9c0-0.5,0.1-0.9,0.3-1.3c0.2-0.4,0.5-0.7,0.9-0.9
		c0.4-0.2,0.8-0.3,1.3-0.3c0.4,0,0.7,0.1,1,0.2c0.3,0.2,0.5,0.4,0.7,0.6c0.2,0.3,0.2,0.6,0.2,0.9c0,0.5-0.1,0.9-0.3,1.3
		c-0.2,0.4-0.5,0.7-0.9,0.9c-0.4,0.2-0.8,0.3-1.3,0.3C171.6,63.3,171.3,63.3,171,63.1z M172.9,62.3c0.2-0.2,0.4-0.4,0.6-0.7
		c0.1-0.3,0.2-0.6,0.2-0.9c0-0.4-0.1-0.6-0.3-0.8c-0.2-0.2-0.5-0.3-0.8-0.3c-0.3,0-0.6,0.1-0.8,0.3c-0.2,0.2-0.4,0.4-0.6,0.7
		c-0.1,0.3-0.2,0.6-0.2,0.9c0,0.3,0.1,0.6,0.3,0.8c0.2,0.2,0.4,0.3,0.7,0.3C172.4,62.6,172.6,62.5,172.9,62.3z"/>
	<path d="M179.9,59l-0.8,4.3h-0.9l0.1-0.5c-0.2,0.2-0.4,0.3-0.6,0.4c-0.2,0.1-0.5,0.2-0.7,0.2c-0.5,0-0.8-0.1-1.1-0.4
		s-0.4-0.6-0.4-1c0-0.1,0-0.3,0-0.4L176,59h0.9l-0.4,2.4c0,0.1,0,0.2,0,0.3c0,0.3,0.1,0.5,0.2,0.7c0.2,0.2,0.4,0.2,0.7,0.2
		c0.3,0,0.6-0.1,0.8-0.3c0.2-0.2,0.4-0.5,0.5-0.8L179,59H179.9z"/>
	<path d="M182.4,57.5l-1,5.8h-0.9l1-5.8H182.4z"/>
	<path d="M183.3,60c0.2-0.3,0.5-0.6,0.9-0.8c0.3-0.2,0.7-0.3,1.1-0.3c0.3,0,0.6,0.1,0.8,0.2c0.2,0.1,0.4,0.3,0.5,0.5l0.1-0.6h0.9
		l-0.8,4.3h-0.9l0.1-0.6c-0.2,0.2-0.4,0.4-0.7,0.5c-0.3,0.1-0.6,0.2-0.9,0.2c-0.3,0-0.6-0.1-0.9-0.2c-0.3-0.1-0.4-0.4-0.6-0.6
		c-0.1-0.3-0.2-0.6-0.2-0.9c0-0.2,0-0.3,0-0.5C182.9,60.7,183,60.3,183.3,60z M186.4,60.8c0-0.3-0.1-0.6-0.3-0.8s-0.5-0.3-0.8-0.3
		c-0.2,0-0.5,0.1-0.7,0.2c-0.2,0.1-0.4,0.3-0.6,0.5c-0.2,0.2-0.3,0.5-0.3,0.8c0,0.1,0,0.2,0,0.3c0,0.4,0.1,0.6,0.3,0.8
		c0.2,0.2,0.5,0.3,0.8,0.3c0.2,0,0.5-0.1,0.7-0.2c0.2-0.1,0.4-0.3,0.6-0.5c0.2-0.2,0.3-0.5,0.3-0.8C186.3,61,186.4,60.9,186.4,60.8z
		"/>
	<path d="M192.2,59.3c0.3,0.2,0.4,0.6,0.4,1c0,0.1,0,0.3,0,0.4l-0.5,2.5h-0.9l0.4-2.4c0-0.1,0-0.2,0-0.3c0-0.3-0.1-0.5-0.2-0.7
		s-0.4-0.2-0.7-0.2c-0.3,0-0.6,0.1-0.9,0.3c-0.2,0.2-0.4,0.5-0.4,0.9v0l-0.4,2.4h-0.9l0.8-4.3h0.9l-0.1,0.5c0.2-0.2,0.4-0.3,0.6-0.4
		c0.2-0.1,0.5-0.2,0.7-0.2C191.6,58.9,191.9,59,192.2,59.3z"/>
	<path d="M196.8,59.1c0.2,0.1,0.4,0.3,0.5,0.5l0.1-0.6h0.9l-0.8,4.4c-0.1,0.4-0.2,0.7-0.4,1.1c-0.2,0.3-0.5,0.6-0.8,0.7
		c-0.3,0.2-0.7,0.3-1.2,0.3c-0.4,0-0.7-0.1-1-0.2c-0.3-0.1-0.5-0.3-0.6-0.5c-0.1-0.2-0.2-0.5-0.2-0.8h0.9c0,0.2,0.1,0.4,0.3,0.5
		c0.2,0.1,0.4,0.2,0.8,0.2c0.4,0,0.7-0.1,0.9-0.3c0.3-0.2,0.4-0.5,0.5-0.9l0.1-0.7c-0.2,0.2-0.4,0.4-0.7,0.5
		c-0.3,0.1-0.6,0.2-0.9,0.2c-0.3,0-0.6-0.1-0.9-0.2s-0.5-0.4-0.6-0.6c-0.1-0.3-0.2-0.6-0.2-0.9c0-0.2,0-0.3,0-0.5
		c0.1-0.4,0.2-0.8,0.5-1.1s0.5-0.6,0.9-0.8s0.7-0.3,1.1-0.3C196.3,58.9,196.5,59,196.8,59.1z M197.1,60.8c0-0.3-0.1-0.6-0.3-0.8
		c-0.2-0.2-0.5-0.3-0.8-0.3c-0.2,0-0.5,0.1-0.7,0.2c-0.2,0.1-0.4,0.3-0.6,0.5c-0.2,0.2-0.3,0.5-0.3,0.8c0,0.1,0,0.2,0,0.3
		c0,0.4,0.1,0.6,0.3,0.8c0.2,0.2,0.5,0.3,0.8,0.3c0.2,0,0.5-0.1,0.7-0.2c0.2-0.1,0.4-0.3,0.6-0.5c0.2-0.2,0.3-0.5,0.3-0.8
		C197,61,197.1,60.9,197.1,60.8z"/>
	<path d="M202.9,59.3c0.3,0.2,0.4,0.6,0.4,1c0,0.1,0,0.3,0,0.4l-0.5,2.5h-0.9l0.4-2.4c0-0.1,0-0.2,0-0.3c0-0.3-0.1-0.5-0.2-0.7
		c-0.2-0.2-0.4-0.2-0.7-0.2c-0.3,0-0.6,0.1-0.9,0.3s-0.4,0.5-0.4,0.9v0l-0.4,2.4h-0.9l1-5.8h0.9l-0.3,2c0.2-0.2,0.4-0.3,0.6-0.4
		c0.2-0.1,0.5-0.1,0.8-0.1C202.3,58.9,202.7,59,202.9,59.3z"/>
	<path d="M207.5,59.1c0.3-0.4,0.7-0.7,1.2-1c0.5-0.2,0.9-0.4,1.4-0.4c0.6,0,1.1,0.1,1.5,0.4c0.4,0.3,0.7,0.7,0.8,1.2h-1.1
		c-0.1-0.3-0.3-0.5-0.5-0.6c-0.2-0.1-0.5-0.2-0.8-0.2c-0.4,0-0.7,0.1-1,0.2c-0.3,0.2-0.6,0.4-0.8,0.7c-0.2,0.3-0.3,0.6-0.4,1
		c0,0.2,0,0.3,0,0.4c0,0.5,0.1,0.8,0.4,1.1c0.3,0.3,0.7,0.4,1.1,0.4c0.3,0,0.6-0.1,0.9-0.2c0.3-0.1,0.5-0.3,0.7-0.6h1.1
		c-0.3,0.5-0.7,0.9-1.2,1.2c-0.5,0.3-1,0.4-1.6,0.4c-0.4,0-0.8-0.1-1.2-0.3c-0.4-0.2-0.6-0.4-0.8-0.8c-0.2-0.3-0.3-0.7-0.3-1.2
		c0-0.2,0-0.3,0-0.5C206.9,60,207.1,59.5,207.5,59.1z"/>
	<path d="M217.5,59l-0.8,4.3h-0.9l0.1-0.5c-0.2,0.2-0.4,0.3-0.6,0.4c-0.2,0.1-0.5,0.2-0.7,0.2c-0.5,0-0.8-0.1-1.1-0.4
		s-0.4-0.6-0.4-1c0-0.1,0-0.3,0-0.4l0.4-2.5h0.9l-0.4,2.4c0,0.1,0,0.2,0,0.3c0,0.3,0.1,0.5,0.2,0.7c0.2,0.2,0.4,0.2,0.7,0.2
		c0.3,0,0.6-0.1,0.8-0.3c0.2-0.2,0.4-0.5,0.5-0.8l0.4-2.4H217.5z"/>
	<path d="M220,57.5l-1,5.8h-0.9l1-5.8H220z"/>
	<path d="M221.6,62.1c0,0.1,0,0.1,0,0.1c0,0.1,0,0.2,0.1,0.2c0.1,0,0.2,0.1,0.3,0.1h0.5l-0.1,0.7h-0.7c-0.3,0-0.6-0.1-0.8-0.2
		c-0.2-0.1-0.3-0.4-0.3-0.7c0-0.1,0-0.2,0-0.3l0.4-2.4h-0.5l0.1-0.7h0.5l0.2-1.1h0.9l-0.2,1.1h1l-0.1,0.7h-1L221.6,62.1z"/>
	<path d="M228.1,59l-0.8,4.3h-0.9l0.1-0.5c-0.2,0.2-0.4,0.3-0.6,0.4c-0.2,0.1-0.5,0.2-0.7,0.2c-0.5,0-0.8-0.1-1.1-0.4
		s-0.4-0.6-0.4-1c0-0.1,0-0.3,0-0.4l0.4-2.5h0.9l-0.4,2.4c0,0.1,0,0.2,0,0.3c0,0.3,0.1,0.5,0.2,0.7c0.2,0.2,0.4,0.2,0.7,0.2
		c0.3,0,0.6-0.1,0.8-0.3c0.2-0.2,0.4-0.5,0.5-0.8l0.4-2.4H228.1z"/>
	<path d="M230.8,59.1c0.2-0.1,0.5-0.2,0.8-0.2l-0.2,0.9h-0.2c-0.3,0-0.6,0.1-0.8,0.3c-0.2,0.2-0.4,0.5-0.4,0.9l-0.4,2.3h-0.9
		l0.8-4.3h0.9l-0.1,0.8C230.3,59.5,230.6,59.3,230.8,59.1z"/>
	<path d="M232.4,60c0.2-0.3,0.5-0.6,0.9-0.8s0.7-0.3,1.1-0.3c0.3,0,0.6,0.1,0.8,0.2c0.2,0.1,0.4,0.3,0.5,0.5l0.1-0.6h0.9l-0.8,4.3
		h-0.9l0.1-0.6c-0.2,0.2-0.4,0.4-0.7,0.5c-0.3,0.1-0.6,0.2-0.9,0.2c-0.3,0-0.6-0.1-0.9-0.2s-0.4-0.4-0.6-0.6
		c-0.1-0.3-0.2-0.6-0.2-0.9c0-0.2,0-0.3,0-0.5C232,60.7,232.2,60.3,232.4,60z M235.5,60.8c0-0.3-0.1-0.6-0.3-0.8
		c-0.2-0.2-0.5-0.3-0.8-0.3c-0.2,0-0.5,0.1-0.7,0.2c-0.2,0.1-0.4,0.3-0.6,0.5c-0.2,0.2-0.3,0.5-0.3,0.8c0,0.1,0,0.2,0,0.3
		c0,0.4,0.1,0.6,0.3,0.8c0.2,0.2,0.5,0.3,0.8,0.3c0.2,0,0.5-0.1,0.7-0.2c0.2-0.1,0.4-0.3,0.6-0.5c0.2-0.2,0.3-0.5,0.3-0.8
		C235.5,61,235.5,60.9,235.5,60.8z"/>
	<path d="M239.2,57.5l-1,5.8h-0.9l1-5.8H239.2z"/>
	<path d="M246.2,60.2c-0.2,0.2-0.4,0.4-0.7,0.6c-0.3,0.2-0.7,0.2-1.1,0.2h-1l-0.4,2.2h-0.9l1-5.4h1.9c0.5,0,1,0.1,1.2,0.4
		c0.3,0.2,0.4,0.6,0.4,0.9c0,0.1,0,0.2,0,0.3C246.5,59.7,246.4,60,246.2,60.2z M245.3,60.1c0.2-0.2,0.3-0.4,0.4-0.7
		c0-0.1,0-0.2,0-0.2c0-0.2-0.1-0.4-0.2-0.5c-0.1-0.1-0.4-0.2-0.6-0.2h-1l-0.3,1.8h1C244.8,60.4,245.1,60.3,245.3,60.1z"/>
	<path d="M247.5,60c0.2-0.3,0.5-0.6,0.9-0.8c0.3-0.2,0.7-0.3,1.1-0.3c0.3,0,0.6,0.1,0.8,0.2s0.4,0.3,0.5,0.5l0.1-0.6h0.9l-0.8,4.3
		h-0.9l0.1-0.6c-0.2,0.2-0.4,0.4-0.7,0.5c-0.3,0.1-0.6,0.2-0.9,0.2c-0.3,0-0.6-0.1-0.9-0.2c-0.3-0.1-0.4-0.4-0.6-0.6
		c-0.1-0.3-0.2-0.6-0.2-0.9c0-0.2,0-0.3,0-0.5C247.1,60.7,247.2,60.3,247.5,60z M250.5,60.8c0-0.3-0.1-0.6-0.3-0.8
		c-0.2-0.2-0.5-0.3-0.8-0.3c-0.2,0-0.5,0.1-0.7,0.2c-0.2,0.1-0.4,0.3-0.6,0.5c-0.2,0.2-0.3,0.5-0.3,0.8c0,0.1,0,0.2,0,0.3
		c0,0.4,0.1,0.6,0.3,0.8c0.2,0.2,0.5,0.3,0.8,0.3c0.2,0,0.5-0.1,0.7-0.2c0.2-0.1,0.4-0.3,0.6-0.5c0.2-0.2,0.3-0.5,0.3-0.8
		C250.5,61,250.5,60.9,250.5,60.8z"/>
	<path d="M254.5,59.1c0.2-0.1,0.5-0.2,0.8-0.2l-0.2,0.9h-0.2c-0.3,0-0.6,0.1-0.8,0.3c-0.2,0.2-0.4,0.5-0.4,0.9l-0.4,2.3h-0.9
		l0.8-4.3h0.9l-0.1,0.8C254,59.5,254.3,59.3,254.5,59.1z"/>
	<path d="M257.6,61.1l1.6,2.1H258l-1.3-1.8l-0.3,1.8h-0.9l1-5.8h0.9l-0.6,3.3l1.9-1.9h1.2L257.6,61.1z"/>
</g>
<path d="M262.7,36.7c-0.3-1.3-2.2-2.9-3.3-2.7c-4.5,0.6-8.8,1.9-12.9,3.6c-1.1,0.5-1.7,1.1-1.9,2.1c-0.1,0.9-0.3,1.8-0.5,2.8
	c-2.2-0.8-3.3-2.2-2.9-3.6c0.3-1.1,2.1-2.2,4-2.3c0.6,0,1.2-0.2,1.8-0.4c1.3-0.4,2.6-1,4-1.2c2.9-0.6,3.4-1.4,2-3.5
	c0.3-0.3,0.5-0.6,0.9-0.9c2.6-2,2.5-3.1-0.7-5c-0.2-0.1-0.3-0.2-0.5-0.3c-1.1-0.9-2-0.8-3.3-0.1c-1.3,0.8-2.9,1.6-4.5,1.7
	c-1.2,0.1-1.9,0.5-2.3,1.3c-1.2,2-0.4,3.9,0.6,5.8c0.4,0.7,0.5,1.1-0.3,1.7c-0.9,0.6-1.7,1.3-2.4,2.1c-2.6,2.7-2,6.1,1.3,8
	c2.8,1.6,4,1.5,5.5-0.5c1,1.6,2.4,1.1,4,0.6c1.6-0.6,3.4-1.1,5.1-1.3c1.5-0.2,2.4-0.7,3.1-1.7c0.6-0.9,1.4-1.8,2.1-2.7
	C262.4,39.2,263,38,262.7,36.7z M249.4,28.8c1,0.7-1.6,1.6-1.9,1.6c-0.5,0-0.8-1-0.7-1.1c0.5-0.1,1-0.3,1.5-0.4
	c0.2-0.1,0.7-0.3,0.9-0.2C249.3,28.7,249.3,28.7,249.4,28.8z M248.3,42.3c-0.7,0.2-1.1,1.1-1.9,2c-0.3-1.3-0.6-2.4-0.8-3.5
	c0-0.2,0.3-0.6,0.6-0.7c1.6-0.5,3.2-0.9,4.8-1.4C250.9,40.3,250.4,41.6,248.3,42.3z M258.6,36.8c-0.5,1-0.9,2.2-1.6,3.4
	c-0.4,0.7-1.3,0.7-2,0.1c-0.5-0.6-1-1.2-1.6-1.7c-1-0.8-0.8-1.5,0.4-2c1-0.4,2.1-0.9,3.2-1.2C258,35.2,258.7,35.7,258.6,36.8z"/>
</svg>
