<svg width="292" height="54" viewBox="0 0 292 54" fill="none" xmlns="http://www.w3.org/2000/svg">
  <g clip-path="url(#clip0_1053_20917)">
    <path
      d="M112.379 1.12192C112.379 0.75794 112.219 0.393963 111.919 0.201864C111.448 -0.11156 110.838 0.0299866 110.528 0.464737L76.103 48.7321C75.9429 48.9545 75.6027 48.8433 75.6027 48.5703V1.13203C75.6027 0.768051 75.4425 0.404074 75.1423 0.211975C74.672 -0.10145 74.0615 0.0299866 73.7513 0.474847L39.3266 48.7422C39.1665 48.9646 38.8262 48.8534 38.8262 48.5804V1.12192C38.8262 0.75794 38.6661 0.393963 38.3659 0.201864C37.8955 -0.10145 37.2851 0.0299866 36.9749 0.464737L2.54012 48.7321C2.38 48.9545 2.03976 48.8433 2.03976 48.5703V1.03092C2.03976 1.03092 2.03976 0.939929 2.03976 0.899487C2.03976 0.848934 2.03976 0.788272 2.03976 0.737719C2.03976 0.666946 2.01974 0.596173 2.00973 0.525399C1.98972 0.464737 1.96971 0.404074 1.92968 0.333301C1.90966 0.292859 1.87964 0.252417 1.83961 0.211975C1.79958 0.171533 1.74955 0.141202 1.70952 0.120981C1.63947 0.0805389 1.57943 0.060318 1.51938 0.040097C1.44933 0.0198761 1.37928 0.00976562 1.30923 0.00976562C1.2592 0.00976562 1.19915 0.00976562 1.14912 0.00976562C1.10909 0.00976562 1.05905 0.00976562 1.01902 0.00976562C0.978994 0.00976562 0.928958 0.00976562 0.888929 0.00976562C0.838893 0.00976562 0.77885 0.00976562 0.728814 0.00976562C0.658763 0.00976562 0.588713 0.0299866 0.518663 0.040097C0.458619 0.060318 0.398576 0.0805389 0.328526 0.120981C0.288497 0.141202 0.248468 0.171533 0.20844 0.211975C0.168411 0.252417 0.138389 0.302969 0.108368 0.333301C0.0683388 0.404074 0.0483244 0.464737 0.02831 0.525399C0.00829564 0.596173 -0.00171155 0.666946 -0.0117188 0.737719C-0.0117188 0.788272 -0.0117188 0.848934 -0.0117188 0.899487C-0.0117188 0.939929 -0.0117188 0.990481 -0.0117188 1.03092V52.5842C-0.0117188 52.9482 0.148396 53.302 0.448612 53.5042C0.91895 53.8076 1.52939 53.6761 1.83961 53.2414L36.2744 4.974C36.4345 4.75157 36.7747 4.86279 36.7747 5.13577V52.5741C36.7747 52.9684 36.9649 53.3526 37.3051 53.5346C37.4652 53.6256 37.6354 53.666 37.7955 53.666C38.1157 53.666 38.4259 53.5144 38.6261 53.2414L73.0508 4.974C73.2109 4.75157 73.5512 4.86279 73.5512 5.13577V52.5741C73.5512 52.9684 73.7413 53.3526 74.0816 53.5346C74.2417 53.6256 74.4118 53.666 74.5719 53.666C74.8921 53.666 75.2024 53.5144 75.4025 53.2414L109.837 4.974C109.997 4.75157 110.338 4.86279 110.338 5.13577V52.6752C110.338 52.6752 110.338 52.7662 110.338 52.8066C110.338 52.8572 110.338 52.9178 110.338 52.9684C110.338 53.0392 110.358 53.1099 110.368 53.1807C110.388 53.2414 110.408 53.302 110.448 53.3728C110.468 53.4133 110.498 53.4537 110.538 53.4941C110.578 53.5346 110.628 53.5649 110.668 53.5851C110.738 53.6256 110.798 53.6458 110.858 53.666C110.928 53.6862 110.998 53.6963 111.068 53.6963C111.118 53.6963 111.178 53.6963 111.228 53.6963C111.268 53.6963 111.318 53.6963 111.358 53.6963C111.398 53.6963 111.448 53.6963 111.488 53.6963C111.539 53.6963 111.599 53.6963 111.649 53.6963C111.719 53.6963 111.789 53.6761 111.859 53.666C111.919 53.6458 111.979 53.6256 112.049 53.5851C112.089 53.5649 112.129 53.5346 112.169 53.4941C112.209 53.4537 112.239 53.4031 112.269 53.3728C112.309 53.302 112.329 53.2414 112.349 53.1807C112.369 53.1099 112.379 53.0392 112.389 52.9684C112.389 52.9178 112.389 52.8572 112.389 52.8066C112.389 52.7662 112.389 52.7156 112.389 52.6752V1.12192H112.379Z"
      fill="black" />
    <path
      d="M153.599 33.3339H152.378V31.5747H151.507V33.3339H150.406V33.9911H151.507V39.0969H152.378V33.9911H153.599V33.3339Z"
      fill="black" />
    <path
      d="M157.302 39.2285C158.132 39.2285 158.853 38.8038 159.233 38.1062L159.353 37.8838L159.483 39.097H160.334L160.254 38.2275C160.224 37.995 160.214 37.7928 160.214 37.5805V33.3341H159.333V34.426L159.183 34.1732C158.813 33.5363 158.162 33.2026 157.302 33.2026C155.78 33.2026 154.68 34.4664 154.68 36.2156C154.68 37.9647 155.76 39.2285 157.302 39.2285ZM157.452 33.88C158.592 33.88 159.303 34.7698 159.303 36.2156C159.303 37.6614 158.592 38.5511 157.452 38.5511C156.311 38.5511 155.6 37.6614 155.6 36.2156C155.6 34.7698 156.311 33.88 157.452 33.88Z"
      fill="black" />
    <path d="M163.307 31.0894H162.367V32.1307H163.307V31.0894Z" fill="black" />
    <path d="M163.298 33.334H162.398V39.0969H163.298V33.334Z" fill="black" />
    <path
      d="M169.714 37.3882C169.504 38.1364 168.963 38.5307 168.143 38.5307C166.952 38.5307 166.211 37.641 166.211 36.2053C166.211 34.7696 166.952 33.8799 168.143 33.8799C168.903 33.8799 169.484 34.2944 169.714 35.0022H170.585C170.304 33.8496 169.424 33.1924 168.143 33.1924C166.412 33.1924 165.301 34.3753 165.301 36.2053C165.301 38.4296 166.762 39.2182 168.133 39.2182C169.424 39.2182 170.314 38.5509 170.585 37.3882H169.714Z"
      fill="black" />
    <path
      d="M175.005 33.8699C175.675 33.8699 176.116 34.1732 176.296 34.7495C176.386 35.063 176.386 35.3663 176.386 35.7505V39.0869H177.286V35.6797C177.286 35.2247 177.266 34.9214 177.226 34.6788C177.036 33.7183 176.346 33.1824 175.275 33.1824C174.454 33.1824 173.864 33.4958 173.424 34.1834L173.283 34.4058V31.0693H172.383V39.0768H173.283V36.0942C173.283 35.4371 173.424 34.9012 173.704 34.517C174.024 34.0924 174.484 33.8497 175.005 33.8497V33.8699Z"
      fill="black" />
    <path
      d="M181.371 39.2285C182.181 39.2285 182.702 38.9454 183.142 38.2984L183.282 38.086V39.1072H184.163V33.3442H183.262V36.347C183.262 37.0548 183.132 37.5704 182.862 37.9647C182.572 38.3691 182.131 38.5714 181.591 38.5714C180.951 38.5714 180.52 38.2883 180.36 37.7625C180.26 37.439 180.26 37.0143 180.26 36.5594V33.3442H179.359V36.4987C179.359 36.9739 179.359 37.4188 179.409 37.7625C179.6 38.9859 180.58 39.2386 181.371 39.2386V39.2285Z"
      fill="black" />
    <path
      d="M188.997 33.8701C189.667 33.8701 190.108 34.1734 190.288 34.7497C190.378 35.0632 190.378 35.3665 190.378 35.7507V39.0871H191.279V35.6799C191.279 35.2452 191.279 34.9216 191.228 34.679C191.038 33.7185 190.348 33.1826 189.267 33.1826C188.436 33.1826 187.836 33.4758 187.396 34.1128L187.256 34.315V33.3039H186.375V39.0669H187.276V36.0641C187.276 35.3766 187.406 34.8508 187.676 34.4869C187.966 34.0723 188.436 33.8398 188.997 33.8398V33.8701Z"
      fill="black" />
    <path
      d="M198.384 37.8231V33.3037H197.503V34.4058L197.363 34.1631C196.993 33.5464 196.312 33.2026 195.492 33.2026C194.01 33.2026 192.93 34.4058 192.93 36.074C192.93 37.7422 193.98 38.9555 195.492 38.9555C196.302 38.9555 196.963 38.5915 197.343 37.9141L197.493 37.6614V38.5511C197.493 39.916 196.933 40.5833 195.792 40.5833C194.901 40.5833 194.311 40.1687 194.151 39.4408H193.25C193.41 40.5732 194.351 41.2607 195.742 41.2607C196.913 41.2607 197.763 40.7754 198.133 39.8958C198.314 39.4711 198.394 38.8241 198.394 37.813L198.384 37.8231ZM195.652 38.2882C194.571 38.2882 193.84 37.4086 193.84 36.0841C193.84 34.7596 194.571 33.8901 195.652 33.8901C196.732 33.8901 197.463 34.7293 197.463 36.0841C197.463 37.4389 196.752 38.2882 195.652 38.2882Z"
      fill="black" />
    <path
      d="M152.95 54C153.781 54 154.501 53.5753 154.881 52.8777L155.001 52.6553L155.132 53.8685H155.982L155.902 52.999C155.872 52.7665 155.862 52.5643 155.862 52.352V48.1056H154.981V49.1975L154.831 48.9447C154.461 48.3078 153.811 47.9741 152.95 47.9741C151.429 47.9741 150.328 49.2379 150.328 50.987C150.328 52.7362 151.409 54 152.95 54ZM153.1 48.6515C154.241 48.6515 154.951 49.5412 154.951 50.987C154.951 52.4328 154.241 53.3226 153.1 53.3226C151.959 53.3226 151.249 52.4328 151.249 50.987C151.249 49.5412 151.959 48.6515 153.1 48.6515Z"
      fill="black" />
    <path
      d="M159.503 49.0558C159.753 48.9142 159.983 48.9041 160.314 48.9041H160.924V48.0649H160.694C160.153 48.0649 159.883 48.1155 159.643 48.257C159.333 48.4289 159.073 48.7322 158.923 49.0659L158.772 49.4096V48.1054H157.922V53.8683H158.823V50.7644C158.823 49.6523 159.193 49.2175 159.513 49.0558H159.503Z"
      fill="black" />
    <path
      d="M165.38 48.1054H164.159V46.3462H163.288V48.1054H162.188V48.7626H163.288V53.8684H164.159V48.7626H165.38V48.1054Z"
      fill="black" />
    <path
      d="M178.61 49.3289C178.42 48.4796 177.709 47.9741 176.719 47.9741C175.858 47.9741 175.178 48.3381 174.747 49.0256L174.667 49.157L174.607 49.0155C174.327 48.3482 173.697 47.9741 172.836 47.9741C172.035 47.9741 171.395 48.3078 171.025 48.9245L170.885 49.1672V48.1056H170.004V53.8685H170.905V50.7242C170.905 50.3905 170.955 50.0973 171.045 49.7839C171.275 49.0559 171.795 48.6515 172.506 48.6515C173.426 48.6515 173.897 49.1975 173.897 50.2692V53.8685H174.777V50.7242C174.777 50.3299 174.817 50.0265 174.887 49.7839C175.118 49.0661 175.648 48.6515 176.348 48.6515C177.289 48.6515 177.769 49.1975 177.769 50.2692V53.8685H178.67V50.3501C178.67 49.9962 178.67 49.6828 178.6 49.3188L178.61 49.3289Z"
      fill="black" />
    <path
      d="M182.672 54C183.482 54 184.003 53.7169 184.443 53.0699L184.583 52.8575V53.8787H185.464V48.1157H184.563V51.1185C184.563 51.8263 184.433 52.3419 184.163 52.7362C183.872 53.1406 183.432 53.3428 182.892 53.3428C182.251 53.3428 181.821 53.0597 181.661 52.534C181.561 52.2105 181.561 51.7858 181.561 51.3309V48.1157H180.66V51.2702C180.66 51.7454 180.66 52.1902 180.71 52.534C180.9 53.7574 181.881 54.0101 182.672 54.0101V54Z"
      fill="black" />
    <path
      d="M189.696 53.9898C191.077 53.9898 192.008 53.2316 192.008 52.0992C192.008 51.2398 191.478 50.7747 190.327 50.6231L189.356 50.4916C188.806 50.4209 188.245 50.2591 188.245 49.6221C188.245 48.9852 188.746 48.6313 189.566 48.6313C190.507 48.6313 190.987 49.1975 191.057 49.7738H191.918C191.828 48.6616 190.947 47.9741 189.586 47.9741C188.225 47.9741 187.395 48.6819 187.395 49.7435C187.395 50.2085 187.575 50.6028 187.905 50.8455C188.255 51.0983 188.726 51.2095 189.426 51.3005L190.007 51.3813C190.567 51.4521 191.137 51.533 191.137 52.2104C191.137 52.8878 190.577 53.3428 189.716 53.3428C189.016 53.3428 188.255 53.0294 188.155 52.1497H187.305C187.385 53.3124 188.275 54.0101 189.686 54.0101L189.696 53.9898Z"
      fill="black" />
    <path
      d="M196.27 47.974C194.548 47.974 193.438 49.1468 193.438 50.9667C193.438 52.7866 194.528 53.9998 196.219 53.9998C197.54 53.9998 198.511 53.2921 198.781 52.1395H197.931C197.711 52.8776 197.08 53.3123 196.26 53.3123C195.119 53.3123 194.378 52.4934 194.328 51.1689V51.088H198.961C198.991 50.1174 198.721 49.2782 198.201 48.7222C197.731 48.2267 197.06 47.9639 196.26 47.9639L196.27 47.974ZM194.358 50.4409L194.378 50.3499C194.618 48.9446 195.509 48.6514 196.209 48.6514C197.24 48.6514 197.911 49.2883 198.001 50.3601V50.4409H194.358Z"
      fill="black" />
    <path
      d="M202.656 54C203.467 54 203.987 53.7169 204.427 53.0699L204.567 52.8575V53.8787H205.448V48.1157H204.547V51.1185C204.547 51.8263 204.417 52.3419 204.147 52.7362C203.857 53.1406 203.417 53.3428 202.876 53.3428C202.236 53.3428 201.805 53.0597 201.645 52.534C201.545 52.2105 201.545 51.7858 201.545 51.3309V48.1157H200.645V51.2702C200.645 51.7454 200.645 52.1902 200.695 52.534C200.885 53.7574 201.865 54.0101 202.656 54.0101V54Z"
      fill="black" />
    <path
      d="M214.015 48.6514C214.955 48.6514 215.436 49.1973 215.436 50.2691V53.8684H216.336V50.3499C216.336 49.9961 216.336 49.6826 216.266 49.3187C216.076 48.4694 215.366 47.9639 214.375 47.9639C213.514 47.9639 212.834 48.3278 212.404 49.0154L212.324 49.1468L212.263 49.0052C211.983 48.338 211.353 47.9639 210.492 47.9639C209.692 47.9639 209.051 48.2975 208.681 48.9143L208.541 49.1569V48.0953H207.66V53.8583H208.561V50.7139C208.561 50.3803 208.611 50.0871 208.701 49.7736C208.931 49.0457 209.451 48.6413 210.162 48.6413C211.083 48.6413 211.553 49.1872 211.553 50.2589V53.8583H212.434V50.7139C212.434 50.3095 212.474 50.0163 212.544 49.7736C212.774 49.0558 213.304 48.6413 214.005 48.6413L214.015 48.6514Z"
      fill="black" />
    <path
      d="M241.523 12.8101H235.369V11.9507H241.773C241.893 11.3846 241.963 10.7375 241.983 10.0298H235.018V9.17036H242.003V7.3707H236.549V6.51131H242.003V4.71165H235.779V3.85226H239.011L238.291 2.23458L239.171 1.88072L239.962 3.86237H244.985L245.816 1.87061L246.697 2.20425L245.936 3.86237H249.218V4.72176H242.934V6.52142H248.438V7.38081H242.934V9.18047H249.969V10.0399H242.894C242.874 10.7375 242.824 11.3744 242.714 11.9609H249.599V12.8202H242.504C241.573 15.8332 239.041 17.0767 235.198 17.7744L234.828 16.8846C238.371 16.187 240.612 15.3175 241.513 12.8202L241.523 12.8101ZM243.134 14.4885L243.554 13.7201C245.706 14.7311 247.898 15.823 250.149 17.0363L249.639 17.835C247.417 16.6218 245.246 15.4995 243.124 14.4885H243.134Z"
      fill="black" />
    <path
      d="M259.385 5.61139L260.075 6.0967C259.755 6.88531 259.245 7.72448 258.664 8.50299V17.8653H257.734V9.68591C257.293 10.1813 256.833 10.6464 256.393 11.0407L255.902 10.2218C257.984 8.38166 258.915 6.71343 259.395 5.6215L259.385 5.61139ZM258.905 2.05251L259.595 2.58836C259.065 3.61963 258.204 4.9441 256.893 6.07647L256.363 5.28786C257.584 4.21615 258.404 2.99278 258.905 2.0424V2.05251ZM261.096 8.19967L261.977 8.31089C261.957 9.03884 261.656 13.1942 260.796 15.9544L259.915 15.6309C260.696 13.2246 261.076 9.27138 261.096 8.19967ZM260.636 5.34852H263.208V1.83008H264.138V5.33841H265.849L265.619 3.51853H266.48L266.83 6.18769H264.128V17.8451H263.198V6.1978H260.626V5.33841L260.636 5.34852ZM266.24 8.08846C266.36 8.87707 267.02 13.629 267.17 15.3276L266.24 15.4388C266.1 13.9727 265.499 8.98829 265.379 8.26033L266.24 8.09857V8.08846ZM267.07 7.57282H271.644V8.43221H270.073C270.283 11.5665 270.263 14.7411 269.982 17.8653H269.052C269.332 14.7411 269.352 11.5766 269.142 8.43221H267.08V7.57282H267.07ZM267.391 2.88157H271.323V3.74096H267.391V2.88157Z"
      fill="black" />
    <path
      d="M280.581 2.19379L283.633 4.65064L283.143 5.46958L280.691 3.43738C279.69 4.70119 278.799 5.61113 277.158 6.75361L276.668 5.95489C278.489 4.74163 279.49 3.61937 280.581 2.19379ZM277.889 6.86483H280.13V5.20671H281.051V6.86483H283.153V12.9614H278.83V16.5608L282.292 15.8126L282.012 14.0635L282.872 13.9017L283.293 16.5405L277.889 17.7336V6.86483ZM282.212 9.48344V7.71411H278.83V9.48344H282.212ZM282.212 12.1021V10.3226H278.83V12.1021H282.212ZM284.023 3.78114H287.556V2.05225H288.486V3.78114H291.999V6.58174H291.078V4.64053H284.944V6.58174H284.023V3.78114ZM284.924 6.77383H291.048V10.9292H285.865V12.8199H291.669V17.5111H284.934V6.77383H284.924ZM290.108 10.0698V7.62311H285.855V10.0698H290.108ZM290.728 16.6416V13.6692H285.855V16.6416H290.728Z"
      fill="black" />
    <path
      d="M149.656 16.3081H156.982V14.9533H151.618V14.2051H156.982V13.0626C155.27 13.1031 153.569 13.1334 151.858 13.1334V12.365H153.759L154.53 11.1214H151.818V10.4137H163.046V11.1214H160.864L162.806 12.9919L162.115 13.5075L161.535 12.9413C160.324 12.9919 159.123 13.0323 157.912 13.0525V14.2051H163.266V14.9533H157.912V16.3081H165.237V17.0765H149.656V16.3081ZM149.866 8.78591H165.007V11.1113H164.077V9.49365H150.807V11.1113H149.876V8.78591H149.866ZM150.317 2.29499H156.972V1.40527H157.902V2.29499H164.517V3.00273H157.902V4.03399H163.186V4.74173H151.678V4.03399H156.972V3.00273H150.317V2.29499ZM152.118 5.64156H162.746V7.89619H152.118V5.64156ZM153.049 7.20868H161.815V6.33918H153.049V7.20868ZM160.844 12.274L159.663 11.1315H155.54L154.77 12.3751C156.791 12.3549 158.823 12.3246 160.844 12.2639V12.274Z"
      fill="black" />
    <path
      d="M179.509 4.89344H186.114V11.4349H179.509V17.6731H178.538V11.4349H171.934V4.89344H178.538V1.375H179.509V4.89344ZM178.538 10.5654V5.76294H172.904V10.5654H178.538ZM185.143 10.5654V5.76294H179.509V10.5654H185.143Z"
      fill="black" />
    <path
      d="M213.08 16.136H222.317C223.017 12.7389 223.658 9.38226 224.178 5.99525L225.109 6.20757C224.579 9.55414 223.968 12.8198 223.278 16.136H228.491V16.9853H213.07V16.136H213.08ZM213.671 4.23603H220.275V1.49609H221.206V4.23603H227.891V5.08531H213.671V4.23603ZM217.353 6.11658C217.884 9.08905 218.304 12.0009 218.674 14.9733L217.744 15.1857C217.393 12.2536 216.953 9.28115 216.423 6.36934L217.353 6.11658Z"
      fill="black" />
    <path
      d="M205.727 15.7825H204.796C205.027 13.3054 205.057 10.6059 204.906 8.0581H200.573V17.6529H199.603V8.06821H195.129V15.7926H194.199V7.20882H199.603V4.72165H192.438V3.86226H199.603V1.41553H200.573V3.87237H207.759V4.73176H200.573V7.21894H205.767C205.997 10.0094 205.997 13.0325 205.737 15.7926L205.727 15.7825Z"
      fill="black" />
  </g>
  <defs>
    <clipPath id="clip0_1053_20917">
      <rect width="292" height="54" fill="white" />
    </clipPath>
  </defs>
</svg>
