<svg width="156" height="56" viewBox="0 0 156 56" fill="none" xmlns="http://www.w3.org/2000/svg">
<g clip-path="url(#clip0_735_6335)">
<path fill-rule="evenodd" clip-rule="evenodd" d="M25.7316 4.90812C23.2851 7.41767 19.3757 11.1883 19.3757 11.1883C19.3757 11.1883 21.1917 14.3284 23.7012 16.5605C20.5611 14.6058 19.5145 13.8366 19.5145 13.8366L3.59961 29.8271C3.59961 29.8271 10.4347 42.2487 27.3332 53.6993C41.0915 41.6939 50.928 30.1802 50.928 30.1802C50.928 30.1802 46.6025 27.8472 44.4334 26.0691C42.8318 24.7449 39.6917 21.5292 39.6917 21.5292L27.3332 33.8878L27.3079 33.913L27.2701 33.9508L23.0833 30.3946L20.1576 26.5483L20.0945 26.4726C20.0945 26.4726 23.0329 28.566 27.4214 29.8271C32.7306 24.7954 41.4573 15.5138 41.4573 15.5138C41.4573 15.5138 34.824 14.1645 31.6082 12.0206C29.5148 10.6208 26.6522 7.06457 25.7442 4.89551L25.7316 4.90812Z" fill="#E00012"/>
<path fill-rule="evenodd" clip-rule="evenodd" d="M131.776 20.2045C131.486 20.0154 131.461 19.5866 131.738 19.3596C132.936 18.3759 136.177 16.2321 140.439 17.4427C145.862 18.9813 146.581 18.2877 146.581 18.2877C146.581 18.2877 137.489 23.9878 131.776 20.2045V20.2045Z" fill="#00803C"/>
<path fill-rule="evenodd" clip-rule="evenodd" d="M126.946 17.1027C128.396 15.3498 129.519 13.3825 130.073 11.0747L124.045 7.94727C123.364 10.1037 122.33 12.1214 120.918 13.9752L126.946 17.1027V17.1027Z" fill="#ED921B"/>
<path fill-rule="evenodd" clip-rule="evenodd" d="M135.685 7.50567C136.429 6.61031 136.997 5.60144 137.287 4.41603L134.197 2.81445C133.844 3.91159 133.327 4.94568 132.596 5.9041L135.685 7.50567Z" fill="#AE813B"/>
<path fill-rule="evenodd" clip-rule="evenodd" d="M124.701 5.05921C125.18 6.57251 126.807 7.41743 128.321 6.93822C129.834 6.45901 130.679 4.83221 130.2 3.31892C129.72 1.80562 128.094 0.960698 126.58 1.43991C125.067 1.91912 124.222 3.54591 124.701 5.05921V5.05921Z" fill="#E45513"/>
<path fill-rule="evenodd" clip-rule="evenodd" d="M129.115 18.5152C129.115 18.5152 133.176 10.3686 139.897 7.10237C146.619 3.83618 154.047 3.92445 154.387 7.60681C154.942 13.5969 138.762 10.7217 129.115 18.5152Z" fill="#61A531"/>
<path d="M64.9385 9.15723H67.7886L64.3458 15.0591V19.6116H61.8615V15.0591L58.444 9.15723H61.2562L63.0721 12.6252H63.1352L64.9259 9.15723H64.9385Z" fill="#B7771A"/>
<path d="M68.6714 17.6695V9.15723H75.4812V11.3515H71.0801V13.3566H74.548V15.5257H71.0801V17.102C71.0801 17.2786 71.2188 17.4299 71.4079 17.4299H75.7965V19.6242H70.6135C69.5415 19.6242 68.684 18.7541 68.684 17.6947L68.6714 17.6695Z" fill="#B7771A"/>
<path d="M80.4246 19.7503C78.9617 19.7503 77.6754 19.1954 76.5657 18.073L78.0285 16.2823C78.7978 17.1146 79.6175 17.5308 80.4876 17.5308C81.2695 17.5308 81.6604 17.2407 81.6604 16.6732C81.6604 16.3832 81.5469 16.1688 81.3326 16.0049C81.1182 15.8409 80.702 15.6644 80.0967 15.45C79.6301 15.2987 79.2266 15.1347 78.9113 14.9834C78.596 14.8321 78.2681 14.6177 77.9276 14.3528C77.5998 14.088 77.3475 13.7727 77.171 13.407C77.0071 13.0287 76.9188 12.5999 76.9188 12.1081C76.9188 11.2506 77.2467 10.5192 77.915 9.92645C78.5834 9.33374 79.3905 9.03108 80.3363 9.00586C81.6604 9.00586 82.8711 9.44724 83.9682 10.3804L82.5684 12.209C81.7361 11.5406 81.0173 11.2128 80.4246 11.2128C80.1345 11.2128 79.8949 11.2884 79.731 11.4397C79.5544 11.5911 79.4788 11.7802 79.4788 12.0325C79.4788 12.2594 79.567 12.4486 79.7814 12.6126C79.9958 12.7639 80.3994 12.9657 80.9921 13.1926C81.3073 13.3061 81.5091 13.3818 81.5974 13.4196C81.6857 13.4575 81.8622 13.5331 82.1396 13.6466C82.4045 13.7601 82.581 13.8484 82.6693 13.8989C82.7576 13.9493 82.8963 14.0376 83.0981 14.1637C83.2998 14.2898 83.4386 14.3907 83.5016 14.4789C83.5647 14.5672 83.6656 14.6933 83.7917 14.8447C83.9178 14.996 84.006 15.1473 84.0439 15.2987C84.0943 15.45 84.1322 15.6139 84.17 15.8157C84.2078 16.0175 84.233 16.2192 84.233 16.4462C84.233 16.9128 84.1574 17.3416 83.9934 17.7325C83.8421 18.1235 83.6277 18.4387 83.3755 18.691C83.1233 18.9432 82.8206 19.1576 82.4801 19.3215C82.1396 19.4981 81.7992 19.6115 81.4587 19.6872C81.1182 19.7629 80.7651 19.8007 80.412 19.8007L80.4246 19.7503Z" fill="#B7771A"/>
<path d="M86.6795 19.7506C86.3012 19.7506 85.9733 19.6119 85.7085 19.3471C85.4437 19.0822 85.3049 18.767 85.3049 18.3886C85.3049 18.0103 85.4437 17.7077 85.7085 17.4428C85.9733 17.178 86.3012 17.0393 86.6795 17.0393C87.0452 17.0393 87.3605 17.178 87.6253 17.4428C87.8901 17.7077 88.0289 18.0229 88.0289 18.3886C88.0289 18.7544 87.8901 19.0822 87.6253 19.3471C87.3605 19.6119 87.0452 19.7506 86.6669 19.7506H86.6795ZM85.8724 15.9926L85.4689 8.7666H87.9406L87.537 15.9926H85.8598H85.8724Z" fill="#B7771A"/>
<path d="M89.7314 17.6695V9.15723H92.2032V17.0894C92.2032 17.266 92.3419 17.4173 92.531 17.4173H96.5917V19.6116H91.6735C90.6016 19.6116 89.744 18.7414 89.744 17.6821L89.7314 17.6695Z" fill="#B7771A"/>
<path d="M97.8779 19.599V9.15723H100.362V19.599H97.8779Z" fill="#B7771A"/>
<path d="M102.254 19.599V11.0867C102.254 10.0148 103.124 9.15723 104.183 9.15723H109.316V11.3515H105.003C104.827 11.3515 104.675 11.4902 104.675 11.6794V13.7097H108.496V15.8914H104.675V19.6116H102.241L102.254 19.599Z" fill="#B7771A"/>
<path d="M110.653 17.6695V9.15723H117.463V11.3515H113.061V13.3566H116.529V15.5257H113.061V17.102C113.061 17.2786 113.2 17.4299 113.389 17.4299H117.778V19.6242H112.595C111.523 19.6242 110.665 18.7541 110.665 17.6947L110.653 17.6695Z" fill="#B7771A"/>
<path d="M64.2828 42.4496C65.4177 41.5416 66.1492 40.1544 66.1492 38.5907H63.6775C63.6775 39.3095 63.3748 39.9527 62.883 40.4066V37.2287C64.4341 35.9802 65.4177 34.0634 65.4177 31.9196V25.8916H64.4972C64.4972 25.8916 63.7405 27.5688 61.4327 27.5688H58.0783V30.9864H62.0002V31.9196C62.0002 33.8112 60.4743 35.3371 58.5827 35.3371H57.2964V38.7546H58.5827C58.9736 38.7546 59.3519 38.7168 59.7177 38.6537V48.2001H62.8704V44.8709C63.6522 45.287 64.535 45.514 65.4682 45.514H66.187V42.7396H65.4682C65.0394 42.7396 64.6233 42.6388 64.2575 42.4622L64.2828 42.4496Z" fill="#B7771A"/>
<path d="M107.374 43.6226H112.633V40.9365H107.374V39.0575H113.692V36.3714H107.374V35.249H106.453C106.453 35.249 105.798 36.2453 103.805 36.3714H100.123H98.9499C98.9499 37.9099 97.8401 39.1962 96.3899 39.4736V42.6516C98.6598 42.4372 100.577 41.0248 101.51 39.0575H104.234V40.9365H100.955V43.6226H104.234V45.5016H96.3899V48.1877H114.285V45.5016H107.387V43.6226H107.374Z" fill="#B7771A"/>
<path d="M91.7996 26.6108H87.5371V48.1879H90.6898V43.9255C93.5903 43.358 95.7846 40.8106 95.7846 37.7336V24.9336H94.864C94.864 24.9336 94.1073 26.6108 91.7996 26.6108V26.6108ZM92.6445 37.7336C92.6445 39.0451 91.8374 40.1675 90.7024 40.6467V30.0284H92.6445V37.7336Z" fill="#B7771A"/>
<path d="M140.591 36.3212L139.342 37.6706V24.9463H138.422C138.422 24.9463 137.665 26.6235 135.357 26.6235H125.344V42.0465C125.344 43.7112 124.726 44.4048 123.806 44.9596V48.3519C126.504 47.6331 128.497 45.7037 128.497 42.0592V35.8672H131.334V47.6584H134.487L137.06 44.8714C138.233 46.9521 140.452 48.3646 143.012 48.3646H143.933V44.947H143.012C141.31 44.947 139.897 43.6986 139.645 42.0718L143.933 37.4436V32.2227H140.591V36.3338V36.3212ZM136.19 41.0503L134.487 42.8789V32.4371H128.497V30.0411H136.19V41.0629V41.0503Z" fill="#B7771A"/>
<path d="M143.037 24.9336C143.037 24.9336 142.306 26.6108 140.591 26.6108V30.1671H143.933V24.9336H143.037V24.9336Z" fill="#B7771A"/>
<path d="M100.816 30.1413L103.755 32.0077L98.4076 35.4505H103.465L106.289 33.6219L109.152 35.4505H114.272L108.837 31.9825L113.011 29.2964V26.6103H101.901V25.7275H98.7481V26.6103C98.7481 27.7579 98.1302 28.7667 97.2096 29.309V32.7013C98.6977 32.3104 99.9714 31.3772 100.816 30.1287V30.1413ZM107.954 29.2964L106.289 30.3683L104.612 29.2964H107.954V29.2964Z" fill="#B7771A"/>
<path d="M67.6372 40.3437V48.2003H82.745V38.5908H67.6372V40.3437V40.3437ZM70.6638 41.8949H79.7184V44.8962H70.6638V41.8949Z" fill="#B7771A"/>
<path d="M61.3066 26.8377L63.0722 25.0722C62.366 24.5803 61.7859 23.9876 61.3066 23.3066L59.5411 25.0722C59.9951 25.8162 60.6004 26.3837 61.3066 26.8377Z" fill="#B7771A"/>
<path d="M79.1383 31.5159C80.1345 32.0708 81.2695 32.3986 82.4927 32.3986V28.9811C80.8659 28.9811 79.504 27.8335 79.1635 26.3076H75.7081C75.9099 28.1614 76.8557 29.7882 78.2303 30.8979H75.6703C75.6703 34.6686 78.7221 37.7204 82.4927 37.7204H83.9051V34.3029H82.4927C80.8155 34.3029 79.4283 33.0922 79.1383 31.5033V31.5159Z" fill="#B7771A"/>
<path d="M67.8769 37.7331C71.6475 37.7331 74.6993 34.6687 74.6993 30.9106H72.1393C73.5139 29.8009 74.4597 28.1741 74.6615 26.3203H71.2061C70.8656 27.8462 69.5036 28.9938 67.8769 28.9938V32.4113C69.1001 32.4113 70.2477 32.0961 71.2313 31.5286C70.9413 33.1175 69.5541 34.3282 67.8769 34.3282H66.4771V37.7457H67.8895L67.8769 37.7331Z" fill="#B7771A"/>
<path d="M124.298 39.7891L122.469 40.2179V33.055H124.26V30.0284H122.469V27.5566H119.241V30.0284H117.488V33.055H119.241V40.9998L117.172 41.4916V44.9091L124.298 43.194V39.7891Z" fill="#B7771A"/>
</g>
<defs>
<clipPath id="clip0_735_6335">
<rect width="150.8" height="52.3979" fill="white" transform="translate(3.59961 1.30078)"/>
</clipPath>
</defs>
</svg>
